<svg width="330" height="205" viewBox="0 0 330 205" fill="none" xmlns="http://www.w3.org/2000/svg">
<g clip-path="url(#clip0_15446_157890)">
<circle opacity="0.08" cx="240" cy="717" r="625" fill="url(#paint0_linear_15446_157890)"/>
<path opacity="0.1" d="M254.32 -5C257.146 -4.99317 259.971 -4.30389 262.454 -2.84818L341.55 42.7678C346.628 45.6941 349.728 51.0304 349.729 56.8829V148.117C349.728 153.97 346.628 159.306 341.55 162.232L327.472 170.359L327.52 170.492L306.777 182.455L306.732 182.333L298.48 187.097L298.514 187.19L277.772 199.154L277.741 199.071L262.539 207.848C259.957 209.311 257.203 210 254.363 210C251.523 210 248.683 209.311 246.187 207.848L231.055 199.11L231.039 199.155L210.296 187.191L259.356 52.7506C259.387 52.6673 259.422 52.5855 259.459 52.5055C259.483 52.4537 259.511 52.4037 259.537 52.3534C259.553 52.3243 259.566 52.2945 259.583 52.266C259.596 52.2425 259.611 52.2199 259.625 52.1968C259.656 52.1443 259.687 52.0919 259.721 52.0413C259.737 52.0172 259.755 51.9946 259.772 51.9709C259.806 51.9227 259.84 51.8744 259.877 51.8279C259.896 51.8036 259.916 51.7802 259.936 51.7564C259.971 51.7134 260.007 51.6706 260.045 51.6293C260.069 51.6019 260.095 51.5753 260.121 51.5487C260.155 51.5129 260.19 51.4776 260.226 51.4432C260.256 51.4148 260.286 51.3876 260.317 51.3603C260.349 51.3315 260.381 51.3028 260.415 51.2752C260.447 51.2478 260.481 51.2208 260.514 51.1946C260.553 51.1644 260.593 51.1359 260.634 51.1072C260.665 51.0847 260.697 51.0618 260.729 51.0403C260.765 51.0163 260.801 50.9926 260.838 50.9699C260.877 50.9457 260.917 50.9223 260.957 50.8995C260.991 50.88 261.026 50.8612 261.061 50.8428C261.101 50.8218 261.141 50.801 261.182 50.7815C261.194 50.7755 261.207 50.7692 261.219 50.7634L261.389 50.6896C261.397 50.6864 261.405 50.6837 261.413 50.6805C261.476 50.6554 261.541 50.6328 261.605 50.6113C261.621 50.6059 261.637 50.5994 261.653 50.5943C261.716 50.5741 261.78 50.5564 261.845 50.5398C261.868 50.5336 261.892 50.5262 261.916 50.5205C261.967 50.5084 262.019 50.4996 262.07 50.4898C262.107 50.4828 262.144 50.4741 262.182 50.4683C262.267 50.455 262.353 50.4457 262.439 50.4388L262.713 50.4274H282.767V50.3412C282.842 50.3412 282.916 50.3457 282.988 50.3548C284.074 50.4914 284.806 51.622 284.402 52.7517L235.669 186.453L252.901 196.401C253.331 196.659 253.847 196.831 254.363 196.831C254.88 196.831 255.397 196.66 255.827 196.401L273.13 186.411L259.87 150.008C259.838 149.901 259.809 149.793 259.785 149.686C259.736 149.471 259.704 149.257 259.688 149.044C259.664 148.726 259.676 148.412 259.725 148.107C259.757 147.904 259.805 147.705 259.87 147.511L270.284 118.936C270.585 118.162 271.274 117.775 271.962 117.775C272.565 117.775 273.167 118.072 273.51 118.665C273.559 118.749 273.603 118.839 273.641 118.936L293.868 174.438L302.116 169.675L277.428 101.981C277.397 101.877 277.369 101.772 277.345 101.668C277.341 101.649 277.338 101.629 277.334 101.609C277.316 101.527 277.3 101.446 277.287 101.364C277.283 101.336 277.28 101.309 277.276 101.281C277.266 101.207 277.257 101.133 277.251 101.06C277.248 101.024 277.245 100.989 277.243 100.953C277.24 100.895 277.237 100.836 277.236 100.778C277.235 100.731 277.236 100.684 277.236 100.638C277.237 100.576 277.241 100.516 277.244 100.455C277.246 100.42 277.247 100.385 277.25 100.35C277.255 100.294 277.263 100.239 277.27 100.184C277.276 100.14 277.28 100.096 277.287 100.053C277.294 100.016 277.303 99.9805 277.31 99.9442C277.341 99.7885 277.378 99.6343 277.428 99.4845L287.842 70.9105C287.85 70.8901 287.86 70.8703 287.868 70.8504C287.889 70.8015 287.911 70.7542 287.935 70.7085C288.616 69.4085 290.496 69.4289 291.138 70.7709C291.16 70.8162 291.181 70.8634 291.199 70.9117V70.9968L322.851 157.704L334.838 150.784C335.699 150.268 336.301 149.235 336.301 148.202V56.9691C336.301 55.9366 335.785 54.9036 334.838 54.3872L255.827 8.77117C255.397 8.51298 254.88 8.34103 254.363 8.34103V8.25478C253.847 8.25488 253.331 8.42702 252.901 8.68491L173.89 54.3009C173.03 54.8172 172.426 55.8502 172.426 56.8829V148.202C172.426 149.235 172.944 150.268 173.89 150.784L185.941 157.741L224.239 52.7506C224.27 52.6673 224.305 52.5855 224.342 52.5055C224.366 52.4537 224.394 52.4037 224.42 52.3534C224.436 52.3243 224.45 52.2945 224.466 52.266C224.484 52.2336 224.504 52.2024 224.524 52.1707C224.548 52.1314 224.571 52.092 224.596 52.0538C224.621 52.016 224.648 51.9793 224.675 51.9425C224.702 51.9043 224.73 51.8661 224.759 51.829C224.778 51.8043 224.799 51.7806 224.819 51.7564C224.854 51.7134 224.89 51.6706 224.928 51.6293C224.953 51.6019 224.978 51.5753 225.004 51.5487C225.039 51.5121 225.075 51.476 225.112 51.4409C225.137 51.4165 225.164 51.3931 225.19 51.3694C225.226 51.3367 225.262 51.3041 225.3 51.2729C225.334 51.2445 225.369 51.2172 225.404 51.1901C225.441 51.1616 225.479 51.1343 225.517 51.1072C225.548 51.0847 225.58 51.0618 225.612 51.0403C225.648 51.0163 225.684 50.9926 225.721 50.9699C225.76 50.9457 225.8 50.9223 225.84 50.8995C225.875 50.88 225.91 50.8612 225.945 50.8428C225.984 50.8218 226.024 50.801 226.065 50.7815C226.077 50.7755 226.09 50.7692 226.102 50.7634L226.273 50.6896C226.281 50.6861 226.29 50.6828 226.299 50.6794C226.341 50.6625 226.384 50.6469 226.427 50.6317C226.47 50.6165 226.513 50.601 226.556 50.5874C226.602 50.5732 226.649 50.5613 226.695 50.5489C226.73 50.5395 226.764 50.5288 226.799 50.5205C226.85 50.5084 226.902 50.4996 226.954 50.4898C226.991 50.4828 227.027 50.4741 227.065 50.4683C227.15 50.455 227.236 50.4457 227.322 50.4388C227.413 50.4315 227.505 50.4274 227.596 50.4274H247.649L247.735 50.3412C248.94 50.3412 249.801 51.5468 249.371 52.7517L206.682 169.717L206.724 169.741L202.09 182.388L202.062 182.373L202.033 182.457L181.29 170.493L181.323 170.399L167.176 162.232C162.098 159.306 159 153.97 159 148.117V56.8829C159 51.0304 162.098 45.6941 167.176 42.7678L246.187 -2.84818C248.756 -4.30377 251.495 -4.99294 254.32 -5Z" fill="url(#paint1_linear_15446_157890)"/>
<path opacity="0.05" d="M254.32 -5C257.146 -4.99317 259.971 -4.30389 262.454 -2.84818L341.55 42.7678C346.628 45.6941 349.728 51.0304 349.729 56.8829V148.117C349.728 153.97 346.628 159.306 341.55 162.232L327.472 170.359L327.52 170.492L306.777 182.455L306.732 182.333L298.48 187.097L298.514 187.19L277.772 199.154L277.741 199.071L262.539 207.848C259.957 209.311 257.203 210 254.363 210C251.523 210 248.683 209.311 246.187 207.848L231.055 199.11L231.039 199.155L210.296 187.191L259.356 52.7506C259.387 52.6673 259.422 52.5855 259.459 52.5055C259.483 52.4537 259.511 52.4037 259.537 52.3534C259.553 52.3243 259.566 52.2945 259.583 52.266C259.596 52.2425 259.611 52.2199 259.625 52.1968C259.656 52.1443 259.687 52.0919 259.721 52.0413C259.737 52.0172 259.755 51.9946 259.772 51.9709C259.806 51.9227 259.84 51.8744 259.877 51.8279C259.896 51.8036 259.916 51.7802 259.936 51.7564C259.971 51.7134 260.007 51.6706 260.045 51.6293C260.069 51.6019 260.095 51.5753 260.121 51.5487C260.155 51.5129 260.19 51.4776 260.226 51.4432C260.256 51.4148 260.286 51.3876 260.317 51.3603C260.349 51.3315 260.381 51.3028 260.415 51.2752C260.447 51.2478 260.481 51.2208 260.514 51.1946C260.553 51.1644 260.593 51.1359 260.634 51.1072C260.665 51.0847 260.697 51.0618 260.729 51.0403C260.765 51.0163 260.801 50.9926 260.838 50.9699C260.877 50.9457 260.917 50.9223 260.957 50.8995C260.991 50.88 261.026 50.8612 261.061 50.8428C261.101 50.8218 261.141 50.801 261.182 50.7815C261.194 50.7755 261.207 50.7692 261.219 50.7634L261.389 50.6896C261.397 50.6864 261.405 50.6837 261.413 50.6805C261.476 50.6554 261.541 50.6328 261.605 50.6113C261.621 50.6059 261.637 50.5994 261.653 50.5943C261.716 50.5741 261.78 50.5564 261.845 50.5398C261.868 50.5336 261.892 50.5262 261.916 50.5205C261.967 50.5084 262.019 50.4996 262.07 50.4898C262.107 50.4828 262.144 50.4741 262.182 50.4683C262.267 50.455 262.353 50.4457 262.439 50.4388L262.713 50.4274H282.767V50.3412C282.842 50.3412 282.916 50.3457 282.988 50.3548C284.074 50.4914 284.806 51.622 284.402 52.7517L235.669 186.453L252.901 196.401C253.331 196.659 253.847 196.831 254.363 196.831C254.88 196.831 255.397 196.66 255.827 196.401L273.13 186.411L259.87 150.008C259.838 149.901 259.809 149.793 259.785 149.686C259.736 149.471 259.704 149.257 259.688 149.044C259.664 148.726 259.676 148.412 259.725 148.107C259.757 147.904 259.805 147.705 259.87 147.511L270.284 118.936C270.585 118.162 271.274 117.775 271.962 117.775C272.565 117.775 273.167 118.072 273.51 118.665C273.559 118.749 273.603 118.839 273.641 118.936L293.868 174.438L302.116 169.675L277.428 101.981C277.397 101.877 277.369 101.772 277.345 101.668C277.341 101.649 277.338 101.629 277.334 101.609C277.316 101.527 277.3 101.446 277.287 101.364C277.283 101.336 277.28 101.309 277.276 101.281C277.266 101.207 277.257 101.133 277.251 101.06C277.248 101.024 277.245 100.989 277.243 100.953C277.24 100.895 277.237 100.836 277.236 100.778C277.235 100.731 277.236 100.684 277.236 100.638C277.237 100.576 277.241 100.516 277.244 100.455C277.246 100.42 277.247 100.385 277.25 100.35C277.255 100.294 277.263 100.239 277.27 100.184C277.276 100.14 277.28 100.096 277.287 100.053C277.294 100.016 277.303 99.9805 277.31 99.9442C277.341 99.7885 277.378 99.6343 277.428 99.4845L287.842 70.9105C287.85 70.8901 287.86 70.8703 287.868 70.8504C287.889 70.8015 287.911 70.7542 287.935 70.7085C288.616 69.4085 290.496 69.4289 291.138 70.7709C291.16 70.8162 291.181 70.8634 291.199 70.9117V70.9968L322.851 157.704L334.838 150.784C335.699 150.268 336.301 149.235 336.301 148.202V56.9691C336.301 55.9366 335.785 54.9036 334.838 54.3872L255.827 8.77117C255.397 8.51298 254.88 8.34103 254.363 8.34103V8.25478C253.847 8.25488 253.331 8.42702 252.901 8.68491L173.89 54.3009C173.03 54.8172 172.426 55.8502 172.426 56.8829V148.202C172.426 149.235 172.944 150.268 173.89 150.784L185.941 157.741L224.239 52.7506C224.27 52.6673 224.305 52.5855 224.342 52.5055C224.366 52.4537 224.394 52.4037 224.42 52.3534C224.436 52.3243 224.45 52.2945 224.466 52.266C224.484 52.2336 224.504 52.2024 224.524 52.1707C224.548 52.1314 224.571 52.092 224.596 52.0538C224.621 52.016 224.648 51.9793 224.675 51.9425C224.702 51.9043 224.73 51.8661 224.759 51.829C224.778 51.8043 224.799 51.7806 224.819 51.7564C224.854 51.7134 224.89 51.6706 224.928 51.6293C224.953 51.6019 224.978 51.5753 225.004 51.5487C225.039 51.5121 225.075 51.476 225.112 51.4409C225.137 51.4165 225.164 51.3931 225.19 51.3694C225.226 51.3367 225.262 51.3041 225.3 51.2729C225.334 51.2445 225.369 51.2172 225.404 51.1901C225.441 51.1616 225.479 51.1343 225.517 51.1072C225.548 51.0847 225.58 51.0618 225.612 51.0403C225.648 51.0163 225.684 50.9926 225.721 50.9699C225.76 50.9457 225.8 50.9223 225.84 50.8995C225.875 50.88 225.91 50.8612 225.945 50.8428C225.984 50.8218 226.024 50.801 226.065 50.7815C226.077 50.7755 226.09 50.7692 226.102 50.7634L226.273 50.6896C226.281 50.6861 226.29 50.6828 226.299 50.6794C226.341 50.6625 226.384 50.6469 226.427 50.6317C226.47 50.6165 226.513 50.601 226.556 50.5874C226.602 50.5732 226.649 50.5613 226.695 50.5489C226.73 50.5395 226.764 50.5288 226.799 50.5205C226.85 50.5084 226.902 50.4996 226.954 50.4898C226.991 50.4828 227.027 50.4741 227.065 50.4683C227.15 50.455 227.236 50.4457 227.322 50.4388C227.413 50.4315 227.505 50.4274 227.596 50.4274H247.649L247.735 50.3412C248.94 50.3412 249.801 51.5468 249.371 52.7517L206.682 169.717L206.724 169.741L202.09 182.388L202.062 182.373L202.033 182.457L181.29 170.493L181.323 170.399L167.176 162.232C162.098 159.306 159 153.97 159 148.117V56.8829C159 51.0304 162.098 45.6941 167.176 42.7678L246.187 -2.84818C248.756 -4.30377 251.495 -4.99294 254.32 -5Z" fill="url(#paint2_linear_15446_157890)"/>
<path opacity="0.15" d="M348.229 148.117V56.8828C348.228 51.5701 345.418 46.7275 340.802 44.0674L261.705 -1.54883L261.695 -1.55371C259.464 -2.86161 256.906 -3.49312 254.32 -3.5C251.752 -3.49303 249.272 -2.86905 246.938 -1.54883L167.926 44.0664L167.925 44.0674C163.453 46.6443 160.677 51.2695 160.508 56.3867L160.5 56.8828V148.117C160.5 153.264 163.136 157.969 167.497 160.677L167.925 160.933L167.926 160.934L183.148 169.721L183.115 169.814L201.216 180.254L201.249 180.162L201.297 180.19L204.877 170.418L204.837 170.396L247.958 52.2471C248.009 52.1039 247.976 51.9964 247.914 51.9277H227.596L227.442 51.9336C227.386 51.9381 227.34 51.9436 227.303 51.9492C227.302 51.9495 227.3 51.9499 227.299 51.9502C227.295 51.9511 227.288 51.9528 227.282 51.9541C227.27 51.9566 227.252 51.9601 227.232 51.9639C227.216 51.9669 227.2 51.9695 227.188 51.9717C227.176 51.9741 227.166 51.976 227.158 51.9775L227.144 51.9805C227.14 51.9816 227.134 51.9838 227.129 51.9854C227.118 51.9885 227.102 51.9933 227.084 51.998C227.071 52.0016 227.055 52.0053 227.046 52.0078C227.035 52.0106 227.027 52.0128 227.021 52.0146C227.008 52.0181 227.003 52.0194 227.003 52.0195C226.993 52.0225 226.984 52.026 226.928 52.0459C226.895 52.0574 226.873 52.0648 226.856 52.0713L226.724 52.1289C226.721 52.1304 226.717 52.1321 226.714 52.1338C226.701 52.1399 226.683 52.1494 226.643 52.1709C226.615 52.1853 226.596 52.1956 226.581 52.2041C226.553 52.22 226.53 52.2339 226.51 52.2461C226.493 52.2562 226.472 52.2694 226.444 52.2881C226.444 52.2884 226.443 52.2891 226.441 52.29C226.439 52.2916 226.436 52.2938 226.432 52.2969C226.427 52.3004 226.42 52.3053 226.413 52.3105C226.407 52.3152 226.396 52.3219 226.388 52.3281C226.356 52.3506 226.336 52.3654 226.321 52.377C226.287 52.4036 226.27 52.4172 226.259 52.4268C226.247 52.4362 226.232 52.4498 226.193 52.4844C226.186 52.491 226.178 52.4981 226.173 52.5029C226.167 52.5085 226.161 52.5129 226.157 52.5166L226.084 52.5898C226.058 52.6169 226.047 52.6284 226.039 52.6367C226.025 52.6517 226.007 52.6736 225.976 52.7119C225.966 52.7234 225.957 52.7339 225.951 52.7412C225.948 52.7448 225.945 52.7484 225.942 52.751C225.94 52.7537 225.938 52.756 225.937 52.7578L225.892 52.8193C225.858 52.8662 225.851 52.8757 225.846 52.8838C225.845 52.8852 225.842 52.8891 225.838 52.8965C225.834 52.9024 225.83 52.9096 225.824 52.9189C225.819 52.9272 225.812 52.9396 225.805 52.9512C225.797 52.9646 225.789 52.9766 225.783 52.9854C225.781 52.9893 225.779 52.9925 225.777 52.9951C225.78 52.9907 225.782 52.9872 225.783 52.9854L225.781 52.9863C225.78 52.9887 225.779 52.991 225.777 52.9951C225.775 52.9988 225.772 53.0043 225.77 53.0098C225.764 53.0208 225.756 53.0366 225.746 53.0547C225.738 53.0699 225.729 53.0861 225.724 53.0967C225.717 53.1086 225.713 53.1175 225.709 53.125C225.704 53.1341 225.702 53.1389 225.701 53.1406C225.679 53.1873 225.66 53.2329 225.644 53.2773L186.738 159.934L173.141 152.083C171.665 151.262 170.926 149.691 170.926 148.202V56.8828C170.926 55.3139 171.814 53.797 173.118 53.0146L173.129 53.0078L173.141 53.002L252.151 7.38574C252.764 7.02301 253.535 6.75505 254.363 6.75488H255.863V7.12695C256.118 7.2244 256.357 7.34281 256.576 7.47266L256.577 7.47168L335.588 53.0879C337.064 53.9095 337.801 55.4809 337.801 56.9688V148.202C337.801 149.77 336.914 151.287 335.61 152.07L335.6 152.077L335.588 152.083L322.055 159.896L289.79 71.5107L289.726 71.3359C289.593 71.2016 289.359 71.2226 289.264 71.4043C289.261 71.4096 289.256 71.4216 289.248 71.4395C289.244 71.4479 289.24 71.4553 289.237 71.4619L278.849 99.9658C278.826 100.036 278.804 100.123 278.782 100.233C278.778 100.257 278.773 100.279 278.77 100.293C278.768 100.3 278.767 100.307 278.766 100.312L278.764 100.329C278.762 100.342 278.76 100.36 278.758 100.379C278.756 100.396 278.753 100.414 278.751 100.426C278.749 100.439 278.748 100.449 278.747 100.458C278.746 100.467 278.746 100.473 278.745 100.478V100.479C278.745 100.484 278.744 100.49 278.744 100.496C278.744 100.509 278.742 100.527 278.741 100.547C278.738 100.6 278.737 100.635 278.736 100.662V100.751C278.737 100.788 278.738 100.826 278.74 100.862L278.745 100.931L278.746 100.932C278.75 100.975 278.755 101.024 278.762 101.076L278.767 101.107C278.767 101.111 278.767 101.115 278.768 101.118C278.768 101.122 278.768 101.125 278.769 101.127L278.77 101.131C278.776 101.173 278.786 101.225 278.801 101.295L278.811 101.35C278.824 101.407 278.841 101.467 278.859 101.53L303.957 170.344L293.07 176.631L272.24 119.474C272.233 119.455 272.224 119.436 272.212 119.416L272.162 119.35C272.145 119.333 272.127 119.32 272.109 119.311C272.07 119.289 272.019 119.275 271.962 119.275C271.896 119.275 271.84 119.294 271.799 119.32C271.765 119.342 271.72 119.384 271.683 119.479L261.29 147.992C261.253 148.104 261.225 148.222 261.206 148.343C261.177 148.528 261.168 148.725 261.184 148.931C261.194 149.07 261.216 149.212 261.248 149.355C261.262 149.416 261.279 149.48 261.299 149.548L274.971 187.08L256.577 197.7L256.576 197.699C255.962 198.063 255.191 198.331 254.363 198.331C253.535 198.331 252.764 198.062 252.151 197.699L233.828 187.122L282.989 52.2471C283.04 52.1055 283.006 51.9971 282.946 51.9277H262.729L262.539 51.9355C262.492 51.9397 262.453 51.9443 262.42 51.9492C262.419 51.9495 262.417 51.9499 262.416 51.9502C262.412 51.9511 262.406 51.9529 262.399 51.9541C262.387 51.9566 262.369 51.9601 262.35 51.9639C262.333 51.967 262.316 51.9695 262.305 51.9717C262.292 51.974 262.283 51.976 262.275 51.9775H262.273C262.271 51.9783 262.268 51.9796 262.265 51.9805C262.254 51.9834 262.238 51.9874 262.22 51.9922C262.178 52.0029 262.147 52.011 262.122 52.0186C262.111 52.0225 262.097 52.0287 262.08 52.0342C262.029 52.0511 261.995 52.0636 261.968 52.0742L261.831 52.1338C261.818 52.14 261.8 52.1486 261.76 52.1699C261.732 52.1845 261.712 52.1956 261.697 52.2041C261.669 52.22 261.646 52.234 261.627 52.2461L261.562 52.2881C261.561 52.2883 261.56 52.2889 261.559 52.29C261.556 52.2917 261.553 52.2935 261.548 52.2969C261.543 52.3004 261.538 52.3053 261.53 52.3105L261.505 52.3281L261.434 52.3799C261.417 52.3924 261.398 52.4078 261.374 52.4277C261.364 52.4362 261.35 52.4484 261.316 52.4785C261.28 52.5114 261.27 52.5201 261.263 52.5273L261.2 52.5898C261.174 52.6173 261.163 52.6284 261.155 52.6367C261.142 52.6515 261.124 52.6732 261.092 52.7119C261.083 52.7221 261.076 52.7316 261.07 52.7383C261.063 52.7465 261.061 52.7493 261.057 52.7539L261.058 52.7529C261.049 52.7641 261.037 52.7801 260.997 52.8369C260.984 52.8551 260.973 52.8704 260.965 52.8809C260.962 52.8843 260.959 52.8869 260.957 52.8896L260.912 52.9658C260.903 52.9804 260.896 52.9932 260.891 53.002C260.889 53.0044 260.888 53.007 260.887 53.0098C260.881 53.0207 260.873 53.0367 260.863 53.0547C260.855 53.0699 260.846 53.0861 260.841 53.0967C260.834 53.1086 260.83 53.1175 260.826 53.125C260.821 53.1339 260.819 53.1388 260.818 53.1406C260.797 53.1873 260.777 53.2327 260.76 53.2773L212.137 186.521L230.233 196.958L230.25 196.913L246.938 206.549L246.945 206.554C249.189 207.869 251.763 208.5 254.363 208.5V210L253.831 209.992C251.17 209.911 248.527 209.22 246.188 207.849L231.056 199.11L231.039 199.154L210.296 187.191L259.355 52.751L259.459 52.5059L259.537 52.3535C259.552 52.3245 259.567 52.2942 259.583 52.2656L259.625 52.1963C259.656 52.144 259.687 52.0915 259.721 52.041C259.737 52.0169 259.756 51.9944 259.772 51.9707C259.806 51.9225 259.841 51.8745 259.877 51.8281L259.936 51.7568L260.045 51.6289L260.12 51.5488L260.227 51.4434L260.317 51.3604L260.414 51.2754L260.515 51.1943L260.634 51.1074C260.665 51.0849 260.696 51.0616 260.729 51.04C260.764 51.016 260.801 50.9925 260.838 50.9697C260.877 50.9455 260.917 50.9222 260.957 50.8994L261.062 50.8428C261.101 50.8218 261.141 50.8007 261.182 50.7812L261.219 50.7637L261.39 50.6895L261.413 50.6807L261.605 50.6113C261.621 50.6061 261.637 50.5998 261.652 50.5947L261.845 50.54C261.869 50.5339 261.892 50.5262 261.916 50.5205L262.07 50.4902C262.107 50.4832 262.144 50.4746 262.182 50.4688L262.439 50.4385L262.713 50.4277H282.767V50.3408C282.842 50.3408 282.916 50.3454 282.988 50.3545C284.074 50.4912 284.806 51.6222 284.402 52.752L235.669 186.452L252.901 196.401C253.278 196.627 253.72 196.787 254.17 196.823L254.363 196.831C254.815 196.831 255.268 196.7 255.662 196.494L255.827 196.401L273.13 186.41L259.87 150.008C259.838 149.9 259.808 149.793 259.784 149.686C259.76 149.578 259.741 149.471 259.725 149.364L259.688 149.044C259.67 148.805 259.673 148.569 259.695 148.337L259.725 148.106C259.741 148.005 259.761 147.905 259.785 147.806L259.87 147.511L270.284 118.936C270.586 118.162 271.274 117.775 271.962 117.775L272.188 117.789C272.711 117.854 273.211 118.146 273.511 118.665C273.559 118.749 273.603 118.839 273.641 118.936L293.867 174.438L302.116 169.675L277.428 101.981C277.396 101.877 277.369 101.772 277.346 101.668C277.341 101.649 277.338 101.629 277.334 101.609C277.316 101.528 277.3 101.446 277.287 101.364L277.276 101.281C277.266 101.207 277.257 101.133 277.251 101.06L277.243 100.953C277.24 100.895 277.237 100.836 277.236 100.778V100.638C277.237 100.577 277.24 100.516 277.244 100.455L277.25 100.351C277.255 100.295 277.263 100.239 277.271 100.184C277.276 100.14 277.28 100.096 277.287 100.053L277.311 99.9443C277.341 99.7887 277.378 99.6342 277.428 99.4844L287.842 70.9102C287.85 70.8899 287.86 70.8703 287.868 70.8506L287.936 70.709C288.616 69.4091 290.495 69.429 291.138 70.7705C291.159 70.8158 291.18 70.8638 291.199 70.9121V70.9971L322.852 157.704L334.838 150.784C335.698 150.268 336.301 149.235 336.301 148.202V56.9688C336.3 55.9363 335.784 54.9031 334.838 54.3867L255.827 8.77148C255.397 8.51332 254.88 8.34085 254.363 8.34082V8.25488C253.847 8.25499 253.331 8.42673 252.901 8.68457L173.891 54.3008C173.03 54.8171 172.426 55.8502 172.426 56.8828V148.202C172.426 149.235 172.944 150.268 173.891 150.784L185.94 157.741L224.239 52.751L224.342 52.5059L224.421 52.3535C224.436 52.3245 224.45 52.2941 224.466 52.2656L224.523 52.1709L224.597 52.0537L224.675 51.9424L224.759 51.8291L224.818 51.7568C224.854 51.7138 224.89 51.6702 224.928 51.6289L225.004 51.5488C225.039 51.5122 225.075 51.4755 225.111 51.4404C225.137 51.4161 225.163 51.3927 225.189 51.3691C225.226 51.3365 225.262 51.3037 225.3 51.2725L225.404 51.1904L225.517 51.1074L225.612 51.04C225.648 51.0161 225.684 50.9924 225.721 50.9697C225.76 50.9455 225.8 50.9221 225.84 50.8994C225.874 50.8799 225.909 50.8612 225.944 50.8428C225.984 50.8219 226.024 50.8007 226.064 50.7812L226.103 50.7637L226.272 50.6895L226.299 50.6797L226.427 50.6318L226.557 50.5879C226.602 50.5737 226.648 50.5612 226.694 50.5488C226.729 50.5395 226.764 50.5288 226.799 50.5205L226.953 50.4902C226.99 50.4832 227.027 50.4746 227.064 50.4688C227.15 50.4554 227.236 50.4454 227.322 50.4385L227.596 50.4277H247.648L247.735 50.3408C248.94 50.3409 249.8 51.5471 249.37 52.752L206.682 169.717L206.724 169.741L202.09 182.389L202.062 182.372L202.033 182.456L181.29 170.493L181.323 170.399L167.176 162.232C162.257 159.398 159.195 154.301 159.009 148.664L159 148.117V56.8828C159 51.0304 162.098 45.6938 167.176 42.7676L246.188 -2.84863C248.756 -4.30404 251.496 -4.99294 254.32 -5C257.146 -4.99312 259.971 -4.30424 262.454 -2.84863L341.55 42.7676C346.628 45.6938 349.728 51.0304 349.729 56.8828V148.117L349.72 148.664C349.533 154.301 346.469 159.398 341.55 162.232L327.472 170.359L327.521 170.492L306.777 182.455L306.731 182.333L298.479 187.098L298.514 187.19L277.772 199.153L277.741 199.07L262.539 207.849L262.053 208.113C259.612 209.394 257.026 210 254.363 210V208.5C256.948 208.5 259.442 207.875 261.789 206.548L278.531 196.883L278.562 196.966L296.671 186.521L296.638 186.429L307.521 180.146L307.566 180.269L325.676 169.823L325.628 169.691L340.801 160.933C345.417 158.273 348.228 153.43 348.229 148.117ZM278.814 101.367C278.815 101.37 278.816 101.374 278.816 101.375L278.812 101.351L278.814 101.367Z" fill="url(#paint3_linear_15446_157890)"/>
</g>
<defs>
<linearGradient id="paint0_linear_15446_157890" x1="81" y1="115" x2="137.5" y2="182.5" gradientUnits="userSpaceOnUse">
<stop stop-color="white" stop-opacity="0.4"/>
<stop offset="1" stop-color="white" stop-opacity="0"/>
</linearGradient>
<linearGradient id="paint1_linear_15446_157890" x1="254.364" y1="-5" x2="254.364" y2="210" gradientUnits="userSpaceOnUse">
<stop stop-color="white" stop-opacity="0"/>
<stop offset="1" stop-color="white" stop-opacity="0.7"/>
</linearGradient>
<linearGradient id="paint2_linear_15446_157890" x1="188.5" y1="15.5" x2="309.831" y2="158.865" gradientUnits="userSpaceOnUse">
<stop stop-color="white" stop-opacity="0"/>
<stop offset="1" stop-color="white"/>
</linearGradient>
<linearGradient id="paint3_linear_15446_157890" x1="163.98" y1="8.94594" x2="299" y2="174" gradientUnits="userSpaceOnUse">
<stop offset="0.163922" stop-color="white" stop-opacity="0"/>
<stop offset="1" stop-color="white"/>
</linearGradient>
<clipPath id="clip0_15446_157890">
<rect width="330" height="205" fill="white"/>
</clipPath>
</defs>
</svg>
