<svg width="330" height="205" viewBox="0 0 330 205" fill="none" xmlns="http://www.w3.org/2000/svg">
<g clip-path="url(#clip0_14163_285028)">
<circle opacity="0.05" cx="240" cy="717" r="625" fill="url(#paint0_linear_14163_285028)"/>
<path opacity="0.08" d="M272.302 215C334.543 215 384.999 164.631 384.999 102.5C384.999 40.3678 334.543 -10 272.302 -10C213.252 -10 164.81 35.3366 159.999 93.043H308.957V111.956H159.999C164.81 169.663 213.252 215 272.302 215Z" fill="white"/>
<path opacity="0.1" d="M272.302 215C334.543 215 384.999 164.631 384.999 102.5C384.999 40.3678 334.543 -10 272.302 -10C213.252 -10 164.81 35.3366 159.999 93.043H308.957V111.956H159.999C164.81 169.663 213.252 215 272.302 215Z" fill="url(#paint1_linear_14163_285028)"/>
<path opacity="0.15" d="M272.302 -9C333.992 -9 383.999 40.9218 383.999 102.5C383.999 164.077 333.992 214 272.302 214C214.145 214 166.373 169.631 161.093 112.956H309.957V92.043H161.093C166.373 35.3689 214.145 -8.99978 272.302 -9Z" stroke="url(#paint2_linear_14163_285028)" stroke-width="2"/>
</g>
<defs>
<linearGradient id="paint0_linear_14163_285028" x1="41" y1="129" x2="114" y2="177" gradientUnits="userSpaceOnUse">
<stop stop-color="white"/>
<stop offset="1" stop-color="white" stop-opacity="0"/>
</linearGradient>
<linearGradient id="paint1_linear_14163_285028" x1="324.166" y1="102.5" x2="159.999" y2="102.5" gradientUnits="userSpaceOnUse">
<stop stop-color="white"/>
<stop offset="1" stop-color="white" stop-opacity="0"/>
</linearGradient>
<linearGradient id="paint2_linear_14163_285028" x1="322.622" y1="102.5" x2="159.999" y2="102.5" gradientUnits="userSpaceOnUse">
<stop stop-color="white"/>
<stop offset="1" stop-color="white" stop-opacity="0"/>
</linearGradient>
<clipPath id="clip0_14163_285028">
<rect width="330" height="205" fill="white"/>
</clipPath>
</defs>
</svg>
