<svg width="330" height="205" viewBox="0 0 330 205" fill="none" xmlns="http://www.w3.org/2000/svg">
<g clip-path="url(#clip0_14006_266550)">
<g opacity="0.15">
<path d="M325.638 85.0628C330.07 59.5226 310.922 45.2844 284.513 35.4641L293.97 0.948178L273.005 -4.81676L263.798 28.7896C258.287 27.2742 252.624 25.8335 246.996 24.4058L256.269 -9.42187L235.317 -15.1865L225.854 19.3172C221.29 18.1615 216.809 17.0197 212.462 15.827L212.489 15.7192L183.578 7.75501L177.435 30.1953C177.435 30.1953 192.996 34.1583 192.661 34.3732C201.151 36.7118 202.561 42.4125 202.197 46.8969L191.425 86.218L191.385 86.3676L176.286 141.45C175.179 144.026 172.438 147.864 166.503 146.242C166.706 146.554 151.265 142.046 151.265 142.046L140.225 165.991L167.506 173.495C172.581 174.898 177.553 176.358 182.448 177.738L172.892 212.65L193.832 218.414L203.296 183.874C209.013 185.575 214.565 187.152 219.998 188.641L210.569 223.019L231.533 228.784L241.088 193.939C276.887 201.608 303.993 199.496 316.145 167.17C325.937 141.142 316.666 125.776 297.979 115.457C311.833 112.598 322.426 103.76 325.638 85.0628ZM275.856 151.637C268.719 177.728 224.961 162.499 210.75 158.604L223.429 112.354C237.639 116.267 283.313 124.428 275.856 151.637ZM283.987 83.6999C277.477 107.432 241.064 94.4367 229.229 91.182L240.725 49.234C252.559 52.4887 290.767 58.9439 283.987 83.6999Z" fill="url(#paint0_linear_14006_266550)"/>
<path d="M325.638 85.0628C330.07 59.5226 310.922 45.2844 284.513 35.4641L293.97 0.948178L273.005 -4.81676L263.798 28.7896C258.287 27.2742 252.624 25.8335 246.996 24.4058L256.269 -9.42187L235.317 -15.1865L225.854 19.3172C221.29 18.1615 216.809 17.0197 212.462 15.827L212.489 15.7192L183.578 7.75501L177.435 30.1953C177.435 30.1953 192.996 34.1583 192.661 34.3732C201.151 36.7118 202.561 42.4125 202.197 46.8969L191.425 86.218L191.385 86.3676L176.286 141.45C175.179 144.026 172.438 147.864 166.503 146.242C166.706 146.554 151.265 142.046 151.265 142.046L140.225 165.991L167.506 173.495C172.581 174.898 177.553 176.358 182.448 177.738L172.892 212.65L193.832 218.414L203.296 183.874C209.013 185.575 214.565 187.152 219.998 188.641L210.569 223.019L231.533 228.784L241.088 193.939C276.887 201.608 303.993 199.496 316.145 167.17C325.937 141.142 316.666 125.776 297.979 115.457C311.833 112.598 322.426 103.76 325.638 85.0628ZM275.856 151.637C268.719 177.728 224.961 162.499 210.75 158.604L223.429 112.354C237.639 116.267 283.313 124.428 275.856 151.637ZM283.987 83.6999C277.477 107.432 241.064 94.4367 229.229 91.182L240.725 49.234C252.559 52.4887 290.767 58.9439 283.987 83.6999Z" fill="url(#paint1_linear_14006_266550)"/>
</g>
<path opacity="0.12" d="M325.636 85.0619C330.068 59.5216 310.92 45.2834 284.511 35.4631L293.968 0.947202L273.004 -4.81774L263.796 28.7886C258.285 27.2732 252.622 25.8326 246.994 24.4048L256.267 -9.42285L235.315 -15.1875L225.852 19.3162C221.288 18.1605 216.807 17.0188 212.46 15.826L212.487 15.7182L183.576 7.75403L177.433 30.1943C177.433 30.1943 192.994 34.1573 192.659 34.3722C201.15 36.7108 202.559 42.4115 202.195 46.8959L191.423 86.217L191.383 86.3666L176.284 141.449C175.177 144.025 172.436 147.863 166.501 146.241C166.704 146.553 151.263 142.045 151.263 142.045L140.223 165.99L167.504 173.494C172.579 174.897 177.551 176.357 182.446 177.737L172.89 212.649L193.83 218.413L203.294 183.873C209.011 185.574 214.563 187.151 219.997 188.64L210.567 223.018L231.531 228.783L241.086 193.938C276.885 201.607 303.991 199.495 316.143 167.169C325.935 141.141 316.664 125.775 297.977 115.456C311.831 112.597 322.424 103.759 325.636 85.0619ZM275.854 151.636C268.717 177.727 224.959 162.498 210.748 158.603L223.427 112.353C237.637 116.266 283.311 124.427 275.854 151.636ZM283.985 83.6989C277.475 107.431 241.062 94.4357 229.227 91.181L240.723 49.233C252.557 52.4877 290.765 58.9429 283.985 83.6989Z" fill="url(#paint2_linear_14006_266550)"/>
<path opacity="0.32" d="M284.512 35.463C310.921 45.2834 330.069 59.5217 325.638 85.0618C322.426 103.759 311.832 112.597 297.978 115.456C316.665 125.775 325.936 141.141 316.144 167.169C303.992 199.495 276.887 201.607 241.087 193.938L231.532 228.783L210.568 223.019L219.997 188.64C214.564 187.151 209.012 185.574 203.295 183.873L193.831 218.413L172.891 212.648L182.448 177.737C177.553 176.357 172.581 174.897 167.506 173.494L140.224 165.99L151.264 142.045C151.264 142.045 166.69 146.549 166.502 146.242C172.437 147.864 175.178 144.025 176.285 141.449L191.384 86.3662L191.424 86.2171L202.196 46.8959C202.56 42.4115 201.151 36.7113 192.66 34.3727C192.995 34.1584 177.525 30.2172 177.434 30.1941L183.577 7.75384L212.488 15.7184L212.461 15.8261C216.808 17.0188 221.289 18.1603 225.853 19.316L235.315 -15.1875L256.268 -9.42273L246.995 24.4043C252.623 25.832 258.286 27.2734 263.798 28.7888L273.004 -4.81759L293.969 0.947476L284.512 35.463ZM274.054 -2.97411L264.847 30.633L263.4 30.2349C257.905 28.724 252.256 27.2871 246.626 25.8589L245.145 25.4825L254.425 -8.37492L236.365 -13.344L226.91 21.1312L225.484 20.77C220.921 19.6144 216.427 18.4699 212.064 17.2728L210.655 16.8859L210.682 16.7761L184.627 9.5987L179.282 29.1188C179.568 29.1922 179.888 29.2752 180.235 29.3647C181.69 29.74 183.628 30.2428 185.556 30.7527C187.482 31.262 189.408 31.7804 190.833 32.1861C191.543 32.388 192.147 32.5673 192.57 32.7059C192.772 32.7723 192.974 32.8422 193.134 32.9103C193.167 32.9245 193.238 32.9547 193.323 33.0004C197.712 34.2639 200.463 36.4408 202.035 39.057C203.519 41.528 203.85 44.2243 203.723 46.5557L203.691 47.0174L203.68 47.157L203.643 47.2919L192.874 86.6004L192.834 86.7502L192.831 86.763L177.732 141.846L177.704 141.946L177.663 142.042C177.051 143.465 175.945 145.353 174.056 146.655C172.149 147.969 169.6 148.574 166.355 147.75C166.253 147.744 166.171 147.734 166.134 147.728C165.974 147.703 165.773 147.66 165.567 147.612C165.139 147.512 164.532 147.357 163.82 147.167C162.389 146.785 160.468 146.248 158.549 145.703C156.629 145.158 154.702 144.603 153.257 144.185C152.817 144.058 152.422 143.943 152.085 143.845L142.326 165.011L167.903 172.048L167.904 172.048C172.978 173.45 177.986 174.921 182.855 176.294L184.288 176.698L174.733 211.6L192.781 216.567L202.253 181.998L203.723 182.435C209.428 184.133 214.969 185.706 220.394 187.193L221.841 187.59L212.411 221.968L230.482 226.938L240.015 192.174L241.401 192.471C259.25 196.295 274.674 197.615 287.076 194.109C299.34 190.642 308.814 182.406 314.74 166.641C319.547 153.862 319.597 143.922 316.352 135.989C313.099 128.037 306.428 121.836 297.252 116.769L293.7 114.807L297.675 113.987C304.373 112.604 310.193 109.798 314.724 105.151C319.254 100.505 322.594 93.9187 324.159 84.8078L324.16 84.8057C326.291 72.5231 322.774 63.0498 315.549 55.3977C308.252 47.6688 297.12 41.7518 283.989 36.8688L282.702 36.3908L292.126 1.99528L274.054 -2.97411ZM258.42 121.908C264.646 124.919 270.348 128.742 274.012 133.675C277.728 138.679 279.294 144.763 277.302 152.032L277.115 152.681C275.106 159.31 270.778 163.401 265.238 165.668C259.598 167.976 252.745 168.384 245.841 167.86C232.046 166.813 217.347 161.967 210.353 160.05L208.905 159.654L222.378 110.508L223.826 110.906C230.78 112.821 245.994 115.898 258.42 121.908ZM275.855 151.636C283.312 124.427 237.639 116.266 223.428 112.353L210.748 158.603C224.848 162.468 268.036 177.49 275.681 152.24L275.855 151.636ZM270.009 57.0619C275.208 59.6734 279.974 63.0463 282.991 67.484C286.054 71.9884 287.243 77.4874 285.433 84.0951C283.685 90.4681 279.879 94.4535 274.973 96.7013C270.139 98.9156 264.326 99.4091 258.513 99.0576C246.913 98.3561 234.625 94.2211 228.83 92.6274L227.385 92.2298L239.673 47.3885L241.122 47.7866C246.873 49.3683 259.649 51.8583 270.009 57.0619ZM283.986 83.699C290.766 58.9432 252.559 52.4874 240.724 49.2327L229.228 91.1806C240.97 94.4099 276.908 107.229 283.828 84.2487L283.986 83.699Z" fill="url(#paint3_linear_14006_266550)"/>
<path opacity="0.1" d="M865 726C865 1071.18 585.178 1351 240 1351C-105.178 1351 -385 1071.18 -385 726C-385 380.822 -105.178 101 240 101C585.178 101 865 380.822 865 726Z" fill="url(#paint4_linear_14006_266550)"/>
</g>
<defs>
<linearGradient id="paint0_linear_14006_266550" x1="290.645" y1="153.839" x2="159.45" y2="43.7532" gradientUnits="userSpaceOnUse">
<stop stop-color="white"/>
<stop offset="1" stop-color="white" stop-opacity="0"/>
</linearGradient>
<linearGradient id="paint1_linear_14006_266550" x1="157.688" y1="-1.00098" x2="157.688" y2="199.892" gradientUnits="userSpaceOnUse">
<stop stop-color="white" stop-opacity="0.25"/>
<stop offset="0.5" stop-color="white"/>
</linearGradient>
<linearGradient id="paint2_linear_14006_266550" x1="290.644" y1="153.839" x2="159.449" y2="43.7532" gradientUnits="userSpaceOnUse">
<stop stop-color="white"/>
<stop offset="1" stop-color="white" stop-opacity="0"/>
</linearGradient>
<linearGradient id="paint3_linear_14006_266550" x1="264.605" y1="133.045" x2="106.499" y2="45.999" gradientUnits="userSpaceOnUse">
<stop stop-color="white"/>
<stop offset="1" stop-color="white" stop-opacity="0"/>
</linearGradient>
<linearGradient id="paint4_linear_14006_266550" x1="45.5" y1="120" x2="63.5" y2="184.5" gradientUnits="userSpaceOnUse">
<stop stop-color="white"/>
<stop offset="1" stop-color="white" stop-opacity="0"/>
</linearGradient>
<clipPath id="clip0_14006_266550">
<rect width="330" height="205" fill="white"/>
</clipPath>
</defs>
</svg>
