<svg width="330" height="205" viewBox="0 0 330 205" fill="none" xmlns="http://www.w3.org/2000/svg">
<g clip-path="url(#clip0_15403_102869)">
<g opacity="0.16">
<path d="M262.001 227.999V165.286L338.65 119.922L262.001 227.999Z" fill="white" fill-opacity="0.75"/>
<path d="M338.65 105.275L262.001 150.497V-22L338.65 105.275Z" fill="white" fill-opacity="0.75"/>
<path d="M262.001 165.285V227.999L185.352 120.063L262.001 165.285Z" fill="white" fill-opacity="0.5"/>
<path d="M262.001 150.497L185.352 105.275L262.001 -22V150.497Z" fill="white" fill-opacity="0.5"/>
</g>
<path opacity="0.32" d="M337.886 118.631C338.495 118.27 339.273 118.385 339.753 118.906C340.232 119.427 340.283 120.213 339.873 120.79L263.224 228.867C263.08 229.069 262.893 229.226 262.683 229.334C262.663 229.344 262.642 229.353 262.621 229.362C262.608 229.368 262.595 229.375 262.581 229.381C262.566 229.387 262.55 229.393 262.535 229.398C262.472 229.423 262.407 229.443 262.341 229.458C262.337 229.459 262.332 229.46 262.328 229.461C262.292 229.469 262.257 229.476 262.221 229.481C262.217 229.482 262.214 229.483 262.211 229.483C262.181 229.488 262.151 229.491 262.121 229.493C262.097 229.495 262.073 229.496 262.049 229.497C262.033 229.498 262.016 229.498 262 229.498C261.983 229.498 261.967 229.498 261.95 229.497C261.926 229.496 261.902 229.495 261.878 229.493C261.874 229.493 261.87 229.494 261.866 229.493L261.78 229.482L261.778 229.481C261.752 229.477 261.725 229.473 261.699 229.468C261.68 229.464 261.661 229.46 261.642 229.455C261.63 229.452 261.618 229.449 261.606 229.445C261.586 229.44 261.565 229.435 261.545 229.429C261.541 229.427 261.537 229.425 261.533 229.424C261.467 229.402 261.402 229.376 261.34 229.346C261.332 229.342 261.325 229.338 261.317 229.334C261.188 229.268 261.069 229.183 260.962 229.081C260.955 229.074 260.947 229.068 260.94 229.062L260.932 229.053C260.876 228.996 260.824 228.934 260.776 228.867L184.127 120.932C183.717 120.355 183.766 119.57 184.245 119.049C184.724 118.528 185.502 118.412 186.111 118.771L261.998 163.543L337.886 118.631ZM261.999 227.999V165.285L185.35 120.063L261.999 227.999ZM262 165.286V227.999L338.649 119.922L262 165.286ZM262.056 -23.498C262.077 -23.4972 262.099 -23.4959 262.121 -23.4941C262.143 -23.4923 262.165 -23.4901 262.187 -23.4873C262.204 -23.4852 262.22 -23.4821 262.236 -23.4795C262.258 -23.4759 262.281 -23.4724 262.303 -23.4678C262.323 -23.4636 262.343 -23.4582 262.363 -23.4531C262.375 -23.4501 262.388 -23.4487 262.4 -23.4453C262.405 -23.4439 262.41 -23.4409 262.415 -23.4395C262.447 -23.4303 262.478 -23.4203 262.509 -23.4092C262.514 -23.4074 262.519 -23.4061 262.523 -23.4043C262.55 -23.3944 262.576 -23.3834 262.602 -23.3721C262.618 -23.365 262.634 -23.3582 262.649 -23.3506C262.667 -23.3423 262.683 -23.3331 262.7 -23.3242C262.72 -23.314 262.739 -23.304 262.758 -23.293C262.776 -23.2821 262.794 -23.2705 262.812 -23.2588C262.826 -23.2498 262.84 -23.2408 262.853 -23.2314C262.873 -23.2179 262.892 -23.2039 262.911 -23.1895C262.925 -23.1787 262.939 -23.1684 262.953 -23.1572C263.082 -23.0511 263.195 -22.9225 263.285 -22.7734L339.935 104.502C340.141 104.845 340.202 105.256 340.103 105.644C340.005 106.031 339.756 106.364 339.411 106.567L262.762 151.789C262.758 151.791 262.754 151.792 262.751 151.794C262.748 151.796 262.746 151.798 262.743 151.8C262.725 151.81 262.705 151.817 262.686 151.826C262.646 151.847 262.606 151.868 262.564 151.885C262.552 151.89 262.538 151.894 262.525 151.898C262.479 151.916 262.434 151.933 262.387 151.945C262.361 151.952 262.334 151.956 262.308 151.962C262.267 151.97 262.227 151.979 262.186 151.984C262.171 151.986 262.156 151.986 262.141 151.987C262.093 151.992 262.046 151.996 261.999 151.996C261.952 151.996 261.905 151.992 261.857 151.987C261.842 151.986 261.827 151.986 261.811 151.984C261.771 151.979 261.731 151.97 261.691 151.962C261.665 151.956 261.638 151.952 261.611 151.945C261.565 151.933 261.519 151.916 261.474 151.898C261.46 151.893 261.447 151.89 261.434 151.885C261.392 151.868 261.352 151.847 261.311 151.826C261.293 151.817 261.274 151.81 261.256 151.8C261.253 151.798 261.25 151.796 261.247 151.794C261.244 151.792 261.24 151.791 261.237 151.789L184.588 106.567C184.243 106.364 183.994 106.031 183.895 105.644C183.797 105.256 183.858 104.845 184.064 104.502L260.714 -22.7734C260.803 -22.9223 260.916 -23.0512 261.045 -23.1572C261.058 -23.1685 261.073 -23.1787 261.087 -23.1895C261.106 -23.2039 261.125 -23.2179 261.144 -23.2314C261.158 -23.2408 261.172 -23.2498 261.185 -23.2588C261.204 -23.2705 261.222 -23.2821 261.24 -23.293C261.259 -23.304 261.278 -23.314 261.298 -23.3242C261.315 -23.3332 261.331 -23.3423 261.349 -23.3506C261.364 -23.3582 261.38 -23.365 261.396 -23.3721C261.422 -23.3834 261.448 -23.3944 261.475 -23.4043C261.479 -23.4061 261.484 -23.4074 261.489 -23.4092C261.52 -23.4204 261.551 -23.4303 261.583 -23.4395C261.588 -23.441 261.593 -23.4438 261.599 -23.4453C261.61 -23.4486 261.623 -23.4501 261.635 -23.4531C261.655 -23.4582 261.675 -23.4636 261.695 -23.4678C261.717 -23.4724 261.74 -23.4759 261.762 -23.4795C261.778 -23.4821 261.794 -23.4852 261.81 -23.4873C261.833 -23.4901 261.855 -23.4923 261.877 -23.4941C261.899 -23.4959 261.92 -23.4972 261.942 -23.498C261.961 -23.4988 261.98 -23.499 261.999 -23.499C262.018 -23.499 262.037 -23.4988 262.056 -23.498ZM185.35 105.275L261.999 150.497V-22L185.35 105.275ZM262 150.497L338.649 105.275L262 -22V150.497Z" fill="url(#paint0_linear_15403_102869)"/>
<path opacity="0.06" d="M865 726C865 1071.18 585.178 1351 240 1351C-105.178 1351 -385 1071.18 -385 726C-385 380.822 -105.178 101 240 101C585.178 101 865 380.822 865 726Z" fill="url(#paint1_linear_15403_102869)"/>
</g>
<defs>
<linearGradient id="paint0_linear_15403_102869" x1="185.35" y1="103" x2="319.5" y2="103" gradientUnits="userSpaceOnUse">
<stop stop-color="white" stop-opacity="0.3"/>
<stop offset="1" stop-color="white"/>
</linearGradient>
<linearGradient id="paint1_linear_15403_102869" x1="52" y1="129" x2="101.5" y2="194" gradientUnits="userSpaceOnUse">
<stop stop-color="white"/>
<stop offset="1" stop-color="white" stop-opacity="0"/>
</linearGradient>
<clipPath id="clip0_15403_102869">
<rect width="330" height="205" rx="20" fill="white"/>
</clipPath>
</defs>
</svg>
