<svg width="330" height="205" viewBox="0 0 330 205" fill="none" xmlns="http://www.w3.org/2000/svg">
<g clip-path="url(#clip0_13922_244310)">
<g opacity="0.12">
<path d="M392.214 123.312C392.185 123.46 392.154 123.608 392.124 123.756C392.161 123.572 392.199 123.388 392.234 123.204L392.214 123.312Z" fill="url(#paint0_linear_13922_244310)"/>
<path fill-rule="evenodd" clip-rule="evenodd" d="M289 -22C358.036 -21.9999 414 33.9644 414 103C414 172.035 358.035 228 289 228C219.965 228 164 172.035 164 103C164 33.9645 219.965 -21.9998 289 -22ZM289 -2.17969C276.323 -2.17963 264.17 0.0625896 252.916 4.17285C252.847 4.19808 252.778 4.22365 252.709 4.24902C251.967 4.52178 251.229 4.8029 250.495 5.0918C250.461 5.10539 250.426 5.11918 250.392 5.13281C248.848 5.7421 247.323 6.38626 245.816 7.06543C244.986 7.43983 244.161 7.82457 243.343 8.21973C242.23 8.75696 241.127 9.31282 240.036 9.8877C239.238 10.3082 238.447 10.7394 237.661 11.1797C235.874 12.1812 234.118 13.2331 232.397 14.334C231.249 15.069 230.115 15.8257 228.997 16.6035C228.378 17.0341 227.764 17.4715 227.155 17.915C221.66 21.9166 216.566 26.437 211.947 31.4053C211.143 32.2708 210.353 33.1507 209.578 34.043C208.435 35.3579 207.324 36.7012 206.247 38.0723C205.757 38.6957 205.274 39.3243 204.798 39.959C204.231 40.7151 203.674 41.4793 203.127 42.251C201.953 43.9072 200.826 45.5991 199.748 47.3242C199.723 47.3645 199.698 47.405 199.673 47.4453C189.626 63.5665 183.82 82.6054 183.82 103L183.829 104.359C183.913 111.007 184.615 117.506 185.878 123.802C185.89 123.863 185.903 123.924 185.915 123.985C186.071 124.754 186.235 125.52 186.407 126.283C186.422 126.348 186.436 126.413 186.451 126.479C186.719 127.653 187.007 128.82 187.313 129.979C187.871 132.085 188.492 134.166 189.175 136.218H220.629V47.7236L288.995 116.09L357.361 47.7236V136.218H388.817C389.634 133.765 390.361 131.271 390.998 128.742C382.083 164.176 355.192 192.465 320.585 203.348C345.1 195.636 365.746 179.188 378.869 157.655H334.553V101.973L288.996 147.528L243.443 101.973V157.655H199.123C212.247 179.188 232.893 195.636 257.407 203.348C249.025 200.711 241.094 197.055 233.763 192.522C249.457 202.227 267.892 207.921 287.641 208.171L289 208.18C346.635 208.18 393.443 161.822 394.171 104.359L394.18 103C394.18 71.2421 380.104 42.7727 357.852 23.4873C375.746 38.998 388.351 60.4494 392.601 84.7734C384.416 37.9296 345.226 1.73457 296.966 -1.88281C294.782 -2.04635 292.579 -2.14279 290.359 -2.1709L289 -2.17969ZM212.039 174.692C212.128 174.788 212.218 174.882 212.308 174.977C212.187 174.848 212.066 174.721 211.946 174.592L212.039 174.692Z" fill="url(#paint1_linear_13922_244310)"/>
</g>
<g opacity="0.16">
<path d="M392.214 123.312C392.185 123.46 392.154 123.608 392.124 123.756C392.161 123.572 392.199 123.388 392.234 123.204L392.214 123.312Z" fill="url(#paint2_linear_13922_244310)"/>
<path fill-rule="evenodd" clip-rule="evenodd" d="M289 -22C358.036 -21.9999 414 33.9644 414 103C414 172.035 358.035 228 289 228C219.965 228 164 172.035 164 103C164 33.9645 219.965 -21.9998 289 -22ZM289 -2.17969C276.323 -2.17963 264.17 0.0625896 252.916 4.17285C252.847 4.19808 252.778 4.22365 252.709 4.24902C251.967 4.52178 251.229 4.8029 250.495 5.0918C250.461 5.10539 250.426 5.11918 250.392 5.13281C248.848 5.7421 247.323 6.38626 245.816 7.06543C244.986 7.43983 244.161 7.82457 243.343 8.21973C242.23 8.75696 241.127 9.31282 240.036 9.8877C239.238 10.3082 238.447 10.7394 237.661 11.1797C235.874 12.1812 234.118 13.2331 232.397 14.334C231.249 15.069 230.115 15.8257 228.997 16.6035C228.378 17.0341 227.764 17.4715 227.155 17.915C221.66 21.9166 216.566 26.437 211.947 31.4053C211.143 32.2708 210.353 33.1507 209.578 34.043C208.435 35.3579 207.324 36.7012 206.247 38.0723C205.757 38.6957 205.274 39.3243 204.798 39.959C204.231 40.7151 203.674 41.4793 203.127 42.251C201.953 43.9072 200.826 45.5991 199.748 47.3242C199.723 47.3645 199.698 47.405 199.673 47.4453C189.626 63.5665 183.82 82.6054 183.82 103L183.829 104.359C183.913 111.007 184.615 117.506 185.878 123.802C185.89 123.863 185.903 123.924 185.915 123.985C186.071 124.754 186.235 125.52 186.407 126.283C186.422 126.348 186.436 126.413 186.451 126.479C186.719 127.653 187.007 128.82 187.313 129.979C187.871 132.085 188.492 134.166 189.175 136.218H220.629V47.7236L288.995 116.09L357.361 47.7236V136.218H388.817C389.634 133.765 390.361 131.271 390.998 128.742C382.083 164.176 355.192 192.465 320.585 203.348C345.1 195.636 365.746 179.188 378.869 157.655H334.553V101.973L288.996 147.528L243.443 101.973V157.655H199.123C212.247 179.188 232.893 195.636 257.407 203.348C249.025 200.711 241.094 197.055 233.763 192.522C249.457 202.227 267.892 207.921 287.641 208.171L289 208.18C346.635 208.18 393.443 161.822 394.171 104.359L394.18 103C394.18 71.2421 380.104 42.7727 357.852 23.4873C375.746 38.998 388.351 60.4494 392.601 84.7734C384.416 37.9296 345.226 1.73457 296.966 -1.88281C294.782 -2.04635 292.579 -2.14279 290.359 -2.1709L289 -2.17969ZM212.039 174.692C212.128 174.788 212.218 174.882 212.308 174.977C212.187 174.848 212.066 174.721 211.946 174.592L212.039 174.692Z" fill="url(#paint3_linear_13922_244310)"/>
</g>
<path opacity="0.3" d="M412.5 103C412.5 35.3259 358.068 -19.6353 290.597 -20.4902L289 -20.5C220.793 -20.4998 165.5 34.793 165.5 103C165.5 171.207 220.793 226.5 289 226.5V228C219.965 228 164 172.035 164 103C164 33.9645 219.965 -21.9998 289 -22C358.036 -21.9999 414 33.9644 414 103C414 172.035 358.035 228 289 228V226.5C356.674 226.5 411.635 172.068 412.49 104.597L412.5 103ZM289.01 -3.67969L290.369 -3.6709H290.378C292.628 -3.6424 294.863 -3.54478 297.078 -3.37891C320.614 -1.61473 342.021 7.78885 358.829 22.3574L358.834 22.3535C359.148 22.6256 359.46 22.9001 359.771 23.1758C359.872 23.2656 359.972 23.3561 360.073 23.4463C360.32 23.6667 360.565 23.8886 360.81 24.1113C360.891 24.1852 360.972 24.2589 361.053 24.333C361.262 24.5248 361.47 24.7177 361.678 24.9111C361.809 25.0337 361.941 25.1561 362.072 25.2793C362.254 25.4506 362.435 25.6233 362.616 25.7959C362.81 25.9809 363.004 26.1661 363.196 26.3525C363.405 26.5546 363.613 26.7572 363.82 26.9609C363.953 27.0912 364.084 27.2225 364.216 27.3535C364.399 27.5355 364.581 27.7181 364.763 27.9014C364.891 28.0307 365.019 28.1601 365.146 28.29C365.299 28.4452 365.45 28.6008 365.602 28.7568C365.774 28.9345 365.946 29.1121 366.117 29.291C366.166 29.3419 366.214 29.3933 366.263 29.4443C366.607 29.8057 366.948 30.17 367.287 30.5361C367.435 30.6955 367.583 30.8544 367.729 31.0146C367.891 31.1912 368.051 31.3693 368.211 31.5469C368.33 31.6785 368.448 31.8102 368.566 31.9424C368.71 32.1035 368.854 32.2648 368.997 32.4268C369.135 32.5833 369.273 32.7402 369.41 32.8975C369.549 33.0571 369.689 33.2165 369.827 33.377C369.954 33.5238 370.079 33.6717 370.205 33.8193C370.795 34.5106 371.375 35.2096 371.947 35.916C372.02 36.0061 372.093 36.0962 372.166 36.1865C372.342 36.4058 372.518 36.626 372.692 36.8467C372.746 36.9141 372.799 36.9813 372.853 37.0488C373.049 37.2988 373.246 37.5491 373.44 37.8008C373.51 37.891 373.579 37.9818 373.648 38.0723C387.464 56.0562 395.68 78.5683 395.68 103V103.01L395.671 104.369V104.378C395.432 123.216 390.309 140.878 381.512 156.155H381.54L380.877 157.242C362.306 188.63 328.112 209.68 289 209.68H288.99L287.631 209.671H287.622C274.045 209.499 261.079 206.786 249.175 201.992C249.152 201.983 249.129 201.974 249.105 201.965C248.688 201.796 248.272 201.624 247.857 201.45C247.846 201.445 247.835 201.441 247.823 201.437C247.693 201.382 247.562 201.328 247.432 201.272C247.05 201.111 246.671 200.946 246.292 200.78C246.174 200.729 246.055 200.677 245.938 200.625C245.555 200.456 245.173 200.285 244.793 200.111C244.641 200.042 244.489 199.973 244.338 199.903C243.979 199.738 243.621 199.57 243.264 199.4C243.113 199.329 242.963 199.257 242.813 199.185C242.484 199.026 242.156 198.867 241.829 198.705C241.59 198.587 241.351 198.467 241.113 198.348C240.855 198.218 240.598 198.088 240.341 197.956C240.11 197.838 239.881 197.718 239.651 197.598C239.371 197.451 239.091 197.304 238.812 197.155C238.576 197.029 238.34 196.901 238.104 196.772C237.866 196.643 237.626 196.514 237.389 196.382C237.076 196.209 236.766 196.033 236.455 195.856C236.261 195.747 236.067 195.638 235.874 195.527C235.524 195.326 235.176 195.121 234.829 194.916C234.693 194.835 234.555 194.756 234.419 194.675C233.935 194.386 233.453 194.094 232.974 193.798L232.976 193.794C224.954 188.833 217.64 182.84 211.217 175.999L211.214 176.003C211.155 175.941 211.02 175.799 210.941 175.715L210.937 175.709L210.848 175.613L210.844 175.608L210.847 175.604C205.96 170.347 201.597 164.597 197.842 158.436L196.452 156.155H241.943V98.3516L288.996 145.406L336.053 98.3516V156.155H378.024C381.496 150.353 384.417 144.183 386.714 137.718H355.861V51.3447L288.995 118.211L222.129 51.3447V137.718H188.093L187.752 136.691C187.232 135.13 186.748 133.552 186.3 131.96L185.863 130.363C185.552 129.188 185.26 128.004 184.988 126.812L184.944 126.614C184.769 125.841 184.603 125.063 184.445 124.283C184.433 124.223 184.42 124.16 184.407 124.097C183.126 117.711 182.414 111.119 182.329 104.378V104.369L182.32 103.01V103C182.32 82.3168 188.208 63.0036 198.399 46.6514C198.411 46.6321 198.457 46.5603 198.477 46.5293C199.57 44.7798 200.713 43.0637 201.903 41.3838C202.458 40.6014 203.022 39.8257 203.598 39.0586C204.081 38.4143 204.571 37.7769 205.067 37.1455C206.16 35.7548 207.288 34.392 208.446 33.0586C209.232 32.1546 210.032 31.2622 210.849 30.3838L211.732 29.4443C216.18 24.7741 221.047 20.5069 226.272 16.7021C226.89 16.2527 227.513 15.8091 228.141 15.3721C229.274 14.5832 230.424 13.8157 231.589 13.0703C233.334 11.9536 235.115 10.8868 236.928 9.87109C237.724 9.42502 238.527 8.98751 239.337 8.56055C240.444 7.97737 241.562 7.41382 242.69 6.86914C243.521 6.46827 244.358 6.07795 245.2 5.69824C246.729 5.0092 248.276 4.35518 249.841 3.7373C249.86 3.72972 249.917 3.70752 249.945 3.69629C250.69 3.40337 251.438 3.11761 252.191 2.84082L252.401 2.76367L253.475 2.37891C264.589 -1.54525 276.547 -3.67964 289 -3.67969H289.01ZM248.323 200.02C248.231 199.981 248.139 199.942 248.047 199.903C247.897 199.84 247.749 199.775 247.6 199.711C247.841 199.814 248.081 199.918 248.323 200.02ZM245.167 198.632C245.829 198.936 246.494 199.233 247.163 199.523C246.922 199.419 246.681 199.315 246.441 199.209C246.13 199.071 245.819 198.93 245.509 198.789C245.395 198.737 245.281 198.684 245.167 198.632ZM331.65 199.165C331.508 199.228 331.365 199.287 331.223 199.35C331.408 199.268 331.594 199.189 331.779 199.106L331.65 199.165ZM212.039 174.692C212.128 174.788 212.218 174.882 212.308 174.977C212.187 174.848 212.066 174.721 211.946 174.592L212.039 174.692ZM388.817 136.218H388.813C388.908 135.934 389.004 135.65 389.096 135.365C389.004 135.65 388.912 135.934 388.817 136.218ZM389.118 135.3C389.111 135.322 389.103 135.343 389.096 135.365C389.103 135.342 389.112 135.319 389.119 135.296L389.118 135.3ZM392.214 123.312C392.185 123.46 392.154 123.608 392.124 123.756C392.161 123.572 392.199 123.388 392.234 123.204L392.214 123.312ZM357.852 23.4873C358.268 23.848 358.68 24.2129 359.091 24.5801C359.301 24.7683 359.511 24.9576 359.72 25.1475C359.849 25.2648 359.978 25.382 360.106 25.5C360.272 25.6524 360.438 25.8056 360.603 25.959C361.487 26.7818 362.358 27.6201 363.214 28.4727C363.367 28.6247 363.519 28.7767 363.671 28.9297C363.813 29.0725 363.954 29.2157 364.095 29.3594C364.292 29.5601 364.487 29.7616 364.683 29.9639C364.767 30.0512 364.852 30.138 364.936 30.2256C365.775 31.1017 366.6 31.9927 367.409 32.8975C367.578 33.0856 367.745 33.2745 367.912 33.4639C368.54 34.1759 369.158 34.897 369.767 35.626C369.264 35.0244 368.756 34.428 368.24 33.8379C368.131 33.713 368.022 33.5883 367.912 33.4639C367.745 33.2745 367.578 33.0856 367.409 32.8975C367.341 32.8214 367.272 32.7458 367.204 32.6699C366.647 32.051 366.083 31.4385 365.512 30.833C365.32 30.63 365.129 30.4271 364.936 30.2256C364.852 30.138 364.767 30.0512 364.683 29.9639C364.487 29.7616 364.292 29.5601 364.095 29.3594C363.954 29.2157 363.813 29.0725 363.671 28.9297C363.519 28.7767 363.367 28.6247 363.214 28.4727C363.08 28.3396 362.947 28.2065 362.812 28.0742C362.242 27.5117 361.665 26.9557 361.081 26.4062C360.922 26.2566 360.762 26.1077 360.603 25.959C360.438 25.8056 360.272 25.6524 360.106 25.5C359.978 25.382 359.849 25.2648 359.72 25.1475C359.511 24.9576 359.301 24.7683 359.091 24.5801C358.999 24.4975 358.906 24.4152 358.813 24.333C358.494 24.0495 358.174 23.767 357.852 23.4873ZM388.813 136.218C382.764 154.406 371.884 170.386 357.692 182.638C365.982 175.481 373.142 167.053 378.869 157.655H334.553V101.973L288.996 147.528L243.443 101.973V157.655H199.123C209.344 174.423 224.126 188.107 241.743 196.984C241.28 196.751 240.819 196.515 240.36 196.275C240.567 196.383 240.774 196.492 240.981 196.599C241.316 196.771 241.652 196.941 241.989 197.109C242.131 197.18 242.272 197.251 242.414 197.321C242.762 197.493 243.111 197.663 243.461 197.831C243.625 197.91 243.79 197.989 243.955 198.067C244.263 198.214 244.572 198.359 244.882 198.502C245.09 198.598 245.299 198.694 245.509 198.789C245.819 198.93 246.13 199.071 246.441 199.209C246.628 199.292 246.816 199.372 247.003 199.454C247.35 199.605 247.698 199.756 248.047 199.903C248.153 199.948 248.26 199.993 248.366 200.038C248.41 200.056 248.454 200.074 248.497 200.092C248.865 200.245 249.233 200.398 249.603 200.548C249.71 200.591 249.817 200.633 249.925 200.676C250.337 200.841 250.75 201.005 251.165 201.165C251.231 201.19 251.297 201.215 251.363 201.24C251.45 201.273 251.536 201.306 251.623 201.339C251.593 201.327 251.563 201.315 251.532 201.304C251.785 201.4 252.038 201.494 252.292 201.589C252.133 201.53 251.974 201.472 251.815 201.412C252.867 201.81 253.927 202.191 254.994 202.556C255.058 202.577 255.121 202.6 255.185 202.621C265.39 206.085 276.298 208.027 287.641 208.171L289 208.18C346.635 208.18 393.443 161.822 394.171 104.359L394.18 103C394.18 78.8818 386.06 56.6616 372.407 38.9189C372.359 38.8558 372.31 38.7925 372.262 38.7295C378.304 46.5471 383.269 55.2397 386.937 64.584C372.515 27.8513 338.024 1.19468 296.966 -1.88281C294.782 -2.04635 292.579 -2.14279 290.359 -2.1709L289 -2.17969C276.323 -2.17963 264.17 0.0625896 252.916 4.17285C252.847 4.19808 252.778 4.22365 252.709 4.24902C251.967 4.52178 251.229 4.8029 250.495 5.0918C250.461 5.10539 250.426 5.11918 250.392 5.13281C248.848 5.7421 247.323 6.38626 245.816 7.06543C244.986 7.43983 244.161 7.82457 243.343 8.21973C242.23 8.75696 241.127 9.31282 240.036 9.8877C239.238 10.3082 238.447 10.7394 237.661 11.1797C235.874 12.1812 234.118 13.2331 232.397 14.334C231.249 15.069 230.115 15.8257 228.997 16.6035C228.378 17.0341 227.764 17.4715 227.155 17.915C221.66 21.9166 216.566 26.437 211.947 31.4053C211.143 32.2708 210.353 33.1507 209.578 34.043C208.435 35.3579 207.324 36.7012 206.247 38.0723C205.757 38.6957 205.274 39.3243 204.798 39.959C204.231 40.7151 203.674 41.4793 203.127 42.251C201.953 43.9072 200.826 45.5991 199.748 47.3242C199.723 47.3645 199.698 47.405 199.673 47.4453C189.626 63.5665 183.82 82.6054 183.82 103L183.829 104.359C183.913 111.007 184.615 117.506 185.878 123.802C185.89 123.863 185.903 123.924 185.915 123.985C186.071 124.754 186.235 125.52 186.407 126.283C186.422 126.348 186.436 126.413 186.451 126.479C186.719 127.653 187.007 128.82 187.313 129.979C187.871 132.085 188.492 134.166 189.175 136.218H220.629V47.7236L288.995 116.09L357.361 47.7236V136.218H388.813Z" fill="url(#paint4_linear_13922_244310)"/>
<path opacity="0.08" d="M865 717C865 1062.18 585.178 1342 240 1342C-105.178 1342 -385 1062.18 -385 717C-385 371.822 -105.178 92 240 92C585.178 92 865 371.822 865 717Z" fill="url(#paint5_linear_13922_244310)"/>
</g>
<defs>
<linearGradient id="paint0_linear_13922_244310" x1="289" y1="7" x2="289" y2="228" gradientUnits="userSpaceOnUse">
<stop stop-color="white" stop-opacity="0.2"/>
<stop offset="0.853557" stop-color="white"/>
</linearGradient>
<linearGradient id="paint1_linear_13922_244310" x1="289" y1="7" x2="289" y2="228" gradientUnits="userSpaceOnUse">
<stop stop-color="white" stop-opacity="0.2"/>
<stop offset="0.853557" stop-color="white"/>
</linearGradient>
<linearGradient id="paint2_linear_13922_244310" x1="164" y1="36" x2="320" y2="140" gradientUnits="userSpaceOnUse">
<stop stop-color="white" stop-opacity="0"/>
<stop offset="1" stop-color="white"/>
</linearGradient>
<linearGradient id="paint3_linear_13922_244310" x1="164" y1="36" x2="320" y2="140" gradientUnits="userSpaceOnUse">
<stop stop-color="white" stop-opacity="0"/>
<stop offset="1" stop-color="white"/>
</linearGradient>
<linearGradient id="paint4_linear_13922_244310" x1="305.5" y1="103" x2="150.5" y2="30.5" gradientUnits="userSpaceOnUse">
<stop stop-color="white"/>
<stop offset="1" stop-color="white" stop-opacity="0"/>
</linearGradient>
<linearGradient id="paint5_linear_13922_244310" x1="42.5" y1="130" x2="92" y2="223" gradientUnits="userSpaceOnUse">
<stop stop-color="white"/>
<stop offset="1" stop-color="white" stop-opacity="0"/>
</linearGradient>
<clipPath id="clip0_13922_244310">
<rect width="330" height="205" fill="white"/>
</clipPath>
</defs>
</svg>
