<svg width="330" height="205" viewBox="0 0 330 205" fill="none" xmlns="http://www.w3.org/2000/svg">
<g clip-path="url(#clip0_14163_285020)">
<circle opacity="0.08" cx="240" cy="717" r="625" fill="url(#paint0_linear_14163_285020)"/>
<path opacity="0.08" fill-rule="evenodd" clip-rule="evenodd" d="M264.118 84.755L325.929 -10H342.68L277.304 90.8714H331.768V103.668H277.03L293.298 129.262H331.774V142.059H301.434L347.799 215H330.288L283.461 142.059H243.909L196.366 215H179L226.031 142.059H195.611L195.616 129.262H234.283L250.785 103.668H195.616V90.8714H250.232L185.737 -10H203.588L264.118 84.755ZM252.249 129.262H275.246L263.835 111.487L252.249 129.262Z" fill="url(#paint1_linear_14163_285020)"/>
<path opacity="0.08" fill-rule="evenodd" clip-rule="evenodd" d="M264.118 84.755L325.929 -10H342.68L277.304 90.8714H331.768V103.668H277.03L293.298 129.262H331.774V142.059H301.434L347.799 215H330.288L283.461 142.059H243.909L196.366 215H179L226.031 142.059H195.611L195.616 129.262H234.283L250.785 103.668H195.616V90.8714H250.232L185.737 -10H203.588L264.118 84.755ZM252.249 129.262H275.246L263.835 111.487L252.249 129.262Z" fill="url(#paint2_linear_14163_285020)"/>
<path opacity="0.2" d="M203.178 -9.25L263.485 85.1592L264.111 86.1377L264.746 85.165L326.335 -9.25H341.3L276.675 90.4639L275.924 91.6211H331.018V102.918H275.664L276.396 104.07L292.666 129.664L292.887 130.012H331.023V141.309H300.068L300.801 142.461L346.434 214.25H330.697L284.093 141.653L283.871 141.309H243.502L243.28 141.649L195.959 214.25H180.375L226.661 142.466L227.406 141.309H196.36L196.366 130.012H234.691L234.913 129.669L251.415 104.074L252.161 102.918H196.366V91.6211H251.602L250.863 90.4678L187.106 -9.25H203.178ZM263.206 111.077L251.621 128.853L250.865 130.012H276.619L275.877 128.856L264.466 111.082L263.84 110.105L263.206 111.077Z" stroke="url(#paint3_linear_14163_285020)" stroke-width="1.5"/>
</g>
<defs>
<linearGradient id="paint0_linear_14163_285020" x1="37.5" y1="125.5" x2="114.5" y2="185.5" gradientUnits="userSpaceOnUse">
<stop stop-color="white"/>
<stop offset="1" stop-color="white" stop-opacity="0"/>
</linearGradient>
<linearGradient id="paint1_linear_14163_285020" x1="263.399" y1="-10" x2="263" y2="203.5" gradientUnits="userSpaceOnUse">
<stop stop-color="white" stop-opacity="0"/>
<stop offset="1" stop-color="white"/>
</linearGradient>
<linearGradient id="paint2_linear_14163_285020" x1="189.5" y1="5" x2="274" y2="170.5" gradientUnits="userSpaceOnUse">
<stop stop-color="white" stop-opacity="0"/>
<stop offset="0.717378" stop-color="white"/>
</linearGradient>
<linearGradient id="paint3_linear_14163_285020" x1="191.5" y1="8" x2="302" y2="175.5" gradientUnits="userSpaceOnUse">
<stop stop-color="white" stop-opacity="0"/>
<stop offset="0.857265" stop-color="white"/>
</linearGradient>
<clipPath id="clip0_14163_285020">
<rect width="330" height="205" fill="white"/>
</clipPath>
</defs>
</svg>
