<svg width="330" height="205" viewBox="0 0 330 205" fill="none" xmlns="http://www.w3.org/2000/svg">
<g clip-path="url(#clip0_12569_91909)">
<g opacity="0.1">
<path d="M392.214 82.6885C392.185 82.5401 392.154 82.3923 392.124 82.2441C392.161 82.428 392.199 82.6117 392.234 82.7959L392.214 82.6885Z" fill="white"/>
<path fill-rule="evenodd" clip-rule="evenodd" d="M289 228C358.036 228 414 172.036 414 103C414 33.9645 358.035 -21.9999 289 -22C219.965 -21.9998 164 33.9646 164 103C164 172.035 219.965 228 289 228ZM289 208.18C276.323 208.18 264.17 205.937 252.916 201.827C252.847 201.802 252.778 201.776 252.709 201.751C251.967 201.478 251.229 201.197 250.495 200.908C250.461 200.895 250.426 200.881 250.392 200.867C248.848 200.258 247.323 199.614 245.816 198.935C244.986 198.56 244.161 198.175 243.343 197.78C242.23 197.243 241.127 196.687 240.036 196.112C239.238 195.692 238.447 195.261 237.661 194.82C235.874 193.819 234.118 192.767 232.397 191.666C231.249 190.931 230.115 190.174 228.997 189.396C228.378 188.966 227.764 188.528 227.155 188.085C221.66 184.083 216.566 179.563 211.947 174.595C211.143 173.729 210.353 172.849 209.578 171.957C208.435 170.642 207.324 169.299 206.247 167.928C205.757 167.304 205.274 166.676 204.798 166.041C204.231 165.285 203.674 164.521 203.127 163.749C201.953 162.093 200.826 160.401 199.748 158.676C199.723 158.635 199.698 158.595 199.673 158.555C189.626 142.434 183.82 123.395 183.82 103L183.829 101.641C183.913 94.993 184.615 88.494 185.878 82.1982C185.89 82.137 185.903 82.0758 185.915 82.0146C186.071 81.2456 186.235 80.4796 186.407 79.7168C186.422 79.6517 186.436 79.5865 186.451 79.5215C186.719 78.3469 187.007 77.1798 187.313 76.0205C187.871 73.9147 188.492 71.8344 189.175 69.7822H220.629V158.276L288.995 89.9102L357.361 158.276V69.7822H388.817C389.634 72.2354 390.361 74.7286 390.998 77.2578C382.083 41.8239 355.192 13.5352 320.585 2.65234C345.1 10.364 365.746 26.812 378.869 48.3447H334.553V104.027L288.996 58.4717L243.443 104.027V48.3447H199.123C212.247 26.8124 232.893 10.3642 257.407 2.65234C249.025 5.28853 241.094 8.94467 233.763 13.4775C249.457 3.7733 267.892 -1.92072 287.641 -2.1709L289 -2.17969C346.635 -2.17961 393.443 44.1782 394.171 101.641L394.18 103C394.18 134.758 380.104 163.227 357.852 182.513C375.746 167.002 388.351 145.551 392.601 121.227C384.416 168.07 345.226 204.265 296.966 207.883C294.782 208.046 292.579 208.143 290.359 208.171L289 208.18ZM212.039 31.3076C212.128 31.2123 212.218 31.1185 212.308 31.0234C212.187 31.1517 212.066 31.2793 211.946 31.4082L212.039 31.3076Z" fill="white"/>
</g>
<g opacity="0.16">
<path d="M392.214 82.6885C392.185 82.5401 392.154 82.3923 392.124 82.2441C392.161 82.428 392.199 82.6117 392.234 82.7959L392.214 82.6885Z" fill="url(#paint0_linear_12569_91909)"/>
<path fill-rule="evenodd" clip-rule="evenodd" d="M289 228C358.036 228 414 172.036 414 103C414 33.9645 358.035 -21.9999 289 -22C219.965 -21.9998 164 33.9646 164 103C164 172.035 219.965 228 289 228ZM289 208.18C276.323 208.18 264.17 205.937 252.916 201.827C252.847 201.802 252.778 201.776 252.709 201.751C251.967 201.478 251.229 201.197 250.495 200.908C250.461 200.895 250.426 200.881 250.392 200.867C248.848 200.258 247.323 199.614 245.816 198.935C244.986 198.56 244.161 198.175 243.343 197.78C242.23 197.243 241.127 196.687 240.036 196.112C239.238 195.692 238.447 195.261 237.661 194.82C235.874 193.819 234.118 192.767 232.397 191.666C231.249 190.931 230.115 190.174 228.997 189.396C228.378 188.966 227.764 188.528 227.155 188.085C221.66 184.083 216.566 179.563 211.947 174.595C211.143 173.729 210.353 172.849 209.578 171.957C208.435 170.642 207.324 169.299 206.247 167.928C205.757 167.304 205.274 166.676 204.798 166.041C204.231 165.285 203.674 164.521 203.127 163.749C201.953 162.093 200.826 160.401 199.748 158.676C199.723 158.635 199.698 158.595 199.673 158.555C189.626 142.434 183.82 123.395 183.82 103L183.829 101.641C183.913 94.993 184.615 88.494 185.878 82.1982C185.89 82.137 185.903 82.0758 185.915 82.0146C186.071 81.2456 186.235 80.4796 186.407 79.7168C186.422 79.6517 186.436 79.5865 186.451 79.5215C186.719 78.3469 187.007 77.1798 187.313 76.0205C187.871 73.9147 188.492 71.8344 189.175 69.7822H220.629V158.276L288.995 89.9102L357.361 158.276V69.7822H388.817C389.634 72.2354 390.361 74.7286 390.998 77.2578C382.083 41.8239 355.192 13.5352 320.585 2.65234C345.1 10.364 365.746 26.812 378.869 48.3447H334.553V104.027L288.996 58.4717L243.443 104.027V48.3447H199.123C212.247 26.8124 232.893 10.3642 257.407 2.65234C249.025 5.28853 241.094 8.94467 233.763 13.4775C249.457 3.7733 267.892 -1.92072 287.641 -2.1709L289 -2.17969C346.635 -2.17961 393.443 44.1782 394.171 101.641L394.18 103C394.18 134.758 380.104 163.227 357.852 182.513C375.746 167.002 388.351 145.551 392.601 121.227C384.416 168.07 345.226 204.265 296.966 207.883C294.782 208.046 292.579 208.143 290.359 208.171L289 208.18ZM212.039 31.3076C212.128 31.2123 212.218 31.1185 212.308 31.0234C212.187 31.1517 212.066 31.2793 211.946 31.4082L212.039 31.3076Z" fill="url(#paint1_linear_12569_91909)"/>
</g>
<g opacity="0.3">
<mask id="path-3-inside-1_12569_91909" fill="white">
<path d="M392.214 82.6885C392.185 82.5401 392.154 82.3923 392.124 82.2441C392.161 82.428 392.199 82.6117 392.234 82.7959L392.214 82.6885Z"/>
<path fill-rule="evenodd" clip-rule="evenodd" d="M289 228C358.036 228 414 172.036 414 103C414 33.9645 358.035 -21.9999 289 -22C219.965 -21.9998 164 33.9646 164 103C164 172.035 219.965 228 289 228ZM289 208.18C276.323 208.18 264.17 205.937 252.916 201.827C252.847 201.802 252.778 201.776 252.709 201.751C251.967 201.478 251.229 201.197 250.495 200.908C250.461 200.895 250.426 200.881 250.392 200.867C248.848 200.258 247.323 199.614 245.816 198.935C244.986 198.56 244.161 198.175 243.343 197.78C242.23 197.243 241.127 196.687 240.036 196.112C239.238 195.692 238.447 195.261 237.661 194.82C235.874 193.819 234.118 192.767 232.397 191.666C231.249 190.931 230.115 190.174 228.997 189.396C228.378 188.966 227.764 188.528 227.155 188.085C221.66 184.083 216.566 179.563 211.947 174.595C211.143 173.729 210.353 172.849 209.578 171.957C208.435 170.642 207.324 169.299 206.247 167.928C205.757 167.304 205.274 166.676 204.798 166.041C204.231 165.285 203.674 164.521 203.127 163.749C201.953 162.093 200.826 160.401 199.748 158.676C199.723 158.635 199.698 158.595 199.673 158.555C189.626 142.434 183.82 123.395 183.82 103L183.829 101.641C183.913 94.993 184.615 88.494 185.878 82.1982C185.89 82.137 185.903 82.0758 185.915 82.0146C186.071 81.2456 186.235 80.4796 186.407 79.7168C186.422 79.6517 186.436 79.5865 186.451 79.5215C186.719 78.3469 187.007 77.1798 187.313 76.0205C187.871 73.9147 188.492 71.8344 189.175 69.7822H220.629V158.276L288.995 89.9102L357.361 158.276V69.7822H388.817C389.634 72.2354 390.361 74.7286 390.998 77.2578C382.083 41.8239 355.192 13.5352 320.585 2.65234C345.1 10.364 365.746 26.812 378.869 48.3447H334.553V104.027L288.996 58.4717L243.443 104.027V48.3447H199.123C212.247 26.8124 232.893 10.3642 257.407 2.65234C249.025 5.28853 241.094 8.94467 233.763 13.4775C249.457 3.7733 267.892 -1.92072 287.641 -2.1709L289 -2.17969C346.635 -2.17961 393.443 44.1782 394.171 101.641L394.18 103C394.18 134.758 380.104 163.227 357.852 182.513C375.746 167.002 388.351 145.551 392.601 121.227C384.416 168.07 345.226 204.265 296.966 207.883C294.782 208.046 292.579 208.143 290.359 208.171L289 208.18ZM212.039 31.3076C212.128 31.2123 212.218 31.1185 212.308 31.0234C212.187 31.1517 212.066 31.2793 211.946 31.4082L212.039 31.3076Z"/>
</mask>
<path d="M288.996 -2.17773L288.996 -2.92773H288.996V-2.17773ZM222.645 21.3906L223.118 21.9723L223.118 21.9723L222.645 21.3906ZM205.923 38.4893L205.331 38.0288L205.923 38.4893ZM206.249 38.0713L206.839 38.5347L206.839 38.5347L206.249 38.0713ZM288.996 -2.17773L288.996 -1.42773C288.41 -1.42773 287.823 -1.42094 287.235 -1.41124L287.223 -2.16113L287.21 -2.91103C287.802 -2.92082 288.398 -2.92773 288.996 -2.92773L288.996 -2.17773ZM288.996 -2.17773V-2.92773C289.593 -2.92773 290.189 -2.92079 290.78 -2.91103L290.768 -2.16113L290.755 -1.41124C290.168 -1.42093 289.582 -1.42773 288.996 -1.42773V-2.17773ZM258.834 2.21484L258.619 1.49626C259.488 1.23656 260.361 0.988388 261.238 0.750702L261.435 1.47461L261.631 2.19852C260.765 2.43297 259.905 2.67761 259.049 2.93343L258.834 2.21484ZM319.197 2.22656L318.982 2.94508C318.114 2.68512 317.24 2.43639 316.362 2.19853L316.558 1.47461L316.754 0.750687C317.644 0.991913 318.531 1.24425 319.412 1.50804L319.197 2.22656ZM231.327 15.0303L230.915 14.4034C231.683 13.8989 232.458 13.4048 233.239 12.9203L233.635 13.5576L234.03 14.1949C233.259 14.673 232.496 15.1601 231.739 15.6571L231.327 15.0303ZM229.429 16.3076L229.854 16.9254C229.168 17.3976 228.488 17.8768 227.815 18.3643L227.375 17.7568L226.935 17.1494C227.619 16.6544 228.308 16.1683 229.003 15.6898L229.429 16.3076ZM226.573 18.3438L226.128 17.7405C226.331 17.5903 226.535 17.4412 226.738 17.293L227.18 17.8994L227.621 18.5058C227.419 18.6526 227.219 18.7995 227.019 18.947L226.573 18.3438ZM224.396 19.9961L223.935 19.4046C224.585 18.8986 225.24 18.4005 225.9 17.9096L226.348 18.5117L226.795 19.1138C226.143 19.5979 225.497 20.0891 224.858 20.5876L224.396 19.9961ZM223.567 20.6494L223.1 20.0625C223.267 19.9298 223.438 19.7932 223.61 19.6583L224.073 20.248L224.537 20.8378C224.37 20.9689 224.204 21.101 224.034 21.2363L223.567 20.6494ZM222.645 21.3906L223.118 21.9723C222.657 22.3479 222.198 22.7279 221.743 23.1116L221.26 22.5381L220.776 21.9646C221.238 21.5758 221.703 21.1904 222.171 20.809L222.645 21.3906ZM219.699 23.8799L219.205 23.3159C219.416 23.1306 219.629 22.945 219.843 22.7602L220.333 23.3281L220.823 23.896C220.613 24.0772 220.403 24.2599 220.194 24.4439L219.699 23.8799ZM218.963 24.5303L218.463 23.9709C218.664 23.7915 218.866 23.614 219.065 23.4388L219.561 24.002L220.056 24.5651C219.856 24.7412 219.658 24.9148 219.462 25.0896L218.963 24.5303ZM217.795 25.5898L217.287 25.038C217.583 24.7659 217.88 24.4959 218.178 24.2276L218.68 24.7852L219.181 25.3427C218.887 25.6077 218.594 25.8739 218.303 26.1417L217.795 25.5898ZM216.879 26.4434L216.365 25.8976C216.543 25.7296 216.723 25.5593 216.905 25.3901L217.416 25.9395L217.927 26.4888C217.749 26.6539 217.572 26.8204 217.393 26.9892L216.879 26.4434ZM216.172 27.1152L215.652 26.5742C215.829 26.4047 216.006 26.2354 216.185 26.0667L216.7 26.6113L217.216 27.1559C217.041 27.3219 216.866 27.4887 216.691 27.6563L216.172 27.1152ZM215.409 27.8545L214.884 27.3187C215.008 27.1978 215.132 27.0777 215.254 26.9587L215.776 27.4971L216.299 28.0354C216.176 28.1543 216.055 28.2722 215.934 28.3903L215.409 27.8545ZM214.191 29.0674L213.658 28.5402C213.905 28.2901 214.153 28.0417 214.402 27.7947L214.931 28.3271L215.459 28.8596C215.213 29.1037 214.968 29.3486 214.725 29.5946L214.191 29.0674ZM213.536 29.7363L212.998 29.2139C213.099 29.1096 213.204 29.0011 213.309 28.8942L213.845 29.4189L214.381 29.9437C214.279 30.0476 214.179 30.1514 214.074 30.2588L213.536 29.7363ZM212.759 30.5459L212.215 30.0292C212.315 29.9237 212.42 29.8132 212.524 29.7046L213.065 30.2236L213.607 30.7426C213.506 30.8482 213.406 30.9531 213.302 31.0626L212.759 30.5459ZM210.188 33.3477L209.627 32.8508C209.729 32.7356 209.831 32.6209 209.933 32.5066L210.492 33.0059L211.052 33.5052C210.951 33.6183 210.85 33.7313 210.75 33.8445L210.188 33.3477ZM209.444 34.1982L208.877 33.7074C208.974 33.5951 209.072 33.4825 209.17 33.3701L209.735 33.8633L210.3 34.3565C210.204 34.4669 210.108 34.5777 210.011 34.6891L209.444 34.1982ZM208.295 35.5498L207.72 35.0685C207.963 34.7776 208.208 34.4882 208.454 34.2001L209.024 34.6875L209.594 35.1749C209.351 35.4591 209.11 35.7445 208.87 36.0311L208.295 35.5498ZM207.752 36.2031L207.173 35.7265C207.262 35.6185 207.352 35.5092 207.442 35.4L208.02 35.8789L208.597 36.3578C208.508 36.4643 208.42 36.5714 208.331 36.6797L207.752 36.2031ZM207.004 37.1221L206.42 36.652C206.515 36.5329 206.613 36.4118 206.711 36.291L207.293 36.7637L207.875 37.2363C207.78 37.3539 207.685 37.472 207.588 37.5922L207.004 37.1221ZM205.923 38.4893L206.515 38.9497C206.349 39.1633 206.183 39.378 206.018 39.5935L205.423 39.1377L204.827 38.6819C204.994 38.4639 205.162 38.2461 205.331 38.0288L205.923 38.4893ZM204.732 40.0498L204.132 39.6005C204.2 39.5096 204.27 39.4154 204.34 39.3222L204.939 39.7734L205.538 40.2247C205.47 40.3153 205.403 40.4057 205.333 40.4991L204.732 40.0498ZM204.035 40.9912L203.43 40.5486C203.481 40.4782 203.538 40.4015 203.586 40.3362L204.19 40.7803L204.795 41.2244C204.739 41.2998 204.692 41.3633 204.641 41.4338L204.035 40.9912ZM202.564 43.0557L201.949 42.6277C201.989 42.5701 202.047 42.4854 202.092 42.4202L202.707 42.8496L203.322 43.279C203.272 43.3508 203.236 43.404 203.18 43.4836L202.564 43.0557ZM201.199 45.0684L200.574 44.6547C200.628 44.5728 200.688 44.4825 200.739 44.4069L201.363 44.8223L201.988 45.2376C201.929 45.3262 201.879 45.3994 201.825 45.482L201.199 45.0684ZM199.674 47.4463L199.037 47.0496C199.14 46.8843 199.246 46.7146 199.352 46.546L199.986 46.9463L200.621 47.3465C200.517 47.5104 200.415 47.6746 200.31 47.843L199.674 47.4463ZM199.179 48.248L198.539 47.8571C198.588 47.7759 198.641 47.6889 198.693 47.6043L199.332 47.9971L199.971 48.3898C199.92 48.4723 199.871 48.5529 199.819 48.639L199.179 48.248ZM196.65 52.6191L195.992 52.2594C196.061 52.1332 196.131 52.0073 196.2 51.8817L196.856 52.2441L197.513 52.6066C197.445 52.7307 197.376 52.8548 197.308 52.9789L196.65 52.6191ZM194.944 55.873L194.274 55.5365C194.295 55.4956 194.317 55.4521 194.336 55.4136L195.006 55.751L195.676 56.0883C195.654 56.1313 195.635 56.169 195.615 56.2095L194.944 55.873ZM193.293 59.3174L192.611 59.0056C192.642 58.9381 192.676 58.8618 192.709 58.7902L193.391 59.1035L194.072 59.4169C194.039 59.4877 194.009 59.5541 193.975 59.6292L193.293 59.3174ZM192.798 60.4189L192.112 60.115C192.138 60.056 192.173 59.9777 192.202 59.9124L192.887 60.2178L193.572 60.5231C193.541 60.5917 193.517 60.6478 193.484 60.7229L192.798 60.4189ZM192.32 61.5127L191.631 61.2166C191.651 61.1701 191.673 61.119 191.694 61.0701L192.383 61.3672L193.071 61.6643C193.051 61.7123 193.031 61.7583 193.009 61.8088L192.32 61.5127ZM190.875 65.0518L190.176 64.7811C190.198 64.7225 190.225 64.6555 190.245 64.6021L190.944 64.874L191.643 65.146C191.618 65.211 191.598 65.2624 191.574 65.3224L190.875 65.0518ZM189.162 69.8184L188.45 69.5819C188.469 69.5264 188.49 69.4607 188.51 69.4009L189.222 69.6387L189.933 69.8764C189.913 69.9363 189.895 69.9905 189.874 70.0548L189.162 69.8184ZM188.354 72.3613L187.636 72.1432C187.663 72.0533 187.695 71.9475 187.724 71.851L188.441 72.0713L189.158 72.2915C189.129 72.3881 189.103 72.476 189.071 72.5795L188.354 72.3613ZM188.02 73.4844L187.3 73.2743C187.313 73.2287 187.336 73.1482 187.352 73.0943L188.071 73.3057L188.791 73.517C188.772 73.5821 188.761 73.6209 188.74 73.6945L188.02 73.4844ZM392.601 121.227L391.862 121.097C392.064 119.942 392.247 118.78 392.411 117.612L393.153 117.716L393.896 117.82C393.73 119.005 393.544 120.184 393.339 121.356L392.601 121.227ZM356.049 184.04L355.57 183.462C356.157 182.977 356.737 182.485 357.313 181.987L357.804 182.554L358.295 183.121C357.711 183.626 357.122 184.125 356.527 184.618L356.049 184.04ZM355.967 184.107L356.445 184.686C356.174 184.909 355.902 185.132 355.628 185.354L355.156 184.771L354.684 184.189C354.953 183.971 355.221 183.751 355.489 183.529L355.967 184.107ZM354.981 184.913L355.452 185.497C355.196 185.704 354.938 185.909 354.68 186.114L354.215 185.525L353.749 184.937C354.004 184.736 354.258 184.533 354.511 184.329L354.981 184.913ZM353.934 185.746L354.397 186.336C354.173 186.512 353.947 186.69 353.718 186.866L353.26 186.272L352.801 185.679C353.024 185.507 353.246 185.333 353.47 185.156L353.934 185.746ZM353.062 186.424L353.519 187.018C353.267 187.212 353.014 187.406 352.758 187.599L352.307 187L351.855 186.401C352.105 186.213 352.354 186.022 352.604 185.829L353.062 186.424ZM350.331 188.456L349.893 187.847C350.489 187.419 351.079 186.983 351.667 186.542L352.117 187.142L352.568 187.741C351.973 188.188 351.374 188.63 350.769 189.065L350.331 188.456ZM343.342 193.071L342.954 192.429C345.295 191.014 347.577 189.508 349.793 187.918L350.23 188.527L350.668 189.137C348.419 190.749 346.105 192.277 343.73 193.713L343.342 193.071ZM343.261 193.121L343.648 193.763C343.375 193.928 343.1 194.09 342.83 194.25L342.448 193.604L342.067 192.959C342.339 192.798 342.607 192.64 342.873 192.479L343.261 193.121ZM342.191 193.757L342.571 194.404C342.377 194.517 342.182 194.63 341.992 194.74L341.616 194.091L341.24 193.442C341.434 193.329 341.623 193.221 341.812 193.11L342.191 193.757ZM341.086 194.397L341.458 195.049C341.299 195.139 341.134 195.231 340.982 195.317L340.613 194.664L340.245 194.011C340.408 193.919 340.559 193.835 340.714 193.746L341.086 194.397ZM340.023 194.996L340.388 195.652C340.234 195.737 340.078 195.822 339.928 195.904L339.567 195.247L339.206 194.59C339.361 194.505 339.51 194.424 339.659 194.341L340.023 194.996ZM338.888 195.618L339.244 196.278C339.08 196.367 338.914 196.455 338.754 196.54L338.401 195.878L338.049 195.216C338.213 195.128 338.372 195.044 338.531 194.958L338.888 195.618ZM337.904 196.143L338.254 196.806C338.046 196.916 337.838 197.023 337.632 197.13L337.287 196.464L336.942 195.798C337.149 195.691 337.352 195.585 337.555 195.479L337.904 196.143ZM336.701 196.765L337.042 197.433C336.892 197.509 336.741 197.585 336.591 197.661L336.254 196.991L335.917 196.321C336.065 196.247 336.213 196.172 336.361 196.096L336.701 196.765ZM335.655 197.291L335.988 197.963C335.798 198.057 335.608 198.151 335.418 198.243L335.089 197.569L334.76 196.895C334.948 196.803 335.136 196.712 335.322 196.619L335.655 197.291ZM334.503 197.854L334.828 198.53C334.664 198.608 334.5 198.686 334.337 198.764L334.016 198.086L333.694 197.408C333.856 197.331 334.018 197.255 334.178 197.178L334.503 197.854ZM333.371 198.39L333.688 199.069C333.519 199.148 333.349 199.226 333.184 199.302L332.871 198.62L332.558 197.939C332.726 197.861 332.89 197.786 333.054 197.71L333.371 198.39ZM332.266 198.896L332.574 199.58C332.385 199.665 332.196 199.75 332.009 199.833L331.704 199.147L331.399 198.462C331.587 198.379 331.772 198.296 331.957 198.213L332.266 198.896ZM331.192 199.374L331.494 200.061C331.275 200.157 331.056 200.252 330.837 200.346L330.54 199.657L330.244 198.968C330.46 198.875 330.676 198.781 330.891 198.687L331.192 199.374ZM329.995 199.89L330.288 200.58C330.101 200.66 329.913 200.739 329.724 200.817L329.436 200.125L329.147 199.433C329.332 199.356 329.517 199.278 329.703 199.199L329.995 199.89ZM328.845 200.369L329.129 201.063C328.952 201.136 328.769 201.211 328.587 201.284L328.307 200.589L328.026 199.893C328.203 199.822 328.379 199.749 328.56 199.675L328.845 200.369ZM327.497 200.91L327.772 201.608C327.694 201.639 327.575 201.686 327.486 201.721L327.214 201.022L326.941 200.324C327.042 200.285 327.111 200.256 327.222 200.212L327.497 200.91ZM326.298 201.374L326.564 202.075C326.484 202.106 326.383 202.145 326.295 202.178L326.031 201.476L325.767 200.774C325.858 200.74 325.934 200.71 326.032 200.673L326.298 201.374ZM325.213 201.778L325.471 202.482C325.334 202.533 325.191 202.586 325.049 202.637L324.794 201.932L324.539 201.226C324.677 201.177 324.813 201.126 324.955 201.074L325.213 201.778ZM324.011 202.211L324.26 202.918C324.158 202.954 324.014 203.007 323.898 203.047L323.651 202.339L323.404 201.631C323.529 201.587 323.624 201.552 323.761 201.504L324.011 202.211ZM313.869 205.223L314.046 205.952C314.002 205.962 313.929 205.979 313.893 205.988L313.718 205.259L313.542 204.53C313.608 204.514 313.635 204.508 313.692 204.494L313.869 205.223ZM312.648 205.511L312.816 206.242C312.731 206.261 312.642 206.281 312.561 206.3L312.395 205.568L312.228 204.837C312.316 204.817 312.397 204.799 312.48 204.78L312.648 205.511ZM311.337 205.803L311.495 206.536C311.491 206.537 311.486 206.538 311.475 206.54C311.466 206.543 311.451 206.546 311.434 206.55L311.276 205.816L311.118 205.083C311.122 205.082 311.127 205.081 311.138 205.079C311.147 205.077 311.162 205.073 311.178 205.07L311.337 205.803ZM308.784 206.322L308.924 207.059C308.905 207.063 308.886 207.066 308.876 207.068C308.864 207.07 308.86 207.07 308.858 207.071L308.718 206.334L308.578 205.597C308.597 205.593 308.616 205.59 308.625 205.589C308.638 205.587 308.641 205.586 308.644 205.585L308.784 206.322ZM307.554 206.549L307.685 207.287C307.64 207.295 307.543 207.312 307.509 207.318L307.379 206.579L307.249 205.84C307.331 205.826 307.351 205.823 307.422 205.81L307.554 206.549ZM306.26 206.771L306.382 207.51C306.362 207.514 306.247 207.532 306.24 207.533L306.119 206.793L305.998 206.053C306.085 206.039 306.064 206.043 306.138 206.031L306.26 206.771ZM304.924 206.982L305.036 207.724C305.026 207.725 305.017 207.727 305.011 207.728C305.004 207.728 304.998 207.729 304.996 207.729C304.992 207.73 304.992 207.73 304.992 207.73C304.992 207.73 304.995 207.729 304.999 207.729L304.887 206.987L304.774 206.246C304.785 206.244 304.793 206.243 304.8 206.242C304.806 206.241 304.812 206.241 304.815 206.24C304.818 206.24 304.819 206.24 304.818 206.24C304.818 206.24 304.815 206.24 304.811 206.241L304.924 206.982ZM303.74 207.155L303.844 207.898C303.744 207.912 303.637 207.926 303.542 207.939L303.44 207.196L303.338 206.453C303.443 206.439 303.537 206.426 303.636 206.413L303.74 207.155ZM302.513 207.319L302.608 208.063C302.492 208.078 302.372 208.094 302.253 208.108L302.16 207.364L302.067 206.62C302.183 206.606 302.299 206.591 302.417 206.575L302.513 207.319ZM301.019 207.501L301.103 208.246C301.092 208.247 301.081 208.249 301.075 208.249C301.068 208.25 301.067 208.25 301.066 208.25L300.981 207.505L300.897 206.76C300.908 206.758 300.919 206.757 300.925 206.757C300.931 206.756 300.933 206.756 300.934 206.756L301.019 207.501ZM297.107 207.872L297.164 208.62C297.152 208.621 297.085 208.626 297.064 208.628L297.008 207.88L296.952 207.132C296.997 207.129 296.997 207.128 297.05 207.124L297.107 207.872ZM316.465 1.44922L316.269 2.17332C315.847 2.05925 315.424 1.94722 315.001 1.83882L315.188 1.1123L315.374 0.385788C315.805 0.496216 316.233 0.609955 316.66 0.725113L316.465 1.44922ZM320.519 2.63184L320.294 3.34744C319.869 3.2142 319.445 3.08308 319.02 2.95575L319.235 2.2373L319.451 1.51886C319.884 1.64862 320.314 1.78175 320.743 1.91623L320.519 2.63184ZM230.579 15.5264L230.162 14.9031C230.397 14.7458 230.633 14.5894 230.869 14.4339L231.281 15.0605L231.693 15.6872C231.46 15.8404 231.228 15.9946 230.996 16.1497L230.579 15.5264ZM229.694 16.125L229.271 15.506C229.492 15.355 229.713 15.2053 229.934 15.0565L230.353 15.6787L230.771 16.3009C230.553 16.4482 230.335 16.5957 230.118 16.744L229.694 16.125ZM220.562 23.1318L220.074 22.5625C220.256 22.4064 220.442 22.2466 220.629 22.0885L221.113 22.6611L221.598 23.2337C221.416 23.3876 221.235 23.5428 221.051 23.7011L220.562 23.1318ZM222.645 21.3906L222.171 20.809C222.378 20.6402 222.586 20.4724 222.795 20.3054L223.264 20.8906L223.733 21.4758C223.527 21.6407 223.322 21.8061 223.118 21.9723L222.645 21.3906ZM206.249 38.0713L205.659 37.6079C205.784 37.4493 205.909 37.2917 206.033 37.1358L206.62 37.6025L207.207 38.0692C207.083 38.2253 206.96 38.3798 206.839 38.5347L206.249 38.0713ZM206.249 38.0713L206.839 38.5347C206.731 38.6719 206.624 38.8099 206.515 38.9497L205.923 38.4893L205.331 38.0288C205.439 37.8896 205.549 37.7486 205.659 37.6079L206.249 38.0713ZM391.417 78.9834L390.687 79.154C390.646 78.9805 390.605 78.807 390.564 78.6333L391.293 78.459L392.022 78.2846C392.064 78.4603 392.106 78.6363 392.147 78.8128L391.417 78.9834ZM392.037 81.8154L391.302 81.9657C391.251 81.7161 391.199 81.4667 391.146 81.2172L391.88 81.0615L392.614 80.9058C392.667 81.1584 392.72 81.4115 392.772 81.6651L392.037 81.8154ZM289 228V229.5H289L289 228ZM414 103H415.5V103H414ZM289 -22L289 -23.5H289V-22ZM164 103H162.5V103H164ZM289 208.18L289.01 209.68H289L289 208.18ZM252.916 201.827L252.401 203.236L252.401 203.236L252.916 201.827ZM252.709 201.751L253.227 200.343L253.227 200.343L252.709 201.751ZM250.495 200.908L249.946 202.304L249.946 202.304L250.495 200.908ZM250.392 200.867L250.942 199.472L250.943 199.472L250.392 200.867ZM245.816 198.935L245.2 200.302L245.2 200.302L245.816 198.935ZM243.343 197.78L243.995 196.429L243.995 196.429L243.343 197.78ZM240.036 196.112L239.337 197.439L239.337 197.439L240.036 196.112ZM237.661 194.82L238.394 193.512L238.394 193.512L237.661 194.82ZM232.397 191.666L231.589 192.93L231.589 192.93L232.397 191.666ZM228.997 189.396L229.854 188.165L229.854 188.165L228.997 189.396ZM227.155 188.085L226.272 189.298L226.272 189.298L227.155 188.085ZM211.947 174.595L210.849 175.616L210.849 175.616L211.947 174.595ZM209.578 171.957L210.71 170.973L210.71 170.973L209.578 171.957ZM206.247 167.928L205.068 168.854L205.068 168.854L206.247 167.928ZM204.798 166.041L205.998 165.141L205.998 165.141L204.798 166.041ZM203.127 163.749L201.903 164.616L201.903 164.616L203.127 163.749ZM199.748 158.676L201.02 157.881L201.02 157.881L199.748 158.676ZM199.673 158.555L198.4 159.348L198.4 159.348L199.673 158.555ZM183.82 103H182.32L182.32 102.99L183.82 103ZM183.829 101.641L182.329 101.631L182.329 101.622L183.829 101.641ZM185.878 82.1982L184.407 81.9032L184.407 81.9032L185.878 82.1982ZM185.915 82.0146L187.385 82.3123L187.385 82.3124L185.915 82.0146ZM186.407 79.7168L184.944 79.3862L184.944 79.386L186.407 79.7168ZM186.451 79.5215L187.914 79.8549L187.914 79.8551L186.451 79.5215ZM187.313 76.0205L185.863 75.6368L185.863 75.6366L187.313 76.0205ZM189.175 69.7822L187.752 69.3085L188.093 68.2822H189.175V69.7822ZM220.629 69.7822V68.2822H222.129V69.7822H220.629ZM220.629 158.276L221.69 159.337L219.129 161.898V158.276H220.629ZM288.995 89.9102L287.934 88.8495L288.995 87.7888L290.056 88.8495L288.995 89.9102ZM357.361 158.276H358.861V161.898L356.301 159.337L357.361 158.276ZM357.361 69.7822H355.861V68.2822H357.361V69.7822ZM388.817 69.7822V68.2822H389.899L390.241 69.3085L388.817 69.7822ZM390.998 77.2578L392.453 76.8918L389.543 77.6239L390.998 77.2578ZM320.585 2.65234L320.135 4.08322L321.035 1.22142L320.585 2.65234ZM378.869 48.3447L380.15 47.5641L381.54 49.8447H378.869V48.3447ZM334.553 48.3447H333.053V46.8447H334.553V48.3447ZM334.553 104.027H336.053V107.649L333.492 105.088L334.553 104.027ZM288.996 58.4717L287.935 57.4111L288.996 56.3503L290.057 57.411L288.996 58.4717ZM243.443 104.027L244.504 105.088L241.943 107.649V104.027H243.443ZM243.443 48.3447V46.8447H244.943V48.3447H243.443ZM199.123 48.3447V49.8447H196.452L197.842 47.564L199.123 48.3447ZM257.407 2.65234L256.957 1.22144L257.857 4.08321L257.407 2.65234ZM233.763 13.4775L234.552 14.7534L232.974 12.2017L233.763 13.4775ZM287.641 -2.1709L287.622 -3.67081L287.631 -3.67087L287.641 -2.1709ZM289 -2.17969L288.99 -3.67969H289V-2.17969ZM394.171 101.641L395.671 101.622L395.671 101.631L394.171 101.641ZM394.18 103L395.68 102.99V103H394.18ZM357.852 182.513L358.834 183.646L356.869 181.379L357.852 182.513ZM392.601 121.227L391.123 120.968L394.078 121.485L392.601 121.227ZM296.966 207.883L297.078 209.379L297.078 209.379L296.966 207.883ZM290.359 208.171L290.378 209.671L290.369 209.671L290.359 208.171ZM212.039 31.3076L210.936 30.2906L210.942 30.285L212.039 31.3076ZM212.308 31.0234L211.214 29.9967L213.401 32.0502L212.308 31.0234ZM211.946 31.4082L213.045 32.4295L210.844 30.3912L211.946 31.4082ZM392.214 82.6885L393.686 82.4004L393.687 82.4072L392.214 82.6885ZM392.124 82.2441L390.653 82.5386L393.595 81.9495L392.124 82.2441ZM392.234 82.7959L393.708 82.5146L390.762 83.0826L392.234 82.7959ZM289 228V226.5C357.207 226.5 412.5 171.207 412.5 103H414H415.5C415.5 172.864 358.864 229.5 289 229.5V228ZM414 103H412.5C412.5 34.7929 357.207 -20.4999 289 -20.5V-22V-23.5C358.864 -23.4999 415.5 33.1361 415.5 103H414ZM289 -22L289 -20.5C220.793 -20.4998 165.5 34.793 165.5 103H164H162.5C162.5 33.1362 219.136 -23.4998 289 -23.5L289 -22ZM164 103H165.5C165.5 171.207 220.793 226.5 289 226.5L289 228L289 229.5C219.136 229.5 162.5 172.864 162.5 103H164ZM289 208.18L289 209.68C276.145 209.68 263.818 207.406 252.401 203.236L252.916 201.827L253.431 200.418C264.522 204.469 276.501 206.68 289 206.68L289 208.18ZM252.916 201.827L252.401 203.236C252.331 203.21 252.255 203.182 252.191 203.159L252.709 201.751L253.227 200.343C253.301 200.371 253.363 200.393 253.431 200.418L252.916 201.827ZM252.709 201.751L252.191 203.159C251.438 202.882 250.69 202.597 249.946 202.304L250.495 200.908L251.044 199.512C251.768 199.797 252.496 200.074 253.227 200.343L252.709 201.751ZM250.495 200.908L249.946 202.304C249.917 202.293 249.86 202.27 249.841 202.262L250.392 200.867L250.943 199.472C250.993 199.492 251.004 199.496 251.045 199.512L250.495 200.908ZM250.392 200.867L249.841 202.262C248.276 201.644 246.728 200.991 245.2 200.302L245.816 198.935L246.433 197.567C247.917 198.236 249.421 198.871 250.942 199.472L250.392 200.867ZM245.816 198.935L245.2 200.302C244.358 199.922 243.521 199.532 242.691 199.131L243.343 197.78L243.995 196.429C244.802 196.819 245.614 197.198 246.433 197.567L245.816 198.935ZM243.343 197.78L242.691 199.131C241.562 198.586 240.444 198.023 239.337 197.439L240.036 196.112L240.735 194.785C241.81 195.352 242.897 195.9 243.995 196.429L243.343 197.78ZM240.036 196.112L239.337 197.439C238.527 197.012 237.724 196.575 236.928 196.129L237.661 194.82L238.394 193.512C239.17 193.946 239.95 194.371 240.735 194.785L240.036 196.112ZM237.661 194.82L236.928 196.129C235.115 195.113 233.335 194.046 231.589 192.93L232.397 191.666L233.206 190.402C234.902 191.488 236.632 192.524 238.394 193.512L237.661 194.82ZM232.397 191.666L231.589 192.93C230.424 192.184 229.274 191.417 228.14 190.628L228.997 189.396L229.854 188.165C230.956 188.932 232.073 189.678 233.206 190.402L232.397 191.666ZM228.997 189.396L228.14 190.628C227.512 190.191 226.89 189.747 226.272 189.298L227.155 188.085L228.038 186.872C228.639 187.31 229.244 187.741 229.854 188.165L228.997 189.396ZM227.155 188.085L226.272 189.298C220.699 185.239 215.533 180.655 210.849 175.616L211.947 174.595L213.046 173.573C217.599 178.471 222.621 182.928 228.038 186.872L227.155 188.085ZM211.947 174.595L210.849 175.616C210.032 174.737 209.232 173.845 208.446 172.941L209.578 171.957L210.71 170.973C211.475 171.854 212.253 172.721 213.046 173.573L211.947 174.595ZM209.578 171.957L208.446 172.941C207.287 171.608 206.16 170.245 205.068 168.854L206.247 167.928L207.427 167.001C208.488 168.352 209.584 169.677 210.71 170.973L209.578 171.957ZM206.247 167.928L205.068 168.854C204.571 168.223 204.081 167.585 203.598 166.941L204.798 166.041L205.998 165.141C206.467 165.766 206.943 166.386 207.427 167.001L206.247 167.928ZM204.798 166.041L203.598 166.941C203.023 166.174 202.458 165.399 201.903 164.616L203.127 163.749L204.351 162.882C204.89 163.643 205.439 164.396 205.998 165.141L204.798 166.041ZM203.127 163.749L201.903 164.616C200.713 162.936 199.57 161.22 198.476 159.471L199.748 158.676L201.02 157.881C202.083 159.581 203.194 161.249 204.351 162.882L203.127 163.749ZM199.748 158.676L198.476 159.471C198.457 159.44 198.412 159.367 198.4 159.348L199.673 158.555L200.946 157.761C200.984 157.823 200.989 157.831 201.02 157.881L199.748 158.676ZM199.673 158.555L198.4 159.348C188.208 142.996 182.32 123.683 182.32 103H183.82H185.32C185.32 123.106 191.043 141.871 200.946 157.761L199.673 158.555ZM183.82 103L182.32 102.99L182.329 101.631L183.829 101.641L185.329 101.65L185.32 103.01L183.82 103ZM183.829 101.641L182.329 101.622C182.415 94.8807 183.126 88.2893 184.407 81.9032L185.878 82.1982L187.349 82.4933C186.104 88.6988 185.412 95.1053 185.329 101.66L183.829 101.641ZM185.878 82.1982L184.407 81.9032C184.42 81.8402 184.433 81.7767 184.445 81.7169L185.915 82.0146L187.385 82.3124C187.373 82.375 187.361 82.4338 187.349 82.4933L185.878 82.1982ZM185.915 82.0146L184.445 81.717C184.603 80.9369 184.769 80.16 184.944 79.3862L186.407 79.7168L187.87 80.0474C187.7 80.7993 187.539 81.5543 187.385 82.3123L185.915 82.0146ZM186.407 79.7168L184.944 79.386C184.956 79.3351 184.974 79.2505 184.989 79.1879L186.451 79.5215L187.914 79.8551C187.898 79.9226 187.888 79.9684 187.87 80.0476L186.407 79.7168ZM186.451 79.5215L184.989 79.188C185.26 77.9964 185.552 76.8125 185.863 75.6368L187.313 76.0205L188.764 76.4042C188.461 77.5471 188.178 78.6974 187.914 79.8549L186.451 79.5215ZM187.313 76.0205L185.863 75.6366C186.429 73.5008 187.059 71.3905 187.752 69.3085L189.175 69.7822L190.598 70.256C189.925 72.2783 189.313 74.3286 188.764 76.4044L187.313 76.0205ZM189.175 69.7822V68.2822H220.629V69.7822V71.2822H189.175V69.7822ZM220.629 69.7822H222.129V158.276H220.629H219.129V69.7822H220.629ZM220.629 158.276L219.568 157.216L287.934 88.8495L288.995 89.9102L290.056 90.9708L221.69 159.337L220.629 158.276ZM288.995 89.9102L290.056 88.8495L358.422 157.216L357.361 158.276L356.301 159.337L287.934 90.9708L288.995 89.9102ZM357.361 158.276H355.861V69.7822H357.361H358.861V158.276H357.361ZM357.361 69.7822V68.2822H388.817V69.7822V71.2822H357.361V69.7822ZM388.817 69.7822L390.241 69.3085C391.069 71.7973 391.807 74.3264 392.453 76.8917L390.998 77.2578L389.543 77.6239C388.916 75.1308 388.199 72.6734 387.394 70.256L388.817 69.7822ZM390.998 77.2578L389.543 77.6238C380.756 42.6979 354.248 14.8106 320.135 4.08327L320.585 2.65234L321.035 1.22142C356.137 12.2598 383.41 40.9498 392.453 76.8918L390.998 77.2578ZM320.585 2.65234L321.035 1.22147C345.903 9.0439 366.841 25.7264 380.15 47.5641L378.869 48.3447L377.588 49.1253C364.651 27.8977 344.298 11.684 320.135 4.08322L320.585 2.65234ZM378.869 48.3447V49.8447H334.553V48.3447V46.8447H378.869V48.3447ZM334.553 48.3447H336.053V104.027H334.553H333.053V48.3447H334.553ZM334.553 104.027L333.492 105.088L287.935 59.5323L288.996 58.4717L290.057 57.411L335.613 102.967L334.553 104.027ZM288.996 58.4717L290.057 59.5323L244.504 105.088L243.443 104.027L242.383 102.967L287.935 57.4111L288.996 58.4717ZM243.443 104.027H241.943V48.3447H243.443H244.943V104.027H243.443ZM243.443 48.3447V49.8447H199.123V48.3447V46.8447H243.443V48.3447ZM199.123 48.3447L197.842 47.564C211.152 25.7268 232.091 9.04419 256.957 1.22148L257.407 2.65234L257.857 4.08321C233.696 11.6843 213.342 27.8981 200.404 49.1254L199.123 48.3447ZM257.407 2.65234L257.857 4.08325C249.595 6.68155 241.778 10.2852 234.552 14.7534L233.763 13.4775L232.974 12.2017C240.41 7.6041 248.454 3.89549 256.957 1.22144L257.407 2.65234ZM233.763 13.4775L232.974 12.2017C248.893 2.35846 267.593 -3.41704 287.622 -3.67078L287.641 -2.1709L287.66 -0.671021C268.191 -0.424377 250.021 5.18814 234.552 14.7533L233.763 13.4775ZM287.641 -2.1709L287.631 -3.67087L288.99 -3.67966L289 -2.17969L289.01 -0.679718L287.65 -0.670929L287.641 -2.1709ZM289 -2.17969V-3.67969C347.457 -3.67961 394.932 43.3393 395.671 101.622L394.171 101.641L392.671 101.66C391.953 45.0171 345.813 -0.679611 289 -0.679688V-2.17969ZM394.171 101.641L395.671 101.631L395.68 102.99L394.18 103L392.68 103.01L392.671 101.65L394.171 101.641ZM394.18 103H395.68C395.68 135.211 381.401 164.088 358.834 183.646L357.852 182.513L356.869 181.379C378.807 162.367 392.68 134.305 392.68 103H394.18ZM357.852 182.513L356.869 181.379C374.511 166.088 386.935 144.942 391.123 120.968L392.601 121.227L394.078 121.485C389.768 146.159 376.982 167.916 358.834 183.646L357.852 182.513ZM392.601 121.227L394.078 121.485C385.776 168.998 346.03 205.709 297.078 209.379L296.966 207.883L296.854 206.387C344.423 202.821 383.055 167.142 391.123 120.968L392.601 121.227ZM296.966 207.883L297.078 209.379C294.863 209.544 292.628 209.642 290.378 209.671L290.359 208.171L290.34 206.671C292.529 206.643 294.701 206.548 296.854 206.387L296.966 207.883ZM290.359 208.171L290.369 209.671L289.01 209.68L289 208.18L288.99 206.68L290.35 206.671L290.359 208.171ZM212.039 31.3076L210.942 30.285C211.021 30.2003 211.156 30.0588 211.214 29.9967L212.308 31.0234L213.401 32.0502C213.281 32.1781 213.235 32.2243 213.136 32.3303L212.039 31.3076ZM212.308 31.0234L213.401 32.0502C213.273 32.1866 213.162 32.3037 213.045 32.4295L211.946 31.4082L210.848 30.3869C210.97 30.2549 211.101 30.1168 211.214 29.9967L212.308 31.0234ZM211.946 31.4082L210.844 30.3912L210.936 30.2906L212.039 31.3076L213.142 32.3246L213.049 32.4252L211.946 31.4082ZM392.214 82.6885L390.742 82.9765C390.712 82.8252 390.688 82.7139 390.653 82.5386L392.124 82.2441L393.595 81.9497C393.619 82.0707 393.658 82.2551 393.686 82.4004L392.214 82.6885ZM392.124 82.2441L393.595 81.9495C393.63 82.1242 393.67 82.3201 393.707 82.5092L392.234 82.7959L390.762 83.0826C390.727 82.9034 390.692 82.7317 390.653 82.5387L392.124 82.2441ZM392.234 82.7959L390.761 83.0772L390.74 82.9698L392.214 82.6885L393.687 82.4072L393.708 82.5146L392.234 82.7959Z" fill="url(#paint2_linear_12569_91909)" mask="url(#path-3-inside-1_12569_91909)"/>
</g>
<circle opacity="0.08" cx="240" cy="717" r="625" fill="url(#paint3_linear_12569_91909)"/>
</g>
<defs>
<linearGradient id="paint0_linear_12569_91909" x1="164" y1="103" x2="323" y2="103" gradientUnits="userSpaceOnUse">
<stop stop-color="white" stop-opacity="0"/>
<stop offset="1" stop-color="white"/>
</linearGradient>
<linearGradient id="paint1_linear_12569_91909" x1="164" y1="103" x2="323" y2="103" gradientUnits="userSpaceOnUse">
<stop stop-color="white" stop-opacity="0"/>
<stop offset="1" stop-color="white"/>
</linearGradient>
<linearGradient id="paint2_linear_12569_91909" x1="305.5" y1="103" x2="164" y2="103" gradientUnits="userSpaceOnUse">
<stop stop-color="white"/>
<stop offset="1" stop-color="white" stop-opacity="0"/>
</linearGradient>
<linearGradient id="paint3_linear_12569_91909" x1="37.5" y1="125.5" x2="63.5" y2="175.5" gradientUnits="userSpaceOnUse">
<stop stop-color="white"/>
<stop offset="1" stop-color="white" stop-opacity="0"/>
</linearGradient>
<clipPath id="clip0_12569_91909">
<rect width="330" height="205" fill="white"/>
</clipPath>
</defs>
</svg>
