<svg width="330" height="205" viewBox="0 0 330 205" fill="none" xmlns="http://www.w3.org/2000/svg">
<g clip-path="url(#clip0_15446_158050)">
<circle opacity="0.08" cx="240" cy="717" r="625" fill="url(#paint0_linear_15446_158050)"/>
<path opacity="0.08" fill-rule="evenodd" clip-rule="evenodd" d="M309.287 -4.99999C317.718 -5.00019 324.812 -5.00017 330.618 -4.51708C336.692 -4.01174 342.478 -2.91315 347.973 -0.0617113C356.344 4.28173 363.15 11.2119 367.416 19.7362C370.216 25.3323 371.294 31.2244 371.79 37.4093C372.264 43.3223 372.265 50.5463 372.264 59.1319V82.905C372.265 91.4906 372.264 98.7146 371.79 104.628C371.294 110.813 370.216 116.705 367.416 122.301C363.15 130.825 356.344 137.755 347.973 142.099C342.478 144.95 336.692 146.049 330.618 146.554C326.263 146.916 321.185 147.007 315.361 147.03C313.424 147.037 311.404 147.036 309.301 147.036V147.511C309.302 155.341 309.302 161.929 308.905 167.336C308.491 172.986 307.592 178.385 305.249 183.585C300.808 193.443 293.043 201.352 283.363 205.874C278.256 208.259 272.954 209.175 267.406 209.597C262.096 210.001 255.626 210 247.938 210H222.978C214.547 210 207.454 210 201.647 209.517C195.574 209.012 189.788 207.913 184.292 205.062C175.921 200.718 169.115 193.788 164.85 185.264C162.05 179.668 160.972 173.776 160.475 167.591C160.001 161.678 160.001 154.454 160.001 145.868V122.095C160.001 113.509 160.001 106.285 160.475 100.372C160.972 94.1874 162.05 88.2953 164.85 82.6993C169.115 74.1749 175.921 67.2449 184.292 62.9014C189.788 60.05 195.574 58.9512 201.647 58.446C207.153 57.9881 213.815 57.9655 221.678 57.9645C221.66 56.489 221.643 55.0553 221.632 53.6631C221.582 47.6672 221.609 42.4403 221.917 37.958C222.345 31.7101 223.368 25.7512 226.146 20.0819C230.372 11.4532 237.192 4.42302 245.613 0.0138745C251.146 -2.88302 256.986 -3.99755 263.116 -4.51008C268.979 -5.00029 276.148 -5.00019 284.673 -4.99999H309.287ZM223.492 84.071C214.412 84.071 208.372 84.0812 203.734 84.4671C199.246 84.8405 197.21 85.4986 195.931 86.1622C192.384 88.0029 189.501 90.9403 187.693 94.5523C187.042 95.8546 186.394 97.9281 186.028 102.499C185.649 107.221 185.639 113.371 185.639 122.617V145.346C185.639 154.592 185.649 160.742 186.028 165.464C186.394 170.035 187.042 172.108 187.693 173.411C189.501 177.023 192.384 179.96 195.931 181.801C197.21 182.464 199.246 183.123 203.734 183.496C208.372 183.882 214.412 183.892 223.492 183.892H247.471C255.749 183.892 261.255 183.884 265.497 183.562C269.607 183.249 271.493 182.695 272.673 182.144C276.775 180.228 280.066 176.876 281.948 172.7C282.489 171.498 283.032 169.578 283.339 165.393C283.656 161.074 283.664 155.467 283.664 147.037H235.783C235.621 147.037 235.46 147.033 235.3 147.027C230.331 146.837 225.898 143.731 223.962 139.035C221.964 134.186 223.019 128.59 226.636 124.838L265.936 84.071H223.492ZM285.191 21.1079C276.012 21.1079 269.903 21.1176 265.214 21.5097C260.673 21.8893 258.619 22.5596 257.336 23.2314C253.768 25.0997 250.878 28.0787 249.087 31.7348C248.443 33.0497 247.809 35.1491 247.492 39.7777C247.246 43.3622 247.221 47.7575 247.271 53.6743C247.282 55.0221 247.299 56.4489 247.317 57.9631H296.483C303.562 57.9631 309.301 63.8077 309.301 71.0171C309.301 74.5787 307.898 77.805 305.627 80.1601L305.63 80.1629L266.331 120.929H308.774C317.854 120.929 323.893 120.919 328.531 120.533C333.019 120.159 335.056 119.501 336.335 118.838C339.881 116.997 342.765 114.06 344.572 110.448C345.224 109.145 345.871 107.072 346.238 102.501C346.617 97.7787 346.627 91.6289 346.627 82.3829V59.654C346.627 50.4079 346.617 44.2584 346.238 39.5355C345.871 34.9652 345.224 32.8918 344.572 31.5892C342.765 27.9773 339.881 25.0398 336.335 23.1992C335.056 22.5356 333.019 21.8774 328.531 21.5041C325.052 21.2146 320.785 21.1359 315.039 21.1149L308.774 21.1079H285.191Z" fill="url(#paint1_linear_15446_158050)"/>
<path opacity="0.03" fill-rule="evenodd" clip-rule="evenodd" d="M309.287 -4.99999C317.718 -5.00019 324.812 -5.00017 330.618 -4.51708C336.692 -4.01174 342.478 -2.91315 347.973 -0.0617113C356.344 4.28173 363.15 11.2119 367.416 19.7362C370.216 25.3323 371.294 31.2244 371.79 37.4093C372.264 43.3223 372.265 50.5463 372.264 59.1319V82.905C372.265 91.4906 372.264 98.7146 371.79 104.628C371.294 110.813 370.216 116.705 367.416 122.301C363.15 130.825 356.344 137.755 347.973 142.099C342.478 144.95 336.692 146.049 330.618 146.554C326.263 146.916 321.185 147.007 315.361 147.03C313.424 147.037 311.404 147.036 309.301 147.036V147.511C309.302 155.341 309.302 161.929 308.905 167.336C308.491 172.986 307.592 178.385 305.249 183.585C300.808 193.443 293.043 201.352 283.363 205.874C278.256 208.259 272.954 209.175 267.406 209.597C262.096 210.001 255.626 210 247.938 210H222.978C214.547 210 207.454 210 201.647 209.517C195.574 209.012 189.788 207.913 184.292 205.062C175.921 200.718 169.115 193.788 164.85 185.264C162.05 179.668 160.972 173.776 160.475 167.591C160.001 161.678 160.001 154.454 160.001 145.868V122.095C160.001 113.509 160.001 106.285 160.475 100.372C160.972 94.1874 162.05 88.2953 164.85 82.6993C169.115 74.1749 175.921 67.2449 184.292 62.9014C189.788 60.05 195.574 58.9512 201.647 58.446C207.153 57.9881 213.815 57.9655 221.678 57.9645C221.66 56.489 221.643 55.0553 221.632 53.6631C221.582 47.6672 221.609 42.4403 221.917 37.958C222.345 31.7101 223.368 25.7512 226.146 20.0819C230.372 11.4532 237.192 4.42302 245.613 0.0138745C251.146 -2.88302 256.986 -3.99755 263.116 -4.51008C268.979 -5.00029 276.148 -5.00019 284.673 -4.99999H309.287ZM223.492 84.071C214.412 84.071 208.372 84.0812 203.734 84.4671C199.246 84.8405 197.21 85.4986 195.931 86.1622C192.384 88.0029 189.501 90.9403 187.693 94.5523C187.042 95.8546 186.394 97.9281 186.028 102.499C185.649 107.221 185.639 113.371 185.639 122.617V145.346C185.639 154.592 185.649 160.742 186.028 165.464C186.394 170.035 187.042 172.108 187.693 173.411C189.501 177.023 192.384 179.96 195.931 181.801C197.21 182.464 199.246 183.123 203.734 183.496C208.372 183.882 214.412 183.892 223.492 183.892H247.471C255.749 183.892 261.255 183.884 265.497 183.562C269.607 183.249 271.493 182.695 272.673 182.144C276.775 180.228 280.066 176.876 281.948 172.7C282.489 171.498 283.032 169.578 283.339 165.393C283.656 161.074 283.664 155.467 283.664 147.037H235.783C235.621 147.037 235.46 147.033 235.3 147.027C230.331 146.837 225.898 143.731 223.962 139.035C221.964 134.186 223.019 128.59 226.636 124.838L265.936 84.071H223.492ZM285.191 21.1079C276.012 21.1079 269.903 21.1176 265.214 21.5097C260.673 21.8893 258.619 22.5596 257.336 23.2314C253.768 25.0997 250.878 28.0787 249.087 31.7348C248.443 33.0497 247.809 35.1491 247.492 39.7777C247.246 43.3622 247.221 47.7575 247.271 53.6743C247.282 55.0221 247.299 56.4489 247.317 57.9631H296.483C303.562 57.9631 309.301 63.8077 309.301 71.0171C309.301 74.5787 307.898 77.805 305.627 80.1601L305.63 80.1629L266.331 120.929H308.774C317.854 120.929 323.893 120.919 328.531 120.533C333.019 120.159 335.056 119.501 336.335 118.838C339.881 116.997 342.765 114.06 344.572 110.448C345.224 109.145 345.871 107.072 346.238 102.501C346.617 97.7787 346.627 91.6289 346.627 82.3829V59.654C346.627 50.4079 346.617 44.2584 346.238 39.5355C345.871 34.9652 345.224 32.8918 344.572 31.5892C342.765 27.9773 339.881 25.0398 336.335 23.1992C335.056 22.5356 333.019 21.8774 328.531 21.5041C325.052 21.2146 320.785 21.1359 315.039 21.1149L308.774 21.1079H285.191Z" fill="url(#paint2_linear_15446_158050)"/>
<path opacity="0.24" d="M309.287 -4.99999C317.718 -5.00019 324.812 -4.99968 330.618 -4.51659C336.692 -4.01125 342.478 -2.91293 347.973 -0.0615168C356.344 4.28193 363.151 11.2121 367.416 19.7363C370.216 25.3324 371.294 31.2244 371.79 37.4092C372.264 43.3222 372.265 50.5463 372.264 59.1318V82.9053C372.265 91.4907 372.264 98.7149 371.79 104.628C371.294 110.813 370.216 116.705 367.416 122.301C363.15 130.825 356.344 137.755 347.973 142.099C342.478 144.95 336.692 146.048 330.618 146.554C326.263 146.916 321.185 147.008 315.361 147.03C313.424 147.038 311.404 147.035 309.302 147.035V147.512C309.302 155.341 309.302 161.929 308.905 167.336C308.491 172.986 307.592 178.385 305.249 183.586C300.808 193.443 293.043 201.352 283.363 205.874C278.257 208.26 272.954 209.175 267.406 209.597C262.096 210 255.626 210 247.938 210H222.978C214.548 210 207.454 209.999 201.647 209.517C195.574 209.011 189.788 207.913 184.292 205.061C175.921 200.718 169.115 193.788 164.85 185.264C162.05 179.668 160.972 173.776 160.476 167.591C160.001 161.678 160.001 154.454 160.001 145.868V122.095C160.001 113.509 160.001 106.285 160.476 100.372C160.972 94.1872 162.05 88.2952 164.85 82.6992C169.115 74.1748 175.921 67.2449 184.292 62.9014C189.788 60.05 195.574 58.9515 201.647 58.4463C207.153 57.9884 213.815 57.9659 221.678 57.9648C221.66 56.4894 221.643 55.0553 221.632 53.6631C221.582 47.6672 221.609 42.4403 221.917 37.958C222.345 31.7102 223.368 25.7513 226.145 20.082C230.372 11.4533 237.192 4.42282 245.613 0.0136786C251.146 -2.88311 256.986 -3.99722 263.115 -4.50976C268.978 -4.99996 276.147 -5.00019 284.673 -4.99999H309.287ZM284.673 -3.25683C276.122 -3.25703 269.035 -3.25525 263.261 -2.77245C257.242 -2.26921 251.664 -1.18572 246.422 1.5586C238.333 5.79369 231.776 12.5492 227.711 20.8486C225.075 26.2304 224.077 31.9356 223.656 38.0772C223.354 42.4866 223.326 47.655 223.375 53.6484C223.386 55.0369 223.404 56.4674 223.421 57.9443L223.441 59.707L221.678 59.708C213.796 59.709 207.211 59.7329 201.792 60.1836C195.829 60.6796 190.301 61.7469 185.095 64.4482C177.054 68.6204 170.511 75.2806 166.408 83.4795C163.75 88.7917 162.701 94.4325 162.213 100.512C161.745 106.34 161.744 113.485 161.744 122.095V145.868C161.744 154.478 161.745 161.623 162.213 167.451C162.701 173.53 163.75 179.171 166.408 184.483C170.511 192.682 177.054 199.343 185.095 203.515C190.301 206.216 195.829 207.284 201.792 207.78L202.879 207.863C208.392 208.255 215.05 208.257 222.977 208.257H247.938C255.65 208.257 262.044 208.256 267.273 207.858C272.721 207.444 277.788 206.554 282.625 204.294L283.491 203.878C292.386 199.475 299.522 192.055 303.66 182.869C305.884 177.932 306.76 172.762 307.167 167.209C307.558 161.88 307.559 155.363 307.558 147.512V145.292H309.302C311.407 145.292 313.422 145.295 315.354 145.287C321.175 145.265 326.194 145.173 330.473 144.816C336.25 144.336 341.618 143.319 346.681 140.8L347.171 140.551C355.211 136.379 361.754 129.719 365.856 121.521C368.514 116.208 369.565 110.568 370.053 104.488C370.52 98.6603 370.522 91.5154 370.521 82.9053V59.1318C370.522 50.5218 370.52 43.3768 370.053 37.5488C369.565 31.4697 368.514 25.829 365.856 20.5166C361.754 12.3178 355.211 5.65737 347.171 1.48536C341.964 -1.21602 336.436 -2.28415 330.473 -2.78027C324.755 -3.25602 317.743 -3.25702 309.287 -3.25683H284.673ZM227.891 126.048C224.758 129.298 223.838 134.157 225.574 138.37C227.254 142.447 231.09 145.122 235.366 145.285C235.509 145.291 235.648 145.294 235.783 145.294H285.407V147.037C285.407 154.915 285.401 160.402 285.135 164.681L285.077 165.52C284.763 169.799 284.197 171.948 283.537 173.415C281.486 177.967 277.896 181.629 273.411 183.724C271.96 184.401 269.839 184.98 265.629 185.3C261.306 185.628 255.721 185.636 247.471 185.636H223.492C214.443 185.636 208.317 185.627 203.59 185.233C198.993 184.851 196.697 184.163 195.128 183.349C191.25 181.336 188.105 178.127 186.135 174.19C185.341 172.603 184.665 170.278 184.29 165.604C183.904 160.795 183.895 154.562 183.895 145.346V122.617C183.895 113.4 183.904 107.168 184.29 102.359C184.665 97.6847 185.341 95.3592 186.135 93.7725L186.322 93.4053C188.301 89.6358 191.371 86.5646 195.128 84.6152C196.697 83.8009 198.993 83.1119 203.59 82.7295C208.317 82.3361 214.443 82.3281 223.492 82.3281H270.038L227.891 126.048ZM223.492 84.0713C214.412 84.0713 208.372 84.0808 203.734 84.4668C199.246 84.8402 197.21 85.4985 195.931 86.1621C192.384 88.0027 189.501 90.9408 187.693 94.5527C187.042 95.8551 186.394 97.929 186.027 102.499C185.648 107.222 185.639 113.372 185.639 122.617V145.346C185.639 154.592 185.648 160.742 186.027 165.465C186.394 170.035 187.042 172.109 187.693 173.411C189.501 177.023 192.384 179.96 195.931 181.801C197.21 182.464 199.246 183.123 203.734 183.496C208.372 183.882 214.412 183.892 223.492 183.892H247.471C255.749 183.892 261.255 183.884 265.496 183.562C269.607 183.249 271.492 182.695 272.673 182.144C276.774 180.227 280.065 176.877 281.947 172.7C282.488 171.498 283.032 169.578 283.339 165.394C283.655 161.075 283.664 155.467 283.664 147.037H235.783C235.622 147.037 235.46 147.033 235.3 147.027C230.331 146.838 225.897 143.73 223.962 139.034C221.964 134.186 223.019 128.591 226.636 124.839L265.936 84.0713H223.492ZM315.041 19.3721H315.045C320.79 19.393 325.12 19.4708 328.676 19.7666C333.272 20.149 335.568 20.8371 337.138 21.6514C341.015 23.6636 344.161 26.8727 346.131 30.8096C346.924 32.3965 347.6 34.7219 347.975 39.3965C348.361 44.2054 348.37 50.4375 348.37 59.6543V82.3828C348.37 91.5996 348.361 97.8319 347.975 102.641C347.6 107.315 346.924 109.641 346.131 111.228C344.161 115.164 341.015 118.373 337.138 120.385C335.568 121.199 333.272 121.888 328.676 122.271C323.948 122.664 317.823 122.672 308.773 122.672H262.228L303.185 80.1865L303.182 80.1836L304.372 78.9502C306.34 76.9093 307.558 74.1123 307.558 71.0166C307.558 64.7402 302.569 59.7061 296.482 59.7061H245.594L245.573 57.9834C245.556 56.4711 245.539 55.0406 245.527 53.6895C245.477 47.7747 245.502 43.3174 245.753 39.6582L245.817 38.7988C246.16 34.634 246.785 32.4709 247.521 30.9678C249.473 26.9825 252.627 23.7289 256.527 21.6865C258.103 20.8617 260.418 20.1613 265.068 19.7725C269.847 19.3729 276.042 19.3643 285.19 19.3643H308.775L315.041 19.3721ZM285.19 21.1084C276.012 21.1084 269.902 21.1177 265.214 21.5098C260.673 21.8894 258.619 22.5597 257.336 23.2314C253.768 25.0998 250.878 28.0784 249.087 31.7344C248.443 33.0493 247.809 35.149 247.491 39.7773C247.245 43.3617 247.22 47.7573 247.27 53.6738C247.282 55.0216 247.299 56.4488 247.316 57.9629H296.482C303.562 57.9629 309.301 63.8075 309.302 71.0166C309.302 74.5783 307.898 77.805 305.627 80.1602L305.63 80.1631L266.331 120.929H308.773C317.853 120.929 323.893 120.919 328.531 120.533C333.019 120.16 335.056 119.501 336.335 118.838C339.882 116.998 342.765 114.059 344.572 110.447C345.224 109.145 345.87 107.071 346.237 102.501C346.616 97.7784 346.627 91.6286 346.627 82.3828V59.6543C346.627 50.4082 346.616 44.258 346.237 39.5352C345.87 34.9651 345.224 32.8914 344.572 31.5889C342.765 27.9772 339.881 25.0398 336.335 23.1992C335.056 22.5356 333.019 21.8773 328.531 21.5039C325.053 21.2145 320.785 21.1362 315.039 21.1152L308.773 21.1084H285.19Z" fill="url(#paint3_linear_15446_158050)"/>
</g>
<defs>
<linearGradient id="paint0_linear_15446_158050" x1="37.5" y1="125.5" x2="62" y2="195.5" gradientUnits="userSpaceOnUse">
<stop stop-color="white"/>
<stop offset="1" stop-color="white" stop-opacity="0"/>
</linearGradient>
<linearGradient id="paint1_linear_15446_158050" x1="266.133" y1="-5" x2="266.133" y2="210" gradientUnits="userSpaceOnUse">
<stop stop-color="white" stop-opacity="0"/>
<stop offset="1" stop-color="white"/>
</linearGradient>
<linearGradient id="paint2_linear_15446_158050" x1="192.894" y1="21.875" x2="290.987" y2="141.805" gradientUnits="userSpaceOnUse">
<stop stop-color="white" stop-opacity="0"/>
<stop offset="1" stop-color="white"/>
</linearGradient>
<linearGradient id="paint3_linear_15446_158050" x1="137.302" y1="18.2432" x2="284.316" y2="182.108" gradientUnits="userSpaceOnUse">
<stop stop-color="white" stop-opacity="0"/>
<stop offset="1" stop-color="white"/>
</linearGradient>
<clipPath id="clip0_15446_158050">
<rect width="330" height="205" fill="white"/>
</clipPath>
</defs>
</svg>
