<svg width="500" height="500" viewBox="0 0 500 500" fill="none" xmlns="http://www.w3.org/2000/svg">
<path fill-rule="evenodd" clip-rule="evenodd" d="M179.147 273.584C191.669 273.584 203.678 278.559 212.533 287.413C221.388 296.268 226.362 308.277 226.362 320.8V415.231C226.362 427.753 221.388 439.764 212.533 448.618C203.678 457.473 191.669 462.446 179.147 462.446H84.7156C72.1932 462.446 60.1828 457.473 51.3281 448.618C42.4735 439.764 37.5 427.753 37.5 415.231V320.8C37.5001 308.277 42.4737 296.268 51.3281 287.413C60.1828 278.559 72.1932 273.584 84.7156 273.584H179.147ZM84.7156 304.834C80.6132 304.834 76.6727 306.413 73.7085 309.233L73.4253 309.51C70.4325 312.503 68.7501 316.564 68.75 320.8V415.231C68.75 419.467 70.4329 423.529 73.4253 426.521C76.4178 429.513 80.4789 431.196 84.7156 431.196H179.147C183.383 431.196 187.443 429.514 190.436 426.521L190.713 426.238C193.534 423.274 195.112 419.333 195.112 415.231V320.8C195.112 316.566 193.43 312.505 190.436 309.51C187.535 306.61 183.634 304.941 179.543 304.839L179.147 304.834H84.7156Z" fill="white"/>
<path fill-rule="evenodd" clip-rule="evenodd" d="M179.147 273.584C191.669 273.584 203.678 278.559 212.533 287.413C221.388 296.268 226.362 308.277 226.362 320.8V415.231C226.362 427.753 221.388 439.764 212.533 448.618C203.678 457.473 191.669 462.446 179.147 462.446H84.7156C72.1932 462.446 60.1828 457.473 51.3281 448.618C42.4735 439.764 37.5 427.753 37.5 415.231V320.8C37.5001 308.277 42.4737 296.268 51.3281 287.413C60.1828 278.559 72.1932 273.584 84.7156 273.584H179.147ZM84.7156 304.834C80.6132 304.834 76.6727 306.413 73.7085 309.233L73.4253 309.51C70.4325 312.503 68.7501 316.564 68.75 320.8V415.231C68.75 419.467 70.4329 423.529 73.4253 426.521C76.4178 429.513 80.4789 431.196 84.7156 431.196H179.147C183.383 431.196 187.443 429.514 190.436 426.521L190.713 426.238C193.534 423.274 195.112 419.333 195.112 415.231V320.8C195.112 316.566 193.43 312.505 190.436 309.51C187.535 306.61 183.634 304.941 179.543 304.839L179.147 304.834H84.7156Z" fill="white"/>
<path fill-rule="evenodd" clip-rule="evenodd" d="M179.147 273.584C191.669 273.584 203.678 278.559 212.533 287.413C221.388 296.268 226.362 308.277 226.362 320.8V415.231C226.362 427.753 221.388 439.764 212.533 448.618C203.678 457.473 191.669 462.446 179.147 462.446H84.7156C72.1932 462.446 60.1828 457.473 51.3281 448.618C42.4735 439.764 37.5 427.753 37.5 415.231V320.8C37.5001 308.277 42.4737 296.268 51.3281 287.413C60.1828 278.559 72.1932 273.584 84.7156 273.584H179.147ZM84.7156 304.834C80.6132 304.834 76.6727 306.413 73.7085 309.233L73.4253 309.51C70.4325 312.503 68.7501 316.564 68.75 320.8V415.231C68.75 419.467 70.4329 423.529 73.4253 426.521C76.4178 429.513 80.4789 431.196 84.7156 431.196H179.147C183.383 431.196 187.443 429.514 190.436 426.521L190.713 426.238C193.534 423.274 195.112 419.333 195.112 415.231V320.8C195.112 316.566 193.43 312.505 190.436 309.51C187.535 306.61 183.634 304.941 179.543 304.839L179.147 304.834H84.7156Z" fill="white"/>
<path fill-rule="evenodd" clip-rule="evenodd" d="M179.147 273.584C191.669 273.584 203.678 278.559 212.533 287.413C221.388 296.268 226.362 308.277 226.362 320.8V415.231C226.362 427.753 221.388 439.764 212.533 448.618C203.678 457.473 191.669 462.446 179.147 462.446H84.7156C72.1932 462.446 60.1828 457.473 51.3281 448.618C42.4735 439.764 37.5 427.753 37.5 415.231V320.8C37.5001 308.277 42.4737 296.268 51.3281 287.413C60.1828 278.559 72.1932 273.584 84.7156 273.584H179.147ZM84.7156 304.834C80.6132 304.834 76.6727 306.413 73.7085 309.233L73.4253 309.51C70.4325 312.503 68.7501 316.564 68.75 320.8V415.231C68.75 419.467 70.4329 423.529 73.4253 426.521C76.4178 429.513 80.4789 431.196 84.7156 431.196H179.147C183.383 431.196 187.443 429.514 190.436 426.521L190.713 426.238C193.534 423.274 195.112 419.333 195.112 415.231V320.8C195.112 316.566 193.43 312.505 190.436 309.51C187.535 306.61 183.634 304.941 179.543 304.839L179.147 304.834H84.7156Z" fill="white"/>
<path fill-rule="evenodd" clip-rule="evenodd" d="M179.147 273.584C191.669 273.584 203.678 278.559 212.533 287.413C221.388 296.268 226.362 308.277 226.362 320.8V415.231C226.362 427.753 221.388 439.764 212.533 448.618C203.678 457.473 191.669 462.446 179.147 462.446H84.7156C72.1932 462.446 60.1828 457.473 51.3281 448.618C42.4735 439.764 37.5 427.753 37.5 415.231V320.8C37.5001 308.277 42.4737 296.268 51.3281 287.413C60.1828 278.559 72.1932 273.584 84.7156 273.584H179.147ZM84.7156 304.834C80.6132 304.834 76.6727 306.413 73.7085 309.233L73.4253 309.51C70.4325 312.503 68.7501 316.564 68.75 320.8V415.231C68.75 419.467 70.4329 423.529 73.4253 426.521C76.4178 429.513 80.4789 431.196 84.7156 431.196H179.147C183.383 431.196 187.443 429.514 190.436 426.521L190.713 426.238C193.534 423.274 195.112 419.333 195.112 415.231V320.8C195.112 316.566 193.43 312.505 190.436 309.51C187.535 306.61 183.634 304.941 179.543 304.839L179.147 304.834H84.7156Z" fill="white"/>
<path d="M415.284 273.584C427.807 273.584 439.816 278.559 448.671 287.413C457.525 296.268 462.5 308.277 462.5 320.8V415.231C462.5 427.753 457.525 439.764 448.671 448.618C439.816 457.473 427.807 462.446 415.284 462.446H320.853C308.331 462.446 296.32 457.473 287.466 448.618C278.611 439.764 273.638 427.753 273.638 415.231V320.8C273.638 308.277 278.611 296.268 287.466 287.413C296.32 278.559 308.331 273.584 320.853 273.584H415.284Z" fill="white"/>
<path d="M415.284 273.584C427.807 273.584 439.816 278.559 448.671 287.413C457.525 296.268 462.5 308.277 462.5 320.8V415.231C462.5 427.753 457.525 439.764 448.671 448.618C439.816 457.473 427.807 462.446 415.284 462.446H320.853C308.331 462.446 296.32 457.473 287.466 448.618C278.611 439.764 273.638 427.753 273.638 415.231V320.8C273.638 308.277 278.611 296.268 287.466 287.413C296.32 278.559 308.331 273.584 320.853 273.584H415.284Z" fill="white"/>
<path d="M415.284 273.584C427.807 273.584 439.816 278.559 448.671 287.413C457.525 296.268 462.5 308.277 462.5 320.8V415.231C462.5 427.753 457.525 439.764 448.671 448.618C439.816 457.473 427.807 462.446 415.284 462.446H320.853C308.331 462.446 296.32 457.473 287.466 448.618C278.611 439.764 273.638 427.753 273.638 415.231V320.8C273.638 308.277 278.611 296.268 287.466 287.413C296.32 278.559 308.331 273.584 320.853 273.584H415.284Z" fill="white"/>
<path d="M415.284 273.584C427.807 273.584 439.816 278.559 448.671 287.413C457.525 296.268 462.5 308.277 462.5 320.8V415.231C462.5 427.753 457.525 439.764 448.671 448.618C439.816 457.473 427.807 462.446 415.284 462.446H320.853C308.331 462.446 296.32 457.473 287.466 448.618C278.611 439.764 273.638 427.753 273.638 415.231V320.8C273.638 308.277 278.611 296.268 287.466 287.413C296.32 278.559 308.331 273.584 320.853 273.584H415.284Z" fill="white"/>
<path d="M415.284 273.584C427.807 273.584 439.816 278.559 448.671 287.413C457.525 296.268 462.5 308.277 462.5 320.8V415.231C462.5 427.753 457.525 439.764 448.671 448.618C439.816 457.473 427.807 462.446 415.284 462.446H320.853C308.331 462.446 296.32 457.473 287.466 448.618C278.611 439.764 273.638 427.753 273.638 415.231V320.8C273.638 308.277 278.611 296.268 287.466 287.413C296.32 278.559 308.331 273.584 320.853 273.584H415.284Z" fill="white"/>
<path d="M179.147 37.5061C191.669 37.5062 203.678 42.4809 212.533 51.3354C221.387 60.1901 226.362 72.1994 226.362 84.7217V179.153C226.362 191.675 221.387 203.684 212.533 212.539C203.678 221.394 191.669 226.368 179.147 226.368H84.7156C72.1932 226.368 60.1828 221.394 51.3281 212.539C42.4737 203.684 37.5 191.675 37.5 179.153V84.7217C37.5 72.1995 42.4737 60.1901 51.3281 51.3354C60.1828 42.4808 72.1932 37.5061 84.7156 37.5061H179.147Z" fill="white"/>
<path d="M179.147 37.5061C191.669 37.5062 203.678 42.4809 212.533 51.3354C221.387 60.1901 226.362 72.1994 226.362 84.7217V179.153C226.362 191.675 221.387 203.684 212.533 212.539C203.678 221.394 191.669 226.368 179.147 226.368H84.7156C72.1932 226.368 60.1828 221.394 51.3281 212.539C42.4737 203.684 37.5 191.675 37.5 179.153V84.7217C37.5 72.1995 42.4737 60.1901 51.3281 51.3354C60.1828 42.4808 72.1932 37.5061 84.7156 37.5061H179.147Z" fill="white"/>
<path d="M179.147 37.5061C191.669 37.5062 203.678 42.4809 212.533 51.3354C221.387 60.1901 226.362 72.1994 226.362 84.7217V179.153C226.362 191.675 221.387 203.684 212.533 212.539C203.678 221.394 191.669 226.368 179.147 226.368H84.7156C72.1932 226.368 60.1828 221.394 51.3281 212.539C42.4737 203.684 37.5 191.675 37.5 179.153V84.7217C37.5 72.1995 42.4737 60.1901 51.3281 51.3354C60.1828 42.4808 72.1932 37.5061 84.7156 37.5061H179.147Z" fill="white"/>
<path d="M179.147 37.5061C191.669 37.5062 203.678 42.4809 212.533 51.3354C221.387 60.1901 226.362 72.1994 226.362 84.7217V179.153C226.362 191.675 221.387 203.684 212.533 212.539C203.678 221.394 191.669 226.368 179.147 226.368H84.7156C72.1932 226.368 60.1828 221.394 51.3281 212.539C42.4737 203.684 37.5 191.675 37.5 179.153V84.7217C37.5 72.1995 42.4737 60.1901 51.3281 51.3354C60.1828 42.4808 72.1932 37.5061 84.7156 37.5061H179.147Z" fill="white"/>
<path d="M179.147 37.5061C191.669 37.5062 203.678 42.4809 212.533 51.3354C221.387 60.1901 226.362 72.1994 226.362 84.7217V179.153C226.362 191.675 221.387 203.684 212.533 212.539C203.678 221.394 191.669 226.368 179.147 226.368H84.7156C72.1932 226.368 60.1828 221.394 51.3281 212.539C42.4737 203.684 37.5 191.675 37.5 179.153V84.7217C37.5 72.1995 42.4737 60.1901 51.3281 51.3354C60.1828 42.4808 72.1932 37.5061 84.7156 37.5061H179.147Z" fill="white"/>
<path d="M377.5 45.0061C384.404 45.0061 390 50.6025 390 57.5061V110.631H443.125C450.029 110.631 455.625 116.228 455.625 123.131V141.881C455.625 148.785 450.029 154.381 443.125 154.381H390V207.506C390 214.41 384.404 220.006 377.5 220.006H358.75C351.846 220.006 346.25 214.41 346.25 207.506V154.381H293.125C286.221 154.381 280.625 148.785 280.625 141.881V123.131C280.625 116.228 286.221 110.631 293.125 110.631H346.25V57.5061C346.25 50.6025 351.846 45.0061 358.75 45.0061H377.5Z" fill="white"/>
<path d="M377.5 45.0061C384.404 45.0061 390 50.6025 390 57.5061V110.631H443.125C450.029 110.631 455.625 116.228 455.625 123.131V141.881C455.625 148.785 450.029 154.381 443.125 154.381H390V207.506C390 214.41 384.404 220.006 377.5 220.006H358.75C351.846 220.006 346.25 214.41 346.25 207.506V154.381H293.125C286.221 154.381 280.625 148.785 280.625 141.881V123.131C280.625 116.228 286.221 110.631 293.125 110.631H346.25V57.5061C346.25 50.6025 351.846 45.0061 358.75 45.0061H377.5Z" fill="white"/>
<path d="M377.5 45.0061C384.404 45.0061 390 50.6025 390 57.5061V110.631H443.125C450.029 110.631 455.625 116.228 455.625 123.131V141.881C455.625 148.785 450.029 154.381 443.125 154.381H390V207.506C390 214.41 384.404 220.006 377.5 220.006H358.75C351.846 220.006 346.25 214.41 346.25 207.506V154.381H293.125C286.221 154.381 280.625 148.785 280.625 141.881V123.131C280.625 116.228 286.221 110.631 293.125 110.631H346.25V57.5061C346.25 50.6025 351.846 45.0061 358.75 45.0061H377.5Z" fill="white"/>
<path d="M377.5 45.0061C384.404 45.0061 390 50.6025 390 57.5061V110.631H443.125C450.029 110.631 455.625 116.228 455.625 123.131V141.881C455.625 148.785 450.029 154.381 443.125 154.381H390V207.506C390 214.41 384.404 220.006 377.5 220.006H358.75C351.846 220.006 346.25 214.41 346.25 207.506V154.381H293.125C286.221 154.381 280.625 148.785 280.625 141.881V123.131C280.625 116.228 286.221 110.631 293.125 110.631H346.25V57.5061C346.25 50.6025 351.846 45.0061 358.75 45.0061H377.5Z" fill="white"/>
<path d="M377.5 45.0061C384.404 45.0061 390 50.6025 390 57.5061V110.631H443.125C450.029 110.631 455.625 116.228 455.625 123.131V141.881C455.625 148.785 450.029 154.381 443.125 154.381H390V207.506C390 214.41 384.404 220.006 377.5 220.006H358.75C351.846 220.006 346.25 214.41 346.25 207.506V154.381H293.125C286.221 154.381 280.625 148.785 280.625 141.881V123.131C280.625 116.228 286.221 110.631 293.125 110.631H346.25V57.5061C346.25 50.6025 351.846 45.0061 358.75 45.0061H377.5Z" fill="white"/>
</svg>
