<svg width="500" height="500" viewBox="0 0 500 500" fill="none" xmlns="http://www.w3.org/2000/svg">
<path d="M110.012 373.95C129.92 359.179 151.608 347.514 175.076 338.953C198.54 330.397 223.515 326.119 250 326.119C276.485 326.119 301.46 330.397 324.924 338.953C348.392 347.514 370.08 359.179 389.988 373.95C404.548 357.946 416.085 339.42 424.598 318.372C433.112 297.324 437.368 274.534 437.368 250C437.368 198.084 419.12 153.876 382.622 117.378C346.124 80.8807 301.917 62.6318 250 62.6318C198.083 62.6318 153.876 80.8807 117.378 117.378C80.8805 153.876 62.6316 198.084 62.6316 250C62.6316 274.534 66.8884 297.324 75.4019 318.372C83.9155 339.42 95.4523 357.946 110.012 373.95ZM195.909 245.538C181.224 230.857 173.882 212.827 173.882 191.448C173.882 170.068 181.224 152.038 195.909 137.357C210.59 122.672 228.62 115.329 250 115.329C271.38 115.329 289.41 122.672 304.091 137.357C318.776 152.038 326.118 170.068 326.118 191.448C326.118 212.827 318.776 230.857 304.091 245.538C289.41 260.223 271.38 267.566 250 267.566C228.62 267.566 210.59 260.223 195.909 245.538ZM250 472.5C219.104 472.5 190.12 466.69 163.049 455.069C135.979 443.448 112.431 427.624 92.4056 407.595C72.3767 387.57 56.5519 364.022 44.9311 336.951C33.3104 309.88 27.5 280.896 27.5 250C27.5 219.104 33.3104 190.12 44.9311 163.05C56.5519 135.979 72.3767 112.431 92.4056 92.4058C112.431 72.3769 135.979 56.5521 163.049 44.9313C190.12 33.3106 219.104 27.5002 250 27.5002C280.896 27.5002 309.88 33.3106 336.951 44.9313C364.021 56.5521 387.569 72.3769 407.594 92.4058C427.623 112.431 443.448 135.979 455.069 163.05C466.69 190.12 472.5 219.104 472.5 250C472.5 280.896 466.69 309.88 455.069 336.951C443.448 364.022 427.623 387.57 407.594 407.595C387.569 427.624 364.021 443.448 336.951 455.069C309.88 466.69 280.896 472.5 250 472.5Z" fill="white"/>
</svg>
