<svg width="500" height="500" viewBox="0 0 500 500" fill="none" xmlns="http://www.w3.org/2000/svg">
<path d="M439.984 279.899V413.11C439.984 425.706 434.98 437.787 426.073 446.694C417.166 455.601 405.085 460.606 392.488 460.606H309.377V342.893C309.377 326.497 296.085 313.206 279.689 313.205H220.314C203.919 313.205 190.627 326.497 190.627 342.893V460.606H107.512C94.9152 460.606 82.8349 455.601 73.9277 446.694C65.0207 437.787 60.0158 425.706 60.0156 413.11V279.899L250 89.9144L439.984 279.899ZM249.989 23.8705C258.385 23.8705 266.438 27.2049 272.376 33.141L344.981 105.746V64.8051C344.981 60.6065 346.649 56.5797 349.618 53.6107C352.587 50.6417 356.615 48.973 360.813 48.973H392.478C396.676 48.973 400.704 50.6416 403.673 53.6107C406.642 56.5797 408.31 60.6064 408.31 64.8051V169.075L482.847 243.58C485.819 246.553 487.489 250.585 487.489 254.789C487.489 258.994 485.819 263.026 482.847 265.998C479.874 268.971 475.842 270.641 471.638 270.641C467.434 270.641 463.402 268.971 460.429 265.998L249.989 55.5277L39.5508 265.998C38.0788 267.47 36.3304 268.638 34.4072 269.435C32.4841 270.231 30.4224 270.641 28.3408 270.641C24.1368 270.641 20.1045 268.971 17.1318 265.998C15.6601 264.527 14.4929 262.779 13.6963 260.856C12.8997 258.933 12.4893 256.871 12.4893 254.789C12.4893 252.708 12.8997 250.646 13.6963 248.723C14.4929 246.8 15.6601 245.052 17.1318 243.58L227.603 33.141C233.54 27.205 241.593 23.8705 249.989 23.8705Z" fill="white"/>
</svg>
