<svg width="500" height="500" viewBox="0 0 500 500" fill="none" xmlns="http://www.w3.org/2000/svg">
<path d="M297.48 42.6368C339.604 42.6368 360.666 42.6372 376.755 50.835C390.907 58.046 402.413 69.552 409.624 83.7043C413.242 90.806 415.262 98.8766 416.391 109.3C409.731 109.112 402.485 109.081 394.71 109.076H345.742C332.184 109.076 322.37 109.008 313.711 110.148C257.46 117.554 213.194 161.818 205.788 218.069C204.648 226.729 204.716 236.544 204.716 250.102C204.716 263.659 204.649 273.474 205.788 282.133C213.194 338.384 257.46 382.649 313.711 390.055C322.37 391.195 332.184 391.127 345.742 391.127H394.71C402.485 391.123 409.732 391.088 416.391 390.9C415.262 401.324 413.243 409.396 409.624 416.498C402.413 430.65 390.907 442.156 376.755 449.367C360.666 457.565 339.604 457.565 297.48 457.565H160.842C118.718 457.565 97.6566 457.565 81.5675 449.367C67.4152 442.156 55.9092 430.65 48.6982 416.498C40.5005 400.409 40.5 379.347 40.5 337.223V162.979C40.5 120.855 40.5004 99.7934 48.6982 83.7043C55.9092 69.552 67.4152 58.046 81.5675 50.835C97.6566 42.6372 118.718 42.6368 160.842 42.6368H297.48ZM388.833 140.415C421.757 140.415 438.219 140.415 450.681 147.076C460.52 152.335 468.58 160.393 473.839 170.233C480.5 182.694 480.5 199.158 480.5 232.082V268.121C480.5 301.046 480.5 317.508 473.839 329.969C468.58 339.809 460.52 347.867 450.681 353.127C438.219 359.787 421.757 359.787 388.833 359.787H345.742C331.188 359.787 323.911 359.788 317.801 358.983C275.613 353.429 242.414 320.231 236.86 278.042C236.056 271.933 236.055 264.655 236.055 250.102C236.055 235.548 236.056 228.27 236.86 222.16C242.415 179.972 275.613 146.773 317.801 141.219C323.911 140.415 331.188 140.415 345.742 140.415H388.833ZM330.073 218.135C312.765 218.135 298.734 232.166 298.734 249.474C298.734 266.782 312.765 280.813 330.073 280.813C347.381 280.813 361.412 266.782 361.412 249.474C361.412 232.166 347.381 218.135 330.073 218.135Z" fill="white"/>
</svg>
