<svg width="24" height="24" viewBox="0 0 24 24" fill="none" xmlns="http://www.w3.org/2000/svg">
<g clip-path="url(#clip0_11300_55161)">
<path d="M0 8C0 5.19974 0 3.79961 0.544967 2.73005C1.02433 1.78924 1.78924 1.02433 2.73005 0.544967C3.79961 0 5.19974 0 8 0H16C18.8003 0 20.2004 0 21.27 0.544967C22.2108 1.02433 22.9757 1.78924 23.455 2.73005C24 3.79961 24 5.19974 24 8V16C24 18.8003 24 20.2004 23.455 21.27C22.9757 22.2108 22.2108 22.9757 21.27 23.455C20.2004 24 18.8003 24 16 24H8C5.19974 24 3.79961 24 2.73005 23.455C1.78924 22.9757 1.02433 22.2108 0.544967 21.27C0 20.2004 0 18.8003 0 16V8Z" fill="black"/>
<path d="M20.0817 4.0791V10.8911C20.0817 12.1021 19.6985 13.2753 19.0069 14.2403C18.7919 14.5431 18.5489 14.8174 18.2779 15.0729L18.2592 15.0824H15.0629V8.77181H12.1002H9.10953H8.84785H5.89453L5.93191 8.73398L8.43661 6.37815L9.36186 5.51719C10.4086 4.53324 11.6984 4.0791 13.119 4.0791H20.0817Z" fill="url(#paint0_linear_11300_55161)"/>
<path d="M18.2598 15.0932L18.2505 15.1026L18.2411 15.1121L18.0729 15.2729L17.4374 15.8784L15.1289 18.045L14.9046 18.2532C13.8579 19.2277 12.4841 19.7575 11.0728 19.7575H4.08203V16.711L4.09138 15.0837L4.11007 12.9171C4.11942 11.3371 4.76428 9.84226 5.90449 8.76367H8.85779H8.86716V15.0837H18.2598V15.0932Z" fill="url(#paint1_linear_11300_55161)"/>
</g>
<defs>
<linearGradient id="paint0_linear_11300_55161" x1="13.3237" y1="3.40709" x2="12.4065" y2="20.696" gradientUnits="userSpaceOnUse">
<stop stop-color="#48EF8A"/>
<stop offset="0.5458" stop-color="#43B4A6"/>
<stop offset="0.6918" stop-color="#2D796F"/>
<stop offset="0.9662"/>
</linearGradient>
<linearGradient id="paint1_linear_11300_55161" x1="11.593" y1="20.6152" x2="9.18499" y2="2.89933" gradientUnits="userSpaceOnUse">
<stop stop-color="#FF5F96"/>
<stop offset="0.6103" stop-color="#FF33AF"/>
<stop offset="1"/>
</linearGradient>
<clipPath id="clip0_11300_55161">
<rect width="24" height="24" fill="white"/>
</clipPath>
</defs>
</svg>
