<svg width="24" height="24" viewBox="0 0 24 24" fill="none" xmlns="http://www.w3.org/2000/svg">
<g clip-path="url(#clip0_11300_54853)">
<path d="M0 8C0 5.19974 0 3.79961 0.544967 2.73005C1.02433 1.78924 1.78924 1.02433 2.73005 0.544967C3.79961 0 5.19974 0 8 0H16C18.8003 0 20.2004 0 21.27 0.544967C22.2108 1.02433 22.9757 1.78924 23.455 2.73005C24 3.79961 24 5.19974 24 8V16C24 18.8003 24 20.2004 23.455 21.27C22.9757 22.2108 22.2108 22.9757 21.27 23.455C20.2004 24 18.8003 24 16 24H8C5.19974 24 3.79961 24 2.73005 23.455C1.78924 22.9757 1.02433 22.2108 0.544967 21.27C0 20.2004 0 18.8003 0 16V8Z" fill="#2B2B36"/>
<g clip-path="url(#clip1_11300_54853)">
<path d="M5.08639 8.7836C4.97973 8.65462 4.84534 8.55151 4.69331 8.48199C4.54899 8.41688 4.3931 8.38151 4.23488 8.37798C4.05998 8.3723 3.88573 8.40201 3.72253 8.46535C3.57591 8.523 3.44278 8.61046 3.33152 8.72224C3.22272 8.83292 3.13858 8.9655 3.08468 9.11122C2.97177 9.4294 2.97177 9.77689 3.08468 10.0951C3.13819 10.2419 3.22235 10.3756 3.33152 10.4872C3.44266 10.5991 3.57582 10.6866 3.72253 10.7441C3.88573 10.8074 4.05998 10.8371 4.23488 10.8314C4.3931 10.8279 4.54899 10.7925 4.69331 10.7274C4.84536 10.6579 4.97975 10.5548 5.08639 10.4258L4.81777 10.2178C4.75697 10.3083 4.67602 10.3835 4.58129 10.4373C4.47608 10.4981 4.35632 10.529 4.23488 10.5267C4.10962 10.5322 3.98467 10.5102 3.86877 10.4622C3.76407 10.4205 3.66935 10.357 3.59081 10.276C3.51282 10.1901 3.45348 10.0888 3.41657 9.97859C3.33697 9.73714 3.33697 9.47643 3.41657 9.23498C3.45364 9.12518 3.51296 9.02426 3.59081 8.93856C3.66798 8.85485 3.76202 8.78856 3.86669 8.74408C3.98261 8.69617 4.10755 8.67416 4.23281 8.67959C4.35424 8.67727 4.47401 8.7082 4.57922 8.76904C4.67392 8.82285 4.75487 8.89797 4.81569 8.98848L5.08432 8.78048L5.08639 8.7836ZM5.87255 10.7753H6.20133V9.57715C6.19405 9.40468 6.2297 9.23312 6.30505 9.07793C6.35936 8.9723 6.43661 8.88024 6.53114 8.80856C6.6011 8.75381 6.68218 8.71511 6.76866 8.6952C6.81534 8.68702 6.86243 8.68146 6.9097 8.67856C7.15171 8.67856 7.31766 8.74789 7.40756 8.88656C7.50811 9.06868 7.55487 9.27574 7.54237 9.48355V10.7753H7.87115V9.29217C7.88712 9.04793 7.81086 8.80659 7.65751 8.61615C7.51299 8.46084 7.29139 8.38318 6.99269 8.38318C6.91448 8.38341 6.83669 8.39426 6.7614 8.41542C6.68423 8.43656 6.60974 8.46657 6.53944 8.50487C6.47098 8.54242 6.40754 8.58855 6.35069 8.64215C6.29611 8.69328 6.24929 8.75215 6.2117 8.81688H6.20133V7.00098H5.87255V10.7753ZM10.4879 9.61251V9.78204C10.4885 9.88104 10.4741 9.97956 10.4454 10.0743C10.4191 10.163 10.3739 10.2449 10.3128 10.3142C10.2517 10.3835 10.1762 10.4387 10.0917 10.4757C9.99347 10.5179 9.88738 10.5385 9.78056 10.5361C9.71423 10.536 9.6481 10.5283 9.58351 10.5132C9.52076 10.4989 9.46105 10.4736 9.40719 10.4383C9.35489 10.4039 9.3115 10.3576 9.28065 10.3031C9.24751 10.2427 9.23104 10.1744 9.23294 10.1055C9.23059 10.0533 9.24041 10.0013 9.26168 9.95364C9.28293 9.90597 9.315 9.86395 9.35532 9.83091C9.44179 9.76162 9.54178 9.7113 9.64885 9.68322C9.76614 9.65103 9.88636 9.63082 10.0077 9.62291C10.1322 9.6146 10.2359 9.61042 10.3189 9.61042L10.4879 9.61251ZM10.324 9.34313C10.1857 9.34313 10.0322 9.34973 9.86354 9.36291C9.70198 9.37627 9.54292 9.41124 9.3906 9.46689C9.2497 9.51578 9.12319 9.59906 9.02241 9.70923C8.91838 9.83409 8.8657 9.99402 8.87512 10.1564C8.87272 10.2597 8.89587 10.3619 8.94254 10.4539C8.98639 10.5374 9.04756 10.6104 9.12196 10.6681C9.19835 10.7274 9.28529 10.7715 9.37814 10.7981C9.47518 10.8266 9.57577 10.841 9.67684 10.8408C9.84292 10.8452 10.0076 10.8095 10.157 10.7368C10.2993 10.6578 10.4173 10.5413 10.4983 10.3998H10.5086C10.5086 10.4629 10.5111 10.5277 10.5159 10.5943C10.5208 10.6609 10.5287 10.7212 10.5398 10.7753H10.8509C10.8412 10.7122 10.8322 10.6314 10.8239 10.5329C10.8156 10.4345 10.8129 10.3419 10.8156 10.2553V9.2152C10.8188 9.0886 10.7952 8.96274 10.7462 8.846C10.7034 8.74828 10.6404 8.66074 10.5616 8.58911C10.4827 8.51972 10.3901 8.46796 10.2898 8.43727C10.1845 8.40392 10.0746 8.38708 9.96414 8.38734C9.52576 8.38734 9.19734 8.50036 8.97883 8.7264L9.17797 8.96145C9.37134 8.78194 9.62599 8.68366 9.88947 8.68688C10.2877 8.68688 10.4869 8.8883 10.4869 9.29114V9.35147L10.324 9.34313ZM11.9067 8.43935C11.9137 8.52602 11.9195 8.61754 11.9244 8.71392C11.9292 8.81029 11.9316 8.89003 11.9316 8.95312V10.7753H12.2604V9.57715C12.2531 9.40468 12.2888 9.23312 12.3641 9.07793C12.4184 8.9723 12.4957 8.88024 12.5902 8.80856C12.6602 8.75381 12.7412 8.71511 12.8277 8.6952C12.8737 8.68605 12.9201 8.67945 12.9667 8.67543C13.2087 8.67543 13.3747 8.74477 13.4646 8.88344C13.5651 9.06556 13.6119 9.27262 13.5994 9.48042V10.7753H13.9282V9.29217C13.9441 9.04793 13.8679 8.80659 13.7145 8.61615C13.5714 8.46084 13.3505 8.38318 13.0518 8.38318C12.9736 8.38341 12.8958 8.39426 12.8205 8.41542C12.7433 8.43656 12.6688 8.46657 12.5985 8.50487C12.5291 8.54122 12.4646 8.58631 12.4067 8.63903C12.3521 8.69016 12.3053 8.74903 12.2677 8.81376H12.2573C12.2573 8.75066 12.2573 8.68826 12.2573 8.62655C12.2573 8.56484 12.2532 8.50244 12.2449 8.43935H11.9067ZM15.3594 9.2308C15.4027 9.12508 15.4653 9.02841 15.5441 8.94584C15.6222 8.86425 15.7152 8.79826 15.8179 8.75136C15.9249 8.7024 16.0414 8.67755 16.1591 8.67856C16.2855 8.67683 16.4109 8.70163 16.5273 8.75136C16.6325 8.79651 16.7274 8.86268 16.8063 8.94584C16.883 9.02804 16.9423 9.12498 16.9805 9.2308C17.021 9.34209 17.0414 9.45974 17.0407 9.57818C17.0457 9.70425 17.0245 9.83 16.9784 9.94739C16.9356 10.0542 16.8701 10.1503 16.7866 10.2292C16.6179 10.3878 16.3955 10.4763 16.1643 10.4768C16.0466 10.4778 15.9301 10.453 15.8231 10.404C15.7203 10.3571 15.6274 10.2911 15.5492 10.2095C15.4704 10.127 15.4078 10.0303 15.3646 9.92453C15.275 9.70201 15.275 9.45332 15.3646 9.2308H15.3594ZM14.9881 11.5033C15.127 11.6557 15.2967 11.7766 15.486 11.858C15.6838 11.9372 15.8953 11.9761 16.1083 11.9723C16.3268 11.9811 16.5445 11.9402 16.7451 11.8527C16.8935 11.784 17.0239 11.6815 17.1257 11.5532C17.2154 11.437 17.2784 11.3024 17.3103 11.159C17.3408 11.0263 17.3568 10.8907 17.358 10.7545V8.43935H17.0293V8.82832H17.0189C16.9053 8.67024 16.7512 8.54591 16.5729 8.46847C16.4977 8.43616 16.4191 8.41278 16.3385 8.39878C16.2652 8.38598 16.191 8.37937 16.1166 8.37902C15.9536 8.3773 15.792 8.40879 15.6415 8.47159C15.5008 8.53063 15.3737 8.61807 15.2682 8.72848C15.1624 8.83999 15.0787 8.97056 15.0213 9.11329C14.9609 9.26399 14.9306 9.42512 14.9321 9.58756C14.9307 9.75047 14.9628 9.91193 15.0265 10.0618C15.0866 10.2036 15.1748 10.3317 15.2858 10.4383C15.3975 10.5447 15.5285 10.6287 15.6716 10.6858C15.8227 10.7462 15.984 10.7766 16.1466 10.7753C16.3132 10.7747 16.4778 10.7392 16.6299 10.6713C16.7895 10.5987 16.9243 10.4808 17.0179 10.3322H17.0282V10.7482C17.0288 10.8688 17.0128 10.9888 16.9805 11.105C16.9516 11.2132 16.8992 11.3137 16.827 11.3993C16.7502 11.4865 16.6539 11.5542 16.5459 11.5969C16.411 11.6486 16.2672 11.6734 16.1228 11.6697C15.9431 11.6726 15.7652 11.6323 15.6042 11.5522C15.4564 11.4792 15.3277 11.3723 15.2288 11.2402L14.9881 11.5033ZM18.6866 9.42322C18.6868 9.32594 18.7099 9.23008 18.7541 9.14345C18.7991 9.05357 18.8598 8.97254 18.9335 8.90424C19.0099 8.83318 19.0984 8.77647 19.1948 8.7368C19.2933 8.69525 19.3992 8.67403 19.506 8.6744C19.6083 8.66834 19.7107 8.68371 19.8068 8.71952C19.9029 8.75533 19.9905 8.8108 20.064 8.8824C20.1307 8.9551 20.1823 9.04032 20.2159 9.13315C20.2496 9.22596 20.2646 9.32457 20.26 9.42322H18.6866ZM20.6178 9.6926V9.54698C20.6187 9.39336 20.5934 9.24071 20.5431 9.09562C20.4962 8.95925 20.4225 8.83371 20.3264 8.7264C20.2289 8.61894 20.1102 8.53289 19.9779 8.47367C19.8288 8.40869 19.6675 8.37642 19.505 8.37902C19.3461 8.37774 19.1886 8.40925 19.0424 8.47159C18.9021 8.53134 18.7751 8.61869 18.669 8.72848C18.5613 8.84047 18.4768 8.97265 18.4201 9.11745C18.3594 9.27316 18.3291 9.43911 18.3309 9.60626C18.3293 9.7737 18.3607 9.93982 18.4232 10.0951C18.4812 10.2397 18.5665 10.3717 18.6742 10.4841C18.7821 10.595 18.9117 10.6825 19.0548 10.7409C19.2072 10.8033 19.3704 10.8348 19.535 10.8335C19.7213 10.835 19.9056 10.796 20.0754 10.7191C20.2569 10.6312 20.4148 10.5011 20.5359 10.3395L20.2818 10.1315C20.2069 10.2461 20.1073 10.3425 19.9903 10.4133C19.8536 10.4975 19.6955 10.5402 19.535 10.5361C19.4239 10.5372 19.3137 10.5152 19.2114 10.4716C19.0114 10.3858 18.8512 10.2271 18.7634 10.0275C18.7165 9.92327 18.6877 9.81175 18.6784 9.69779L20.6178 9.6926Z" fill="white"/>
<path d="M3.28711 17.0145H4.12306V13.4004H4.13654L6.45978 17.0145H7.52182V12.3021H6.68485V15.8029H6.67239L4.39065 12.3021H3.28711V17.0145ZM8.85664 15.6833C8.97207 15.9749 9.14716 16.2391 9.37065 16.4587C9.59412 16.6783 9.86102 16.8485 10.1541 16.9584C10.4732 17.0789 10.8119 17.1389 11.1529 17.1352C11.4981 17.135 11.8402 17.0708 12.1621 16.9459C12.4568 16.8307 12.7256 16.6574 12.9524 16.4363C13.1766 16.2149 13.3531 15.9498 13.471 15.6573C13.5968 15.3373 13.6585 14.9955 13.6525 14.6516C13.6575 14.3009 13.5944 13.9526 13.4668 13.6261C13.3501 13.3311 13.1735 13.0637 12.9482 12.8409C12.723 12.6209 12.4536 12.4518 12.1579 12.3448C11.8344 12.2286 11.4923 12.1732 11.1488 12.1815C10.8078 12.1777 10.4691 12.2377 10.15 12.3583C9.85702 12.4694 9.59033 12.6405 9.36693 12.8606C9.1417 13.0847 8.96514 13.3531 8.84834 13.649C8.72472 13.9777 8.66555 14.3273 8.67411 14.6786C8.6695 15.0225 8.73258 15.3639 8.85976 15.6833H8.85664ZM9.66356 13.9662C9.73746 13.7679 9.84912 13.586 9.99234 13.4306C10.135 13.2765 10.3081 13.154 10.5005 13.0707C10.71 12.9814 10.9357 12.9371 11.1633 12.9407C11.3911 12.9377 11.6171 12.9819 11.8271 13.0707C12.0208 13.1534 12.1949 13.276 12.3384 13.4306C12.4815 13.5861 12.5932 13.768 12.6672 13.9662C12.744 14.1763 12.7819 14.3987 12.7792 14.6224C12.7817 14.8604 12.7423 15.097 12.663 15.3214C12.5908 15.5254 12.4791 15.713 12.3342 15.8736C12.1911 16.03 12.0169 16.1547 11.8229 16.2397C11.6135 16.3306 11.3873 16.3759 11.1591 16.3728C10.932 16.3762 10.7067 16.3308 10.4985 16.2397C10.3057 16.1542 10.1326 16.0295 9.99027 15.8736C9.84538 15.7131 9.73363 15.5254 9.66149 15.3214C9.58245 15.097 9.54347 14.8604 9.54635 14.6224C9.54449 14.3974 9.58386 14.1739 9.66252 13.9631L9.66356 13.9662ZM15.6656 17.0145H16.4352L17.5242 13.4264H17.5377L18.6308 17.0145H19.4274L20.7943 12.3021H19.9449L19.0218 15.6968H19.0083L17.9712 12.3021H17.1477L16.0908 15.6968H16.0773L15.1947 12.3021H14.2748L15.6656 17.0145Z" fill="#00C26F"/>
</g>
</g>
<defs>
<clipPath id="clip0_11300_54853">
<rect width="24" height="24" fill="white"/>
</clipPath>
<clipPath id="clip1_11300_54853">
<rect width="18" height="10.1379" fill="white" transform="translate(3 7)"/>
</clipPath>
</defs>
</svg>
