<svg width="24" height="24" viewBox="0 0 24 24" fill="none" xmlns="http://www.w3.org/2000/svg">
<g clip-path="url(#clip0_11300_54850)">
<mask id="mask0_11300_54850" style="mask-type:alpha" maskUnits="userSpaceOnUse" x="0" y="0" width="24" height="24">
<path d="M0 8C0 5.19974 0 3.79961 0.544967 2.73005C1.02433 1.78924 1.78924 1.02433 2.73005 0.544967C3.79961 0 5.19974 0 8 0H16C18.8003 0 20.2004 0 21.27 0.544967C22.2108 1.02433 22.9757 1.78924 23.455 2.73005C24 3.79961 24 5.19974 24 8V16C24 18.8003 24 20.2004 23.455 21.27C22.9757 22.2108 22.2108 22.9757 21.27 23.455C20.2004 24 18.8003 24 16 24H8C5.19974 24 3.79961 24 2.73005 23.455C1.78924 22.9757 1.02433 22.2108 0.544967 21.27C0 20.2004 0 18.8003 0 16V8Z" fill="#FFFFFF"/>
</mask>
<g mask="url(#mask0_11300_54850)">
<path d="M0 0H23.9564V23.956H0V0ZM20.3075 6.2858H9.01079L14.6136 13.9781L20.3075 6.2858ZM14.9011 17.6702L9.1222 9.84396L3.6044 17.6702H14.9011Z" fill="#191D21"/>
<path d="M14.9022 17.67H3.60547L9.12327 9.84375L14.9022 17.67Z" fill="#63EFBE"/>
<path d="M20.3085 6.28613L14.6145 13.978L9.01172 6.28613H20.3085Z" fill="#EE6363"/>
</g>
</g>
<defs>
<clipPath id="clip0_11300_54850">
<rect width="24" height="24" fill="white"/>
</clipPath>
</defs>
</svg>
