<svg width="24" height="24" viewBox="0 0 24 24" fill="none" xmlns="http://www.w3.org/2000/svg">
<g clip-path="url(#clip0_11300_54651)">
<path d="M0 8C0 5.19974 0 3.79961 0.544967 2.73005C1.02433 1.78924 1.78924 1.02433 2.73005 0.544967C3.79961 0 5.19974 0 8 0H16C18.8003 0 20.2004 0 21.27 0.544967C22.2108 1.02433 22.9757 1.78924 23.455 2.73005C24 3.79961 24 5.19974 24 8V16C24 18.8003 24 20.2004 23.455 21.27C22.9757 22.2108 22.2108 22.9757 21.27 23.455C20.2004 24 18.8003 24 16 24H8C5.19974 24 3.79961 24 2.73005 23.455C1.78924 22.9757 1.02433 22.2108 0.544967 21.27C0 20.2004 0 18.8003 0 16V8Z" fill="#D9D9D9"/>
<path d="M0 8C0 5.19974 0 3.79961 0.544967 2.73005C1.02433 1.78924 1.78924 1.02433 2.73005 0.544967C3.79961 0 5.19974 0 8 0H16C18.8003 0 20.2004 0 21.27 0.544967C22.2108 1.02433 22.9757 1.78924 23.455 2.73005C24 3.79961 24 5.19974 24 8V16C24 18.8003 24 20.2004 23.455 21.27C22.9757 22.2108 22.2108 22.9757 21.27 23.455C20.2004 24 18.8003 24 16 24H8C5.19974 24 3.79961 24 2.73005 23.455C1.78924 22.9757 1.02433 22.2108 0.544967 21.27C0 20.2004 0 18.8003 0 16V8Z" fill="#141726"/>
<path d="M16.0798 17.0668C14.0758 13.8118 11.0878 11.9668 7.39776 11.1988C6.09276 10.9288 4.78176 10.9318 3.51576 11.4298C2.64876 11.7718 2.51676 12.1318 2.92476 13.0408C5.69676 12.3838 8.27676 12.9958 10.6918 14.3908C13.1248 15.7978 14.9398 17.7568 15.7648 20.5408C16.9228 20.1868 17.0728 19.9918 16.7938 18.9148C16.6288 18.2818 16.4218 17.6218 16.0798 17.0668Z" fill="url(#paint0_linear_11300_54651)"/>
<path d="M18.2722 14.4183C15.6982 10.6683 12.0532 8.57125 7.59823 7.86925C6.41923 7.68325 5.21623 7.73426 4.11223 8.29826C3.58423 8.56826 3.11623 8.91326 2.99023 9.64526C6.46423 8.68826 9.58123 9.53426 12.5152 11.2353C15.4642 12.9453 17.7682 15.2403 18.6652 18.7683C19.2892 18.2163 19.4002 17.5383 19.2382 16.9083C19.0162 16.0443 18.7642 15.1353 18.2722 14.4183Z" fill="url(#paint1_linear_11300_54651)"/>
<path d="M3.15039 14.6581C3.36939 15.1441 3.51339 15.6931 3.84039 16.0861C4.00539 16.2871 4.50639 16.2091 4.85439 16.2571C4.90839 16.2631 4.96239 16.2721 5.01639 16.2781C8.10339 16.7371 10.5394 18.2311 12.2794 20.8381C12.3814 20.9911 12.5464 21.2191 12.6814 21.2191C13.2034 21.2161 13.7284 21.1351 14.2564 21.0841C13.4704 16.7251 6.98439 13.1491 3.15039 14.6581Z" fill="url(#paint2_linear_11300_54651)"/>
<path d="M19.6978 11.0011C17.9968 8.62213 15.6508 7.03813 12.9868 5.91013C11.1418 5.12713 9.23078 4.65613 7.20278 4.89913C6.50078 4.98313 5.84378 5.18413 5.30078 5.64013C12.2278 5.81413 17.4388 8.81413 21.0208 14.7391C21.0268 14.3461 21.0868 13.9081 20.9428 13.5541C20.5828 12.6751 20.2408 11.7601 19.6978 11.0011Z" fill="url(#paint3_linear_11300_54651)"/>
<path d="M21.294 9.75945C19.884 4.39245 14.154 1.80945 9.91797 3.11745C14.481 4.01745 18.225 6.19245 21.294 9.75945Z" fill="url(#paint4_linear_11300_54651)"/>
<path d="M4.66211 17.5172C6.30011 19.5962 8.38211 20.8082 11.0521 21.2012C10.0321 19.2962 6.43811 17.2352 4.66211 17.5172Z" fill="url(#paint5_linear_11300_54651)"/>
</g>
<defs>
<linearGradient id="paint0_linear_11300_54651" x1="17.2475" y1="4.02363" x2="7.45553" y2="19.7304" gradientUnits="userSpaceOnUse">
<stop offset="0.16" stop-color="#C6F462"/>
<stop offset="0.89" stop-color="#33D9FF"/>
</linearGradient>
<linearGradient id="paint1_linear_11300_54651" x1="17.1769" y1="3.98035" x2="7.38522" y2="19.6871" gradientUnits="userSpaceOnUse">
<stop offset="0.16" stop-color="#C6F462"/>
<stop offset="0.89" stop-color="#33D9FF"/>
</linearGradient>
<linearGradient id="paint2_linear_11300_54651" x1="17.3108" y1="4.06305" x2="7.51913" y2="19.7699" gradientUnits="userSpaceOnUse">
<stop offset="0.16" stop-color="#C6F462"/>
<stop offset="0.89" stop-color="#33D9FF"/>
</linearGradient>
<linearGradient id="paint3_linear_11300_54651" x1="17.0706" y1="3.91357" x2="7.2786" y2="19.6204" gradientUnits="userSpaceOnUse">
<stop offset="0.16" stop-color="#C6F462"/>
<stop offset="0.89" stop-color="#33D9FF"/>
</linearGradient>
<linearGradient id="paint4_linear_11300_54651" x1="17.1509" y1="3.9637" x2="7.35889" y2="19.6705" gradientUnits="userSpaceOnUse">
<stop offset="0.16" stop-color="#C6F462"/>
<stop offset="0.89" stop-color="#33D9FF"/>
</linearGradient>
<linearGradient id="paint5_linear_11300_54651" x1="17.3713" y1="4.10091" x2="7.57956" y2="19.8077" gradientUnits="userSpaceOnUse">
<stop offset="0.16" stop-color="#C6F462"/>
<stop offset="0.89" stop-color="#33D9FF"/>
</linearGradient>
<clipPath id="clip0_11300_54651">
<rect width="24" height="24" fill="white"/>
</clipPath>
</defs>
</svg>
