<svg width="24" height="24" viewBox="0 0 24 24" fill="none" xmlns="http://www.w3.org/2000/svg">
<g clip-path="url(#clip0_11300_54858)">
<path d="M0 8C0 5.19974 0 3.79961 0.544967 2.73005C1.02433 1.78924 1.78924 1.02433 2.73005 0.544967C3.79961 0 5.19974 0 8 0H16C18.8003 0 20.2004 0 21.27 0.544967C22.2108 1.02433 22.9757 1.78924 23.455 2.73005C24 3.79961 24 5.19974 24 8V16C24 18.8003 24 20.2004 23.455 21.27C22.9757 22.2108 22.2108 22.9757 21.27 23.455C20.2004 24 18.8003 24 16 24H8C5.19974 24 3.79961 24 2.73005 23.455C1.78924 22.9757 1.02433 22.2108 0.544967 21.27C0 20.2004 0 18.8003 0 16V8Z" fill="#D9D9D9"/>
<path d="M0 8C0 5.19974 0 3.79961 0.544967 2.73005C1.02433 1.78924 1.78924 1.02433 2.73005 0.544967C3.79961 0 5.19974 0 8 0H16C18.8003 0 20.2004 0 21.27 0.544967C22.2108 1.02433 22.9757 1.78924 23.455 2.73005C24 3.79961 24 5.19974 24 8V16C24 18.8003 24 20.2004 23.455 21.27C22.9757 22.2108 22.2108 22.9757 21.27 23.455C20.2004 24 18.8003 24 16 24H8C5.19974 24 3.79961 24 2.73005 23.455C1.78924 22.9757 1.02433 22.2108 0.544967 21.27C0 20.2004 0 18.8003 0 16V8Z" fill="white"/>
<path fill-rule="evenodd" clip-rule="evenodd" d="M12.0103 3.58727C12.0102 3.50546 12.0317 3.42508 12.0725 3.35417C12.1133 3.28326 12.172 3.22432 12.2427 3.18324C12.3135 3.14216 12.3938 3.1204 12.4756 3.12012C12.5574 3.11984 12.6378 3.14107 12.7089 3.18166L16.0955 5.11689L19.8866 7.28322C19.9759 7.33424 20.0501 7.40797 20.1018 7.49693C20.1535 7.58589 20.1807 7.68692 20.1807 7.78979V12.1201L16.6744 10.1166C16.4981 10.0159 16.2986 9.96292 16.0955 9.96292C15.8924 9.96292 15.6929 10.0159 15.5166 10.1166L12.0103 12.1201V3.58727ZM3.83984 12.1201V7.78979C3.83988 7.68692 3.8671 7.58589 3.91875 7.49693C3.97041 7.40797 4.04466 7.33424 4.13398 7.28322L7.34613 5.44779C7.52245 5.34707 7.722 5.2941 7.92506 5.2941C8.12812 5.2941 8.32767 5.34707 8.50399 5.44779L12.0103 7.4513L3.83984 12.1201ZM12.0103 20.6536C12.0102 20.7353 11.9887 20.8156 11.9479 20.8864C11.907 20.9573 11.8483 21.0161 11.7776 21.0571C11.7068 21.0981 11.6266 21.1199 11.5448 21.1201C11.4631 21.1204 11.3827 21.0991 11.3117 21.0586L7.92506 19.1233L4.13398 16.957C4.04466 16.906 3.97041 16.8323 3.91875 16.7433C3.8671 16.6543 3.83988 16.5533 3.83984 16.4504V12.1201L7.34613 14.1236C7.52245 14.2243 7.722 14.2773 7.92506 14.2773C8.12812 14.2773 8.32767 14.2243 8.50399 14.1236L12.0103 12.1201V20.6536ZM15.5166 18.7924C15.6929 18.8932 15.8924 18.9461 16.0955 18.9461C16.2986 18.9461 16.4981 18.8932 16.6744 18.7924L19.8866 16.957C19.9759 16.906 20.0501 16.8323 20.1018 16.7433C20.1535 16.6543 20.1807 16.5533 20.1807 16.4504V12.1201L12.0103 16.7889L15.5166 18.7924Z" fill="#159DFF"/>
</g>
<defs>
<clipPath id="clip0_11300_54858">
<rect width="24" height="24" fill="white"/>
</clipPath>
</defs>
</svg>
