<svg width="24" height="24" viewBox="0 0 24 24" fill="none" xmlns="http://www.w3.org/2000/svg">
<g clip-path="url(#clip0_15401_272010)">
<path d="M0 8C0 5.19974 0 3.79961 0.544967 2.73005C1.02433 1.78924 1.78924 1.02433 2.73005 0.544967C3.79961 0 5.19974 0 8 0H16C18.8003 0 20.2004 0 21.27 0.544967C22.2108 1.02433 22.9757 1.78924 23.455 2.73005C24 3.79961 24 5.19974 24 8V16C24 18.8003 24 20.2004 23.455 21.27C22.9757 22.2108 22.2108 22.9757 21.27 23.455C20.2004 24 18.8003 24 16 24H8C5.19974 24 3.79961 24 2.73005 23.455C1.78924 22.9757 1.02433 22.2108 0.544967 21.27C0 20.2004 0 18.8003 0 16V8Z" fill="#EAEBEB"/>
<path d="M13.3307 3.59961C15.0428 3.59838 16.699 4.20946 18 5.32248L7.85002 15.4872C6.73814 14.1829 6.12813 12.5247 6.12972 10.8108C6.12972 6.82387 9.3491 3.59961 13.3307 3.59961Z" fill="#010101"/>
<path d="M10.7188 20.6235C8.91242 20.6235 7.26571 19.959 6 18.8638L16.1625 8.68666C17.256 9.95423 17.9196 11.6032 17.9196 13.4122C17.9196 17.3993 14.7 20.6235 10.7188 20.6235Z" fill="#010101"/>
</g>
<defs>
<clipPath id="clip0_15401_272010">
<rect width="24" height="24" fill="white"/>
</clipPath>
</defs>
</svg>
