<svg width="24" height="24" viewBox="0 0 24 24" fill="none" xmlns="http://www.w3.org/2000/svg">
<g clip-path="url(#clip0_15405_272448)">
<path d="M0 8C0 5.19974 0 3.79961 0.544967 2.73005C1.02433 1.78924 1.78924 1.02433 2.73005 0.544967C3.79961 0 5.19974 0 8 0H16C18.8003 0 20.2004 0 21.27 0.544967C22.2108 1.02433 22.9757 1.78924 23.455 2.73005C24 3.79961 24 5.19974 24 8V16C24 18.8003 24 20.2004 23.455 21.27C22.9757 22.2108 22.2108 22.9757 21.27 23.455C20.2004 24 18.8003 24 16 24H8C5.19974 24 3.79961 24 2.73005 23.455C1.78924 22.9757 1.02433 22.2108 0.544967 21.27C0 20.2004 0 18.8003 0 16V8Z" fill="#EAEBEB"/>
<path d="M6.6529 17.0953C6.63624 17.1315 6.62015 17.1679 6.60465 17.2047C6.41435 17.6557 6.31641 18.1391 6.31641 18.6273C6.31641 19.1155 6.41435 19.5988 6.60465 20.0499C6.79494 20.5009 7.07387 20.9107 7.42549 21.2559C7.77708 21.6011 8.19443 21.8749 8.65384 22.0617C9.11323 22.2486 9.60553 22.3447 10.1028 22.3447C10.6 22.3447 11.0924 22.2486 11.5517 22.0617C12.0111 21.8749 12.4286 21.6011 12.7801 21.2559L19.7477 14.4156C20.4735 13.7029 20.8814 12.7363 20.8814 11.7284C20.8814 10.8231 20.596 9.95086 19.9727 9.26644C19.6651 9.13593 19.3251 9.09591 18.9959 9.15666C18.7014 9.2109 18.4315 9.38256 18.2068 9.58414L11.5877 16.2534C11.4649 16.3779 11.3237 16.4812 11.17 16.5604C11.2512 16.5114 11.3312 16.4602 11.4101 16.4069C11.4034 16.4095 11.3966 16.4122 11.3899 16.4148C11.3965 16.4104 11.403 16.4061 11.4096 16.4017C11.4163 16.3972 11.4231 16.3927 11.4298 16.3882C11.4166 16.3971 11.4032 16.4059 11.3899 16.4148C10.3867 17.0778 9.18951 17.4002 7.98131 17.3321C7.52742 17.3065 7.08151 17.2264 6.6529 17.0953Z" fill="#104ADE"/>
<path d="M11.3893 16.4133C11.4026 16.4045 11.416 16.3956 11.4292 16.3867C11.1749 16.4879 10.8988 16.525 10.6262 16.4946C10.3536 16.4642 10.093 16.3674 9.86833 16.2129C9.66899 16.075 9.50264 15.8962 9.38082 15.6888C9.25905 15.4815 9.18467 15.2506 9.16296 15.0122C9.14119 14.7738 9.17257 14.5336 9.25487 14.3083C9.33722 14.083 9.4686 13.878 9.63978 13.7075L11.843 11.5255L15.0607 8.36643C15.0653 8.36268 15.0698 8.35883 15.0743 8.35497C15.0833 8.34732 15.0923 8.33966 15.1018 8.33255L15.5861 7.85676C15.823 7.80872 16.0734 7.78809 16.3347 7.78809C16.9006 7.78809 17.3819 7.84237 17.8618 7.97859C18.5596 8.12658 19.2017 8.47007 19.7093 8.97045C19.805 9.0654 19.8953 9.16638 19.9789 9.26784C19.6695 9.13511 19.3269 9.09406 18.9952 9.15514C18.7007 9.20943 18.4309 9.38109 18.2061 9.58267L11.5871 16.252C11.4642 16.3764 11.323 16.4797 11.1693 16.559C11.2505 16.5099 11.3306 16.4588 11.4095 16.4054C11.4028 16.408 11.396 16.4107 11.3893 16.4133Z" fill="#0038C7"/>
<path d="M16.7312 3.72719C16.5548 3.30912 16.2961 2.92933 15.97 2.60957C15.5928 2.23893 15.1449 1.9449 14.6518 1.74429C14.1589 1.54368 13.6304 1.44043 13.0968 1.44043C12.563 1.44043 12.0346 1.54368 11.5416 1.74429C11.0486 1.9449 10.6007 2.23893 10.2235 2.60957L4.48685 8.24013C3.47957 9.22912 2.90383 10.5641 2.88153 11.9626C2.85923 13.361 3.39212 14.7131 4.36737 15.7326L4.42711 15.7896L4.48904 15.8525C4.54549 15.907 4.60476 15.9586 4.66661 16.007C5.59181 16.7972 6.75807 17.2634 7.98236 17.3325C9.20662 17.4015 10.4196 17.0695 11.4308 16.3885C11.1766 16.4897 10.9005 16.5268 10.6279 16.4964C10.3553 16.4661 10.0947 16.3692 9.86998 16.2147C9.67068 16.0768 9.50434 15.898 9.38252 15.6907C9.26069 15.4833 9.18637 15.2524 9.1646 15.0139C9.14289 14.7756 9.17427 14.5354 9.25657 14.3101C9.33892 14.0848 9.47025 13.8798 9.64142 13.7093L11.8447 11.5273L15.0624 8.36826C15.0761 8.35691 15.0893 8.34508 15.1035 8.33433L15.97 7.48307C16.4611 7.00137 16.7955 6.38752 16.931 5.7191C17.0665 5.0507 16.997 4.35785 16.7312 3.72827V3.72719Z" fill="#0F75FC"/>
</g>
<defs>
<clipPath id="clip0_15405_272448">
<rect width="24" height="24" fill="white"/>
</clipPath>
</defs>
</svg>
