<svg width="24" height="24" viewBox="0 0 24 24" fill="none" xmlns="http://www.w3.org/2000/svg">
<g clip-path="url(#clip0_11300_54861)">
<mask id="mask0_11300_54861" style="mask-type:alpha" maskUnits="userSpaceOnUse" x="0" y="0" width="24" height="24">
<path d="M0 8C0 5.19974 0 3.79961 0.544967 2.73005C1.02433 1.78924 1.78924 1.02433 2.73005 0.544967C3.79961 0 5.19974 0 8 0H16C18.8003 0 20.2004 0 21.27 0.544967C22.2108 1.02433 22.9757 1.78924 23.455 2.73005C24 3.79961 24 5.19974 24 8V16C24 18.8003 24 20.2004 23.455 21.27C22.9757 22.2108 22.2108 22.9757 21.27 23.455C20.2004 24 18.8003 24 16 24H8C5.19974 24 3.79961 24 2.73005 23.455C1.78924 22.9757 1.02433 22.2108 0.544967 21.27C0 20.2004 0 18.8003 0 16V8Z" fill="#D9D9D9"/>
<path d="M0 8C0 5.19974 0 3.79961 0.544967 2.73005C1.02433 1.78924 1.78924 1.02433 2.73005 0.544967C3.79961 0 5.19974 0 8 0H16C18.8003 0 20.2004 0 21.27 0.544967C22.2108 1.02433 22.9757 1.78924 23.455 2.73005C24 3.79961 24 5.19974 24 8V16C24 18.8003 24 20.2004 23.455 21.27C22.9757 22.2108 22.2108 22.9757 21.27 23.455C20.2004 24 18.8003 24 16 24H8C5.19974 24 3.79961 24 2.73005 23.455C1.78924 22.9757 1.02433 22.2108 0.544967 21.27C0 20.2004 0 18.8003 0 16V8Z" fill="#FCE836"/>
</mask>
<g mask="url(#mask0_11300_54861)">
<rect width="24" height="24" rx="4.8" fill="#FDE937"/>
<path d="M19.8883 11.749L17.1157 8.16822C17.0435 8.0721 16.8987 8 16.7781 8H4V16H16.9229C17.0435 16 17.1397 15.9519 17.212 15.8558L19.9125 12.3978C20.0331 12.2056 20.0331 11.9412 19.8883 11.749ZM10.0515 14.5847H5.71173V9.36982H9.9552V10.6916H7.44773V11.2924H9.66587V12.5661H7.44773V13.239H10.0515V14.5847ZM14.2467 14.5847L13.3547 13.1909L12.4624 14.5847H10.4613L12.3419 11.9653L10.5096 9.39385H12.4867L13.3787 10.7156L14.2467 9.39385H16.1512L14.3432 11.9172L16.2717 14.6088H14.2467V14.5847Z" fill="black"/>
<path fill-rule="evenodd" clip-rule="evenodd" d="M5.70508 14.585H10.0448V13.2393H7.44081V12.5664H9.65895V11.2927H7.44081V10.6919H9.94828V9.37012H5.70508V14.585ZM13.3477 13.1912L14.2397 14.585V14.6091H16.2651L14.3363 11.9175L16.1445 9.39415H14.2397L13.3717 10.7159L12.4797 9.39415H10.5027L12.3352 11.9656L10.4547 14.585H12.4557L13.3477 13.1912Z" fill="white"/>
</g>
</g>
<defs>
<clipPath id="clip0_11300_54861">
<rect width="24" height="24" fill="white"/>
</clipPath>
</defs>
</svg>
