<svg width="24" height="24" viewBox="0 0 24 24" fill="none" xmlns="http://www.w3.org/2000/svg">
<g clip-path="url(#clip0_11300_55187)">
<path d="M0 8C0 5.19974 0 3.79961 0.544967 2.73005C1.02433 1.78924 1.78924 1.02433 2.73005 0.544967C3.79961 0 5.19974 0 8 0H16C18.8003 0 20.2004 0 21.27 0.544967C22.2108 1.02433 22.9757 1.78924 23.455 2.73005C24 3.79961 24 5.19974 24 8V16C24 18.8003 24 20.2004 23.455 21.27C22.9757 22.2108 22.2108 22.9757 21.27 23.455C20.2004 24 18.8003 24 16 24H8C5.19974 24 3.79961 24 2.73005 23.455C1.78924 22.9757 1.02433 22.2108 0.544967 21.27C0 20.2004 0 18.8003 0 16V8Z" fill="#FFFBFB"/>
<path d="M17.1211 12.8724L21.1186 10.5786V5.99121L17.1211 8.27929V12.8724Z" fill="#0E52B8"/>
<path d="M3.11914 5.98633V10.5738L7.11663 12.8675V8.27438L3.11914 5.98633Z" fill="#0E52B8"/>
<path d="M11.452 5.41383L7.45452 3.12012L3.45703 5.40817L7.45452 7.70189L11.452 5.41383Z" fill="#0180FF"/>
<path d="M7.78125 14.0117L7.78694 18.5992L11.7844 20.8929V16.3055L7.78125 14.0117Z" fill="#0E52B8"/>
<path d="M12.4512 20.8874L16.4487 18.5937L16.4544 14.0176L12.4512 16.3056V20.8874Z" fill="#0E52B8"/>
<path d="M20.7821 5.41969L16.7846 3.12598L12.7871 5.41403L16.7846 7.70775L20.7821 5.41969Z" fill="#0180FF"/>
<path d="M11.7844 10.947L7.78125 8.65332V13.2464L11.7844 15.5402V10.947Z" fill="#0E52B8"/>
<path d="M12.4512 10.9472V15.5403L16.4544 13.2523V8.65918L12.4512 10.9472Z" fill="#0E52B8"/>
<path d="M8.12109 8.08222L12.1243 10.3759L16.1161 8.08786L12.1243 5.7998L8.12109 8.08222Z" fill="#0180FF"/>
</g>
<defs>
<clipPath id="clip0_11300_55187">
<rect width="24" height="24" fill="white"/>
</clipPath>
</defs>
</svg>
