<svg width="24" height="24" viewBox="0 0 24 24" fill="none" xmlns="http://www.w3.org/2000/svg">
<g clip-path="url(#clip0_11300_55154)">
<path d="M0 8C0 5.19974 0 3.79961 0.544967 2.73005C1.02433 1.78924 1.78924 1.02433 2.73005 0.544967C3.79961 0 5.19974 0 8 0H16C18.8003 0 20.2004 0 21.27 0.544967C22.2108 1.02433 22.9757 1.78924 23.455 2.73005C24 3.79961 24 5.19974 24 8V16C24 18.8003 24 20.2004 23.455 21.27C22.9757 22.2108 22.2108 22.9757 21.27 23.455C20.2004 24 18.8003 24 16 24H8C5.19974 24 3.79961 24 2.73005 23.455C1.78924 22.9757 1.02433 22.2108 0.544967 21.27C0 20.2004 0 18.8003 0 16V8Z" fill="black"/>
<path d="M20.872 15.5772C21.2015 15.9067 21.2015 16.4409 20.872 16.7704L18.0595 19.5823C17.5318 20.11 16.6191 19.7402 16.6191 18.9857V17.5801H14.5525C14.4946 17.5801 14.4374 17.5682 14.3843 17.5451C14.3313 17.522 14.2835 17.4883 14.244 17.446L11.7636 14.7884L13.6385 12.7794L15.4941 14.7676H16.6191V13.362C16.6191 12.6083 17.5312 12.2371 18.0595 12.7653L20.872 15.5772ZM3.54102 9.14257H6.49414L8.34972 11.1307L10.2247 9.12176L7.74422 6.46409C7.70475 6.4218 7.657 6.38807 7.60394 6.36502C7.55088 6.34196 7.49365 6.33007 7.43579 6.33007H3.54102C3.30803 6.33007 3.11914 6.51897 3.11914 6.75195V8.72069C3.11914 8.95367 3.30803 9.14257 3.54102 9.14257ZM16.6191 9.14257V10.5483C16.6191 11.3027 17.5318 11.6725 18.0595 11.1449L20.872 8.33296C21.2015 8.00344 21.2015 7.4692 20.872 7.13972L18.0595 4.32789C17.5312 3.79956 16.6191 4.17085 16.6191 4.92449V6.33007H14.5525C14.4946 6.33008 14.4374 6.34198 14.3843 6.36503C14.3313 6.38809 14.2835 6.4218 14.244 6.46409L6.49414 14.7676H3.54102C3.30803 14.7676 3.11914 14.9565 3.11914 15.1894V17.1582C3.11914 17.3912 3.30803 17.5801 3.54102 17.5801H7.43579C7.55272 17.5801 7.66442 17.5315 7.74422 17.446L15.4941 9.14257H16.6191Z" fill="#EA3600"/>
</g>
<defs>
<clipPath id="clip0_11300_55154">
<rect width="24" height="24" fill="white"/>
</clipPath>
</defs>
</svg>
