<svg width="24" height="24" viewBox="0 0 24 24" fill="none" xmlns="http://www.w3.org/2000/svg">
<g clip-path="url(#clip0_11300_54655)">
<path d="M0 8C0 5.19974 0 3.79961 0.544967 2.73005C1.02433 1.78924 1.78924 1.02433 2.73005 0.544967C3.79961 0 5.19974 0 8 0H16C18.8003 0 20.2004 0 21.27 0.544967C22.2108 1.02433 22.9757 1.78924 23.455 2.73005C24 3.79961 24 5.19974 24 8V16C24 18.8003 24 20.2004 23.455 21.27C22.9757 22.2108 22.2108 22.9757 21.27 23.455C20.2004 24 18.8003 24 16 24H8C5.19974 24 3.79961 24 2.73005 23.455C1.78924 22.9757 1.02433 22.2108 0.544967 21.27C0 20.2004 0 18.8003 0 16V8Z" fill="#D9D9D9"/>
<path d="M0 8C0 5.19974 0 3.79961 0.544967 2.73005C1.02433 1.78924 1.78924 1.02433 2.73005 0.544967C3.79961 0 5.19974 0 8 0H16C18.8003 0 20.2004 0 21.27 0.544967C22.2108 1.02433 22.9757 1.78924 23.455 2.73005C24 3.79961 24 5.19974 24 8V16C24 18.8003 24 20.2004 23.455 21.27C22.9757 22.2108 22.2108 22.9757 21.27 23.455C20.2004 24 18.8003 24 16 24H8C5.19974 24 3.79961 24 2.73005 23.455C1.78924 22.9757 1.02433 22.2108 0.544967 21.27C0 20.2004 0 18.8003 0 16V8Z" fill="white"/>
<g clip-path="url(#clip1_11300_54655)">
<path d="M9.27408 5.19286C9.07444 5.16434 9.06493 5.15483 9.16 5.14532C9.34063 5.1168 9.75893 5.15483 10.0536 5.22138C10.7381 5.38299 11.3561 5.80129 12.0121 6.53332L12.1832 6.73296L12.4304 6.69494C13.4856 6.52381 14.5694 6.65691 15.4725 7.07521C15.7197 7.18929 16.1095 7.41746 16.157 7.4745C16.176 7.49351 16.2046 7.6171 16.2236 7.74069C16.2901 8.18751 16.2616 8.52025 16.119 8.77693C16.0429 8.91954 16.0429 8.95756 16.0905 9.08115C16.1285 9.17622 16.2426 9.24277 16.3472 9.24277C16.5753 9.24277 16.813 8.88151 16.9271 8.37765L16.9746 8.178L17.0602 8.27307C17.545 8.81496 17.9253 9.566 17.9823 10.0984L18.0014 10.241L17.9158 10.1174C17.7732 9.89874 17.6401 9.75614 17.4595 9.63255C17.1362 9.41389 16.794 9.34734 15.8908 9.29981C15.0733 9.25227 14.6074 9.18573 14.1511 9.03362C13.3715 8.77693 12.9722 8.44419 12.0501 7.21781C11.6413 6.67592 11.3846 6.38121 11.1279 6.13403C10.567 5.59214 10.0061 5.30694 9.27408 5.19286Z" fill="#FF007A"/>
<path d="M16.3562 6.4001C16.3753 6.03884 16.4228 5.80117 16.5274 5.58251C16.5654 5.49695 16.6034 5.4209 16.6129 5.4209C16.6224 5.4209 16.6034 5.48745 16.5749 5.5635C16.4988 5.77265 16.4893 6.06736 16.5369 6.4001C16.6034 6.82791 16.6319 6.88495 17.0883 7.35079C17.2974 7.56944 17.5446 7.84514 17.6397 7.95922L17.8013 8.16837L17.6397 8.01626C17.44 7.82613 16.9837 7.46487 16.8791 7.41733C16.8126 7.37931 16.8031 7.37931 16.7555 7.42684C16.7175 7.46487 16.708 7.52191 16.708 7.79761C16.6985 8.22541 16.6414 8.49161 16.4988 8.7673C16.4228 8.90991 16.4133 8.88139 16.4798 8.71977C16.5274 8.59618 16.5369 8.53914 16.5369 8.13035C16.5369 7.30325 16.4418 7.10361 15.8619 6.77087C15.7193 6.68531 15.4721 6.56172 15.3295 6.49517C15.1774 6.42862 15.0633 6.37158 15.0728 6.37158C15.0918 6.35257 15.6527 6.51418 15.8714 6.60925C16.2041 6.74235 16.2612 6.75186 16.2992 6.74235C16.3277 6.71383 16.3467 6.63777 16.3562 6.4001Z" fill="#FF007A"/>
<path d="M9.66348 7.81685C9.2642 7.26546 9.00751 6.40984 9.06455 5.77289L9.08357 5.57324L9.17863 5.59226C9.34976 5.62078 9.64447 5.73486 9.78707 5.82042C10.1673 6.04858 10.3385 6.36231 10.5001 7.14187C10.5476 7.37003 10.6142 7.63622 10.6427 7.72179C10.6902 7.86439 10.8709 8.19713 11.023 8.40628C11.1275 8.55839 11.061 8.63444 10.8233 8.61543C10.4621 8.5774 9.97721 8.24466 9.66348 7.81685Z" fill="#FF007A"/>
<path d="M15.872 11.9524C13.9897 11.1919 13.3242 10.5359 13.3242 9.42362C13.3242 9.262 13.3337 9.12891 13.3337 9.12891C13.3432 9.12891 13.4098 9.18595 13.4953 9.2525C13.8756 9.55671 14.3034 9.68981 15.4918 9.86093C16.1858 9.96551 16.5851 10.0416 16.9463 10.1652C18.0966 10.5454 18.8097 11.325 18.9808 12.3802C19.0283 12.6845 18.9998 13.2644 18.9237 13.5686C18.8572 13.8063 18.6671 14.2436 18.6195 14.2531C18.61 14.2531 18.591 14.2056 18.591 14.1295C18.572 13.7302 18.3723 13.3499 18.0396 13.0552C17.6403 12.713 17.127 12.4563 15.872 11.9524Z" fill="#FF007A"/>
<path d="M14.5413 12.2655C14.5223 12.1229 14.4747 11.9423 14.4462 11.8662L14.3987 11.7236L14.4842 11.8282C14.6078 11.9708 14.7029 12.1419 14.7885 12.3796C14.855 12.5602 14.855 12.6173 14.855 12.912C14.855 13.1972 14.8455 13.2637 14.7885 13.4254C14.6934 13.682 14.5793 13.8627 14.3892 14.0623C14.0469 14.4141 13.6001 14.6042 12.9631 14.6898C12.8491 14.6993 12.5258 14.7278 12.2406 14.7468C11.5276 14.7848 11.0523 14.8609 10.6245 15.013C10.5674 15.032 10.5104 15.051 10.5009 15.0415C10.4819 15.0225 10.7766 14.8514 11.0142 14.7373C11.347 14.5757 11.6892 14.4901 12.4403 14.357C12.811 14.3 13.1913 14.2239 13.2864 14.1859C14.2276 13.8912 14.6934 13.1592 14.5413 12.2655Z" fill="#FF007A"/>
<path d="M15.4051 13.7963C15.1579 13.2544 15.1008 12.741 15.2339 12.2562C15.253 12.2087 15.272 12.1611 15.291 12.1611C15.31 12.1611 15.367 12.1897 15.4241 12.2277C15.5382 12.3037 15.7758 12.4368 16.3843 12.7696C17.1543 13.1879 17.5916 13.5111 17.8959 13.8819C18.162 14.2051 18.3237 14.5759 18.3997 15.0322C18.4472 15.2889 18.4187 15.9068 18.3522 16.1635C18.143 16.9716 17.6677 17.6181 16.9737 17.9888C16.8691 18.0459 16.7836 18.0839 16.774 18.0839C16.7645 18.0839 16.8026 17.9888 16.8596 17.8747C17.0878 17.3899 17.1163 16.9241 16.9452 16.4012C16.8406 16.0779 16.6219 15.6882 16.1846 15.0322C15.6617 14.2717 15.5382 14.072 15.4051 13.7963Z" fill="#FF007A"/>
<path d="M8.32269 16.7057C9.0262 16.1162 9.89132 15.6979 10.6899 15.5648C11.0321 15.5078 11.6025 15.5268 11.9163 15.6124C12.4201 15.7455 12.8765 16.0307 13.1141 16.3824C13.3423 16.7247 13.4469 17.0194 13.5514 17.6753C13.5895 17.932 13.637 18.1982 13.6465 18.2553C13.7226 18.5975 13.8747 18.8637 14.0648 19.0063C14.3595 19.225 14.8729 19.2345 15.3768 19.0443C15.4623 19.0158 15.5384 18.9873 15.5384 18.9968C15.5574 19.0158 15.3007 19.1869 15.1296 19.2725C14.8919 19.3961 14.7018 19.4341 14.4451 19.4341C13.9888 19.4341 13.599 19.1964 13.2853 18.7211C13.2187 18.626 13.0856 18.3503 12.9715 18.0937C12.6388 17.3236 12.4677 17.0954 12.0779 16.8387C11.7356 16.6201 11.2983 16.5726 10.9656 16.7342C10.5283 16.9433 10.4142 17.5042 10.7184 17.8465C10.842 17.9891 11.0702 18.1032 11.2603 18.1317C11.6121 18.1792 11.9163 17.9035 11.9163 17.5518C11.9163 17.3236 11.8307 17.1905 11.6025 17.0859C11.2983 16.9528 10.9656 17.1049 10.9751 17.3997C10.9751 17.5232 11.0321 17.5993 11.1557 17.6563C11.2318 17.6944 11.2318 17.6944 11.1747 17.6849C10.899 17.6278 10.8325 17.2856 11.0512 17.0669C11.3173 16.8007 11.8782 16.9148 12.0684 17.2856C12.1444 17.4377 12.1539 17.7419 12.0874 17.932C11.9258 18.3503 11.4695 18.569 11.0036 18.4454C10.6899 18.3598 10.5568 18.2743 10.1765 17.8845C9.51104 17.2 9.25436 17.0669 8.30368 16.9243L8.12305 16.8958L8.32269 16.7057Z" fill="#FF007A"/>
<path fill-rule="evenodd" clip-rule="evenodd" d="M3.32366 1.40879C5.53875 4.09923 8.9517 8.28223 9.12282 8.5104C9.26543 8.70054 9.20838 8.88117 8.97071 9.01426C8.83762 9.09032 8.56192 9.16637 8.42882 9.16637C8.27671 9.16637 8.09609 9.09032 7.9725 8.96673C7.88693 8.88117 7.51617 8.33928 6.67957 7.03684C6.04261 6.03862 5.50072 5.21153 5.49121 5.20202C5.45319 5.18301 5.45319 5.18301 6.61302 7.2555C7.34505 8.55793 7.58272 9.02377 7.58272 9.08081C7.58272 9.2044 7.54469 9.27095 7.39258 9.44207C7.1359 9.72727 7.02181 10.0505 6.93625 10.7255C6.84118 11.4765 6.5845 12.0089 5.85247 12.9121C5.42467 13.4444 5.35812 13.5395 5.25354 13.7582C5.12045 14.0244 5.08242 14.1765 5.06341 14.5187C5.04439 14.88 5.08242 15.1081 5.18699 15.4504C5.28206 15.7546 5.38664 15.9542 5.64332 16.344C5.86198 16.6863 5.99508 16.943 5.99508 17.038C5.99508 17.1141 6.01409 17.1141 6.35633 17.038C7.17392 16.8479 7.84891 16.5247 8.21967 16.1254C8.44784 15.8782 8.50488 15.7451 8.50488 15.4029C8.50488 15.1842 8.49537 15.1367 8.43833 15.0036C8.34326 14.7944 8.16263 14.6233 7.77285 14.3571C7.25948 14.0053 7.04083 13.7201 6.98379 13.3399C6.93625 13.0166 6.99329 12.798 7.2785 12.199C7.57321 11.5811 7.64926 11.3244 7.6968 10.697C7.72532 10.2977 7.77285 10.1361 7.88694 10.0125C8.01052 9.87938 8.1151 9.83185 8.40981 9.79382C8.89466 9.72727 9.20838 9.60368 9.45556 9.36601C9.67422 9.16637 9.76929 8.96673 9.77879 8.67201L9.7883 8.45336L9.66471 8.32026C9.21789 7.80689 3.02894 1 3.00042 1C2.99092 1 3.14303 1.18063 3.32366 1.40879ZM6.24225 14.9275C6.34683 14.7469 6.28979 14.5187 6.11866 14.4046C5.95705 14.3001 5.70987 14.3476 5.70987 14.4902C5.70987 14.5282 5.72888 14.5663 5.78592 14.5853C5.87149 14.6328 5.88099 14.6803 5.81445 14.7849C5.7479 14.8895 5.7479 14.9846 5.83346 15.0511C5.96655 15.1557 6.14718 15.0986 6.24225 14.9275Z" fill="#FF007A"/>
<path fill-rule="evenodd" clip-rule="evenodd" d="M10.0913 9.92656C9.86318 9.99311 9.64452 10.2403 9.57798 10.4875C9.53995 10.6396 9.55896 10.9153 9.62551 11.0008C9.73008 11.1339 9.82515 11.172 10.0913 11.172C10.6142 11.172 11.061 10.9438 11.1086 10.6681C11.1561 10.4399 10.9565 10.1262 10.6808 9.9836C10.5382 9.90755 10.2435 9.87903 10.0913 9.92656ZM10.6998 10.4019C10.7758 10.2878 10.7473 10.1642 10.6047 10.0787C10.348 9.91705 9.95825 10.0501 9.95825 10.2973C9.95825 10.4209 10.1579 10.554 10.348 10.554C10.4716 10.554 10.6427 10.478 10.6998 10.4019Z" fill="#FF007A"/>
</g>
</g>
<defs>
<clipPath id="clip0_11300_54655">
<rect width="24" height="24" fill="white"/>
</clipPath>
<clipPath id="clip1_11300_54655">
<rect width="16" height="18.4242" fill="white" transform="translate(3 1)"/>
</clipPath>
</defs>
</svg>
