<svg width="24" height="24" viewBox="0 0 24 24" fill="none" xmlns="http://www.w3.org/2000/svg">
<g clip-path="url(#clip0_11300_55212)">
<path d="M0 8C0 5.19974 0 3.79961 0.544967 2.73005C1.02433 1.78924 1.78924 1.02433 2.73005 0.544967C3.79961 0 5.19974 0 8 0H16C18.8003 0 20.2004 0 21.27 0.544967C22.2108 1.02433 22.9757 1.78924 23.455 2.73005C24 3.79961 24 5.19974 24 8V16C24 18.8003 24 20.2004 23.455 21.27C22.9757 22.2108 22.2108 22.9757 21.27 23.455C20.2004 24 18.8003 24 16 24H8C5.19974 24 3.79961 24 2.73005 23.455C1.78924 22.9757 1.02433 22.2108 0.544967 21.27C0 20.2004 0 18.8003 0 16V8Z" fill="url(#paint0_linear_11300_55212)"/>
<path d="M0 8C0 5.19974 0 3.79961 0.544967 2.73005C1.02433 1.78924 1.78924 1.02433 2.73005 0.544967C3.79961 0 5.19974 0 8 0H16C18.8003 0 20.2004 0 21.27 0.544967C22.2108 1.02433 22.9757 1.78924 23.455 2.73005C24 3.79961 24 5.19974 24 8V16C24 18.8003 24 20.2004 23.455 21.27C22.9757 22.2108 22.2108 22.9757 21.27 23.455C20.2004 24 18.8003 24 16 24H8C5.19974 24 3.79961 24 2.73005 23.455C1.78924 22.9757 1.02433 22.2108 0.544967 21.27C0 20.2004 0 18.8003 0 16V8Z" fill="url(#paint1_linear_11300_55212)"/>
<path d="M11.9199 22.0215C17.4428 22.0215 21.9199 17.5752 21.9199 12.0904C21.9199 6.60552 17.4428 2.15918 11.9199 2.15918C6.39708 2.15918 1.91992 6.60552 1.91992 12.0904C1.91992 17.5752 6.39708 22.0215 11.9199 22.0215Z" fill="#703AC5" fill-opacity="0.04"/>
<path opacity="0.3" d="M19.3777 16.3682L20.5806 17.0581C18.8514 20.026 15.6199 22.0227 11.9189 22.0227C8.21829 22.0227 4.98712 20.0264 3.25781 17.059L4.46084 16.3692C5.94999 18.9244 8.73233 20.6434 11.9189 20.6434C15.106 20.6434 17.8887 18.924 19.3777 16.3682Z" fill="url(#paint2_linear_11300_55212)"/>
<path opacity="0.5" d="M11.9199 2.15918C17.4425 2.15918 21.9196 6.60552 21.9196 12.0904C21.9196 13.8995 21.4325 15.5958 20.5814 17.0567L19.3785 16.3667C20.1114 15.1087 20.5307 13.6482 20.5307 12.0904C20.5307 7.36739 16.6756 3.53866 11.9199 3.53851V2.15918Z" fill="url(#paint3_linear_11300_55212)"/>
<path opacity="0.15" d="M11.9197 2.15918V3.53823L11.7776 3.53966C7.08741 3.61518 3.30881 7.41456 3.30881 12.0904C3.30881 13.6484 3.72836 15.1091 4.46137 16.3672L3.2585 17.0573C2.40718 15.5962 1.91992 13.8998 1.91992 12.0904C1.91992 6.60562 6.39694 2.15933 11.9197 2.15918Z" fill="url(#paint4_linear_11300_55212)"/>
<path d="M15.8268 9.81804C15.4665 9.64777 15.0872 9.56043 14.6888 9.55889C14.2355 9.5569 14.0319 9.5573 13.6039 9.55968C13.5302 9.56003 13.4296 9.60452 13.3801 9.65835C12.6429 10.4617 11.9076 11.2671 11.1715 12.072C11.1335 12.1137 11.0951 12.1554 11.0539 12.2002C11.0289 12.2273 11.0289 12.2695 11.0539 12.2966C11.223 12.4798 11.3869 12.658 11.5508 12.8357C12.1673 13.5042 12.7834 14.1727 13.4019 14.8396C13.4388 14.8794 13.5136 14.9119 13.5678 14.9123C14.0117 14.9155 14.2038 14.9167 14.6599 14.9139C16.0054 14.9057 17.1057 13.9753 17.3307 12.6576C17.5278 11.503 16.9046 10.3265 15.8268 9.81804ZM14.5162 13.8219C13.6335 13.8219 12.9185 13.1113 12.9185 12.2352C12.9185 11.3591 13.634 10.6485 14.5162 10.6485C15.3984 10.6485 16.1139 11.3591 16.1139 12.2352C16.1139 13.1113 15.3984 13.8219 14.5162 13.8219Z" fill="white"/>
<path d="M10.5355 12.2798C10.5193 12.262 10.5193 12.2353 10.5355 12.2177C11.3104 11.3698 12.0818 10.526 12.8618 9.67259C12.9002 9.63058 12.8709 9.56255 12.8135 9.56171C12.7042 9.56017 11.778 9.55778 11.2233 9.56096C11.1865 9.56096 11.1401 9.58455 11.1148 9.61211C10.6361 10.1308 10.1597 10.6514 9.68305 11.1716C9.67391 11.1819 9.66443 11.1917 9.65092 11.2054C9.62952 11.2275 9.59193 11.2239 9.57733 11.1972C9.57177 11.1874 9.56581 11.1784 9.55871 11.1705C9.08827 10.6537 8.61669 10.1394 8.14749 9.62268C8.10632 9.5775 8.0659 9.55664 8.00299 9.55664C7.46407 9.55937 6.92476 9.55818 6.38546 9.55818H6.38467C6.34428 9.55818 6.3233 9.6058 6.35062 9.63564C6.53632 9.83859 6.71055 10.0297 6.88517 10.2204C7.48582 10.8771 8.08572 11.5342 8.68759 12.1893C8.72876 12.2341 8.73075 12.2613 8.68759 12.3077C7.92855 13.1271 7.17105 13.9487 6.41318 14.7697C6.39061 14.7941 6.36844 14.8189 6.34389 14.846C6.32171 14.8708 6.33913 14.9105 6.3728 14.9105C6.37636 14.9105 6.37992 14.9105 6.38349 14.9105C6.93544 14.9105 7.47872 14.9129 8.0307 14.916C8.09282 14.916 8.12926 14.8908 8.16725 14.8492C8.63769 14.3336 9.10927 13.8189 9.58046 13.3037C9.59232 13.2908 9.60027 13.2743 9.61452 13.2522C9.73489 13.3828 9.84413 13.5004 9.95228 13.6183C10.3344 14.0348 10.7156 14.4516 11.0994 14.8664C11.1208 14.8897 11.1584 14.9117 11.1884 14.9121C11.7634 14.9149 12.2758 14.9141 12.8507 14.9136C12.8562 14.9136 12.8828 14.9137 12.9113 14.9129C12.9343 14.9125 12.9457 14.8853 12.9302 14.8688C12.1308 14.0025 11.3318 13.1417 10.5363 12.2794L10.5355 12.2798Z" fill="white"/>
</g>
<defs>
<linearGradient id="paint0_linear_11300_55212" x1="12" y1="0" x2="12" y2="24" gradientUnits="userSpaceOnUse">
<stop stop-color="white"/>
<stop offset="1" stop-color="#DEC3FF"/>
</linearGradient>
<linearGradient id="paint1_linear_11300_55212" x1="12" y1="0" x2="12" y2="24" gradientUnits="userSpaceOnUse">
<stop stop-color="#714ED4"/>
<stop offset="1" stop-color="#3F249F"/>
</linearGradient>
<linearGradient id="paint2_linear_11300_55212" x1="19.9189" y1="16.8175" x2="3.98789" y2="16.9563" gradientUnits="userSpaceOnUse">
<stop stop-color="white"/>
<stop offset="1" stop-color="#703AC5" stop-opacity="0"/>
</linearGradient>
<linearGradient id="paint3_linear_11300_55212" x1="11.9886" y1="2.50164" x2="20.2097" y2="16.3693" gradientUnits="userSpaceOnUse">
<stop stop-color="white"/>
<stop offset="1" stop-color="#703AC5" stop-opacity="0"/>
</linearGradient>
<linearGradient id="paint4_linear_11300_55212" x1="3.71303" y1="17.0902" x2="11.6862" y2="2.6844" gradientUnits="userSpaceOnUse">
<stop stop-color="white"/>
<stop offset="1" stop-color="#703AC5" stop-opacity="0"/>
</linearGradient>
<clipPath id="clip0_11300_55212">
<rect width="24" height="24" fill="white"/>
</clipPath>
</defs>
</svg>
