<svg width="45" height="45" viewBox="0 0 45 45" fill="none" xmlns="http://www.w3.org/2000/svg">
<path d="M22.5 0C34.9264 0 45 10.0736 45 22.5C45 34.9264 34.9264 45 22.5 45C10.0736 45 0 34.9264 0 22.5C0 10.0736 10.0736 0 22.5 0ZM22.8252 5.84961C22.3735 5.84961 21.9219 5.96764 21.5195 6.19531L8.83789 13.3535C8.03326 13.8091 7.53237 14.6515 7.53223 15.5625V29.8799C7.53223 30.7911 8.03311 31.641 8.83789 32.0967L21.5195 39.2549C21.9219 39.4825 22.3735 39.5996 22.8252 39.5996C23.2768 39.5996 23.7285 39.4825 24.1309 39.2549L26.5889 37.8672L29.9141 35.9893L36.8125 32.0967C37.6244 31.641 38.1182 30.7979 38.1182 29.8799V15.5625C38.118 14.6515 37.6171 13.8023 36.8125 13.3467L24.1387 6.19531C23.7292 5.96759 23.2769 5.84961 22.8252 5.84961ZM22.8252 7.94141C22.9098 7.94141 22.9878 7.96252 23.0654 8.00391L35.7461 15.1621C35.8942 15.2449 35.9862 15.397 35.9863 15.5625V29.8799C35.9863 30.0455 35.8942 30.1974 35.7461 30.2803L33.8145 31.3721L28.7334 17.751C28.6416 17.5025 28.289 17.5025 28.1973 17.751L26.5234 22.2314C26.4742 22.3557 26.474 22.4941 26.5234 22.6182L30.4893 33.25L29.1709 33.9961L25.9258 25.29C25.8339 25.0416 25.4804 25.0416 25.3887 25.29L23.7158 29.7695C23.6665 29.8937 23.6665 30.0321 23.7158 30.1562L25.8457 35.874L23.0654 37.4463C22.9949 37.4876 22.9099 37.5078 22.8252 37.5078C22.7405 37.5078 22.6626 37.4876 22.585 37.4463L19.832 35.8906L27.6543 14.9219C27.7248 14.7356 27.5833 14.5422 27.3857 14.542H24.1729C23.9329 14.5421 23.7143 14.6874 23.6367 14.9082L16.5068 34.0127L15.1875 33.2676L22.0342 14.915C22.0976 14.7356 21.9635 14.542 21.7588 14.542H18.5469C18.3068 14.542 18.0874 14.6873 18.0098 14.9082L11.8613 31.3896L9.91113 30.2871C9.76319 30.2042 9.67189 30.0521 9.67188 29.8867V15.5625C9.67202 15.397 9.76309 15.2449 9.91113 15.1621L22.5918 8.00391C22.6623 7.96251 22.7476 7.94141 22.8252 7.94141Z" fill="white"/>
</svg>
