<svg width="45" height="45" viewBox="0 0 45 45" fill="none" xmlns="http://www.w3.org/2000/svg">
<path d="M20.5401 22.7622C22.2136 23.1798 27.5803 24.0067 26.7833 27.2036C26.0203 30.2692 20.8582 28.6123 19.1846 28.1967L20.5401 22.7622Z" fill="white"/>
<path d="M22.3897 15.3461C23.7834 15.6935 28.2719 16.3416 27.5469 19.2504C26.8506 22.0383 22.5554 20.6224 21.1612 20.2748L22.3897 15.3461Z" fill="white"/>
<path fill-rule="evenodd" clip-rule="evenodd" d="M0.677792 17.06C3.68185 5.00492 15.8916 -2.33187 27.9444 0.673285C40 3.67844 47.3356 15.8894 44.3301 27.9438C41.3245 39.9972 29.1148 47.3324 17.0587 44.3266C5.00758 41.3214 -2.32881 29.1128 0.677792 17.06ZM20.5674 11.894C20.0302 11.7716 19.5022 11.6511 18.9903 11.5239L18.9932 11.5112L15.5889 10.6606L14.9317 13.2973C14.9317 13.2973 16.7633 13.7176 16.7247 13.7436C17.7246 13.9932 17.9053 14.6546 17.8751 15.1791L16.7237 19.7993C16.7926 19.8168 16.8821 19.8419 16.9805 19.8813C16.8984 19.8609 16.8104 19.8386 16.7198 19.8168L15.1046 26.2895C14.9821 26.5932 14.6722 27.0482 13.9737 26.8754C13.997 26.9108 12.1917 26.4316 12.1788 26.4282L10.9532 29.2534L14.1661 30.0541C14.7637 30.2039 15.3493 30.3606 15.9258 30.5082L14.9044 34.6108L17.3702 35.226L18.3829 31.1674C19.0563 31.3502 19.71 31.5193 20.3497 31.6782L19.3419 35.7172L21.8106 36.3325L22.8321 32.2387C27.042 33.0353 30.2085 32.7138 31.5411 28.9067C32.6148 25.8413 31.4873 24.0725 29.2725 22.9194C30.8855 22.5474 32.1007 21.4859 32.4249 19.2944C32.8727 16.3006 30.5927 14.6913 27.4756 13.6176L28.4864 9.56196L26.0176 8.94672L25.0333 12.895C24.3842 12.7333 23.7171 12.5813 23.0547 12.4301L24.0469 8.45551L21.5792 7.84028L20.5674 11.894Z" fill="white"/>
</svg>
