<svg width="45" height="45" viewBox="0 0 45 45" fill="none" xmlns="http://www.w3.org/2000/svg">
<path d="M22.5 0C26.95 1.03101e-06 31.2999 1.31975 35 3.79199C38.7001 6.26432 41.5841 9.77833 43.2871 13.8896C44.9901 18.001 45.4356 22.5251 44.5674 26.8896C43.6992 31.2542 41.5568 35.2635 38.4102 38.4102C35.2635 41.5568 31.2542 43.6992 26.8896 44.5674C22.5251 45.4356 18.001 44.9901 13.8896 43.2871C9.77833 41.5841 6.26432 38.7001 3.79199 35C1.31975 31.2999 1.03103e-06 26.95 0 22.5C0 16.5326 2.37028 10.8094 6.58984 6.58984C10.8094 2.37028 16.5326 0 22.5 0ZM20.4863 12.5625H14.5391V16.8545H23.7676L14.5391 29.0586V32.29H20.4863V35.8301H24.1416V32.29H30.0879V27.998H20.8604L30.0879 15.7939V12.5625H24.1416V9H20.4863V12.5625Z" fill="white"/>
</svg>
