<svg width="24" height="24" viewBox="0 0 24 24" fill="none" xmlns="http://www.w3.org/2000/svg">
<g clip-path="url(#clip0_16761_301642)">
<path d="M0 8C0 5.19974 0 3.79961 0.544967 2.73005C1.02433 1.78924 1.78924 1.02433 2.73005 0.544967C3.79961 0 5.19974 0 8 0H16C18.8003 0 20.2004 0 21.27 0.544967C22.2108 1.02433 22.9757 1.78924 23.455 2.73005C24 3.79961 24 5.19974 24 8V16C24 18.8003 24 20.2004 23.455 21.27C22.9757 22.2108 22.2108 22.9757 21.27 23.455C20.2004 24 18.8003 24 16 24H8C5.19974 24 3.79961 24 2.73005 23.455C1.78924 22.9757 1.02433 22.2108 0.544967 21.27C0 20.2004 0 18.8003 0 16V8Z" fill="url(#paint0_linear_16761_301642)"/>
<path d="M0 8C0 5.19974 0 3.79961 0.544967 2.73005C1.02433 1.78924 1.78924 1.02433 2.73005 0.544967C3.79961 0 5.19974 0 8 0H16C18.8003 0 20.2004 0 21.27 0.544967C22.2108 1.02433 22.9757 1.78924 23.455 2.73005C24 3.79961 24 5.19974 24 8V16C24 18.8003 24 20.2004 23.455 21.27C22.9757 22.2108 22.2108 22.9757 21.27 23.455C20.2004 24 18.8003 24 16 24H8C5.19974 24 3.79961 24 2.73005 23.455C1.78924 22.9757 1.02433 22.2108 0.544967 21.27C0 20.2004 0 18.8003 0 16V8Z" fill="url(#paint1_linear_16761_301642)"/>
<g opacity="0.9" clip-path="url(#clip1_16761_301642)">
<g clip-path="url(#clip2_16761_301642)">
<path d="M8.40059 13.6709C8.66541 13.671 8.89186 13.8622 8.9377 14.123L10.0002 20.1758C10.0592 20.5099 9.80225 20.8164 9.46309 20.8164H7.97481C7.7279 20.8162 7.51117 20.65 7.44746 20.4111L5.83321 14.3584C5.74076 14.0116 6.0017 13.6709 6.36055 13.6709H8.40059ZM13.9123 13.6709C14.2514 13.671 14.508 13.9775 14.4494 14.3115L13.3869 20.3643C13.3411 20.6254 13.1146 20.8162 12.8498 20.8164H11.2189C10.954 20.8164 10.7267 20.6252 10.6809 20.3643L9.61836 14.3115C9.55944 13.9774 9.81727 13.6709 10.1564 13.6709H13.9123ZM17.7072 13.6709C18.0657 13.6709 18.327 14.0119 18.2346 14.3584L16.6193 20.4111C16.5555 20.6497 16.3394 20.8164 16.092 20.8164H14.6047C14.2655 20.8164 14.0081 20.5099 14.0666 20.1758L15.1301 14.123C15.1759 13.8618 15.4023 13.6709 15.6672 13.6709H17.7072Z" fill="url(#paint2_linear_16761_301642)"/>
<path d="M18.9794 9.97754H5.08727C4.68526 9.97754 4.35938 10.3034 4.35938 10.7054V12.143C4.35938 12.545 4.68526 12.8709 5.08727 12.8709H18.9794C19.3814 12.8709 19.7073 12.545 19.7073 12.143V10.7054C19.7073 10.3034 19.3814 9.97754 18.9794 9.97754Z" fill="url(#paint3_linear_16761_301642)"/>
<path d="M6.89879 9.32208H17.1686C17.5708 9.32208 17.8965 8.99634 17.8965 8.59419V6.88364C17.8965 6.71514 17.8379 6.55573 17.7363 6.42871H6.89879C6.49663 6.42871 6.1709 6.75444 6.1709 7.1566V8.59419C6.1709 8.99634 6.49663 9.32208 6.89879 9.32208Z" fill="url(#paint4_linear_16761_301642)"/>
<path d="M17.4878 6.22887L10.4888 2.81543L9.53962 4.76181C9.36347 5.12321 9.51342 5.55885 9.87481 5.735L11.2967 6.42831H17.7368C17.6709 6.3457 17.5864 6.27691 17.4882 6.22887H17.4878Z" fill="url(#paint5_linear_16761_301642)"/>
</g>
</g>
</g>
<defs>
<linearGradient id="paint0_linear_16761_301642" x1="12" y1="0" x2="12" y2="24" gradientUnits="userSpaceOnUse">
<stop stop-color="white"/>
<stop offset="1" stop-color="#EFEFF8"/>
</linearGradient>
<linearGradient id="paint1_linear_16761_301642" x1="12" y1="0" x2="12" y2="24" gradientUnits="userSpaceOnUse">
<stop stop-color="white"/>
<stop offset="1" stop-color="#D8D8FF"/>
</linearGradient>
<linearGradient id="paint2_linear_16761_301642" x1="14.3861" y1="9.91241" x2="15.5873" y2="20.8317" gradientUnits="userSpaceOnUse">
<stop stop-color="#776A83"/>
<stop offset="0.549564" stop-color="#312938"/>
<stop offset="1" stop-color="#19151D"/>
</linearGradient>
<linearGradient id="paint3_linear_16761_301642" x1="12.3429" y1="9.90424" x2="12.3377" y2="12.8714" gradientUnits="userSpaceOnUse">
<stop stop-color="#61C5FF"/>
<stop offset="1" stop-color="#2A92FA"/>
</linearGradient>
<linearGradient id="paint4_linear_16761_301642" x1="4.8759" y1="7.42294" x2="5.02739" y2="8.85086" gradientUnits="userSpaceOnUse">
<stop stop-color="#FFC414"/>
<stop offset="1" stop-color="#FFB247"/>
</linearGradient>
<linearGradient id="paint5_linear_16761_301642" x1="8.6202" y1="2.33543" x2="7.5837" y2="5.83813" gradientUnits="userSpaceOnUse">
<stop stop-color="#FF7D38"/>
<stop offset="0.612828" stop-color="#FE6412"/>
<stop offset="1" stop-color="#F25400"/>
</linearGradient>
<clipPath id="clip0_16761_301642">
<rect width="24" height="24" fill="white"/>
</clipPath>
<clipPath id="clip1_16761_301642">
<rect width="18" height="18" fill="white" transform="translate(3.00977 2.78516)"/>
</clipPath>
<clipPath id="clip2_16761_301642">
<rect width="15.3479" height="18" fill="white" transform="translate(4.35938 2.81543)"/>
</clipPath>
</defs>
</svg>
