<svg width="24" height="24" viewBox="0 0 24 24" fill="none" xmlns="http://www.w3.org/2000/svg">
    <g clip-path="url(#clip0_15867_46132)">
        <g clip-path="url(#clip1_15867_46132)">
            <path d="M0 8C0 5.19974 0 3.79961 0.544967 2.73005C1.02433 1.78924 1.78924 1.02433 2.73005 0.544967C3.79961 0 5.19974 0 8 0H16C18.8003 0 20.2004 0 21.27 0.544967C22.2108 1.02433 22.9757 1.78924 23.455 2.73005C24 3.79961 24 5.19974 24 8V16C24 18.8003 24 20.2004 23.455 21.27C22.9757 22.2108 22.2108 22.9757 21.27 23.455C20.2004 24 18.8003 24 16 24H8C5.19974 24 3.79961 24 2.73005 23.455C1.78924 22.9757 1.02433 22.2108 0.544967 21.27C0 20.2004 0 18.8003 0 16V8Z" fill="url(#paint0_linear_15867_46132)"/>
            <path d="M0 8C0 5.19974 0 3.79961 0.544967 2.73005C1.02433 1.78924 1.78924 1.02433 2.73005 0.544967C3.79961 0 5.19974 0 8 0H16C18.8003 0 20.2004 0 21.27 0.544967C22.2108 1.02433 22.9757 1.78924 23.455 2.73005C24 3.79961 24 5.19974 24 8V16C24 18.8003 24 20.2004 23.455 21.27C22.9757 22.2108 22.2108 22.9757 21.27 23.455C20.2004 24 18.8003 24 16 24H8C5.19974 24 3.79961 24 2.73005 23.455C1.78924 22.9757 1.02433 22.2108 0.544967 21.27C0 20.2004 0 18.8003 0 16V8Z" fill="url(#paint1_linear_15867_46132)"/>
            <path d="M0 8C0 5.19974 0 3.79961 0.544967 2.73005C1.02433 1.78924 1.78924 1.02433 2.73005 0.544967C3.79961 0 5.19974 0 8 0H16C18.8003 0 20.2004 0 21.27 0.544967C22.2108 1.02433 22.9757 1.78924 23.455 2.73005C24 3.79961 24 5.19974 24 8V16C24 18.8003 24 20.2004 23.455 21.27C22.9757 22.2108 22.2108 22.9757 21.27 23.455C20.2004 24 18.8003 24 16 24H8C5.19974 24 3.79961 24 2.73005 23.455C1.78924 22.9757 1.02433 22.2108 0.544967 21.27C0 20.2004 0 18.8003 0 16V8Z" fill="url(#paint2_linear_15867_46132)"/>
            <g clip-path="url(#clip2_15867_46132)">
                <path d="M14.1429 16.6114L19.6903 11.8311C19.932 11.6763 20.1624 11.8311 20.0149 12.0967L18.2444 15.5786H21.4018C21.4018 15.5786 21.9034 15.5786 21.4018 15.9917L15.9428 20.8015C15.5592 21.1261 15.2937 20.949 15.5592 20.4474L17.2707 17.054H14.1429C14.1429 17.054 13.6412 17.054 14.1429 16.6114Z" fill="white"/>
                <path d="M14.1429 16.6114L19.6903 11.8311C19.932 11.6763 20.1624 11.8311 20.0149 12.0967L18.2444 15.5786H21.4018C21.4018 15.5786 21.9034 15.5786 21.4018 15.9917L15.9428 20.8015C15.5592 21.1261 15.2937 20.949 15.5592 20.4474L17.2707 17.054H14.1429C14.1429 17.054 13.6412 17.054 14.1429 16.6114Z" fill="url(#paint3_linear_15867_46132)"/>
                <path d="M14.1429 16.6114L19.6903 11.8311C19.932 11.6763 20.1624 11.8311 20.0149 12.0967L18.2444 15.5786H21.4018C21.4018 15.5786 21.9034 15.5786 21.4018 15.9917L15.9428 20.8015C15.5592 21.1261 15.2937 20.949 15.5592 20.4474L17.2707 17.054H14.1429C14.1429 17.054 13.6412 17.054 14.1429 16.6114Z" fill="url(#paint4_linear_15867_46132)"/>
                <path d="M14.1429 16.6114L19.6903 11.8311C19.932 11.6763 20.1624 11.8311 20.0149 12.0967L18.2444 15.5786H21.4018C21.4018 15.5786 21.9034 15.5786 21.4018 15.9917L15.9428 20.8015C15.5592 21.1261 15.2937 20.949 15.5592 20.4474L17.2707 17.054H14.1429C14.1429 17.054 13.6412 17.054 14.1429 16.6114Z" fill="#EFEFF8"/>
                <path d="M14.1429 16.6114L19.6903 11.8311C19.932 11.6763 20.1624 11.8311 20.0149 12.0967L18.2444 15.5786H21.4018C21.4018 15.5786 21.9034 15.5786 21.4018 15.9917L15.9428 20.8015C15.5592 21.1261 15.2937 20.949 15.5592 20.4474L17.2707 17.054H14.1429C14.1429 17.054 13.6412 17.054 14.1429 16.6114Z" fill="#8686CB"/>
                <path d="M14.1429 16.6114L19.6903 11.8311C19.932 11.6763 20.1624 11.8311 20.0149 12.0967L18.2444 15.5786H21.4018C21.4018 15.5786 21.9034 15.5786 21.4018 15.9917L15.9428 20.8015C15.5592 21.1261 15.2937 20.949 15.5592 20.4474L17.2707 17.054H14.1429C14.1429 17.054 13.6412 17.054 14.1429 16.6114Z" fill="url(#paint5_linear_15867_46132)"/>
                <path d="M14.1429 16.6114L19.6903 11.8311C19.932 11.6763 20.1624 11.8311 20.0149 12.0967L18.2444 15.5786H21.4018C21.4018 15.5786 21.9034 15.5786 21.4018 15.9917L15.9428 20.8015C15.5592 21.1261 15.2937 20.949 15.5592 20.4474L17.2707 17.054H14.1429C14.1429 17.054 13.6412 17.054 14.1429 16.6114Z" fill="url(#paint6_linear_15867_46132)"/>
                <path d="M14.1429 16.6114L19.6903 11.8311C19.932 11.6763 20.1624 11.8311 20.0149 12.0967L18.2444 15.5786H21.4018C21.4018 15.5786 21.9034 15.5786 21.4018 15.9917L15.9428 20.8015C15.5592 21.1261 15.2937 20.949 15.5592 20.4474L17.2707 17.054H14.1429C14.1429 17.054 13.6412 17.054 14.1429 16.6114Z" fill="url(#paint7_linear_15867_46132)"/>
                <path d="M14.1429 16.6114L19.6903 11.8311C19.932 11.6763 20.1624 11.8311 20.0149 12.0967L18.2444 15.5786H21.4018C21.4018 15.5786 21.9034 15.5786 21.4018 15.9917L15.9428 20.8015C15.5592 21.1261 15.2937 20.949 15.5592 20.4474L17.2707 17.054H14.1429C14.1429 17.054 13.6412 17.054 14.1429 16.6114Z" fill="url(#paint8_linear_15867_46132)"/>
                <path d="M7.21531 3.72001C8.66791 3.19744 10.2503 3.15671 11.7279 3.60376C13.2055 4.05083 14.4998 4.96202 15.4191 6.20221C16.3382 7.44218 16.8334 8.94518 16.8317 10.4886V11.5662C16.8317 12.2331 16.5667 12.8727 16.0952 13.3443C15.6236 13.8158 14.9841 14.0808 14.3172 14.0808C13.6503 14.0808 13.0107 13.8159 12.5391 13.3443C12.4261 13.2313 12.325 13.1084 12.2366 12.978C12.2203 12.995 12.2039 13.0119 12.1872 13.0286C11.5135 13.7022 10.5998 14.0807 9.64711 14.0807C8.69443 14.0806 7.78081 13.7022 7.10716 13.0286C6.43351 12.3549 6.05491 11.4412 6.05491 10.4885C6.05493 9.53578 6.43351 8.62215 7.10716 7.94851C7.78081 7.27487 8.69443 6.89628 9.64711 6.89626C10.5998 6.89626 11.5135 7.27486 12.1872 7.94851C12.8581 8.61939 13.236 9.52832 13.2392 10.4768C13.2392 10.4807 13.2395 10.4846 13.2395 10.4886V11.5662C13.2395 11.852 13.3531 12.1261 13.5552 12.3282C13.7573 12.5303 14.0314 12.6439 14.3172 12.644C14.603 12.6439 14.8771 12.5303 15.0792 12.3282C15.2813 12.1261 15.3948 11.852 15.3948 11.5662V10.4877C15.3964 9.25271 15.0001 8.04998 14.2647 7.05781C13.5293 6.06567 12.4939 5.33677 11.3118 4.97911C10.1297 4.62148 8.86384 4.65406 7.70176 5.07211C6.53969 5.49017 5.54304 6.27135 4.85971 7.30006C4.17638 8.32879 3.84263 9.55038 3.90781 10.7837C3.973 12.0169 4.43371 13.1965 5.22166 14.1474C6.00963 15.0984 7.08304 15.7703 8.28271 16.0635C9.48237 16.3567 10.7446 16.2556 11.8824 15.7754C12.2479 15.6211 12.6695 15.7923 12.8238 16.1579C12.9781 16.5234 12.8068 16.9448 12.4413 17.0991C11.0191 17.6994 9.4412 17.8258 7.94161 17.4593C6.44201 17.0927 5.10022 16.2529 4.11526 15.0642C3.13032 13.8755 2.55441 12.4011 2.47291 10.8596C2.39143 9.31796 2.80869 7.79097 3.66286 6.50506C4.51702 5.21917 5.76272 4.24259 7.21531 3.72001ZM9.64711 8.33326C9.07552 8.33328 8.52729 8.56028 8.12311 8.96446C7.71893 9.36863 7.49193 9.91687 7.49191 10.4885C7.49191 11.0601 7.71893 11.6084 8.12311 12.0126C8.52729 12.4168 9.07552 12.6438 9.64711 12.6438C10.2187 12.6438 10.7671 12.4168 11.1713 12.0126C11.5754 11.6084 11.8025 11.0601 11.8025 10.4885C11.8024 9.91688 11.5754 9.36863 11.1713 8.96446C10.7671 8.56028 10.2187 8.33326 9.64711 8.33326Z" fill="url(#paint9_linear_15867_46132)"/>
                <path d="M7.21531 3.72001C8.66791 3.19744 10.2503 3.15671 11.7279 3.60376C13.2055 4.05083 14.4998 4.96202 15.4191 6.20221C16.3382 7.44218 16.8334 8.94518 16.8317 10.4886V11.5662C16.8317 12.2331 16.5667 12.8727 16.0952 13.3443C15.6236 13.8158 14.9841 14.0808 14.3172 14.0808C13.6503 14.0808 13.0107 13.8159 12.5391 13.3443C12.4261 13.2313 12.325 13.1084 12.2366 12.978C12.2203 12.995 12.2039 13.0119 12.1872 13.0286C11.5135 13.7022 10.5998 14.0807 9.64711 14.0807C8.69443 14.0806 7.78081 13.7022 7.10716 13.0286C6.43351 12.3549 6.05491 11.4412 6.05491 10.4885C6.05493 9.53578 6.43351 8.62215 7.10716 7.94851C7.78081 7.27487 8.69443 6.89628 9.64711 6.89626C10.5998 6.89626 11.5135 7.27486 12.1872 7.94851C12.8581 8.61939 13.236 9.52832 13.2392 10.4768C13.2392 10.4807 13.2395 10.4846 13.2395 10.4886V11.5662C13.2395 11.852 13.3531 12.1261 13.5552 12.3282C13.7573 12.5303 14.0314 12.6439 14.3172 12.644C14.603 12.6439 14.8771 12.5303 15.0792 12.3282C15.2813 12.1261 15.3948 11.852 15.3948 11.5662V10.4877C15.3964 9.25271 15.0001 8.04998 14.2647 7.05781C13.5293 6.06567 12.4939 5.33677 11.3118 4.97911C10.1297 4.62148 8.86384 4.65406 7.70176 5.07211C6.53969 5.49017 5.54304 6.27135 4.85971 7.30006C4.17638 8.32879 3.84263 9.55038 3.90781 10.7837C3.973 12.0169 4.43371 13.1965 5.22166 14.1474C6.00963 15.0984 7.08304 15.7703 8.28271 16.0635C9.48237 16.3567 10.7446 16.2556 11.8824 15.7754C12.2479 15.6211 12.6695 15.7923 12.8238 16.1579C12.9781 16.5234 12.8068 16.9448 12.4413 17.0991C11.0191 17.6994 9.4412 17.8258 7.94161 17.4593C6.44201 17.0927 5.10022 16.2529 4.11526 15.0642C3.13032 13.8755 2.55441 12.4011 2.47291 10.8596C2.39143 9.31796 2.80869 7.79097 3.66286 6.50506C4.51702 5.21917 5.76272 4.24259 7.21531 3.72001ZM9.64711 8.33326C9.07552 8.33328 8.52729 8.56028 8.12311 8.96446C7.71893 9.36863 7.49193 9.91687 7.49191 10.4885C7.49191 11.0601 7.71893 11.6084 8.12311 12.0126C8.52729 12.4168 9.07552 12.6438 9.64711 12.6438C10.2187 12.6438 10.7671 12.4168 11.1713 12.0126C11.5754 11.6084 11.8025 11.0601 11.8025 10.4885C11.8024 9.91688 11.5754 9.36863 11.1713 8.96446C10.7671 8.56028 10.2187 8.33326 9.64711 8.33326Z" fill="url(#paint10_linear_15867_46132)"/>
                <path d="M7.21531 3.72001C8.66791 3.19744 10.2503 3.15671 11.7279 3.60376C13.2055 4.05083 14.4998 4.96202 15.4191 6.20221C16.3382 7.44218 16.8334 8.94518 16.8317 10.4886V11.5662C16.8317 12.2331 16.5667 12.8727 16.0952 13.3443C15.6236 13.8158 14.9841 14.0808 14.3172 14.0808C13.6503 14.0808 13.0107 13.8159 12.5391 13.3443C12.4261 13.2313 12.325 13.1084 12.2366 12.978C12.2203 12.995 12.2039 13.0119 12.1872 13.0286C11.5135 13.7022 10.5998 14.0807 9.64711 14.0807C8.69443 14.0806 7.78081 13.7022 7.10716 13.0286C6.43351 12.3549 6.05491 11.4412 6.05491 10.4885C6.05493 9.53578 6.43351 8.62215 7.10716 7.94851C7.78081 7.27487 8.69443 6.89628 9.64711 6.89626C10.5998 6.89626 11.5135 7.27486 12.1872 7.94851C12.8581 8.61939 13.236 9.52832 13.2392 10.4768C13.2392 10.4807 13.2395 10.4846 13.2395 10.4886V11.5662C13.2395 11.852 13.3531 12.1261 13.5552 12.3282C13.7573 12.5303 14.0314 12.6439 14.3172 12.644C14.603 12.6439 14.8771 12.5303 15.0792 12.3282C15.2813 12.1261 15.3948 11.852 15.3948 11.5662V10.4877C15.3964 9.25271 15.0001 8.04998 14.2647 7.05781C13.5293 6.06567 12.4939 5.33677 11.3118 4.97911C10.1297 4.62148 8.86384 4.65406 7.70176 5.07211C6.53969 5.49017 5.54304 6.27135 4.85971 7.30006C4.17638 8.32879 3.84263 9.55038 3.90781 10.7837C3.973 12.0169 4.43371 13.1965 5.22166 14.1474C6.00963 15.0984 7.08304 15.7703 8.28271 16.0635C9.48237 16.3567 10.7446 16.2556 11.8824 15.7754C12.2479 15.6211 12.6695 15.7923 12.8238 16.1579C12.9781 16.5234 12.8068 16.9448 12.4413 17.0991C11.0191 17.6994 9.4412 17.8258 7.94161 17.4593C6.44201 17.0927 5.10022 16.2529 4.11526 15.0642C3.13032 13.8755 2.55441 12.4011 2.47291 10.8596C2.39143 9.31796 2.80869 7.79097 3.66286 6.50506C4.51702 5.21917 5.76272 4.24259 7.21531 3.72001ZM9.64711 8.33326C9.07552 8.33328 8.52729 8.56028 8.12311 8.96446C7.71893 9.36863 7.49193 9.91687 7.49191 10.4885C7.49191 11.0601 7.71893 11.6084 8.12311 12.0126C8.52729 12.4168 9.07552 12.6438 9.64711 12.6438C10.2187 12.6438 10.7671 12.4168 11.1713 12.0126C11.5754 11.6084 11.8025 11.0601 11.8025 10.4885C11.8024 9.91688 11.5754 9.36863 11.1713 8.96446C10.7671 8.56028 10.2187 8.33326 9.64711 8.33326Z" fill="url(#paint11_linear_15867_46132)"/>
            </g>
        </g>
    </g>
    <defs>
        <linearGradient id="paint0_linear_15867_46132" x1="12" y1="0" x2="12" y2="24" gradientUnits="userSpaceOnUse">
            <stop stop-color="#8F8F8F"/>
            <stop offset="1" stop-color="#6D6D6D"/>
        </linearGradient>
        <linearGradient id="paint1_linear_15867_46132" x1="12" y1="0" x2="12" y2="24" gradientUnits="userSpaceOnUse">
            <stop stop-color="#91B0FF"/>
            <stop offset="1" stop-color="#5B89FF"/>
        </linearGradient>
        <linearGradient id="paint2_linear_15867_46132" x1="12.0002" y1="0.000106136" x2="12.0002" y2="24.0001" gradientUnits="userSpaceOnUse">
            <stop stop-color="#EFEFF8"/>
            <stop offset="1" stop-color="#D7C0FF"/>
        </linearGradient>
        <linearGradient id="paint3_linear_15867_46132" x1="17.7723" y1="11.7695" x2="17.7723" y2="20.9656" gradientUnits="userSpaceOnUse">
            <stop stop-color="#F7BC1A"/>
            <stop offset="1" stop-color="#FF6A00"/>
        </linearGradient>
        <linearGradient id="paint4_linear_15867_46132" x1="17.7724" y1="11.7696" x2="17.7724" y2="20.9656" gradientUnits="userSpaceOnUse">
            <stop stop-color="#EFEFF8"/>
            <stop offset="1" stop-color="#C9C9F9"/>
        </linearGradient>
        <linearGradient id="paint5_linear_15867_46132" x1="17.7723" y1="11.7695" x2="17.7723" y2="20.9656" gradientUnits="userSpaceOnUse">
            <stop stop-color="#8686CB"/>
            <stop offset="1" stop-color="#4E4EB8"/>
        </linearGradient>
        <linearGradient id="paint6_linear_15867_46132" x1="17.7723" y1="11.7695" x2="17.7723" y2="20.9656" gradientUnits="userSpaceOnUse">
            <stop stop-color="#FFC680"/>
            <stop offset="1" stop-color="#FF7802"/>
        </linearGradient>
        <linearGradient id="paint7_linear_15867_46132" x1="17.7723" y1="11.7695" x2="17.7723" y2="20.9656" gradientUnits="userSpaceOnUse">
            <stop stop-color="#8C4AFF"/>
            <stop offset="1" stop-color="#792BFF"/>
        </linearGradient>
        <linearGradient id="paint8_linear_15867_46132" x1="17.7723" y1="11.7695" x2="17.7723" y2="20.9656" gradientUnits="userSpaceOnUse">
            <stop stop-color="#8C4AFF"/>
            <stop offset="1" stop-color="#792BFF"/>
        </linearGradient>
        <linearGradient id="paint9_linear_15867_46132" x1="9.64739" y1="3.29596" x2="9.64739" y2="17.6647" gradientUnits="userSpaceOnUse">
            <stop stop-color="#EFEFF8"/>
            <stop offset="1" stop-color="#D7C0FF"/>
        </linearGradient>
        <linearGradient id="paint10_linear_15867_46132" x1="9.64739" y1="3.29596" x2="9.64739" y2="17.6647" gradientUnits="userSpaceOnUse">
            <stop stop-color="#4E298F"/>
            <stop offset="1" stop-color="#4E298F"/>
        </linearGradient>
        <linearGradient id="paint11_linear_15867_46132" x1="9.64728" y1="3.2959" x2="9.64728" y2="17.6647" gradientUnits="userSpaceOnUse">
            <stop stop-color="#8C4AFF"/>
            <stop offset="1" stop-color="#792BFF"/>
        </linearGradient>
        <clipPath id="clip0_15867_46132">
            <rect width="24" height="24" fill="white"/>
        </clipPath>
        <clipPath id="clip1_15867_46132">
            <rect width="24" height="24" fill="white"/>
        </clipPath>
        <clipPath id="clip2_15867_46132">
            <rect width="19.2" height="19.2" fill="white" transform="translate(2.40039 2.78418)"/>
        </clipPath>
    </defs>
</svg>
