<svg width="24" height="24" viewBox="0 0 24 24" fill="none" xmlns="http://www.w3.org/2000/svg">
<g clip-path="url(#clip0_16529_391320)">
<path d="M0 8C0 5.19974 0 3.79961 0.544967 2.73005C1.02433 1.78924 1.78924 1.02433 2.73005 0.544967C3.79961 0 5.19974 0 8 0H16C18.8003 0 20.2004 0 21.27 0.544967C22.2108 1.02433 22.9757 1.78924 23.455 2.73005C24 3.79961 24 5.19974 24 8V16C24 18.8003 24 20.2004 23.455 21.27C22.9757 22.2108 22.2108 22.9757 21.27 23.455C20.2004 24 18.8003 24 16 24H8C5.19974 24 3.79961 24 2.73005 23.455C1.78924 22.9757 1.02433 22.2108 0.544967 21.27C0 20.2004 0 18.8003 0 16V8Z" fill="url(#paint0_linear_16529_391320)"/>
<path d="M0 8C0 5.19974 0 3.79961 0.544967 2.73005C1.02433 1.78924 1.78924 1.02433 2.73005 0.544967C3.79961 0 5.19974 0 8 0H16C18.8003 0 20.2004 0 21.27 0.544967C22.2108 1.02433 22.9757 1.78924 23.455 2.73005C24 3.79961 24 5.19974 24 8V16C24 18.8003 24 20.2004 23.455 21.27C22.9757 22.2108 22.2108 22.9757 21.27 23.455C20.2004 24 18.8003 24 16 24H8C5.19974 24 3.79961 24 2.73005 23.455C1.78924 22.9757 1.02433 22.2108 0.544967 21.27C0 20.2004 0 18.8003 0 16V8Z" fill="url(#paint1_linear_16529_391320)"/>
<path d="M11.8711 3.3584C14.2183 3.3584 16.1211 5.26126 16.1212 7.60844V9.85854H17.4962C18.1175 9.8586 18.6211 10.3622 18.6211 10.9834V18.2334C18.6211 18.8547 18.1175 19.3582 17.4962 19.3583H6.24598C5.62471 19.3582 5.12109 18.8547 5.12109 18.2334V10.9834C5.12112 10.3622 5.62473 9.8586 6.24598 9.85854H7.62103V7.60844C7.62105 5.26128 9.52393 3.35844 11.8711 3.3584ZM11.8711 13.0783C11.051 13.0783 10.386 13.7433 10.386 14.5634C10.386 15.3835 11.051 16.0485 11.8711 16.0485C12.6912 16.0485 13.3562 15.3835 13.3562 14.5634C13.3562 13.7433 12.6912 13.0783 11.8711 13.0783ZM11.8711 5.35834C10.6285 5.35838 9.62133 6.36584 9.62131 7.60844V9.85854H14.1212V7.60844C14.1212 6.36582 13.1137 5.35834 11.8711 5.35834Z" fill="white"/>
<path d="M11.8711 3.3584C14.2183 3.3584 16.1211 5.26126 16.1212 7.60844V9.85854H17.4962C18.1175 9.8586 18.6211 10.3622 18.6211 10.9834V18.2334C18.6211 18.8547 18.1175 19.3582 17.4962 19.3583H6.24598C5.62471 19.3582 5.12109 18.8547 5.12109 18.2334V10.9834C5.12112 10.3622 5.62473 9.8586 6.24598 9.85854H7.62103V7.60844C7.62105 5.26128 9.52393 3.35844 11.8711 3.3584ZM11.8711 13.0783C11.051 13.0783 10.386 13.7433 10.386 14.5634C10.386 15.3835 11.051 16.0485 11.8711 16.0485C12.6912 16.0485 13.3562 15.3835 13.3562 14.5634C13.3562 13.7433 12.6912 13.0783 11.8711 13.0783ZM11.8711 5.35834C10.6285 5.35838 9.62133 6.36584 9.62131 7.60844V9.85854H14.1212V7.60844C14.1212 6.36582 13.1137 5.35834 11.8711 5.35834Z" fill="url(#paint2_linear_16529_391320)"/>
<path d="M11.8711 3.3584C14.2183 3.3584 16.1211 5.26126 16.1212 7.60844V9.85854H17.4962C18.1175 9.8586 18.6211 10.3622 18.6211 10.9834V18.2334C18.6211 18.8547 18.1175 19.3582 17.4962 19.3583H6.24598C5.62471 19.3582 5.12109 18.8547 5.12109 18.2334V10.9834C5.12112 10.3622 5.62473 9.8586 6.24598 9.85854H7.62103V7.60844C7.62105 5.26128 9.52393 3.35844 11.8711 3.3584ZM11.8711 13.0783C11.051 13.0783 10.386 13.7433 10.386 14.5634C10.386 15.3835 11.051 16.0485 11.8711 16.0485C12.6912 16.0485 13.3562 15.3835 13.3562 14.5634C13.3562 13.7433 12.6912 13.0783 11.8711 13.0783ZM11.8711 5.35834C10.6285 5.35838 9.62133 6.36584 9.62131 7.60844V9.85854H14.1212V7.60844C14.1212 6.36582 13.1137 5.35834 11.8711 5.35834Z" fill="url(#paint3_linear_16529_391320)"/>
<path d="M11.8711 3.3584C14.2183 3.3584 16.1211 5.26126 16.1212 7.60844V9.85854H17.4962C18.1175 9.8586 18.6211 10.3622 18.6211 10.9834V18.2334C18.6211 18.8547 18.1175 19.3582 17.4962 19.3583H6.24598C5.62471 19.3582 5.12109 18.8547 5.12109 18.2334V10.9834C5.12112 10.3622 5.62473 9.8586 6.24598 9.85854H7.62103V7.60844C7.62105 5.26128 9.52393 3.35844 11.8711 3.3584ZM11.8711 13.0783C11.051 13.0783 10.386 13.7433 10.386 14.5634C10.386 15.3835 11.051 16.0485 11.8711 16.0485C12.6912 16.0485 13.3562 15.3835 13.3562 14.5634C13.3562 13.7433 12.6912 13.0783 11.8711 13.0783ZM11.8711 5.35834C10.6285 5.35838 9.62133 6.36584 9.62131 7.60844V9.85854H14.1212V7.60844C14.1212 6.36582 13.1137 5.35834 11.8711 5.35834Z" fill="url(#paint4_linear_16529_391320)"/>
</g>
<defs>
<linearGradient id="paint0_linear_16529_391320" x1="12" y1="0" x2="12" y2="24" gradientUnits="userSpaceOnUse">
<stop stop-color="#8F8F8F"/>
<stop offset="1" stop-color="#6D6D6D"/>
</linearGradient>
<linearGradient id="paint1_linear_16529_391320" x1="12" y1="0" x2="12" y2="24" gradientUnits="userSpaceOnUse">
<stop stop-color="#F7931A"/>
<stop offset="1" stop-color="#F67300"/>
</linearGradient>
<linearGradient id="paint2_linear_16529_391320" x1="11.8711" y1="3.3584" x2="11.8711" y2="19.3583" gradientUnits="userSpaceOnUse">
<stop stop-color="white"/>
<stop offset="1" stop-color="#A4B8FF"/>
</linearGradient>
<linearGradient id="paint3_linear_16529_391320" x1="11.8711" y1="3.3584" x2="11.8711" y2="19.3583" gradientUnits="userSpaceOnUse">
<stop stop-color="white"/>
<stop offset="1" stop-color="#A4CEFF"/>
</linearGradient>
<linearGradient id="paint4_linear_16529_391320" x1="11.8711" y1="3.3584" x2="11.8711" y2="19.3583" gradientUnits="userSpaceOnUse">
<stop stop-color="#5F330B"/>
<stop offset="1" stop-color="#462100"/>
</linearGradient>
<clipPath id="clip0_16529_391320">
<rect width="24" height="24" fill="white"/>
</clipPath>
</defs>
</svg>
