<svg width="24" height="24" viewBox="0 0 24 24" fill="none" xmlns="http://www.w3.org/2000/svg">
    <path d="M20.4699 4.52179V11.0828L20.4675 11.3404C20.4186 13.9956 19.6106 16.4039 18.0435 18.565L17.8903 18.7719C16.2977 20.8857 14.3068 22.2684 11.9176 22.92L11.6877 22.8548C9.40042 22.1786 7.48615 20.8176 5.94483 18.7719L5.79169 18.565C4.174 16.3342 3.36523 13.84 3.36523 11.0828V4.52179L11.9176 1.32001L20.4699 4.52179ZM4.67882 5.43235V11.0828C4.67882 13.5632 5.40041 15.7873 6.85539 17.7937V17.794C8.23318 19.6941 9.91611 20.9262 11.9176 21.5511C13.9191 20.9262 15.6019 19.6939 16.9798 17.7937C18.4347 15.7873 19.1563 13.5632 19.1563 11.0828V5.43235L11.9176 2.72259L4.67882 5.43235ZM8.26893 6.63555C9.39795 6.63559 10.4807 7.08425 11.2791 7.88259C11.9552 8.55869 12.3802 9.43886 12.4946 10.3783C12.5149 10.3571 12.5355 10.336 12.5563 10.3152C13.3547 9.51686 14.4375 9.06818 15.5665 9.06816H17.3911C17.7269 9.06816 17.9993 9.34058 17.9994 9.67644V10.2847C17.9993 11.4137 17.5506 12.4966 16.7523 13.2949C15.954 14.0932 14.8712 14.5416 13.7422 14.5417H12.5259V16.9745C12.5258 17.3103 12.2534 17.5825 11.9176 17.5825C11.5818 17.5825 11.3094 17.3103 11.3093 16.9745V12.7173H10.0933C8.96427 12.7173 7.88144 12.2688 7.0831 11.4706C6.28474 10.6722 5.83608 9.58919 5.83606 8.46014V7.24384C5.83607 6.90797 6.10847 6.63555 6.44434 6.63555H8.26893Z" fill="white"/>
</svg>
