<svg width="24" height="24" viewBox="0 0 24 24" fill="none" xmlns="http://www.w3.org/2000/svg">
    <path d="M7.58398 13.5366C7.58412 14.7075 8.04904 15.8306 8.87695 16.6586C9.70509 17.4867 10.8289 17.9526 12 17.9526C13.171 17.9524 14.294 17.4867 15.1221 16.6586C15.9501 15.8306 16.4159 14.7076 16.416 13.5366H19.4873C19.4872 15.5223 18.6991 17.4273 17.2949 18.8315C15.8908 20.2356 13.9858 21.0237 12 21.0239C10.0143 21.0239 8.1093 20.2354 6.70508 18.8315C5.30092 17.4273 4.51185 15.5223 4.51172 13.5366H7.58398ZM7.58398 13.5356H4.51172V2.97601H7.58398V13.5356ZM19.4873 13.5356H16.415V2.97601H19.4873V13.5356ZM15.0713 6.04828H8.92773V2.97601H15.0713V6.04828Z" fill="white"/>
</svg>
