<svg width="4" height="15" viewBox="0 0 4 15" fill="none" xmlns="http://www.w3.org/2000/svg">
    <path d="M1.875 15C1.35938 15 0.917969 14.8164 0.550781 14.4492C0.183594 14.082 0 13.6406 0 13.125C0 12.6094 0.183594 12.168 0.550781 11.8008C0.917969 11.4336 1.35938 11.25 1.875 11.25C2.39062 11.25 2.83203 11.4336 3.19922 11.8008C3.56641 12.168 3.75 12.6094 3.75 13.125C3.75 13.6406 3.56641 14.082 3.19922 14.4492C2.83203 14.8164 2.39062 15 1.875 15ZM1.875 9.375C1.35938 9.375 0.917969 9.19141 0.550781 8.82422C0.183594 8.45703 0 8.01562 0 7.5C0 6.98438 0.183594 6.54297 0.550781 6.17578C0.917969 5.80859 1.35938 5.625 1.875 5.625C2.39062 5.625 2.83203 5.80859 3.19922 6.17578C3.56641 6.54297 3.75 6.98438 3.75 7.5C3.75 8.01562 3.56641 8.45703 3.19922 8.82422C2.83203 9.19141 2.39062 9.375 1.875 9.375ZM1.875 3.75C1.35938 3.75 0.917969 3.56641 0.550781 3.19922C0.183594 2.83203 0 2.39062 0 1.875C0 1.35938 0.183594 0.917969 0.550781 0.550781C0.917969 0.183594 1.35938 0 1.875 0C2.39062 0 2.83203 0.183594 3.19922 0.550781C3.56641 0.917969 3.75 1.35938 3.75 1.875C3.75 2.39062 3.56641 2.83203 3.19922 3.19922C2.83203 3.56641 2.39062 3.75 1.875 3.75Z" fill="white"/>
</svg>
