<svg width="1200" height="300" viewBox="0 0 1200 300" fill="none" xmlns="http://www.w3.org/2000/svg">
<g clip-path="url(#clip0_2001_2)">
<path d="M355.083 74.8516C365.12 74.8516 374.428 77.0418 382.641 81.2393C391.035 85.4367 397.971 91.6419 403.811 99.4893L391.035 112.264C386.838 105.511 381.545 100.401 375.522 96.9336C369.318 93.4663 362.565 91.6416 354.9 91.6416C346.506 91.6416 338.84 93.8312 332.271 98.3936C325.518 102.773 320.408 108.796 316.575 116.461C312.743 124.126 310.918 133.069 310.918 143.106C310.918 152.961 312.743 161.721 316.575 169.386C320.408 177.233 325.518 183.256 332.271 187.636C338.84 192.198 346.323 194.389 354.9 194.389C362.383 194.389 369.318 192.563 375.522 189.096C381.727 185.446 386.838 180.336 391.035 173.766L403.811 186.541C398.336 194.206 391.218 200.228 382.458 204.608C373.516 208.988 364.39 211.179 354.718 211.179C345.593 211.179 337.198 209.536 329.533 206.068C321.686 202.783 315.115 197.855 309.275 191.833C303.618 185.628 299.056 178.328 295.953 170.116C292.851 161.721 291.208 152.779 291.208 143.106C291.208 133.252 292.851 124.126 296.136 115.914C299.238 107.702 303.801 100.401 309.458 94.1963C315.115 88.1738 321.868 83.2469 329.716 79.9619C337.563 76.4945 345.958 74.8516 355.083 74.8516ZM908.59 114.637C916.62 114.637 923.556 116.279 929.396 119.199C935.418 122.302 939.98 126.499 943.265 132.156C946.55 137.631 948.192 144.201 948.192 151.684V208.259H931.585V196.418C928.72 200.427 925.07 203.676 920.635 206.251C914.977 209.536 908.407 211.179 900.925 211.179C894.538 211.179 888.698 209.901 883.771 207.528C878.843 204.973 875.01 201.506 872.272 197.126C869.535 192.746 868.075 187.818 868.075 182.161C868.075 172.854 871.725 165.554 878.843 160.262C886.143 154.787 895.998 152.231 908.226 152.231H931.037C931.037 145.297 928.848 139.639 924.65 135.624C920.453 131.609 914.612 129.419 907.13 129.419C897.458 129.419 888.88 133.434 881.58 141.464L870.995 130.149C881.58 119.747 894.173 114.637 908.59 114.637ZM1075.53 114.637C1083.74 114.637 1091.05 116.644 1097.43 120.842C1103.82 124.857 1108.75 130.514 1112.4 137.632C1116.05 144.749 1117.69 152.961 1117.69 162.269V168.839H1049.79C1050.29 172.941 1051.31 176.713 1052.9 180.153C1055.27 185.081 1058.74 188.914 1063.31 191.834C1067.69 194.571 1072.98 196.031 1079.18 196.031C1084.66 196.031 1089.58 194.753 1093.96 192.381C1098.34 190.008 1102.18 186.358 1105.65 181.613L1116.41 193.111C1111.67 199.134 1106.01 203.696 1099.62 206.616C1093.05 209.719 1085.94 211.179 1078.27 211.179C1068.78 211.179 1060.57 209.171 1053.45 204.974C1046.33 200.776 1040.68 195.118 1036.66 187.818C1032.65 180.519 1030.64 172.306 1030.64 162.999C1030.64 153.692 1032.65 145.479 1036.48 138.179C1040.49 130.879 1045.79 125.222 1052.54 121.024C1059.47 116.827 1067.14 114.637 1075.53 114.637ZM448.598 114.637C456.627 114.637 463.562 116.278 469.402 119.198C475.425 122.301 479.987 126.499 483.272 132.156C486.557 137.631 488.2 144.201 488.2 151.684V208.258H471.593V196.416C468.728 200.426 465.078 203.675 460.643 206.251C454.985 209.536 448.415 211.178 440.933 211.178C434.545 211.178 428.705 209.901 423.777 207.528C418.85 204.973 415.018 201.506 412.28 197.126C409.543 192.746 408.083 187.818 408.083 182.161C408.083 172.854 411.732 165.553 418.85 160.261C426.15 154.786 436.005 152.231 448.232 152.231H471.045C471.045 145.297 468.855 139.639 464.657 135.624C460.46 131.609 454.62 129.419 447.138 129.419C437.465 129.419 428.888 133.434 421.588 141.464L411.003 130.148C421.588 119.746 434.18 114.637 448.598 114.637ZM627.621 114.637C635.833 114.637 643.133 116.644 649.521 120.841C655.908 124.856 660.835 130.514 664.485 137.631C668.135 144.748 669.778 152.961 669.778 162.269V168.839H601.883C602.378 172.941 603.394 176.713 604.991 180.153C607.364 185.081 610.831 188.913 615.394 191.833C619.773 194.57 625.066 196.031 631.271 196.031C636.745 196.031 641.674 194.753 646.054 192.381C650.434 190.008 654.266 186.358 657.733 181.613L668.501 193.11C663.756 199.133 658.098 203.696 651.711 206.616C645.141 209.719 638.023 211.178 630.358 211.178C620.869 211.178 612.656 209.171 605.539 204.974C598.422 200.776 592.764 195.118 588.749 187.818C584.734 180.518 582.727 172.305 582.727 162.998C582.727 153.691 584.734 145.479 588.566 138.179C592.581 130.879 597.874 125.221 604.626 121.023C611.561 116.826 619.226 114.637 627.621 114.637ZM522.562 158.216L562.712 117.557H585.524L541.32 161.233L590.635 208.259H566.18L522.562 165.793V208.259H504.312V76.8594H522.562V158.216ZM982.555 208.259H964.305V76.8594H982.555V208.259ZM1018.37 208.259H1000.12V76.8594H1018.37V208.259ZM1152.26 117.557H1175.07V132.887H1152.26V183.621C1152.26 186.541 1152.99 188.913 1154.45 190.556C1155.91 192.016 1158.1 192.929 1161.02 192.929H1176.17V208.259H1155.54C1148.43 208.259 1142.95 206.433 1139.48 202.601C1135.83 198.768 1134.01 193.293 1134.01 185.993V132.887H1117.95V117.557H1134.01V92.1895H1152.26V117.557ZM752.748 184.048L780.812 77.7715H799.062L827.396 185.07L854.724 77.7715H874.069L838.116 208.258H816.946L789.754 104.927L762.562 208.258H741.574L705.439 77.7715H725.515L752.748 184.048ZM449.875 165.188C442.575 165.188 436.917 166.648 432.72 169.386C428.705 172.306 426.697 176.321 426.697 181.431C426.697 185.993 428.34 189.826 431.625 192.563C434.727 195.483 439.107 196.943 444.582 196.943C449.692 196.943 454.437 195.848 458.635 193.476C462.832 191.286 466.117 188.001 468.672 183.986C469.611 182.51 470.402 180.935 471.045 179.279V165.188H449.875ZM909.867 165.188C902.567 165.189 896.91 166.649 892.713 169.387C888.698 172.307 886.69 176.322 886.69 181.432C886.691 185.994 888.333 189.826 891.618 192.563C894.721 195.483 899.1 196.943 904.575 196.943C909.685 196.943 914.43 195.849 918.628 193.477C922.825 191.287 926.11 188.001 928.665 183.986C929.604 182.51 930.394 180.935 931.037 179.279V165.188H909.867ZM1075.35 129.784C1070.24 129.784 1065.86 131.062 1061.85 133.799C1057.83 136.536 1054.91 140.369 1052.72 145.296C1051.34 148.414 1050.39 151.897 1049.88 155.699H1099.33C1098.61 148.672 1096.51 142.833 1093.05 138.361C1088.86 132.521 1082.83 129.784 1075.35 129.784ZM627.438 129.783C622.328 129.783 617.949 131.061 613.934 133.799C609.919 136.536 606.999 140.369 604.809 145.296C603.423 148.413 602.477 151.896 601.968 155.698H651.421C650.695 148.671 648.602 142.833 645.141 138.361C640.943 132.521 634.921 129.783 627.438 129.783Z" fill="#312938"/>
<path d="M202.303 133.016C199.143 136.166 196.512 139.406 194.735 144.154C192.958 148.901 192.077 154.071 190.811 162.246C188.998 173.887 185.461 178.464 182.659 181.354C176.94 187.249 168.815 186.918 158.913 184.962C152.69 183.732 151.074 185.212 143.676 191.602L104.676 230.211L104.657 288.824C104.657 289.874 105.933 290.403 106.678 289.659L221.867 174.703C223.419 173.15 224.3 171.05 224.3 168.852L224.443 110.76L202.303 133.007V133.016Z" fill="url(#paint0_linear_2001_2)"/>
<path d="M155.831 169.687C163.337 169.902 168.571 175.331 174.748 171.436C180.925 167.541 180.755 163.207 181.949 156.046C183.151 148.875 185.531 140.537 187.649 135.512C189.777 130.476 194.527 124.041 199.357 119.349L224.253 93.4562L224.415 67.3672C224.415 65.7699 222.493 64.9623 221.362 66.0927L108.14 179.272C105.913 181.497 104.665 184.513 104.665 187.654V213.339L142.912 174.964C142.912 174.964 148.317 169.48 155.822 169.696L155.831 169.687Z" fill="url(#paint1_linear_2001_2)"/>
<path d="M224.45 45.9734L104.665 166.027V140.396C104.665 137.255 105.913 134.239 108.14 132.014L221.389 18.8076C222.511 17.686 224.441 18.4758 224.441 20.0731V45.9734H224.45Z" fill="url(#paint2_linear_2001_2)"/>
<path d="M215.23 0.355115L12.4432 44.5186C5.17966 46.098 -0.000793457 52.5242 -0.000793457 59.9546V207.973C-0.000793457 210.172 0.870396 212.281 2.43198 213.842L87.7599 299.136C89.5013 300.878 92.4824 299.648 92.4824 297.18V138.545C92.4913 133.313 94.5734 128.288 98.2728 124.59L217.78 5.01205C219.728 3.06504 217.932 -0.22899 215.239 0.355115H215.23Z" fill="url(#paint3_linear_2001_2)"/>
</g>
<defs>
<linearGradient id="paint0_linear_2001_2" x1="221.309" y1="144.325" x2="105.09" y2="264.179" gradientUnits="userSpaceOnUse">
<stop stop-color="#FF7D38"/>
<stop offset="0.61" stop-color="#FE6412"/>
<stop offset="1" stop-color="#EB4600"/>
</linearGradient>
<linearGradient id="paint1_linear_2001_2" x1="194.991" y1="110.787" x2="101.916" y2="208.694" gradientUnits="userSpaceOnUse">
<stop stop-color="#61C5FF"/>
<stop offset="1" stop-color="#2A92FA"/>
</linearGradient>
<linearGradient id="paint2_linear_2001_2" x1="224.45" y1="37.08" x2="113.043" y2="157.558" gradientUnits="userSpaceOnUse">
<stop stop-color="#FFC414"/>
<stop offset="1" stop-color="#FF9447"/>
</linearGradient>
<linearGradient id="paint3_linear_2001_2" x1="258.68" y1="-166.585" x2="-5.74347" y2="275.224" gradientUnits="userSpaceOnUse">
<stop stop-color="#776A83"/>
<stop offset="0.11" stop-color="#776A83"/>
<stop offset="0.57" stop-color="#312938"/>
<stop offset="0.96" stop-color="#19151D"/>
<stop offset="1" stop-color="#19151D"/>
</linearGradient>
<clipPath id="clip0_2001_2">
<rect width="1200" height="300" fill="white"/>
</clipPath>
</defs>
</svg>
