<svg width="20" height="20" viewBox="0 0 20 20" fill="none" xmlns="http://www.w3.org/2000/svg">
<g clip-path="url(#clip0_8591_30416)">
<path d="M16.0056 8.86758C15.795 9.0776 15.6196 9.29358 15.5011 9.61009C15.3826 9.92659 15.3239 10.2712 15.2395 10.8163C15.1186 11.5923 14.8828 11.8974 14.6961 12.0901C14.3148 12.4832 13.7731 12.461 13.113 12.3306C12.6982 12.2486 12.5905 12.3473 12.0973 12.7734L9.49729 15.3473L9.49609 19.2548C9.49609 19.3248 9.5811 19.3601 9.63077 19.3105L17.3098 11.6467C17.4134 11.5432 17.472 11.4032 17.472 11.2566L17.4816 7.38379L16.0056 8.86699V8.86758Z" fill="#8C9FBB"/>
<path d="M12.9071 11.3125C13.4074 11.3269 13.7564 11.6889 14.1682 11.4292C14.5799 11.1695 14.5686 10.8806 14.6482 10.4031C14.7284 9.92505 14.887 9.36922 15.0282 9.03417C15.1701 8.69853 15.4867 8.26954 15.8087 7.95664L17.4684 6.23051L17.4792 4.49122C17.4792 4.38474 17.3511 4.33089 17.2757 4.40627L9.72772 11.9515C9.57928 12.0999 9.49609 12.3009 9.49609 12.5104V14.2227L12.0458 11.6643C12.0458 11.6643 12.4061 11.2988 12.9065 11.3131L12.9071 11.3125Z" fill="#8C9FBB"/>
<path d="M17.4816 3.0649L9.49609 11.0684V9.35968C9.49609 9.15029 9.57928 8.94925 9.72772 8.80088L17.2775 1.25381C17.3523 1.17902 17.481 1.23168 17.481 1.33817V3.0649H17.4816Z" fill="#8C9FBB"/>
<path d="M16.8679 0.0235924L3.34908 2.96786C2.86488 3.07316 2.51953 3.50155 2.51953 3.99696V13.8649C2.51953 14.0114 2.57759 14.152 2.68173 14.2561L8.37009 19.9425C8.4862 20.0585 8.68492 19.9766 8.68492 19.812V9.23633C8.68552 8.88752 8.82437 8.55247 9.07096 8.30597L17.0379 0.334114C17.1678 0.204281 17.0481 -0.0152976 16.8685 0.0235924H16.8679Z" fill="#8C9FBB"/>
</g>
<defs>
<clipPath id="clip0_8591_30416">
<rect width="14.9665" height="20" fill="white" transform="translate(2.51953)"/>
</clipPath>
</defs>
</svg>
