<svg width="500" height="500" viewBox="0 0 500 500" fill="none" xmlns="http://www.w3.org/2000/svg">
<path d="M121.023 364.201C139.365 350.592 159.347 339.844 180.969 331.957C202.587 324.074 225.598 320.132 250 320.132C274.402 320.132 297.413 324.074 319.031 331.957C340.653 339.844 360.635 350.592 378.977 364.201C392.392 349.456 403.022 332.387 410.866 312.995C418.71 293.602 422.632 272.604 422.632 250C422.632 202.167 405.818 161.437 372.191 127.809C338.564 94.1822 297.833 77.3686 250 77.3686C202.167 77.3686 161.436 94.1822 127.809 127.809C94.182 161.437 77.3684 202.167 77.3684 250C77.3684 272.604 81.2904 293.602 89.1343 312.995C96.9783 332.387 107.608 349.456 121.023 364.201ZM200.163 245.889C186.633 232.363 179.868 215.751 179.868 196.053C179.868 176.355 186.633 159.743 200.163 146.216C213.69 132.686 230.302 125.921 250 125.921C269.698 125.921 286.31 132.686 299.837 146.216C313.367 159.743 320.132 176.355 320.132 196.053C320.132 215.751 313.367 232.363 299.837 245.889C286.31 259.419 269.698 266.184 250 266.184C230.302 266.184 213.69 259.419 200.163 245.889ZM250 455C221.534 455 194.83 449.647 169.888 438.94C144.946 428.233 123.251 413.653 104.801 395.2C86.3471 376.75 71.7669 355.054 61.0601 330.112C50.3534 305.17 45 278.466 45 250C45 221.534 50.3534 194.83 61.0601 169.888C71.7669 144.947 86.3471 123.251 104.801 104.801C123.251 86.3472 144.946 71.7671 169.888 61.0603C194.83 50.3536 221.534 45.0002 250 45.0002C278.466 45.0002 305.17 50.3536 330.112 61.0603C355.054 71.7671 376.749 86.3472 395.199 104.801C413.653 123.251 428.233 144.947 438.94 169.888C449.647 194.83 455 221.534 455 250C455 278.466 449.647 305.17 438.94 330.112C428.233 355.054 413.653 376.75 395.199 395.2C376.749 413.653 355.054 428.233 330.112 438.94C305.17 449.647 278.466 455 250 455Z" fill="white"/>
</svg>
