<svg width="75" height="55" viewBox="0 0 75 55" fill="none" xmlns="http://www.w3.org/2000/svg">
    <path
        d="M62.1392 40.0862L49.2785 27.2246L52.9875 23.5155L59.4993 30.0273V27.2791C59.4993 21.1645 57.3469 15.9691 53.0421 11.6931C48.7367 7.41758 43.4973 5.27983 37.324 5.27983C35.8662 5.27983 34.4099 5.43881 32.955 5.75677C31.4995 6.07532 30.0789 6.55256 28.6933 7.18849L24.7334 3.22862C26.7145 2.16385 28.7599 1.35956 30.8694 0.815736C32.9796 0.271913 35.1311 0 37.324 0C44.937 0 51.4159 2.64901 56.7609 7.94702C62.1064 13.245 64.7792 19.6891 64.7792 27.2791V30.0273L71.2909 23.5155L75 27.2246L62.1392 40.0862Z"
        fill="url(#paint0_linear_14800_621228)" />
    <path
        d="M18.2392 46.6109C23.5841 51.9089 30.0631 54.5579 37.676 54.5579C39.8689 54.5579 42.0204 54.286 44.1306 53.7422C46.2402 53.1983 48.2855 52.3941 50.2666 51.3293L46.3068 47.3694C44.9211 48.0053 43.5005 48.4826 42.0451 48.8011C40.5902 49.1191 39.1338 49.2781 37.676 49.2781C31.5027 49.2781 26.2633 47.1403 21.9579 42.8648C17.6531 38.5888 15.5007 33.3934 15.5007 27.2788V24.5306L22.0125 31.0424L25.7216 27.3333L12.8608 14.4717L0 27.3333L3.70908 31.0424L10.2209 24.5306V27.2788C10.2209 34.8688 12.8936 41.3129 18.2392 46.6109Z"
        fill="url(#paint1_linear_14800_621228)" />
    <defs>
        <linearGradient id="paint0_linear_14800_621228" x1="49.8667" y1="0" x2="49.8667"
            y2="40.0862" gradientUnits="userSpaceOnUse">
            <stop stop-color="#FFC414" />
            <stop offset="1" stop-color="#F7931A" />
        </linearGradient>
        <linearGradient id="paint1_linear_14800_621228" x1="25.1333" y1="14.4717" x2="25.1333"
            y2="54.5579" gradientUnits="userSpaceOnUse">
            <stop stop-color="#4EBEFF" />
            <stop offset="1" stop-color="#4E98FF" />
        </linearGradient>
    </defs>
</svg>
