<svg width="10" height="19" viewBox="0 0 10 19" fill="none" xmlns="http://www.w3.org/2000/svg">
    <path d="M3.93475 12.423C3.93475 11.291 4.06517 10.4243 4.326 9.823C4.58683 9.22167 5.13142 8.555 5.95975 7.823C6.60458 7.24867 7.09333 6.72783 7.426 6.2605C7.75867 5.79317 7.925 5.26333 7.925 4.671C7.925 3.88517 7.65742 3.232 7.12225 2.7115C6.58692 2.191 5.85 1.93075 4.9115 1.93075C4.05517 1.93075 3.3885 2.16017 2.9115 2.619C2.43467 3.078 2.0725 3.59025 1.825 4.15575L0 3.35375C0.3885 2.39608 0.994916 1.59767 1.81925 0.958501C2.64358 0.319501 3.67433 0 4.9115 0C6.52683 0 7.77008 0.455417 8.64125 1.36625C9.51242 2.27708 9.948 3.35817 9.948 4.6095C9.948 5.3915 9.7785 6.08158 9.4395 6.67975C9.10033 7.27775 8.58592 7.9005 7.89625 8.548C7.02825 9.34417 6.49075 9.972 6.28375 10.4315C6.07658 10.8912 5.973 11.555 5.973 12.423H3.93475ZM4.9115 18.1538C4.5025 18.1538 4.15025 18.006 3.85475 17.7105C3.55925 17.415 3.4115 17.0628 3.4115 16.6538C3.4115 16.2448 3.55925 15.8925 3.85475 15.597C4.15025 15.3015 4.5025 15.1538 4.9115 15.1538C5.3205 15.1538 5.67275 15.3015 5.96825 15.597C6.26375 15.8925 6.4115 16.2448 6.4115 16.6538C6.4115 17.0628 6.26375 17.415 5.96825 17.7105C5.67275 18.006 5.3205 18.1538 4.9115 18.1538Z" fill="white"/>
</svg>
