<svg width="36" height="36" viewBox="0 0 36 36" fill="none" xmlns="http://www.w3.org/2000/svg">
<rect width="36" height="36" rx="18" fill="#737373" fill-opacity="0.15"/>
<g clip-path="url(#clip0_10164_20448)">
<path d="M11.7662 10.743C11.9423 10.703 12.1251 10.7031 12.2999 10.7418L12.4731 10.794L12.5371 10.8225L25.7354 17.2716C25.7604 17.2838 25.7845 17.2987 25.8078 17.3131C25.8171 17.319 25.8272 17.3235 25.8362 17.3297C25.8744 17.3557 25.909 17.3859 25.9418 17.4175C25.9492 17.4247 25.956 17.4325 25.9631 17.44C26.0658 17.5469 26.1373 17.6795 26.1695 17.8255C26.1708 17.8314 26.1719 17.8373 26.173 17.8433C26.183 17.894 26.1896 17.9457 26.1896 17.9986C26.1896 18.0501 26.1825 18.1009 26.173 18.1504C26.1712 18.16 26.1693 18.1694 26.1671 18.1789C26.1344 18.3221 26.064 18.452 25.9631 18.5572C25.956 18.5647 25.9492 18.5725 25.9418 18.5797C25.9112 18.6093 25.8787 18.6369 25.8433 18.6616C25.8282 18.6722 25.8118 18.6804 25.7959 18.69C25.776 18.702 25.7566 18.7153 25.7354 18.7256L25.7034 18.741C25.6995 18.7427 25.6955 18.7441 25.6915 18.7458L12.5371 25.1747C12.5161 25.185 12.4948 25.1948 12.4731 25.2032C12.248 25.2896 12.0013 25.3076 11.7662 25.2542C11.5316 25.2007 11.3185 25.078 11.1531 24.9032L11.1519 24.9043C10.9924 24.7358 10.8821 24.5254 10.8341 24.2983C10.7871 24.0749 10.8033 23.8428 10.878 23.6271H10.8756L12.785 17.9986L10.8756 12.3701L10.878 12.3689C10.8037 12.1536 10.787 11.922 10.8341 11.6989L10.8815 11.5317C10.9402 11.3691 11.0322 11.2193 11.1519 11.0929L11.1531 11.0941C11.3186 10.9192 11.5315 10.7964 11.7662 10.743ZM14.2211 18.8086L12.6984 23.2938L21.8787 18.8086H14.2211ZM14.2211 17.1886H21.8787L12.6984 12.7022L14.2211 17.1886Z" fill="#9FA2A7"/>
</g>
<defs>
<clipPath id="clip0_10164_20448">
<rect width="24" height="24" fill="white" transform="translate(6 6)"/>
</clipPath>
</defs>
</svg>
