<svg width="100" height="100" viewBox="0 0 100 100" fill="none" xmlns="http://www.w3.org/2000/svg">
    <g clip-path="url(#clip0_14800_610033)">
        <g opacity="0.5">
            <path d="M65.6678 41.3975C61.2157 59.2548 43.1293 70.1225 25.2699 65.6694C7.4178 61.2173 -3.44991 43.1298 1.00426 25.2735C5.45426 7.41416 23.5407 -3.45459 41.3949 0.997495C59.2532 5.44958 70.1199 23.5392 65.6678 41.3975Z" fill="#F7931A"/>
            <path d="M65.6678 41.3975C61.2157 59.2548 43.1293 70.1225 25.2699 65.6694C7.4178 61.2173 -3.44991 43.1298 1.00426 25.2735C5.45426 7.41416 23.5407 -3.45459 41.3949 0.997495C59.2532 5.44958 70.1199 23.5392 65.6678 41.3975Z" fill="url(#paint0_linear_14800_610033)"/>
            <path d="M65.6678 41.3975C61.2157 59.2548 43.1293 70.1225 25.2699 65.6694C7.4178 61.2173 -3.44991 43.1298 1.00426 25.2735C5.45426 7.41416 23.5407 -3.45459 41.3949 0.997495C59.2532 5.44958 70.1199 23.5392 65.6678 41.3975Z" fill="url(#paint1_linear_14800_610033)"/>
            <path d="M65.6678 41.3975C61.2157 59.2548 43.1293 70.1225 25.2699 65.6694C7.4178 61.2173 -3.44991 43.1298 1.00426 25.2735C5.45426 7.41416 23.5407 -3.45459 41.3949 0.997495C59.2532 5.44958 70.1199 23.5392 65.6678 41.3975Z" fill="url(#paint2_linear_14800_610033)"/>
            <path d="M1.00426 25.2735C5.4543 7.41421 23.5408 -3.45458 41.3949 0.997489C59.2532 5.44957 70.1198 23.5392 65.6678 41.3975L65.5611 41.8149C60.9696 59.2852 43.2714 69.9194 25.6884 65.7709L25.2699 65.6693C7.4178 61.2173 -3.44991 43.1298 1.00426 25.2735ZM41.0722 2.29124C23.9328 -1.9826 6.57 8.45112 2.29801 25.5959V25.5964C-1.97786 42.7381 8.45489 60.1016 25.5923 64.3756C42.7372 68.6506 60.1001 58.2178 64.3741 41.0751C68.6481 23.9311 58.2159 6.56514 41.0722 2.29124Z" fill="url(#paint3_linear_14800_610033)"/>
            <path d="M1.00426 25.2735C5.4543 7.41421 23.5408 -3.45458 41.3949 0.997489C59.2532 5.44957 70.1198 23.5392 65.6678 41.3975L65.5611 41.8149C60.9696 59.2852 43.2714 69.9194 25.6884 65.7709L25.2699 65.6693C7.4178 61.2173 -3.44991 43.1298 1.00426 25.2735ZM41.0722 2.29124C23.9328 -1.9826 6.57 8.45112 2.29801 25.5959V25.5964C-1.97786 42.7381 8.45489 60.1016 25.5923 64.3756C42.7372 68.6506 60.1001 58.2178 64.3741 41.0751C68.6481 23.9311 58.2159 6.56514 41.0722 2.29124Z" fill="url(#paint4_linear_14800_610033)"/>
            <path d="M1.00426 25.2735C5.4543 7.41421 23.5408 -3.45458 41.3949 0.997489C59.2532 5.44957 70.1198 23.5392 65.6678 41.3975L65.5611 41.8149C60.9696 59.2852 43.2714 69.9194 25.6884 65.7709L25.2699 65.6693C7.4178 61.2173 -3.44991 43.1298 1.00426 25.2735ZM41.0722 2.29124C23.9328 -1.9826 6.57 8.45112 2.29801 25.5959V25.5964C-1.97786 42.7381 8.45489 60.1016 25.5923 64.3756C42.7372 68.6506 60.1001 58.2178 64.3741 41.0751C68.6481 23.9311 58.2159 6.56514 41.0722 2.29124Z" fill="url(#paint5_linear_14800_610033)"/>
            <path d="M15.965 37.0957L40.899 15.6099C41.9854 14.9141 43.021 15.6099 42.3579 16.8036L34.4002 32.4537H48.5914C48.5914 32.4537 50.846 32.4537 48.5914 34.3105L24.0553 55.9288C22.3311 57.3877 21.1375 56.5919 22.3311 54.3373L30.0235 39.0851H15.965C15.965 39.0851 13.7103 39.0851 15.965 37.0957Z" fill="url(#paint6_linear_14800_610033)"/>
            <path d="M15.965 34.4297L40.899 12.9439C41.9854 12.2481 43.021 12.9439 42.3579 14.1375L34.4002 29.7877H48.5914C48.5914 29.7877 50.846 29.7877 48.5914 31.6445L24.0553 53.2628C22.3311 54.7217 21.1375 53.9259 22.3311 51.6712L30.0235 36.4191H15.965C15.965 36.4191 13.7103 36.4191 15.965 34.4297Z" fill="url(#paint7_linear_14800_610033)"/>
            <path d="M40.8991 12.9438C41.9855 12.2482 43.021 12.944 42.3579 14.1376L34.4001 29.7878H48.5913C48.5913 29.7878 50.8459 29.7878 48.5913 31.6446L24.0553 53.2628L23.9749 53.3295C22.2944 54.6965 21.1561 53.8906 22.3311 51.6712L30.0236 36.4191H15.965L15.8725 36.4152C15.479 36.3885 14.0445 36.1782 15.8626 34.5214L15.965 34.4297L40.8991 12.9438ZM41.9626 13.2574C41.893 13.2046 41.6293 13.1208 41.2137 13.3764L16.3131 34.8337C15.7701 35.3135 15.5708 35.6144 15.5126 35.7683C15.5094 35.7769 15.5072 35.7847 15.5051 35.7915C15.5486 35.8143 15.6268 35.8428 15.7405 35.8628C15.8055 35.8743 15.8654 35.8802 15.9087 35.8831C15.9299 35.8846 15.9463 35.8852 15.9564 35.8855C15.9614 35.8856 15.9648 35.8857 15.9663 35.8857H30.8897L22.8074 51.9115L22.8048 51.9162L22.8025 51.9209C22.5237 52.4475 22.4074 52.8474 22.3861 53.118C22.3756 53.2512 22.3894 53.3376 22.4053 53.3876C22.4202 53.434 22.4356 53.4459 22.4368 53.4469C22.4388 53.4485 22.4528 53.4599 22.497 53.4649C22.5458 53.4704 22.6271 53.4671 22.7449 53.4337C22.984 53.3658 23.3156 53.19 23.7108 52.8555L48.2387 31.2443L48.2454 31.2383L48.2522 31.2329C48.7639 30.8115 48.9661 30.5408 49.0345 30.399C48.987 30.38 48.9161 30.3586 48.8217 30.343C48.7553 30.3321 48.6943 30.3263 48.6501 30.3235C48.6283 30.3221 48.6114 30.3215 48.6009 30.3212H33.5306L41.8824 13.8959L41.8868 13.887L41.8915 13.8784C42.0198 13.6475 42.0396 13.4877 42.0314 13.3993C42.0239 13.3196 41.9942 13.2813 41.9626 13.2574Z" fill="white"/>
        </g>
        <path d="M96.2246 71.9532C91.772 89.8105 73.6837 100.678 55.8224 96.225C37.9684 91.7729 27.0995 73.6854 31.5542 55.8292C36.0046 37.9698 54.093 27.1011 71.9491 31.5532C89.8093 36.0052 100.677 54.0948 96.2246 71.9532Z" fill="url(#paint8_linear_14800_610033)"/>
        <path d="M96.2246 71.9532C91.772 89.8105 73.6837 100.678 55.8224 96.225C37.9684 91.7729 27.0995 73.6854 31.5542 55.8292C36.0046 37.9698 54.093 27.1011 71.9491 31.5532C89.8093 36.0052 100.677 54.0948 96.2246 71.9532Z" fill="url(#paint9_linear_14800_610033)"/>
        <path d="M31.5542 55.8292C36.0047 37.9699 54.0931 27.1011 71.9491 31.5532C89.8093 36.0052 100.677 54.0949 96.2246 71.9531L96.1178 72.3706C91.5259 89.8408 73.8258 100.475 56.2409 96.3266L55.8224 96.225C37.9684 91.7729 27.0995 73.6854 31.5542 55.8292ZM71.6264 32.8469C54.4852 28.5731 37.1205 39.0068 32.8481 56.1516V56.1521C28.5717 73.2937 39.0056 90.6573 56.1448 94.9313C73.2915 99.2062 90.6563 88.7734 94.9307 71.6307C99.2052 54.4867 88.7719 37.1208 71.6264 32.8469Z" fill="url(#paint10_linear_14800_610033)"/>
        <path d="M31.5542 55.8292C36.0047 37.9699 54.0931 27.1011 71.9491 31.5532C89.8093 36.0052 100.677 54.0949 96.2246 71.9531L96.1178 72.3706C91.5259 89.8408 73.8258 100.475 56.2409 96.3266L55.8224 96.225C37.9684 91.7729 27.0995 73.6854 31.5542 55.8292ZM71.6264 32.8469C54.4852 28.5731 37.1205 39.0068 32.8481 56.1516V56.1521C28.5717 73.2937 39.0056 90.6573 56.1448 94.9313C73.2915 99.2062 90.6563 88.7734 94.9307 71.6307C99.2052 54.4867 88.7719 37.1208 71.6264 32.8469Z" fill="url(#paint11_linear_14800_610033)"/>
        <path d="M31.5542 55.8292C36.0047 37.9699 54.0931 27.1011 71.9491 31.5532C89.8093 36.0052 100.677 54.0949 96.2246 71.9531L96.1178 72.3706C91.5259 89.8408 73.8258 100.475 56.2409 96.3266L55.8224 96.225C37.9684 91.7729 27.0995 73.6854 31.5542 55.8292ZM71.6264 32.8469C54.4852 28.5731 37.1205 39.0068 32.8481 56.1516V56.1521C28.5717 73.2937 39.0056 90.6573 56.1448 94.9313C73.2915 99.2062 90.6563 88.7734 94.9307 71.6307C99.2052 54.4867 88.7719 37.1208 71.6264 32.8469Z" fill="url(#paint12_linear_14800_610033)"/>
        <path d="M78.5846 60.7383C79.2481 56.3029 75.871 53.9186 71.2533 52.3279L72.7512 46.3196L69.0939 45.4081L67.6356 51.2581C66.6742 51.0186 65.6867 50.7925 64.7054 50.5686L66.1742 44.68L62.5189 43.7686L61.02 49.7748C60.2242 49.5936 59.4429 49.4144 58.6846 49.2258L58.6887 49.2071L53.645 47.9477L52.6721 51.854C52.6721 51.854 55.3856 52.4758 55.3283 52.5144C56.8096 52.8842 57.0773 53.8644 57.0325 54.6415L55.3262 61.4863C55.4283 61.5123 55.5606 61.5498 55.7064 61.6081C55.5846 61.5779 55.4544 61.5446 55.32 61.5123L52.9283 71.1008C52.7471 71.5508 52.2877 72.2258 51.2523 71.9696C51.2887 72.0227 48.5939 71.3061 48.5939 71.3061L46.7783 75.4925L51.5377 76.679C52.4231 76.9008 53.2908 77.1331 54.145 77.3519L52.6314 83.429L56.2846 84.3404L57.7835 78.3279C58.7814 78.5988 59.7502 78.8488 60.6981 79.0842L59.2044 85.0686L62.8617 85.98L64.3752 79.9144C70.6117 81.0946 75.3012 80.6185 77.2752 74.9779C78.8658 70.4363 77.196 67.8165 73.9148 66.1081C76.3044 65.5571 78.1044 63.9852 78.5846 60.7383ZM70.2283 72.4561C69.0981 76.9977 61.4512 74.5425 58.9721 73.9269L60.9804 65.8758C63.4596 66.4946 71.4096 67.7196 70.2283 72.4561ZM71.3596 60.6727C70.3283 64.804 63.9637 62.705 61.8992 62.1904L63.72 54.8883C65.7846 55.4029 72.4335 56.3633 71.3596 60.6727Z" fill="url(#paint13_linear_14800_610033)"/>
        <path d="M78.5846 59.1387C79.2481 54.7033 75.871 52.3189 71.2533 50.7283L72.7512 44.72L69.0939 43.8085L67.6356 49.6585C66.6742 49.4189 65.6867 49.1929 64.7054 48.9689L66.1742 43.0804L62.5189 42.1689L61.02 48.1752C60.2242 47.9939 59.4429 47.8148 58.6846 47.6262L58.6887 47.6075L53.645 46.3481L52.6721 50.2544C52.6721 50.2544 55.3856 50.8762 55.3283 50.9148C56.8096 51.2846 57.0773 52.2648 57.0325 53.0419L55.3262 59.8867C55.4283 59.9127 55.5606 59.9502 55.7064 60.0085C55.5846 59.9783 55.4544 59.945 55.32 59.9127L52.9283 69.5012C52.7471 69.9512 52.2877 70.6262 51.2523 70.37C51.2887 70.4231 48.5939 69.7064 48.5939 69.7064L46.7783 73.8929L51.5377 75.0794C52.4231 75.3012 53.2908 75.5335 54.145 75.7523L52.6314 81.8294L56.2846 82.7408L57.7835 76.7283C58.7814 76.9992 59.7502 77.2492 60.6981 77.4846L59.2044 83.4689L62.8617 84.3804L64.3752 78.3148C70.6117 79.495 75.3012 79.0189 77.2752 73.3783C78.8658 68.8367 77.196 66.2169 73.9148 64.5085C76.3044 63.9575 78.1044 62.3856 78.5846 59.1387ZM70.2283 70.8564C69.0981 75.3981 61.4512 72.9429 58.9721 72.3273L60.9804 64.2762C63.4596 64.895 71.4096 66.12 70.2283 70.8564ZM71.3596 59.0731C70.3283 63.2044 63.9637 61.1054 61.8992 60.5908L63.72 53.2887C65.7846 53.8033 72.4335 54.7637 71.3596 59.0731Z" fill="white"/>
        <path d="M78.5846 59.1387C79.2481 54.7033 75.871 52.3189 71.2533 50.7283L72.7512 44.72L69.0939 43.8085L67.6356 49.6585C66.6742 49.4189 65.6867 49.1929 64.7054 48.9689L66.1742 43.0804L62.5189 42.1689L61.02 48.1752C60.2242 47.9939 59.4429 47.8148 58.6846 47.6262L58.6887 47.6075L53.645 46.3481L52.6721 50.2544C52.6721 50.2544 55.3856 50.8762 55.3283 50.9148C56.8096 51.2846 57.0773 52.2648 57.0325 53.0419L55.3262 59.8867C55.4283 59.9127 55.5606 59.9502 55.7064 60.0085C55.5846 59.9783 55.4544 59.945 55.32 59.9127L52.9283 69.5012C52.7471 69.9512 52.2877 70.6262 51.2523 70.37C51.2887 70.4231 48.5939 69.7064 48.5939 69.7064L46.7783 73.8929L51.5377 75.0794C52.4231 75.3012 53.2908 75.5335 54.145 75.7523L52.6314 81.8294L56.2846 82.7408L57.7835 76.7283C58.7814 76.9992 59.7502 77.2492 60.6981 77.4846L59.2044 83.4689L62.8617 84.3804L64.3752 78.3148C70.6117 79.495 75.3012 79.0189 77.2752 73.3783C78.8658 68.8367 77.196 66.2169 73.9148 64.5085C76.3044 63.9575 78.1044 62.3856 78.5846 59.1387ZM70.2283 70.8564C69.0981 75.3981 61.4512 72.9429 58.9721 72.3273L60.9804 64.2762C63.4596 64.895 71.4096 66.12 70.2283 70.8564ZM71.3596 59.0731C70.3283 63.2044 63.9637 61.1054 61.8992 60.5908L63.72 53.2887C65.7846 53.8033 72.4335 54.7637 71.3596 59.0731Z" fill="url(#paint14_linear_14800_610033)"/>
        <path d="M78.5846 59.1387C79.2481 54.7033 75.871 52.3189 71.2533 50.7283L72.7512 44.72L69.0939 43.8085L67.6356 49.6585C66.6742 49.4189 65.6867 49.1929 64.7054 48.9689L66.1742 43.0804L62.5189 42.1689L61.02 48.1752C60.2242 47.9939 59.4429 47.8148 58.6846 47.6262L58.6887 47.6075L53.645 46.3481L52.6721 50.2544C52.6721 50.2544 55.3856 50.8762 55.3283 50.9148C56.8096 51.2846 57.0773 52.2648 57.0325 53.0419L55.3262 59.8867C55.4283 59.9127 55.5606 59.9502 55.7064 60.0085C55.5846 59.9783 55.4544 59.945 55.32 59.9127L52.9283 69.5012C52.7471 69.9512 52.2877 70.6262 51.2523 70.37C51.2887 70.4231 48.5939 69.7064 48.5939 69.7064L46.7783 73.8929L51.5377 75.0794C52.4231 75.3012 53.2908 75.5335 54.145 75.7523L52.6314 81.8294L56.2846 82.7408L57.7835 76.7283C58.7814 76.9992 59.7502 77.2492 60.6981 77.4846L59.2044 83.4689L62.8617 84.3804L64.3752 78.3148C70.6117 79.495 75.3012 79.0189 77.2752 73.3783C78.8658 68.8367 77.196 66.2169 73.9148 64.5085C76.3044 63.9575 78.1044 62.3856 78.5846 59.1387ZM70.2283 70.8564C69.0981 75.3981 61.4512 72.9429 58.9721 72.3273L60.9804 64.2762C63.4596 64.895 71.4096 66.12 70.2283 70.8564ZM71.3596 59.0731C70.3283 63.2044 63.9637 61.1054 61.8992 60.5908L63.72 53.2887C65.7846 53.8033 72.4335 54.7637 71.3596 59.0731Z" fill="url(#paint15_linear_14800_610033)"/>
        <path d="M66.1742 43.0804L64.7054 48.9689C65.4413 49.1369 66.1808 49.306 66.9101 49.4812L67.6356 49.6585L69.0939 43.8085L72.7512 44.72L71.2533 50.7283C75.871 52.3189 79.2481 54.7033 78.5846 59.1387C78.1044 62.3856 76.3044 63.9575 73.9148 64.5085C77.196 66.2169 78.8658 68.8367 77.2752 73.3783C75.3012 79.0189 70.6117 79.495 64.3752 78.3148L62.8617 84.3804L59.2044 83.4689L60.6981 77.4846C59.7502 77.2492 58.7814 76.9992 57.7835 76.7283L56.2846 82.7408L52.6314 81.8294L54.145 75.7523C53.2908 75.5335 52.4231 75.3012 51.5377 75.0794L46.7783 73.8929L48.5939 69.7064C48.5939 69.7064 51.2887 70.4231 51.2523 70.37C52.2877 70.6262 52.7471 69.9512 52.9283 69.5012L55.32 59.9127C55.4544 59.945 55.5846 59.9783 55.7064 60.0085C55.5606 59.9502 55.4283 59.9127 55.3262 59.8867L57.0325 53.0419C57.0773 52.2648 56.8096 51.2846 55.3283 50.9148C55.3856 50.8762 52.674 50.2548 52.6721 50.2544L53.645 46.3481L58.6887 47.6075L58.6846 47.6262C59.0637 47.7205 59.4486 47.8126 59.8382 47.9036L61.02 48.1752L62.5189 42.1689L66.1742 43.0804ZM61.4109 48.8111L60.9015 48.6952C60.1059 48.514 59.32 48.3336 58.5559 48.1437L58.051 48.0184L58.0551 47.9989L54.0333 46.9947L53.3202 49.8572C53.5589 49.9128 53.8528 49.9816 54.1455 50.0515C54.4818 50.1318 54.8196 50.2141 55.071 50.2791C55.1954 50.3113 55.305 50.3409 55.3843 50.3648C55.4208 50.3758 55.4658 50.3899 55.5054 50.4057C55.5097 50.4074 55.52 50.4116 55.534 50.4179C56.3385 50.6343 56.8799 51.0306 57.2031 51.5398C57.5292 52.0537 57.5913 52.6162 57.565 53.0726L57.5622 53.1223L57.5499 53.1708L55.8437 60.0156L55.7499 59.9921L55.7419 60.0179L55.8374 60.0419L53.4458 69.6304L53.4369 69.6661L53.4231 69.7005C53.3129 69.9741 53.1033 70.3579 52.7231 70.6327C52.3353 70.9131 51.8237 71.0399 51.1989 70.9041C51.1789 70.9026 51.1644 70.9009 51.159 70.9002C51.1207 70.8952 51.0774 70.8867 51.0406 70.8791C50.9614 70.8627 50.852 70.8373 50.7273 70.8072C50.4755 70.7465 50.1387 70.6611 49.8036 70.5747C49.4775 70.4906 49.1506 70.4048 48.9007 70.339L47.5179 73.5275L51.6666 74.5619H51.6674C52.5523 74.7837 53.4328 75.0194 54.2773 75.2356L54.7906 75.3671L53.2775 81.4408L55.896 82.0942L57.3979 76.071L57.9231 76.2137C58.9169 76.4834 59.8821 76.7323 60.8268 76.9669L61.345 77.0958L59.851 83.0804L62.4731 83.7338L63.9796 77.6971L64.4744 77.7908C67.5746 78.3775 70.1982 78.5313 72.2669 77.8947C74.2872 77.273 75.8349 75.8794 76.7718 73.2023C77.5375 71.016 77.4922 69.3714 76.9333 68.0947C76.3712 66.811 75.2487 65.8044 73.6684 64.9817L72.3859 64.3137L73.795 63.9887C74.9089 63.7319 75.8538 63.2453 76.5755 62.471C77.2967 61.6972 77.8294 60.599 78.057 59.0606L78.0572 59.0598C78.3629 57.0166 77.7465 55.478 76.5208 54.2424C75.2685 52.98 73.3623 52.0188 71.0796 51.2325L70.6176 51.0734L72.1046 45.1083L69.4822 44.4549L68.0242 50.3049L67.5067 50.176C66.5511 49.9379 65.5685 49.7131 64.5867 49.489L64.0562 49.3679L65.5275 43.4687L62.9072 42.8153L61.4109 48.8111ZM61.1096 63.7588C62.2952 64.0547 64.9888 64.5344 67.1973 65.5367C68.3061 66.0399 69.3561 66.7003 70.0505 67.5887C70.7643 68.502 71.0828 69.6341 70.7458 70.9856C70.4195 72.2963 69.6065 73.119 68.5546 73.5778C67.5304 74.0245 66.2953 74.1219 65.0783 74.0585C62.6488 73.932 60.0433 73.1429 58.8434 72.845L58.3255 72.7163L60.5921 63.6296L61.1096 63.7588ZM58.9721 72.3273C61.4512 72.9429 69.0981 75.3981 70.2283 70.8564C71.4096 66.12 63.4596 64.895 60.9804 64.2762L58.9721 72.3273ZM63.8489 52.7713C64.8219 53.0138 67.0951 53.4025 68.9445 54.2755C69.876 54.7152 70.7631 55.3039 71.3429 56.113C71.9395 56.9455 72.1829 57.9745 71.877 59.202C71.5798 60.3926 70.8813 61.1621 69.9697 61.6051C69.0838 62.0357 68.0269 62.145 66.9973 62.1072C64.9468 62.0319 62.7588 61.3547 61.7702 61.1083L61.2525 60.9794L63.3314 52.6424L63.8489 52.7713ZM61.8992 60.5908C63.9637 61.1054 70.3283 63.2044 71.3596 59.0731C72.4335 54.7637 65.7846 53.8033 63.72 53.2887L61.8992 60.5908Z" fill="url(#paint16_linear_14800_610033)"/>
    </g>
    <defs>
        <linearGradient id="paint0_linear_14800_610033" x1="33.3356" y1="0" x2="33.3356" y2="66.6673" gradientUnits="userSpaceOnUse">
            <stop stop-color="#F7BC1A"/>
            <stop offset="1" stop-color="#FF7700"/>
        </linearGradient>
        <linearGradient id="paint1_linear_14800_610033" x1="33.3356" y1="0" x2="33.3356" y2="66.6673" gradientUnits="userSpaceOnUse">
            <stop stop-color="#F7BC1A"/>
            <stop offset="1" stop-color="#FF6A00"/>
        </linearGradient>
        <linearGradient id="paint2_linear_14800_610033" x1="33.3356" y1="0" x2="33.3356" y2="66.6673" gradientUnits="userSpaceOnUse">
            <stop offset="0.725084" stop-color="#C94701" stop-opacity="0"/>
            <stop offset="1" stop-color="#C94701" stop-opacity="0.3"/>
        </linearGradient>
        <linearGradient id="paint3_linear_14800_610033" x1="33.3356" y1="9.32637e-05" x2="33.3356" y2="66.6674" gradientUnits="userSpaceOnUse">
            <stop stop-color="#FFE091"/>
            <stop offset="1" stop-color="#FF9735"/>
        </linearGradient>
        <linearGradient id="paint4_linear_14800_610033" x1="33.3356" y1="9.32637e-05" x2="33.3356" y2="66.6674" gradientUnits="userSpaceOnUse">
            <stop offset="0.85" stop-color="#FFA54D" stop-opacity="0"/>
            <stop offset="1" stop-color="#FFA54D"/>
        </linearGradient>
        <linearGradient id="paint5_linear_14800_610033" x1="33.3356" y1="9.32637e-05" x2="33.3356" y2="66.6674" gradientUnits="userSpaceOnUse">
            <stop stop-color="#FFF3DA"/>
            <stop offset="0.15" stop-color="#FFF3DA" stop-opacity="0"/>
        </linearGradient>
        <linearGradient id="paint6_linear_14800_610033" x1="32.2782" y1="15.333" x2="32.2782" y2="56.6663" gradientUnits="userSpaceOnUse">
            <stop stop-color="#F89A02"/>
            <stop offset="1" stop-color="#F56600"/>
        </linearGradient>
        <linearGradient id="paint7_linear_14800_610033" x1="32.2782" y1="12.667" x2="32.2782" y2="54.0003" gradientUnits="userSpaceOnUse">
            <stop stop-color="white"/>
            <stop offset="1" stop-color="#FEEABD"/>
        </linearGradient>
        <linearGradient id="paint8_linear_14800_610033" x1="63.889" y1="30.5557" x2="63.889" y2="97.223" gradientUnits="userSpaceOnUse">
            <stop stop-color="#F7BC1A"/>
            <stop offset="1" stop-color="#FF6A00"/>
        </linearGradient>
        <linearGradient id="paint9_linear_14800_610033" x1="63.889" y1="30.5557" x2="63.889" y2="97.223" gradientUnits="userSpaceOnUse">
            <stop offset="0.725084" stop-color="#C94701" stop-opacity="0"/>
            <stop offset="1" stop-color="#C94701" stop-opacity="0.3"/>
        </linearGradient>
        <linearGradient id="paint10_linear_14800_610033" x1="63.889" y1="30.5558" x2="63.889" y2="97.2231" gradientUnits="userSpaceOnUse">
            <stop stop-color="#FFE091"/>
            <stop offset="1" stop-color="#FF9735"/>
        </linearGradient>
        <linearGradient id="paint11_linear_14800_610033" x1="63.889" y1="30.5558" x2="63.889" y2="97.2231" gradientUnits="userSpaceOnUse">
            <stop offset="0.85" stop-color="#FFA54D" stop-opacity="0"/>
            <stop offset="1" stop-color="#FFA54D"/>
        </linearGradient>
        <linearGradient id="paint12_linear_14800_610033" x1="63.889" y1="30.5558" x2="63.889" y2="97.2231" gradientUnits="userSpaceOnUse">
            <stop stop-color="#FFF3DA"/>
            <stop offset="0.15" stop-color="#FFF3DA" stop-opacity="0"/>
        </linearGradient>
        <linearGradient id="paint13_linear_14800_610033" x1="62.7231" y1="43.7686" x2="62.7231" y2="85.98" gradientUnits="userSpaceOnUse">
            <stop stop-color="#F89A02"/>
            <stop offset="1" stop-color="#F56600"/>
        </linearGradient>
        <linearGradient id="paint14_linear_14800_610033" x1="62.7231" y1="42.1689" x2="62.7231" y2="84.3804" gradientUnits="userSpaceOnUse">
            <stop stop-color="white"/>
            <stop offset="1" stop-color="#FFF1CF"/>
        </linearGradient>
        <linearGradient id="paint15_linear_14800_610033" x1="62.7231" y1="42.1689" x2="62.7231" y2="84.3804" gradientUnits="userSpaceOnUse">
            <stop stop-color="white"/>
            <stop offset="1" stop-color="#FEEABD"/>
        </linearGradient>
        <linearGradient id="paint16_linear_14800_610033" x1="62.7231" y1="42.1689" x2="62.7231" y2="84.3804" gradientUnits="userSpaceOnUse">
            <stop stop-color="white"/>
            <stop offset="1" stop-color="white"/>
        </linearGradient>
        <clipPath id="clip0_14800_610033">
            <rect width="100" height="100" fill="white"/>
        </clipPath>
    </defs>
</svg>
