<svg width="100" height="100" viewBox="0 0 100 100" fill="none" xmlns="http://www.w3.org/2000/svg">
    <g clip-path="url(#clip0_14122_282626)">
        <g opacity="0.5">
            <path d="M65.6689 41.3975C61.2164 59.2548 43.128 70.1225 25.2667 65.6694C7.41273 61.2173 -3.45614 43.1298 0.998503 25.2735C5.44898 7.41416 23.5374 -3.45459 41.3934 0.997495C59.2537 5.44958 70.1215 23.5392 65.6689 41.3975Z" fill="url(#paint0_linear_14122_282626)"/>
            <path d="M65.6689 41.3975C61.2164 59.2548 43.128 70.1225 25.2667 65.6694C7.41273 61.2173 -3.45614 43.1298 0.998503 25.2735C5.44898 7.41416 23.5374 -3.45459 41.3934 0.997495C59.2537 5.44958 70.1215 23.5392 65.6689 41.3975Z" fill="url(#paint1_linear_14122_282626)"/>
            <path d="M0.998503 25.2735C5.44902 7.41421 23.5374 -3.45458 41.3934 0.997489C59.2536 5.44957 70.1214 23.5392 65.669 41.3975L65.5622 41.8149C60.9703 59.2852 43.2701 69.9194 25.6853 65.7709L25.2667 65.6693C7.41273 61.2173 -3.45614 43.1298 0.998503 25.2735ZM41.0708 2.29124C23.9295 -1.9826 6.56484 8.45112 2.29239 25.5959V25.5964C-1.98393 42.7381 8.44993 60.1016 25.5892 64.3756C42.7359 68.6506 60.1007 58.2178 64.3751 41.0751C68.6495 23.9311 58.2162 6.56514 41.0708 2.29124Z" fill="url(#paint2_linear_14122_282626)"/>
            <path d="M0.998503 25.2735C5.44902 7.41421 23.5374 -3.45458 41.3934 0.997489C59.2536 5.44957 70.1214 23.5392 65.669 41.3975L65.5622 41.8149C60.9703 59.2852 43.2701 69.9194 25.6853 65.7709L25.2667 65.6693C7.41273 61.2173 -3.45614 43.1298 0.998503 25.2735ZM41.0708 2.29124C23.9295 -1.9826 6.56484 8.45112 2.29239 25.5959V25.5964C-1.98393 42.7381 8.44993 60.1016 25.5892 64.3756C42.7359 68.6506 60.1007 58.2178 64.3751 41.0751C68.6495 23.9311 58.2162 6.56514 41.0708 2.29124Z" fill="url(#paint3_linear_14122_282626)"/>
            <path d="M0.998503 25.2735C5.44902 7.41421 23.5374 -3.45458 41.3934 0.997489C59.2536 5.44957 70.1214 23.5392 65.669 41.3975L65.5622 41.8149C60.9703 59.2852 43.2701 69.9194 25.6853 65.7709L25.2667 65.6693C7.41273 61.2173 -3.45614 43.1298 0.998503 25.2735ZM41.0708 2.29124C23.9295 -1.9826 6.56484 8.45112 2.29239 25.5959V25.5964C-1.98393 42.7381 8.44993 60.1016 25.5892 64.3756C42.7359 68.6506 60.1007 58.2178 64.3751 41.0751C68.6495 23.9311 58.2162 6.56514 41.0708 2.29124Z" fill="url(#paint4_linear_14122_282626)"/>
            <path d="M48.0289 30.1837C48.6924 25.7482 45.3154 23.3639 40.6977 21.7732L42.1956 15.7649L38.5383 14.8535L37.0799 20.7035C36.1185 20.4639 35.131 20.2378 34.1497 20.0139L35.6185 14.1253L31.9633 13.2139L30.4643 19.2201C29.6685 19.0389 28.8872 18.8597 28.1289 18.6712L28.1331 18.6524L23.0893 17.393L22.1164 21.2993C22.1164 21.2993 24.8299 21.9212 24.7727 21.9597C26.2539 22.3295 26.5216 23.3097 26.4768 24.0868L24.7706 30.9316C24.8727 30.9576 25.0049 30.9951 25.1508 31.0534C25.0289 31.0232 24.8987 30.9899 24.7643 30.9576L22.3727 40.5462C22.1914 40.9962 21.732 41.6712 20.6966 41.4149C20.7331 41.468 18.0383 40.7514 18.0383 40.7514L16.2227 44.9378L20.982 46.1243C21.8674 46.3462 22.7352 46.5784 23.5893 46.7972L22.0758 52.8743L25.7289 53.7857L27.2279 47.7732C28.2258 48.0441 29.1945 48.2941 30.1424 48.5295L28.6487 54.5139L32.306 55.4253L33.8195 49.3597C40.056 50.5399 44.7456 50.0639 46.7195 44.4232C48.3102 39.8816 46.6404 37.2618 43.3591 35.5534C45.7487 35.0024 47.5487 33.4305 48.0289 30.1837ZM39.6727 41.9014C38.5424 46.443 30.8956 43.9878 28.4164 43.3722L30.4247 35.3212C32.9039 35.9399 40.8539 37.1649 39.6727 41.9014ZM40.8039 30.118C39.7727 34.2493 33.4081 32.1503 31.3435 31.6357L33.1643 24.3337C35.2289 24.8482 41.8779 25.8087 40.8039 30.118Z" fill="url(#paint5_linear_14122_282626)"/>
            <path d="M48.0289 28.5836C48.6924 24.1481 45.3154 21.7638 40.6977 20.1731L42.1956 14.1648L38.5383 13.2534L37.0799 19.1034C36.1185 18.8638 35.131 18.6377 34.1497 18.4138L35.6185 12.5252L31.9633 11.6138L30.4643 17.62C29.6685 17.4388 28.8872 17.2596 28.1289 17.0711L28.1331 17.0523L23.0893 15.7929L22.1164 19.6992C22.1164 19.6992 24.8299 20.3211 24.7727 20.3596C26.2539 20.7294 26.5216 21.7096 26.4768 22.4867L24.7706 29.3315C24.8727 29.3575 25.0049 29.395 25.1508 29.4534C25.0289 29.4231 24.8987 29.3898 24.7643 29.3575L22.3727 38.9461C22.1914 39.3961 21.732 40.0711 20.6966 39.8148C20.7331 39.8679 18.0383 39.1513 18.0383 39.1513L16.2227 43.3377L20.982 44.5242C21.8674 44.7461 22.7352 44.9784 23.5893 45.1971L22.0758 51.2742L25.7289 52.1856L27.2279 46.1731C28.2258 46.444 29.1945 46.694 30.1424 46.9294L28.6487 52.9138L32.306 53.8252L33.8195 47.7596C40.056 48.9398 44.7456 48.4638 46.7195 42.8231C48.3102 38.2815 46.6404 35.6617 43.3591 33.9534C45.7487 33.4023 47.5487 31.8304 48.0289 28.5836ZM39.6727 40.3013C38.5424 44.8429 30.8956 42.3877 28.4164 41.7721L30.4247 33.7211C32.9039 34.3398 40.8539 35.5648 39.6727 40.3013ZM40.8039 28.5179C39.7727 32.6492 33.4081 30.5502 31.3435 30.0356L33.1643 22.7336C35.2289 23.2481 41.8779 24.2086 40.8039 28.5179Z" fill="white"/>
            <path d="M48.0289 28.5836C48.6924 24.1481 45.3154 21.7638 40.6977 20.1731L42.1956 14.1648L38.5383 13.2534L37.0799 19.1034C36.1185 18.8638 35.131 18.6377 34.1497 18.4138L35.6185 12.5252L31.9633 11.6138L30.4643 17.62C29.6685 17.4388 28.8872 17.2596 28.1289 17.0711L28.1331 17.0523L23.0893 15.7929L22.1164 19.6992C22.1164 19.6992 24.8299 20.3211 24.7727 20.3596C26.2539 20.7294 26.5216 21.7096 26.4768 22.4867L24.7706 29.3315C24.8727 29.3575 25.0049 29.395 25.1508 29.4534C25.0289 29.4231 24.8987 29.3898 24.7643 29.3575L22.3727 38.9461C22.1914 39.3961 21.732 40.0711 20.6966 39.8148C20.7331 39.8679 18.0383 39.1513 18.0383 39.1513L16.2227 43.3377L20.982 44.5242C21.8674 44.7461 22.7352 44.9784 23.5893 45.1971L22.0758 51.2742L25.7289 52.1856L27.2279 46.1731C28.2258 46.444 29.1945 46.694 30.1424 46.9294L28.6487 52.9138L32.306 53.8252L33.8195 47.7596C40.056 48.9398 44.7456 48.4638 46.7195 42.8231C48.3102 38.2815 46.6404 35.6617 43.3591 33.9534C45.7487 33.4023 47.5487 31.8304 48.0289 28.5836ZM39.6727 40.3013C38.5424 44.8429 30.8956 42.3877 28.4164 41.7721L30.4247 33.7211C32.9039 34.3398 40.8539 35.5648 39.6727 40.3013ZM40.8039 28.5179C39.7727 32.6492 33.4081 30.5502 31.3435 30.0356L33.1643 22.7336C35.2289 23.2481 41.8779 24.2086 40.8039 28.5179Z" fill="url(#paint6_linear_14122_282626)"/>
            <path d="M48.0289 28.5836C48.6924 24.1481 45.3154 21.7638 40.6977 20.1731L42.1956 14.1648L38.5383 13.2534L37.0799 19.1034C36.1185 18.8638 35.131 18.6377 34.1497 18.4138L35.6185 12.5252L31.9633 11.6138L30.4643 17.62C29.6685 17.4388 28.8872 17.2596 28.1289 17.0711L28.1331 17.0523L23.0893 15.7929L22.1164 19.6992C22.1164 19.6992 24.8299 20.3211 24.7727 20.3596C26.2539 20.7294 26.5216 21.7096 26.4768 22.4867L24.7706 29.3315C24.8727 29.3575 25.0049 29.395 25.1508 29.4534C25.0289 29.4231 24.8987 29.3898 24.7643 29.3575L22.3727 38.9461C22.1914 39.3961 21.732 40.0711 20.6966 39.8148C20.7331 39.8679 18.0383 39.1513 18.0383 39.1513L16.2227 43.3377L20.982 44.5242C21.8674 44.7461 22.7352 44.9784 23.5893 45.1971L22.0758 51.2742L25.7289 52.1856L27.2279 46.1731C28.2258 46.444 29.1945 46.694 30.1424 46.9294L28.6487 52.9138L32.306 53.8252L33.8195 47.7596C40.056 48.9398 44.7456 48.4638 46.7195 42.8231C48.3102 38.2815 46.6404 35.6617 43.3591 33.9534C45.7487 33.4023 47.5487 31.8304 48.0289 28.5836ZM39.6727 40.3013C38.5424 44.8429 30.8956 42.3877 28.4164 41.7721L30.4247 33.7211C32.9039 34.3398 40.8539 35.5648 39.6727 40.3013ZM40.8039 28.5179C39.7727 32.6492 33.4081 30.5502 31.3435 30.0356L33.1643 22.7336C35.2289 23.2481 41.8779 24.2086 40.8039 28.5179Z" fill="url(#paint7_linear_14122_282626)"/>
            <path d="M35.6185 12.5252L34.1497 18.4138C34.8857 18.5817 35.6251 18.7509 36.3544 18.926L37.0799 19.1034L38.5383 13.2534L42.1956 14.1648L40.6977 20.1731C45.3154 21.7638 48.6924 24.1481 48.0289 28.5836C47.5487 31.8304 45.7487 33.4023 43.3591 33.9534C46.6404 35.6617 48.3102 38.2815 46.7195 42.8231C44.7456 48.4638 40.056 48.9398 33.8195 47.7596L32.306 53.8252L28.6487 52.9138L30.1424 46.9294C29.1945 46.694 28.2258 46.444 27.2279 46.1731L25.7289 52.1856L22.0758 51.2742L23.5893 45.1971C22.7352 44.9784 21.8674 44.7461 20.982 44.5242L16.2227 43.3377L18.0383 39.1513C18.0383 39.1513 20.7331 39.8679 20.6966 39.8148C21.732 40.0711 22.1914 39.3961 22.3727 38.9461L24.7643 29.3575C24.8987 29.3898 25.0289 29.4231 25.1508 29.4534C25.0049 29.395 24.8727 29.3575 24.7706 29.3315L26.4768 22.4867C26.5216 21.7096 26.2539 20.7294 24.7727 20.3596C24.8299 20.3211 22.1184 19.6996 22.1164 19.6992L23.0893 15.7929L28.1331 17.0523L28.1289 17.0711C28.5081 17.1653 28.893 17.2574 29.2826 17.3484L30.4643 17.62L31.9633 11.6138L35.6185 12.5252ZM30.8552 18.256L30.3458 18.1401C29.5502 17.9589 28.7643 17.7785 28.0003 17.5885L27.4953 17.4632L27.4995 17.4437L23.4776 16.4396L22.7646 19.3021C23.0032 19.3576 23.2971 19.4264 23.5898 19.4963C23.9261 19.5766 24.264 19.6589 24.5154 19.7239C24.6397 19.7561 24.7494 19.7857 24.8286 19.8096C24.8651 19.8206 24.9101 19.8347 24.9497 19.8505C24.954 19.8522 24.9643 19.8564 24.9784 19.8627C25.7828 20.0791 26.3243 20.4754 26.6474 20.9846C26.9735 21.4985 27.0357 22.061 27.0094 22.5174L27.0065 22.5672L26.9943 22.6156L25.288 29.4604L25.1943 29.4369L25.1862 29.4627L25.2818 29.4867L22.8901 39.0752L22.8812 39.1109L22.8674 39.1453C22.7572 39.419 22.5476 39.8027 22.1674 40.0776C21.7796 40.358 21.268 40.4848 20.6432 40.3489C20.6232 40.3474 20.6088 40.3457 20.6034 40.345C20.5651 40.34 20.5217 40.3315 20.4849 40.3239C20.4057 40.3076 20.2964 40.2821 20.1716 40.252C19.9199 40.1913 19.583 40.1059 19.2479 40.0195C18.9218 39.9354 18.595 39.8496 18.3451 39.7838L16.9622 42.9724L21.1109 44.0067H21.1117C21.9966 44.2285 22.8772 44.4642 23.7216 44.6804L24.2349 44.8119L22.7219 50.8856L25.3404 51.539L26.8422 45.5159L27.3674 45.6586C28.3612 45.9283 29.3264 46.1771 30.2711 46.4117L30.7893 46.5406L29.2953 52.5252L31.9174 53.1786L33.424 47.1419L33.9187 47.2356C37.0189 47.8223 39.6425 47.9761 41.7112 47.3396C43.7316 46.7178 45.2792 45.3243 46.2161 42.6471C46.9818 40.4608 46.9366 38.8163 46.3776 37.5395C45.8155 36.2558 44.693 35.2493 43.1128 34.4265L41.8302 33.7586L43.2393 33.4336C44.3532 33.1767 45.2981 32.6901 46.0198 31.9159C46.741 31.142 47.2738 30.0439 47.5013 28.5054L47.5016 28.5047C47.8072 26.4614 47.1908 24.9228 45.9651 23.6872C44.7129 22.4249 42.8067 21.4636 40.524 20.6773L40.062 20.5182L41.549 14.5531L38.9266 13.8997L37.4685 19.7497L36.951 19.6208C35.9955 19.3827 35.0128 19.1579 34.031 18.9338L33.5005 18.8127L34.9719 12.9135L32.3516 12.2601L30.8552 18.256ZM30.5539 33.2036C31.7395 33.4995 34.4332 33.9792 36.6417 34.9815C37.7505 35.4847 38.8004 36.1452 39.4948 37.0336C40.2086 37.9469 40.5272 39.0789 40.1901 40.4304C39.8638 41.7411 39.0508 42.5639 37.999 43.0226C36.9747 43.4693 35.7396 43.5667 34.5227 43.5034C32.0931 43.3768 29.4876 42.5878 28.2878 42.2898L27.7698 42.1612L30.0365 33.0744L30.5539 33.2036ZM28.4164 41.7721C30.8956 42.3877 38.5424 44.8429 39.6727 40.3013C40.8539 35.5648 32.9039 34.3398 30.4247 33.7211L28.4164 41.7721ZM33.2932 22.2161C34.2662 22.4586 36.5394 22.8473 38.3888 23.7203C39.3203 24.16 40.2074 24.7487 40.7872 25.5578C41.3838 26.3903 41.6272 27.4193 41.3214 28.6468C41.0242 29.8374 40.3257 30.6069 39.4141 31.05C38.5281 31.4805 37.4712 31.5899 36.4417 31.552C34.3912 31.4767 32.2032 30.7995 31.2146 30.5531L30.6969 30.4242L32.7758 22.0872L33.2932 22.2161ZM31.3435 30.0356C33.4081 30.5502 39.7727 32.6492 40.8039 28.5179C41.8779 24.2086 35.2289 23.2481 33.1643 22.7336L31.3435 30.0356Z" fill="url(#paint8_linear_14122_282626)"/>
        </g>
        <path d="M96.2225 71.9527C91.7704 89.81 73.6839 100.678 55.8246 96.2245C37.9725 91.7725 27.1048 73.685 31.5589 55.8287C36.0089 37.9693 54.0954 27.1006 71.9496 31.5527C89.8079 36.0048 100.675 54.0943 96.2225 71.9527Z" fill="#F7931A"/>
        <path d="M96.2225 71.9527C91.7704 89.81 73.6839 100.678 55.8246 96.2245C37.9725 91.7725 27.1048 73.685 31.5589 55.8287C36.0089 37.9693 54.0954 27.1006 71.9496 31.5527C89.8079 36.0048 100.675 54.0943 96.2225 71.9527Z" fill="url(#paint9_linear_14122_282626)"/>
        <path d="M96.2225 71.9527C91.7704 89.81 73.6839 100.678 55.8246 96.2245C37.9725 91.7725 27.1048 73.685 31.5589 55.8287C36.0089 37.9693 54.0954 27.1006 71.9496 31.5527C89.8079 36.0048 100.675 54.0943 96.2225 71.9527Z" fill="url(#paint10_linear_14122_282626)"/>
        <path d="M96.2225 71.9527C91.7704 89.81 73.6839 100.678 55.8246 96.2245C37.9725 91.7725 27.1048 73.685 31.5589 55.8287C36.0089 37.9693 54.0954 27.1006 71.9496 31.5527C89.8079 36.0048 100.675 54.0943 96.2225 71.9527Z" fill="url(#paint11_linear_14122_282626)"/>
        <path d="M31.5589 55.8287C36.009 37.9694 54.0954 27.1006 71.9496 31.5527C89.8079 36.0047 100.675 54.0944 96.2225 71.9526L96.1157 72.3701C91.5243 89.8403 73.8261 100.475 56.2431 96.3261L55.8246 96.2245C37.9725 91.7724 27.1048 73.6849 31.5589 55.8287ZM71.6269 32.8464C54.4875 28.5726 37.1247 39.0063 32.8527 56.1511V56.1516C28.5768 73.2933 39.0096 90.6568 56.147 94.9308C73.2919 99.2057 90.6548 88.7729 94.9288 71.6303C99.2028 54.4862 88.7706 37.1203 71.6269 32.8464Z" fill="url(#paint12_linear_14122_282626)"/>
        <path d="M31.5589 55.8287C36.009 37.9694 54.0954 27.1006 71.9496 31.5527C89.8079 36.0047 100.675 54.0944 96.2225 71.9526L96.1157 72.3701C91.5243 89.8403 73.8261 100.475 56.2431 96.3261L55.8246 96.2245C37.9725 91.7724 27.1048 73.6849 31.5589 55.8287ZM71.6269 32.8464C54.4875 28.5726 37.1247 39.0063 32.8527 56.1511V56.1516C28.5768 73.2933 39.0096 90.6568 56.147 94.9308C73.2919 99.2057 90.6548 88.7729 94.9288 71.6303C99.2028 54.4862 88.7706 37.1203 71.6269 32.8464Z" fill="url(#paint13_linear_14122_282626)"/>
        <path d="M31.5589 55.8287C36.009 37.9694 54.0954 27.1006 71.9496 31.5527C89.8079 36.0047 100.675 54.0944 96.2225 71.9526L96.1157 72.3701C91.5243 89.8403 73.8261 100.475 56.2431 96.3261L55.8246 96.2245C37.9725 91.7724 27.1048 73.6849 31.5589 55.8287ZM71.6269 32.8464C54.4875 28.5726 37.1247 39.0063 32.8527 56.1511V56.1516C28.5768 73.2933 39.0096 90.6568 56.147 94.9308C73.2919 99.2057 90.6548 88.7729 94.9288 71.6303C99.2028 54.4862 88.7706 37.1203 71.6269 32.8464Z" fill="url(#paint14_linear_14122_282626)"/>
        <path d="M46.5197 67.6513L71.4536 46.1656C72.5401 45.4698 73.5757 46.1656 72.9126 47.3592L64.9549 63.0094H79.146C79.146 63.0094 81.4007 63.0094 79.146 64.8662L54.61 86.4844C52.8858 87.9434 51.6922 87.1476 52.8858 84.8929L60.5782 69.6408H46.5197C46.5197 69.6408 44.265 69.6408 46.5197 67.6513Z" fill="url(#paint15_linear_14122_282626)"/>
        <path d="M46.5197 64.9843L71.4537 43.4986C72.5401 42.8028 73.5757 43.4986 72.9126 44.6922L64.9549 60.3424H79.146C79.146 60.3424 81.4007 60.3424 79.146 62.1992L54.61 83.8175C52.8858 85.2764 51.6922 84.4806 52.8858 82.2259L60.5782 66.9738H46.5197C46.5197 66.9738 44.265 66.9738 46.5197 64.9843Z" fill="url(#paint16_linear_14122_282626)"/>
        <path d="M71.4538 43.4985C72.5402 42.8028 73.5757 43.4987 72.9126 44.6922L64.9548 60.3425H79.146C79.146 60.3425 81.4006 60.3425 79.146 62.1993L54.61 83.8175L54.5295 83.8842C52.8491 85.2511 51.7108 84.4453 52.8858 82.2258L60.5782 66.9738H46.5197L46.4272 66.9699C46.0337 66.9431 44.5992 66.7328 46.4173 65.0761L46.5197 64.9844L71.4538 43.4985ZM72.5173 43.812C72.4477 43.7593 72.184 43.6755 71.7684 43.931L46.8678 65.3883C46.3248 65.8682 46.1255 66.1691 46.0673 66.323C46.064 66.3316 46.0619 66.3394 46.0598 66.3462C46.1033 66.369 46.1815 66.3974 46.2952 66.4175C46.3602 66.429 46.4201 66.4349 46.4634 66.4378C46.4846 66.4393 46.501 66.4399 46.5111 66.4402C46.5161 66.4403 46.5194 66.4404 46.521 66.4404H61.4444L53.3621 82.4662L53.3595 82.4709L53.3572 82.4756C53.0784 83.0022 52.962 83.4021 52.9407 83.6727C52.9303 83.8059 52.944 83.8923 52.96 83.9422C52.9749 83.9887 52.9903 84.0006 52.9915 84.0016C52.9934 84.0032 53.0075 84.0146 53.0517 84.0196C53.1005 84.0251 53.1818 84.0218 53.2996 83.9883C53.5387 83.9204 53.8703 83.7446 54.2655 83.4102L78.7934 61.799L78.8001 61.793L78.8069 61.7876C79.3186 61.3662 79.5208 61.0955 79.5892 60.9537C79.5417 60.9347 79.4708 60.9133 79.3764 60.8977C79.31 60.8868 79.249 60.881 79.2048 60.8782C79.183 60.8768 79.166 60.8761 79.1556 60.8758H64.0853L72.4371 44.4506L72.4415 44.4417L72.4462 44.4331C72.5745 44.2022 72.5943 44.0424 72.5861 43.954C72.5786 43.8743 72.5489 43.836 72.5173 43.812Z" fill="white"/>
    </g>
    <defs>
        <linearGradient id="paint0_linear_14122_282626" x1="33.3333" y1="0" x2="33.3333" y2="66.6673" gradientUnits="userSpaceOnUse">
            <stop stop-color="#F7BC1A"/>
            <stop offset="1" stop-color="#FF6A00"/>
        </linearGradient>
        <linearGradient id="paint1_linear_14122_282626" x1="33.3333" y1="0" x2="33.3333" y2="66.6673" gradientUnits="userSpaceOnUse">
            <stop offset="0.725084" stop-color="#C94701" stop-opacity="0"/>
            <stop offset="1" stop-color="#C94701" stop-opacity="0.3"/>
        </linearGradient>
        <linearGradient id="paint2_linear_14122_282626" x1="33.3333" y1="9.32637e-05" x2="33.3333" y2="66.6674" gradientUnits="userSpaceOnUse">
            <stop stop-color="#FFE091"/>
            <stop offset="1" stop-color="#FF9735"/>
        </linearGradient>
        <linearGradient id="paint3_linear_14122_282626" x1="33.3333" y1="9.32637e-05" x2="33.3333" y2="66.6674" gradientUnits="userSpaceOnUse">
            <stop offset="0.85" stop-color="#FFA54D" stop-opacity="0"/>
            <stop offset="1" stop-color="#FFA54D"/>
        </linearGradient>
        <linearGradient id="paint4_linear_14122_282626" x1="33.3333" y1="9.32637e-05" x2="33.3333" y2="66.6674" gradientUnits="userSpaceOnUse">
            <stop stop-color="#FFF3DA"/>
            <stop offset="0.15" stop-color="#FFF3DA" stop-opacity="0"/>
        </linearGradient>
        <linearGradient id="paint5_linear_14122_282626" x1="32.1674" y1="13.2139" x2="32.1674" y2="55.4253" gradientUnits="userSpaceOnUse">
            <stop stop-color="#F89A02"/>
            <stop offset="1" stop-color="#F56600"/>
        </linearGradient>
        <linearGradient id="paint6_linear_14122_282626" x1="32.1675" y1="11.6138" x2="32.1675" y2="53.8252" gradientUnits="userSpaceOnUse">
            <stop stop-color="white"/>
            <stop offset="1" stop-color="#FFF1CF"/>
        </linearGradient>
        <linearGradient id="paint7_linear_14122_282626" x1="32.1675" y1="11.6138" x2="32.1675" y2="53.8252" gradientUnits="userSpaceOnUse">
            <stop stop-color="white"/>
            <stop offset="1" stop-color="#FEEABD"/>
        </linearGradient>
        <linearGradient id="paint8_linear_14122_282626" x1="32.1675" y1="11.6138" x2="32.1675" y2="53.8252" gradientUnits="userSpaceOnUse">
            <stop stop-color="white"/>
            <stop offset="1" stop-color="white"/>
        </linearGradient>
        <linearGradient id="paint9_linear_14122_282626" x1="63.8903" y1="30.5552" x2="63.8903" y2="97.2225" gradientUnits="userSpaceOnUse">
            <stop stop-color="#F7BC1A"/>
            <stop offset="1" stop-color="#FF7700"/>
        </linearGradient>
        <linearGradient id="paint10_linear_14122_282626" x1="63.8903" y1="30.5552" x2="63.8903" y2="97.2225" gradientUnits="userSpaceOnUse">
            <stop stop-color="#F7BC1A"/>
            <stop offset="1" stop-color="#FF6A00"/>
        </linearGradient>
        <linearGradient id="paint11_linear_14122_282626" x1="63.8903" y1="30.5552" x2="63.8903" y2="97.2225" gradientUnits="userSpaceOnUse">
            <stop offset="0.725084" stop-color="#C94701" stop-opacity="0"/>
            <stop offset="1" stop-color="#C94701" stop-opacity="0.3"/>
        </linearGradient>
        <linearGradient id="paint12_linear_14122_282626" x1="63.8903" y1="30.5553" x2="63.8903" y2="97.2226" gradientUnits="userSpaceOnUse">
            <stop stop-color="#FFE091"/>
            <stop offset="1" stop-color="#FF9735"/>
        </linearGradient>
        <linearGradient id="paint13_linear_14122_282626" x1="63.8903" y1="30.5553" x2="63.8903" y2="97.2226" gradientUnits="userSpaceOnUse">
            <stop offset="0.85" stop-color="#FFA54D" stop-opacity="0"/>
            <stop offset="1" stop-color="#FFA54D"/>
        </linearGradient>
        <linearGradient id="paint14_linear_14122_282626" x1="63.8903" y1="30.5553" x2="63.8903" y2="97.2226" gradientUnits="userSpaceOnUse">
            <stop stop-color="#FFF3DA"/>
            <stop offset="0.15" stop-color="#FFF3DA" stop-opacity="0"/>
        </linearGradient>
        <linearGradient id="paint15_linear_14122_282626" x1="62.8328" y1="45.8887" x2="62.8328" y2="87.222" gradientUnits="userSpaceOnUse">
            <stop stop-color="#F89A02"/>
            <stop offset="1" stop-color="#F56600"/>
        </linearGradient>
        <linearGradient id="paint16_linear_14122_282626" x1="62.8328" y1="43.2217" x2="62.8328" y2="84.555" gradientUnits="userSpaceOnUse">
            <stop stop-color="white"/>
            <stop offset="1" stop-color="#FEEABD"/>
        </linearGradient>
        <clipPath id="clip0_14122_282626">
            <rect width="100" height="100" fill="white"/>
        </clipPath>
    </defs>
</svg>
