<svg width="125" height="125" viewBox="0 0 125 125" fill="none" xmlns="http://www.w3.org/2000/svg">
    <g clip-path="url(#clip0_15793_318365)">
        <path d="M76.4515 90.0226L112.568 58.9011C114.141 57.8933 115.641 58.9011 114.681 60.63L103.154 83.2988H123.71C123.71 83.2988 126.976 83.2988 123.71 85.9883L88.17 117.302C85.6726 119.415 83.9437 118.262 85.6726 114.996L96.8148 92.9042H76.4515C76.4515 92.9042 73.1857 92.9042 76.4515 90.0226Z" fill="white"/>
        <path d="M76.4515 90.0226L112.568 58.9011C114.141 57.8933 115.641 58.9011 114.681 60.63L103.154 83.2988H123.71C123.71 83.2988 126.976 83.2988 123.71 85.9883L88.17 117.302C85.6726 119.415 83.9437 118.262 85.6726 114.996L96.8148 92.9042H76.4515C76.4515 92.9042 73.1857 92.9042 76.4515 90.0226Z" fill="url(#paint0_linear_15793_318365)"/>
        <path d="M76.4515 90.0226L112.568 58.9011C114.141 57.8933 115.641 58.9011 114.681 60.63L103.154 83.2988H123.71C123.71 83.2988 126.976 83.2988 123.71 85.9883L88.17 117.302C85.6726 119.415 83.9437 118.262 85.6726 114.996L96.8148 92.9042H76.4515C76.4515 92.9042 73.1857 92.9042 76.4515 90.0226Z" fill="url(#paint1_linear_15793_318365)"/>
        <path d="M76.4515 90.0226L112.568 58.9011C114.141 57.8933 115.641 58.9011 114.681 60.63L103.154 83.2988H123.71C123.71 83.2988 126.976 83.2988 123.71 85.9883L88.17 117.302C85.6726 119.415 83.9437 118.262 85.6726 114.996L96.8148 92.9042H76.4515C76.4515 92.9042 73.1857 92.9042 76.4515 90.0226Z" fill="#EFEFF8"/>
        <path d="M76.4515 90.0226L112.568 58.9011C114.141 57.8933 115.641 58.9011 114.681 60.63L103.154 83.2988H123.71C123.71 83.2988 126.976 83.2988 123.71 85.9883L88.17 117.302C85.6726 119.415 83.9437 118.262 85.6726 114.996L96.8148 92.9042H76.4515C76.4515 92.9042 73.1857 92.9042 76.4515 90.0226Z" fill="#8686CB"/>
        <path d="M76.4515 90.0226L112.568 58.9011C114.141 57.8933 115.641 58.9011 114.681 60.63L103.154 83.2988H123.71C123.71 83.2988 126.976 83.2988 123.71 85.9883L88.17 117.302C85.6726 119.415 83.9437 118.262 85.6726 114.996L96.8148 92.9042H76.4515C76.4515 92.9042 73.1857 92.9042 76.4515 90.0226Z" fill="url(#paint2_linear_15793_318365)"/>
        <path d="M76.4515 90.0226L112.568 58.9011C114.141 57.8933 115.641 58.9011 114.681 60.63L103.154 83.2988H123.71C123.71 83.2988 126.976 83.2988 123.71 85.9883L88.17 117.302C85.6726 119.415 83.9437 118.262 85.6726 114.996L96.8148 92.9042H76.4515C76.4515 92.9042 73.1857 92.9042 76.4515 90.0226Z" fill="url(#paint3_linear_15793_318365)"/>
        <path d="M76.4515 90.0226L112.568 58.9011C114.141 57.8933 115.641 58.9011 114.681 60.63L103.154 83.2988H123.71C123.71 83.2988 126.976 83.2988 123.71 85.9883L88.17 117.302C85.6726 119.415 83.9437 118.262 85.6726 114.996L96.8148 92.9042H76.4515C76.4515 92.9042 73.1857 92.9042 76.4515 90.0226Z" fill="url(#paint4_linear_15793_318365)"/>
        <path d="M31.3582 6.09416C40.8152 2.69203 51.1173 2.42686 60.7371 5.33733C70.3568 8.24791 78.7835 14.1801 84.7683 22.2543C90.7519 30.327 93.9763 40.1122 93.9646 50.1605V57.1761C93.9646 61.5179 92.2398 65.6822 89.1697 68.7523C86.0997 71.8221 81.936 73.5472 77.5945 73.5472C73.2529 73.5471 69.0883 71.8223 66.0183 68.7523C65.2824 68.0163 64.6247 67.2167 64.0486 66.3675C63.9425 66.478 63.8358 66.5881 63.7273 66.6966C59.3415 71.0825 53.3927 73.5462 47.1902 73.5462C40.9879 73.5461 35.0398 71.0823 30.6541 66.6966C26.2684 62.3108 23.8035 56.362 23.8035 50.1596C23.8037 43.9573 26.2684 38.0091 30.6541 33.6234C35.0398 29.2378 40.9879 26.773 47.1902 26.7729C53.3927 26.7729 59.3415 29.2377 63.7273 33.6234C68.095 37.9912 70.5557 43.9086 70.576 50.0834C70.5764 50.1091 70.5779 50.1348 70.5779 50.1605V57.1761C70.5779 59.0368 71.318 60.8214 72.6336 62.1371C73.9492 63.4527 75.7339 64.1926 77.5945 64.1927C79.4551 64.1927 81.2398 63.4527 82.5554 62.1371C83.8711 60.8213 84.6101 59.0368 84.6101 57.1761V50.1547C84.6204 42.1143 82.0405 34.2841 77.2527 27.8246C72.4649 21.3654 65.7238 16.6199 58.0281 14.2914C50.3323 11.9631 42.0908 12.1752 34.5252 14.8969C26.9596 17.6187 20.471 22.7044 16.0222 29.4018C11.5735 36.0992 9.40062 44.0523 9.82498 52.0814C10.2494 60.1105 13.2488 67.7897 18.3787 73.9808C23.5087 80.1719 30.4971 84.5464 38.3074 86.4554C46.1177 88.3643 54.3356 87.7061 61.7429 84.5794C64.1227 83.5749 66.8672 84.69 67.8718 87.0697C68.8763 89.4494 67.7612 92.1929 65.3816 93.1976C56.1224 97.106 45.8497 97.9285 36.0867 95.5423C26.3237 93.156 17.5881 87.6884 11.1756 79.9496C4.7632 72.2108 1.01378 62.6118 0.483186 52.5756C-0.0472772 42.5391 2.66929 32.5978 8.23026 24.226C13.7912 15.8543 21.9012 9.49638 31.3582 6.09416ZM47.1902 36.1283C43.4689 36.1284 39.8997 37.6063 37.2683 40.2377C34.637 42.869 33.1591 46.4383 33.159 50.1596C33.159 53.881 34.637 57.4509 37.2683 60.0824C39.8997 62.7137 43.4689 64.1916 47.1902 64.1918C50.9117 64.1918 54.4816 62.7139 57.1131 60.0824C59.7445 57.4509 61.2224 53.881 61.2224 50.1596C61.2223 46.4383 59.7444 42.869 57.1131 40.2377C54.4816 37.6063 50.9116 36.1283 47.1902 36.1283Z" fill="url(#paint5_linear_15793_318365)"/>
        <path d="M31.3582 6.09416C40.8152 2.69203 51.1173 2.42686 60.7371 5.33733C70.3568 8.24791 78.7835 14.1801 84.7683 22.2543C90.7519 30.327 93.9763 40.1122 93.9646 50.1605V57.1761C93.9646 61.5179 92.2398 65.6822 89.1697 68.7523C86.0997 71.8221 81.936 73.5472 77.5945 73.5472C73.2529 73.5471 69.0883 71.8223 66.0183 68.7523C65.2824 68.0163 64.6247 67.2167 64.0486 66.3675C63.9425 66.478 63.8358 66.5881 63.7273 66.6966C59.3415 71.0825 53.3927 73.5462 47.1902 73.5462C40.9879 73.5461 35.0398 71.0823 30.6541 66.6966C26.2684 62.3108 23.8035 56.362 23.8035 50.1596C23.8037 43.9573 26.2684 38.0091 30.6541 33.6234C35.0398 29.2378 40.9879 26.773 47.1902 26.7729C53.3927 26.7729 59.3415 29.2377 63.7273 33.6234C68.095 37.9912 70.5557 43.9086 70.576 50.0834C70.5764 50.1091 70.5779 50.1348 70.5779 50.1605V57.1761C70.5779 59.0368 71.318 60.8214 72.6336 62.1371C73.9492 63.4527 75.7339 64.1926 77.5945 64.1927C79.4551 64.1927 81.2398 63.4527 82.5554 62.1371C83.8711 60.8213 84.6101 59.0368 84.6101 57.1761V50.1547C84.6204 42.1143 82.0405 34.2841 77.2527 27.8246C72.4649 21.3654 65.7238 16.6199 58.0281 14.2914C50.3323 11.9631 42.0908 12.1752 34.5252 14.8969C26.9596 17.6187 20.471 22.7044 16.0222 29.4018C11.5735 36.0992 9.40062 44.0523 9.82498 52.0814C10.2494 60.1105 13.2488 67.7897 18.3787 73.9808C23.5087 80.1719 30.4971 84.5464 38.3074 86.4554C46.1177 88.3643 54.3356 87.7061 61.7429 84.5794C64.1227 83.5749 66.8672 84.69 67.8718 87.0697C68.8763 89.4494 67.7612 92.1929 65.3816 93.1976C56.1224 97.106 45.8497 97.9285 36.0867 95.5423C26.3237 93.156 17.5881 87.6884 11.1756 79.9496C4.7632 72.2108 1.01378 62.6118 0.483186 52.5756C-0.0472772 42.5391 2.66929 32.5978 8.23026 24.226C13.7912 15.8543 21.9012 9.49638 31.3582 6.09416ZM47.1902 36.1283C43.4689 36.1284 39.8997 37.6063 37.2683 40.2377C34.637 42.869 33.1591 46.4383 33.159 50.1596C33.159 53.881 34.637 57.4509 37.2683 60.0824C39.8997 62.7137 43.4689 64.1916 47.1902 64.1918C50.9117 64.1918 54.4816 62.7139 57.1131 60.0824C59.7445 57.4509 61.2224 53.881 61.2224 50.1596C61.2223 46.4383 59.7444 42.869 57.1131 40.2377C54.4816 37.6063 50.9116 36.1283 47.1902 36.1283Z" fill="url(#paint6_linear_15793_318365)"/>
    </g>
    <defs>
        <linearGradient id="paint0_linear_15793_318365" x1="100.081" y1="58.5" x2="100.081" y2="118.37" gradientUnits="userSpaceOnUse">
            <stop stop-color="#F7BC1A"/>
            <stop offset="1" stop-color="#FF6A00"/>
        </linearGradient>
        <linearGradient id="paint1_linear_15793_318365" x1="100.081" y1="58.5003" x2="100.081" y2="118.37" gradientUnits="userSpaceOnUse">
            <stop stop-color="#EFEFF8"/>
            <stop offset="1" stop-color="#C9C9F9"/>
        </linearGradient>
        <linearGradient id="paint2_linear_15793_318365" x1="100.081" y1="58.5" x2="100.081" y2="118.37" gradientUnits="userSpaceOnUse">
            <stop stop-color="#8686CB"/>
            <stop offset="1" stop-color="#4E4EB8"/>
        </linearGradient>
        <linearGradient id="paint3_linear_15793_318365" x1="100.081" y1="58.5" x2="100.081" y2="118.37" gradientUnits="userSpaceOnUse">
            <stop stop-color="#4EBEFF"/>
            <stop offset="1" stop-color="#4E9EFF"/>
        </linearGradient>
        <linearGradient id="paint4_linear_15793_318365" x1="100.081" y1="58.5" x2="100.081" y2="118.37" gradientUnits="userSpaceOnUse">
            <stop stop-color="#F7BC1A"/>
            <stop offset="1" stop-color="#FF6A00"/>
        </linearGradient>
        <linearGradient id="paint5_linear_15793_318365" x1="47.1921" y1="3.33342" x2="47.1921" y2="96.88" gradientUnits="userSpaceOnUse">
            <stop stop-color="#EFEFF8"/>
            <stop offset="1" stop-color="#C9C9F9"/>
        </linearGradient>
        <linearGradient id="paint6_linear_15793_318365" x1="47.1913" y1="3.33301" x2="47.1913" y2="96.8796" gradientUnits="userSpaceOnUse">
            <stop stop-color="#8686CB"/>
            <stop offset="1" stop-color="#4E4EB8"/>
        </linearGradient>
        <clipPath id="clip0_15793_318365">
            <rect width="125" height="125" fill="white"/>
        </clipPath>
    </defs>
</svg>
