<svg width="36" height="36" viewBox="0 0 36 36" fill="none" xmlns="http://www.w3.org/2000/svg">
    <path d="M18.1875 4C22.2951 4.00001 25.625 7.32989 25.625 11.4375V15.375H28.0312C29.1185 15.375 30 16.2565 30 17.3438V30.0312C29.9999 31.1185 29.1185 32 28.0312 32H8.34375C7.25653 31.9999 6.37506 31.1185 6.375 30.0312V17.3438C6.375 16.2565 7.25649 15.3751 8.34375 15.375H10.75V11.4375C10.75 7.32992 14.0799 4.00006 18.1875 4ZM18.1865 21.0098C16.7514 21.0099 15.5879 22.1732 15.5879 23.6084C15.5879 25.0436 16.7514 26.2069 18.1865 26.207C19.6218 26.207 20.7851 25.0436 20.7852 23.6084C20.7852 22.1732 19.6218 21.0098 18.1865 21.0098ZM18.1875 7.5C16.0129 7.50006 14.25 9.26292 14.25 11.4375V15.375H22.125V11.4375C22.125 9.26289 20.3621 7.50001 18.1875 7.5Z" fill="white"/>
</svg>
