<svg width="220" height="75" viewBox="0 0 220 75" fill="none" xmlns="http://www.w3.org/2000/svg">
    <g clip-path="url(#clip0_15117_265925)">
        <path d="M74.4995 37.4998C74.4995 58.2105 57.7106 75 37 75C16.2892 75 -0.5 58.2105 -0.5 37.4998C-0.5 16.7892 16.2892 0 37 0C57.7103 0 74.4995 16.7892 74.4995 37.4998Z" fill="url(#paint0_linear_15117_265925)"/>
        <path d="M74.4995 37.4998C74.4995 58.2105 57.7106 75 37 75C16.2892 75 -0.5 58.2105 -0.5 37.4998C-0.5 16.7892 16.2892 0 37 0C57.7103 0 74.4995 16.7892 74.4995 37.4998Z" fill="url(#paint1_linear_15117_265925)"/>
        <path d="M72.9994 37.4997C72.9994 17.6176 56.8819 1.5 37 1.5C17.1177 1.5 1.00003 17.6176 1 37.4997C1 57.3821 17.1177 73.5 37 73.5V75L36.5154 74.9968C16.028 74.7373 -0.5 58.0487 -0.5 37.4997C-0.499967 16.7892 16.2892 0 37 0C57.7103 0 74.4994 16.7892 74.4994 37.4997C74.4994 58.2105 57.7106 75 37 75V73.5C56.8821 73.5 72.9994 57.3821 72.9994 37.4997Z" fill="url(#paint2_linear_15117_265925)"/>
        <path d="M72.9994 37.4997C72.9994 17.6176 56.8819 1.5 37 1.5C17.1177 1.5 1.00003 17.6176 1 37.4997C1 57.3821 17.1177 73.5 37 73.5V75L36.5154 74.9968C16.028 74.7373 -0.5 58.0487 -0.5 37.4997C-0.499967 16.7892 16.2892 0 37 0C57.7103 0 74.4994 16.7892 74.4994 37.4997C74.4994 58.2105 57.7106 75 37 75V73.5C56.8821 73.5 72.9994 57.3821 72.9994 37.4997Z" fill="url(#paint3_linear_15117_265925)"/>
        <path d="M72.9994 37.4997C72.9994 17.6176 56.8819 1.5 37 1.5C17.1177 1.5 1.00003 17.6176 1 37.4997C1 57.3821 17.1177 73.5 37 73.5V75L36.5154 74.9968C16.028 74.7373 -0.5 58.0487 -0.5 37.4997C-0.499967 16.7892 16.2892 0 37 0C57.7103 0 74.4994 16.7892 74.4994 37.4997C74.4994 58.2105 57.7106 75 37 75V73.5C56.8821 73.5 72.9994 57.3821 72.9994 37.4997Z" fill="url(#paint4_linear_15117_265925)"/>
        <path d="M35.4074 49.3171L37.8431 40.1455L43.6098 38.0387L45.0441 32.6486L44.9952 32.5149L39.3187 34.5887L43.4086 19.1885H31.8095L26.4609 39.2861L21.9951 40.9175L20.5195 46.4743L24.9819 44.8443L21.8295 56.6887H52.6993L54.6784 49.3171H35.4074Z" fill="url(#paint5_linear_15117_265925)"/>
        <path d="M34.8078 47.5173L37.2435 38.3457L43.0102 36.2389L44.4445 30.8488L44.3956 30.7151L38.7191 32.7888L42.809 17.3887H31.2099L25.8613 37.4863L21.3955 39.1177L19.9199 44.6745L24.3823 43.0445L21.2299 54.8889H52.0997L54.0787 47.5173H34.8078Z" fill="url(#paint6_linear_15117_265925)"/>
        <path d="M42.809 17.3887L38.7191 32.7889L44.3957 30.7149L44.4446 30.8488L43.0103 36.2389L37.2435 38.3456L34.8077 47.5173H54.0786L52.0996 54.889H21.2298L24.3821 43.0445L19.9199 44.6746L21.3956 39.1176L25.8613 37.4863L31.2101 17.3887H42.809ZM26.3608 37.9425L21.8951 39.5737L20.795 43.7157L25.2584 42.0856L22.0105 54.289H51.6394L53.2964 48.1173H34.0275L36.7439 37.8895L42.5107 35.7821L43.6132 31.6396L37.8437 33.7475L42.0288 17.9887H31.6712L26.3608 37.9425Z" fill="white"/>
    </g>
    <path d="M101.667 50.8337L93.334 42.5003L101.667 34.167L104.001 36.542L99.709 40.8337H111.667V44.167H99.709L104.001 48.4587L101.667 50.8337ZM118.334 40.8337L116.001 38.4587L120.292 34.167H108.334V30.8337H120.292L116.001 26.542L118.334 24.167L126.667 32.5003L118.334 40.8337Z" fill="#8C9FBB"/>
    <g clip-path="url(#clip1_15117_265925)">
        <g clip-path="url(#clip2_15117_265925)">
            <path d="M215.333 35.4164C215.333 54.9766 199.477 70.8333 179.917 70.8333C160.356 70.8333 144.5 54.9766 144.5 35.4164C144.5 15.8565 160.356 0 179.917 0C199.476 0 215.333 15.8565 215.333 35.4164Z" fill="url(#paint7_linear_15117_265925)"/>
            <path d="M215.333 35.4164C215.333 54.9766 199.477 70.8333 179.917 70.8333C160.356 70.8333 144.5 54.9766 144.5 35.4164C144.5 15.8565 160.356 0 179.917 0C199.476 0 215.333 15.8565 215.333 35.4164Z" fill="url(#paint8_linear_15117_265925)"/>
            <path d="M213.916 35.4164C213.916 16.6388 198.694 1.41667 179.917 1.41667C161.139 1.41667 145.917 16.6389 145.917 35.4164C145.917 54.1942 161.139 69.4166 179.917 69.4166V70.8333L179.459 70.8303C160.11 70.5852 144.5 54.8238 144.5 35.4164C144.5 15.8564 160.356 0 179.917 0C199.476 0 215.333 15.8564 215.333 35.4164C215.333 54.9766 199.477 70.8333 179.917 70.8333V69.4166C198.694 69.4166 213.916 54.1942 213.916 35.4164Z" fill="url(#paint9_linear_15117_265925)"/>
            <path d="M213.916 35.4164C213.916 16.6388 198.694 1.41667 179.917 1.41667C161.139 1.41667 145.917 16.6389 145.917 35.4164C145.917 54.1942 161.139 69.4166 179.917 69.4166V70.8333L179.459 70.8303C160.11 70.5852 144.5 54.8238 144.5 35.4164C144.5 15.8564 160.356 0 179.917 0C199.476 0 215.333 15.8564 215.333 35.4164C215.333 54.9766 199.477 70.8333 179.917 70.8333V69.4166C198.694 69.4166 213.916 54.1942 213.916 35.4164Z" fill="url(#paint10_linear_15117_265925)"/>
            <path d="M213.916 35.4164C213.916 16.6388 198.694 1.41667 179.917 1.41667C161.139 1.41667 145.917 16.6389 145.917 35.4164C145.917 54.1942 161.139 69.4166 179.917 69.4166V70.8333L179.459 70.8303C160.11 70.5852 144.5 54.8238 144.5 35.4164C144.5 15.8564 160.356 0 179.917 0C199.476 0 215.333 15.8564 215.333 35.4164C215.333 54.9766 199.477 70.8333 179.917 70.8333V69.4166C198.694 69.4166 213.916 54.1942 213.916 35.4164Z" fill="url(#paint11_linear_15117_265925)"/>
            <path d="M178.414 46.5778L180.715 37.9158L186.161 35.926L187.516 30.8354L187.469 30.7091L182.108 32.6677L185.971 18.123H175.016L169.965 37.1041L165.747 38.6449L164.354 43.893L168.568 42.3535L165.591 53.5399H194.746L196.615 46.5778H178.414Z" fill="url(#paint12_linear_15117_265925)"/>
            <path d="M177.846 44.8776L180.146 36.2156L185.593 34.2258L186.947 29.1352L186.901 29.0089L181.54 30.9675L185.403 16.4229H174.448L169.396 35.4039L165.179 36.9447L163.785 42.1928L168 40.6533L165.022 51.8397H194.177L196.046 44.8776H177.846Z" fill="url(#paint13_linear_15117_265925)"/>
            <path d="M185.403 16.4229L181.54 30.9675L186.901 29.0088L186.947 29.1352L185.593 34.2258L180.146 36.2155L177.846 44.8776H196.046L194.177 51.8398H165.022L167.999 40.6534L163.785 42.1929L165.179 36.9446L169.396 35.404L174.448 16.4229H185.403ZM169.868 35.8348L165.651 37.3754L164.612 41.2873L168.827 39.7478L165.76 51.2731H193.742L195.307 45.4443H177.109L179.675 35.7847L185.121 33.7944L186.162 29.882L180.713 31.8728L184.666 16.9895H174.884L169.868 35.8348Z" fill="white"/>
            <path d="M186.166 58.3337C186.166 54.4588 186.166 52.5213 186.592 50.9318C187.748 46.6181 191.117 43.2488 195.431 42.0929C197.02 41.667 198.958 41.667 202.833 41.667C206.708 41.667 208.645 41.667 210.235 42.0929C214.548 43.2488 217.918 46.6181 219.073 50.9318C219.499 52.5213 219.499 54.4588 219.499 58.3337C219.499 62.2085 219.499 64.146 219.073 65.7356C217.918 70.0492 214.548 73.4186 210.235 74.5744C208.645 75.0003 206.708 75.0003 202.833 75.0003C198.958 75.0003 197.02 75.0003 195.431 74.5744C191.117 73.4186 187.748 70.0492 186.592 65.7356C186.166 64.146 186.166 62.2085 186.166 58.3337Z" fill="#D9D9D9"/>
            <path d="M186.166 58.3337C186.166 54.4588 186.166 52.5213 186.592 50.9318C187.748 46.6181 191.117 43.2488 195.431 42.0929C197.02 41.667 198.958 41.667 202.833 41.667C206.708 41.667 208.645 41.667 210.235 42.0929C214.548 43.2488 217.918 46.6181 219.073 50.9318C219.499 52.5213 219.499 54.4588 219.499 58.3337C219.499 62.2085 219.499 64.146 219.073 65.7356C217.918 70.0492 214.548 73.4186 210.235 74.5744C208.645 75.0003 206.708 75.0003 202.833 75.0003C198.958 75.0003 197.02 75.0003 195.431 74.5744C191.117 73.4186 187.748 70.0492 186.592 65.7356C186.166 64.146 186.166 62.2085 186.166 58.3337Z" fill="white"/>
            <path d="M217.416 58.3337C217.416 54.3252 217.399 52.7291 217.062 51.4713C216.099 47.8766 213.29 45.0675 209.695 44.1043C208.437 43.7674 206.841 43.7503 202.833 43.7503C198.824 43.7503 197.228 43.7674 195.97 44.1043C192.376 45.0675 189.567 47.8766 188.603 51.4713C188.266 52.7291 188.249 54.3252 188.249 58.3337C188.249 62.3421 188.266 63.9383 188.603 65.196C189.567 68.7908 192.376 71.5998 195.97 72.563C197.228 72.8999 198.824 72.917 202.833 72.917V75.0003C199.442 75.0003 197.534 75.0009 196.046 74.7155L195.431 74.5751C191.118 73.4193 187.747 70.0488 186.591 65.7352C186.165 64.1457 186.166 62.2081 186.166 58.3337C186.166 54.9427 186.165 53.0353 186.451 51.5465L186.591 50.9321C187.675 46.8879 190.705 43.6725 194.634 42.3343L195.431 42.0922C197.021 41.6664 198.958 41.667 202.833 41.667C206.707 41.667 208.645 41.6664 210.234 42.0922C214.548 43.248 217.918 46.6185 219.074 50.9321C219.5 52.5216 219.499 54.4592 219.499 58.3337C219.499 62.2081 219.5 64.1457 219.074 65.7352L218.832 66.5327C217.494 70.4617 214.278 73.4915 210.234 74.5751L209.62 74.7155C208.131 75.0009 206.224 75.0003 202.833 75.0003V72.917C206.841 72.917 208.437 72.8999 209.695 72.563C213.29 71.5998 216.099 68.7908 217.062 65.196C217.399 63.9383 217.416 62.3421 217.416 58.3337Z" fill="#233461"/>
            <path d="M199.215 50.942C201.185 49.3278 203.636 49.5915 205.496 51.1169C205.786 51.3547 206.477 52.0028 207.127 52.6448C207.455 52.9685 207.777 53.2972 208.041 53.5766C208.295 53.8461 208.52 54.0976 208.627 54.2582C208.757 54.4542 208.847 54.6885 208.846 54.9417C208.845 55.203 208.746 55.4494 208.558 55.6558L208.541 55.6742L208.523 55.6904L208.429 55.7718L208.397 55.7962C208.022 56.0603 207.451 56.081 207.062 55.7657L207.052 55.7576C206.561 55.3355 206.049 54.7727 205.544 54.2378C205.029 53.6915 204.508 53.1616 203.968 52.7506C203.427 52.3393 202.899 52.0725 202.371 52.0162C201.858 51.9618 201.291 52.0987 200.654 52.596C199.807 53.2568 199.466 53.8787 199.392 54.4392C199.317 55.0078 199.504 55.6002 199.889 56.2255C200.273 56.8512 200.831 57.4704 201.433 58.0748C201.723 58.3666 202.034 58.6638 202.334 58.9537L203.17 59.7879L203.229 59.8509L203.258 59.9323C203.448 60.4546 203.336 60.9865 202.914 61.273C202.509 61.5475 201.969 61.4923 201.518 61.1876C200.818 60.7128 200.178 59.9268 199.583 59.265C198.958 58.5695 198.364 57.9865 197.697 57.729C197.161 57.522 196.721 57.4673 196.324 57.5337C195.926 57.6003 195.526 57.7958 195.081 58.1623C194.405 58.7194 194.029 59.3663 193.94 60.0178C193.851 60.6651 194.037 61.3716 194.583 62.0706C194.914 62.4943 195.52 63.0193 196.153 63.5903C196.461 63.8674 196.77 64.1515 197.034 64.4245C197.294 64.6932 197.534 64.9747 197.683 65.2464C197.966 65.7587 197.906 66.3312 197.533 66.6787C197.15 67.0349 196.572 67.0326 196.092 66.6726C195.642 66.3331 194.781 65.4915 193.995 64.6401C193.598 64.2102 193.211 63.7688 192.896 63.3747C192.59 62.9912 192.326 62.6199 192.2 62.3411C190.59 58.7653 193.629 55.0677 197.242 55.3527C197.065 53.5977 197.88 52.0368 199.215 50.942ZM208.344 49.8311C208.784 49.5859 209.322 49.7257 209.756 50.061L210.195 50.4313C210.677 50.8628 211.272 51.464 211.823 52.0813C212.547 52.893 213.257 53.7968 213.528 54.4209L213.664 54.7708C214.853 58.1792 211.859 61.5535 208.446 61.2934C208.598 62.663 208.057 64.0092 207.172 65.0165C206.16 66.1679 204.646 66.9347 203.069 66.7845C201.692 66.653 200.608 65.9024 199.679 65.045C199.214 64.616 198.774 64.1473 198.355 63.7043C197.93 63.2565 197.525 62.8339 197.112 62.4734L197.059 62.4286L197.024 62.3676C196.748 61.8854 196.84 61.3516 197.15 61.0086C197.465 60.6607 197.993 60.5252 198.493 60.799L198.532 60.8214L198.564 60.8478C199.069 61.278 199.594 61.8504 200.112 62.394C200.641 62.9487 201.174 63.4856 201.726 63.8975C202.278 64.3099 202.817 64.571 203.353 64.6157C203.874 64.6589 204.45 64.5033 205.099 63.9708C205.914 63.3011 206.237 62.6834 206.301 62.1316C206.366 61.5722 206.176 60.9949 205.793 60.388C205.409 59.7807 204.857 59.1822 204.261 58.5936C203.681 58.022 203.03 57.4338 202.533 56.9091L202.483 56.8542L202.454 56.785C202.254 56.3142 202.354 55.8139 202.664 55.4911C202.944 55.1987 203.368 55.0819 203.795 55.2286L203.976 55.3079L204.017 55.3283L204.051 55.3568C204.555 55.7812 205.077 56.3498 205.591 56.8928C206.116 57.4471 206.644 57.9862 207.192 58.4024C207.741 58.8191 208.276 59.0871 208.81 59.1389C209.327 59.1888 209.9 59.0405 210.547 58.5204C211.382 57.8488 211.713 57.2278 211.78 56.6711C211.848 56.1062 211.655 55.5204 211.267 54.9031C210.879 54.2853 210.32 53.6751 209.719 53.0741C209.133 52.4883 208.486 51.8897 207.992 51.3488L207.921 51.2715L207.894 51.1678C207.763 50.6336 207.883 50.0891 208.344 49.8311ZM196.733 64.7154C196.987 64.9776 197.195 65.2258 197.317 65.4478C197.256 65.3368 197.176 65.2185 197.077 65.0958C196.978 64.9733 196.86 64.8464 196.733 64.7154ZM213.143 54.5877C213.601 55.6424 213.605 56.7135 213.286 57.6659C213.35 57.4756 213.401 57.2807 213.438 57.082C213.457 56.9826 213.472 56.882 213.483 56.7809C213.506 56.5782 213.515 56.3723 213.507 56.1645C213.49 55.6462 213.372 55.1148 213.143 54.5877ZM197.405 55.7861C197.515 55.7995 197.625 55.8172 197.736 55.8389L197.734 55.8369C197.624 55.8154 197.514 55.7994 197.405 55.7861ZM208.417 55.0536C208.395 55.1652 208.341 55.2739 208.248 55.3751C208.31 55.3074 208.357 55.2365 208.387 55.1635C208.401 55.1268 208.412 55.0892 208.419 55.0516L208.417 55.0536ZM203.119 50.3703C203.859 50.5397 204.579 50.905 205.229 51.4384C205.012 51.2607 204.79 51.1015 204.56 50.9623C204.445 50.8927 204.328 50.8287 204.21 50.769C203.974 50.6497 203.734 50.5499 203.49 50.472C203.368 50.433 203.243 50.3986 203.119 50.3703ZM208.975 50.1383C209.138 50.1686 209.317 50.2499 209.5 50.3906C209.408 50.32 209.319 50.2637 209.231 50.2217C209.099 50.1591 208.972 50.1279 208.857 50.1241C208.895 50.1253 208.934 50.1309 208.975 50.1383Z" fill="black"/>
        </g>
    </g>
    <defs>
        <linearGradient id="paint0_linear_15117_265925" x1="36.9998" y1="0" x2="36.9998" y2="75" gradientUnits="userSpaceOnUse">
            <stop stop-color="#1C60CA"/>
            <stop offset="1" stop-color="#002394"/>
        </linearGradient>
        <linearGradient id="paint1_linear_15117_265925" x1="36.9998" y1="0" x2="36.9998" y2="75" gradientUnits="userSpaceOnUse">
            <stop offset="0.725084" stop-color="#000E6C" stop-opacity="0"/>
            <stop offset="1" stop-color="#000E6C" stop-opacity="0.3"/>
        </linearGradient>
        <linearGradient id="paint2_linear_15117_265925" x1="36.9998" y1="0" x2="36.9998" y2="75" gradientUnits="userSpaceOnUse">
            <stop stop-color="#2974ED"/>
            <stop offset="1" stop-color="#0031C9"/>
        </linearGradient>
        <linearGradient id="paint3_linear_15117_265925" x1="36.9998" y1="0" x2="36.9998" y2="75" gradientUnits="userSpaceOnUse">
            <stop offset="0.85" stop-color="#0059AD" stop-opacity="0"/>
            <stop offset="1" stop-color="#0059AD"/>
        </linearGradient>
        <linearGradient id="paint4_linear_15117_265925" x1="36.9998" y1="0" x2="36.9998" y2="75" gradientUnits="userSpaceOnUse">
            <stop stop-color="#5294FF"/>
            <stop offset="0.15" stop-color="#5294FF" stop-opacity="0"/>
        </linearGradient>
        <linearGradient id="paint5_linear_15117_265925" x1="37.5989" y1="19.1885" x2="37.5989" y2="56.6887" gradientUnits="userSpaceOnUse">
            <stop stop-color="#063ABA"/>
            <stop offset="1" stop-color="#002A9C"/>
        </linearGradient>
        <linearGradient id="paint6_linear_15117_265925" x1="36.9993" y1="17.3887" x2="36.9993" y2="54.8889" gradientUnits="userSpaceOnUse">
            <stop stop-color="white"/>
            <stop offset="1" stop-color="#C7DCFF"/>
        </linearGradient>
        <linearGradient id="paint7_linear_15117_265925" x1="179.916" y1="0" x2="179.916" y2="70.8333" gradientUnits="userSpaceOnUse">
            <stop stop-color="#1C60CA"/>
            <stop offset="1" stop-color="#002394"/>
        </linearGradient>
        <linearGradient id="paint8_linear_15117_265925" x1="179.916" y1="0" x2="179.916" y2="70.8333" gradientUnits="userSpaceOnUse">
            <stop offset="0.725084" stop-color="#000E6C" stop-opacity="0"/>
            <stop offset="1" stop-color="#000E6C" stop-opacity="0.3"/>
        </linearGradient>
        <linearGradient id="paint9_linear_15117_265925" x1="179.916" y1="0" x2="179.916" y2="70.8333" gradientUnits="userSpaceOnUse">
            <stop stop-color="#2974ED"/>
            <stop offset="1" stop-color="#0031C9"/>
        </linearGradient>
        <linearGradient id="paint10_linear_15117_265925" x1="179.916" y1="0" x2="179.916" y2="70.8333" gradientUnits="userSpaceOnUse">
            <stop offset="0.85" stop-color="#0059AD" stop-opacity="0"/>
            <stop offset="1" stop-color="#0059AD"/>
        </linearGradient>
        <linearGradient id="paint11_linear_15117_265925" x1="179.916" y1="0" x2="179.916" y2="70.8333" gradientUnits="userSpaceOnUse">
            <stop stop-color="#5294FF"/>
            <stop offset="0.15" stop-color="#5294FF" stop-opacity="0"/>
        </linearGradient>
        <linearGradient id="paint12_linear_15117_265925" x1="180.484" y1="18.123" x2="180.484" y2="53.5399" gradientUnits="userSpaceOnUse">
            <stop stop-color="#063ABA"/>
            <stop offset="1" stop-color="#002A9C"/>
        </linearGradient>
        <linearGradient id="paint13_linear_15117_265925" x1="179.916" y1="16.4229" x2="179.916" y2="51.8397" gradientUnits="userSpaceOnUse">
            <stop stop-color="white"/>
            <stop offset="1" stop-color="#C7DCFF"/>
        </linearGradient>
        <clipPath id="clip0_15117_265925">
            <rect width="75" height="75" fill="white"/>
        </clipPath>
        <clipPath id="clip1_15117_265925">
            <rect width="75" height="75" fill="white" transform="translate(145)"/>
        </clipPath>
        <clipPath id="clip2_15117_265925">
            <rect width="75" height="75" fill="white" transform="translate(144.5)"/>
        </clipPath>
    </defs>
</svg>
