<svg width="13" height="13" viewBox="0 0 13 13" fill="none" xmlns="http://www.w3.org/2000/svg">
    <path fill-rule="evenodd" clip-rule="evenodd" d="M6.4152 12.8304C9.95821 12.8304 12.8304 9.95821 12.8304 6.4152C12.8304 2.87218 9.95821 0 6.4152 0C2.87218 0 0 2.87218 0 6.4152C0 9.95821 2.87218 12.8304 6.4152 12.8304ZM1.35423 3.48371C0.828776 4.37791 0.566049 5.35505 0.566049 6.4152C0.566049 7.47071 0.82647 8.44789 1.34732 9.3467C1.87277 10.2409 2.5826 10.9507 3.4768 11.4762C4.37559 12.0016 5.35505 12.2644 6.4152 12.2644C7.47071 12.2644 8.44558 12.0039 9.33978 11.4831C10.2386 10.9576 10.9507 10.2478 11.4762 9.35361C12.0016 8.45481 12.2644 7.47535 12.2644 6.4152C12.2644 5.35969 12.0016 4.38482 11.4762 3.49062C10.9553 2.59182 10.2455 1.87969 9.3467 1.35423C8.45249 0.828776 7.47535 0.566049 6.4152 0.566049C5.35969 0.566049 4.38251 0.828776 3.48371 1.35423C2.58951 1.87508 1.87969 2.58491 1.35423 3.48371ZM5.63394 5.62011C5.42191 5.83213 5.31588 6.09715 5.31588 6.4152C5.31588 6.72862 5.42191 6.99136 5.63394 7.20338C5.85056 7.4154 6.11098 7.52143 6.4152 7.52143C6.72402 7.52143 6.98444 7.4154 7.19647 7.20338C7.41312 6.98676 7.52143 6.72402 7.52143 6.4152C7.52143 6.10638 7.4154 5.84364 7.20338 5.62702C6.99136 5.40577 6.72862 5.29514 6.4152 5.29514C6.10638 5.29514 5.84596 5.40345 5.63394 5.62011ZM1.98339 8.97333C1.52247 8.18056 1.29201 7.32783 1.29201 6.4152C1.29201 5.5118 1.51556 4.66831 1.96265 3.88472C2.41436 3.09653 3.03661 2.46737 3.82941 1.99722C4.62219 1.52708 5.48414 1.29201 6.4152 1.29201C7.33706 1.29201 8.19438 1.52477 8.98716 1.99031C9.78457 2.45585 10.4091 3.0827 10.8608 3.8709C11.3172 4.65448 11.5453 5.50257 11.5453 6.4152C11.5453 7.33706 11.3125 8.19207 10.847 8.98025C10.3861 9.76842 9.76151 10.393 8.97333 10.8539C8.18515 11.3102 7.33243 11.5384 6.4152 11.5384C5.50716 11.5384 4.65676 11.3079 3.86398 10.847C3.07118 10.3861 2.44432 9.76151 1.98339 8.97333Z" fill="#F75394"/>
</svg>
