<svg width="36" height="36" viewBox="0 0 36 36" fill="none" xmlns="http://www.w3.org/2000/svg">
    <path d="M26.5033 36C23.8756 36 21.6349 35.074 19.7813 33.222C17.9273 31.37 17.0003 29.1303 17.0003 26.503C17.0003 23.8753 17.9263 21.6347 19.7783 19.781C21.6303 17.927 23.8699 17 26.4973 17C29.1249 17 31.3656 17.926 33.2193 19.778C35.0733 21.63 36.0003 23.8697 36.0003 26.497C36.0003 29.1247 35.0743 31.3653 33.2223 33.219C31.3703 35.073 29.1306 36 26.5033 36ZM33.3963 12.6155H30.2848C29.3668 9.7975 27.7073 7.49033 25.3063 5.694C22.9049 3.898 20.1363 3 17.0003 3C13.1003 3 9.79192 4.35833 7.07525 7.075C4.35859 9.79167 3.00025 13.1 3.00025 17C3.00025 19.605 3.64125 21.9685 4.92325 24.0905C6.20525 26.2122 7.89758 27.8678 10.0003 29.0575V23H13.0003V34H2.00025V31H7.66175C5.35175 29.5 3.49725 27.5288 2.09825 25.0865C0.699585 22.6442 0.00025177 19.9487 0.00025177 17C0.00025177 14.64 0.446419 12.4295 1.33875 10.3685C2.23109 8.3075 3.44392 6.51033 4.97725 4.977C6.51058 3.44367 8.30775 2.23083 10.3688 1.3385C12.4298 0.446168 14.6403 0 17.0003 0C20.9539 0 24.4341 1.19033 27.4408 3.571C30.4471 5.952 32.4323 8.96683 33.3963 12.6155Z" fill="white"/>
</svg>
