<svg width="18" height="17" viewBox="0 0 18 17" fill="none" xmlns="http://www.w3.org/2000/svg">
    <path d="M1.80775 17C1.30258 17 0.875 16.825 0.525 16.475C0.175 16.125 0 15.6974 0 15.1923V1.80775C0 1.30258 0.175 0.875 0.525 0.525C0.875 0.175 1.30258 0 1.80775 0H15.1923C15.6974 0 16.125 0.175 16.475 0.525C16.825 0.875 17 1.30258 17 1.80775V2.5H9.80775C8.81675 2.5 8.01775 2.80358 7.41075 3.41075C6.80358 4.01775 6.5 4.81675 6.5 5.80775V11.1923C6.5 12.1833 6.80358 12.9823 7.41075 13.5893C8.01775 14.1964 8.81675 14.5 9.80775 14.5H17V15.1923C17 15.6974 16.825 16.125 16.475 16.475C16.125 16.825 15.6974 17 15.1923 17H1.80775ZM9.80775 13C9.30258 13 8.875 12.825 8.525 12.475C8.175 12.125 8 11.6974 8 11.1923V5.80775C8 5.30258 8.175 4.875 8.525 4.525C8.875 4.175 9.30258 4 9.80775 4H16.1923C16.6974 4 17.125 4.175 17.475 4.525C17.825 4.875 18 5.30258 18 5.80775V11.1923C18 11.6974 17.825 12.125 17.475 12.475C17.125 12.825 16.6974 13 16.1923 13H9.80775ZM12.5 10C12.9333 10 13.2917 9.85833 13.575 9.575C13.8583 9.29167 14 8.93333 14 8.5C14 8.06667 13.8583 7.70833 13.575 7.425C13.2917 7.14167 12.9333 7 12.5 7C12.0667 7 11.7083 7.14167 11.425 7.425C11.1417 7.70833 11 8.06667 11 8.5C11 8.93333 11.1417 9.29167 11.425 9.575C11.7083 9.85833 12.0667 10 12.5 10Z" fill="white"/>
</svg>
