<svg width="26" height="28" viewBox="0 0 26 28" fill="none" xmlns="http://www.w3.org/2000/svg">
    <path
        d="M10.7692 21.1795C11.4668 21.1795 12.0601 20.9351 12.549 20.4465C13.0377 19.9575 13.2821 19.3643 13.2821 18.6667C13.2821 17.9691 13.0377 17.3758 12.549 16.8869C12.0601 16.3982 11.4668 16.1538 10.7692 16.1538C10.0716 16.1538 9.47836 16.3982 8.98944 16.8869C8.50075 17.3758 8.25641 17.9691 8.25641 18.6667C8.25641 19.3643 8.50075 19.9575 8.98944 20.4465C9.47836 20.9351 10.0716 21.1795 10.7692 21.1795ZM2.59574 28C1.88186 28 1.27077 27.7458 0.762462 27.2375C0.254154 26.7292 0 26.1181 0 25.4043V11.9291C0 11.2152 0.254154 10.6041 0.762462 10.0958C1.27077 9.58749 1.88186 9.33333 2.59574 9.33333H12.9231V6.46154C12.9231 4.66858 13.5518 3.14342 14.8091 1.88605C16.0665 0.628683 17.5917 0 19.3846 0C21.1776 0 22.7027 0.628683 23.9601 1.88605C25.2175 3.14342 25.8462 4.66858 25.8462 6.46154H23.6923C23.6923 5.26496 23.2735 4.24786 22.4359 3.41026C21.5983 2.57265 20.5812 2.15385 19.3846 2.15385C18.188 2.15385 17.1709 2.57265 16.3333 3.41026C15.4957 4.24786 15.0769 5.26496 15.0769 6.46154V9.33333H18.9427C19.6566 9.33333 20.2677 9.58749 20.776 10.0958C21.2843 10.6041 21.5385 11.2152 21.5385 11.9291V25.4043C21.5385 26.1181 21.2843 26.7292 20.776 27.2375C20.2677 27.7458 19.6566 28 18.9427 28H2.59574Z"
        fill="white" />
</svg>
